<svg xmlns="http://www.w3.org/2000/svg" viewBox="0 0 818.351 593.042"><defs><style>.cls-1{fill:#434343}.cls-2{fill:#4f4e51}.cls-3{fill:#323031}.cls-4{fill:#6a5f27}.cls-12,.cls-20,.cls-5{fill:#fff}.cls-10,.cls-14,.cls-15,.cls-16,.cls-17,.cls-6,.cls-7,.cls-8,.cls-9{fill:none}.cls-6{stroke:#fff;stroke-miterlimit:10;stroke-width:5.4021px}.cls-14,.cls-7{stroke:#221f1f}.cls-10,.cls-14,.cls-15,.cls-16,.cls-17,.cls-7,.cls-8,.cls-9{stroke-linecap:round;stroke-linejoin:round}.cls-10,.cls-7,.cls-8,.cls-9{stroke-width:8px}.cls-15,.cls-8{stroke:#e9262a}.cls-9{stroke:#ffde17}.cls-10{stroke:#f7941d}.cls-11{font-size:39.2599px;fill:#010101;letter-spacing:.001em}.cls-11,.cls-12,.cls-20{font-family:Verdana}.cls-12{font-size:16.3067px;letter-spacing:.001em}.cls-13{fill:#221f1f}.cls-14,.cls-15,.cls-16{stroke-width:10.832px}.cls-16{stroke:#babcbe}.cls-17{stroke:#6d6e71;stroke-width:16px}.cls-18{fill:#080505}.cls-19{fill:#cf1f2d}.cls-20{font-size:13.3094px;letter-spacing:.001em}.cls-21{fill:#424143}.cls-22{fill:#59595c}</style></defs><g id="Layer_1" data-name="Layer 1"><path d="M1007.0128-1265.6178,1008.87,129.2256a83.4164,83.4164,0,0,1-83.5271,83.3054H-452.9711a83.4165,83.4165,0,0,1-83.5272-83.3054l-1.8574-1405.4679a83.4165,83.4165,0,0,1,83.5271-83.3054H912.8329c55.6354-4.7866,95.13,24.6312,94.1767,77.7659" class="cls-1"/><rect width="1522.948" height="1491.991" x="-522.743" y="-1319.664" class="cls-2" rx="58.742" transform="translate(812.3997 -334.937) rotate(-90)"/><rect width="824.218" height="92.42" x="13.815" y="82.618" class="cls-3"/><path d="M58.8389,123.8822a5.4343,5.4343,0,1,1-5.4337,5.4343,5.4322,5.4322,0,0,1,5.4337-5.4343" class="cls-4"/><path d="M58.8389,148.2024a5.4343,5.4343,0,1,1-5.4337,5.43,5.4285,5.4285,0,0,1,5.4337-5.43" class="cls-4"/><path d="M58.8389,98.5841a5.4321,5.4321,0,1,1-5.4337,5.43,5.4285,5.4285,0,0,1,5.4337-5.43" class="cls-4"/><path d="M141.0905,123.8822a5.4343,5.4343,0,1,1-5.4333,5.4343,5.4322,5.4322,0,0,1,5.4333-5.4343" class="cls-4"/><path d="M141.0905,148.2024a5.4343,5.4343,0,1,1-5.4333,5.43,5.4285,5.4285,0,0,1,5.4333-5.43" class="cls-4"/><path d="M141.0905,98.5841a5.4321,5.4321,0,1,1-5.4333,5.43,5.4285,5.4285,0,0,1,5.4333-5.43" class="cls-4"/><path d="M223.3421,123.8822a5.4343,5.4343,0,1,1-5.4328,5.4343,5.4321,5.4321,0,0,1,5.4328-5.4343" class="cls-4"/><path d="M223.3421,148.2024a5.4343,5.4343,0,1,1-5.4328,5.43,5.4284,5.4284,0,0,1,5.4328-5.43" class="cls-4"/><path d="M223.3421,98.5841a5.4321,5.4321,0,1,1-5.4328,5.43,5.4284,5.4284,0,0,1,5.4328-5.43" class="cls-4"/><path d="M305.5938,123.8822a5.4343,5.4343,0,1,1-5.4325,5.4343,5.4321,5.4321,0,0,1,5.4325-5.4343" class="cls-4"/><path d="M305.5938,148.2024a5.4343,5.4343,0,1,1-5.4325,5.43,5.4285,5.4285,0,0,1,5.4325-5.43" class="cls-4"/><path d="M305.5938,98.5841a5.4321,5.4321,0,1,1-5.4325,5.43,5.4285,5.4285,0,0,1,5.4325-5.43" class="cls-4"/><path d="M387.8454,123.8822a5.4343,5.4343,0,1,1-5.4321,5.4343,5.4321,5.4321,0,0,1,5.4321-5.4343" class="cls-4"/><path d="M387.8454,148.2024a5.4343,5.4343,0,1,1-5.4321,5.43,5.4285,5.4285,0,0,1,5.4321-5.43" class="cls-4"/><path d="M387.8454,98.5841a5.4321,5.4321,0,1,1-5.4321,5.43,5.4285,5.4285,0,0,1,5.4321-5.43" class="cls-4"/><path d="M470.097,123.8822a5.4343,5.4343,0,1,1-5.4316,5.4343,5.4321,5.4321,0,0,1,5.4316-5.4343" class="cls-4"/><path d="M470.097,148.2024a5.4343,5.4343,0,1,1-5.4316,5.43,5.4285,5.4285,0,0,1,5.4316-5.43" class="cls-4"/><path d="M470.097,98.5841a5.4321,5.4321,0,1,1-5.4316,5.43,5.4285,5.4285,0,0,1,5.4316-5.43" class="cls-4"/><path d="M552.3486,123.8822a5.4343,5.4343,0,1,1-5.4312,5.4343,5.4321,5.4321,0,0,1,5.4312-5.4343" class="cls-4"/><path d="M552.3486,148.2024a5.4343,5.4343,0,1,1-5.4312,5.43,5.4285,5.4285,0,0,1,5.4312-5.43" class="cls-4"/><path d="M552.3486,98.5841a5.4321,5.4321,0,1,1-5.4312,5.43,5.4285,5.4285,0,0,1,5.4312-5.43" class="cls-4"/><path d="M634.6,123.8822a5.4343,5.4343,0,1,1-5.4307,5.4343,5.432,5.432,0,0,1,5.4307-5.4343" class="cls-4"/><path d="M634.6,148.2024a5.4343,5.4343,0,1,1-5.4307,5.43,5.4284,5.4284,0,0,1,5.4307-5.43" class="cls-4"/><path d="M634.6,98.5841a5.4321,5.4321,0,1,1-5.4307,5.43,5.4284,5.4284,0,0,1,5.4307-5.43" class="cls-4"/><path d="M716.8518,123.8822a5.4343,5.4343,0,1,1-5.43,5.4343,5.4321,5.4321,0,0,1,5.43-5.4343" class="cls-4"/><path d="M716.8518,148.2024a5.4343,5.4343,0,1,1-5.43,5.43,5.4285,5.4285,0,0,1,5.43-5.43" class="cls-4"/><path d="M716.8518,98.5841a5.4321,5.4321,0,1,1-5.43,5.43,5.4285,5.4285,0,0,1,5.43-5.43" class="cls-4"/><path d="M799.1034,123.8822a5.4343,5.4343,0,1,1-5.43,5.4343,5.4321,5.4321,0,0,1,5.43-5.4343" class="cls-4"/><path d="M799.1034,148.2024a5.4343,5.4343,0,1,1-5.43,5.43,5.4285,5.4285,0,0,1,5.43-5.43" class="cls-4"/><path d="M799.1034,98.5841a5.4321,5.4321,0,1,1-5.43,5.43,5.4285,5.4285,0,0,1,5.43-5.43" class="cls-4"/><path d="M416.949,13.3473a8.9633,8.9633,0,0,1,3.4872,3.678,11.633,11.633,0,0,1,1.2506,5.484v2.1214a11.61,11.61,0,0,1-1.2506,5.4918,8.9389,8.9389,0,0,1-3.51,3.6721,10.2954,10.2954,0,0,1-5.2093,1.2975h-6.3V12.0479h6.4443A9.9783,9.9783,0,0,1,416.949,13.3473Zm2.8092,9.1308a10.2884,10.2884,0,0,0-.9818-4.6131,7.2523,7.2523,0,0,0-2.77-3.07,7.8417,7.8417,0,0,0-4.1456-1.0851h-4.4962V33.4459h4.352a8.0213,8.0213,0,0,0,4.2586-1.1084,7.3361,7.3361,0,0,0,2.8014-3.1014,10.2955,10.2955,0,0,0,.9818-4.6054Z" class="cls-5"/><path d="M427.0831,35.0921V12.0479h1.9481V35.0921Z" class="cls-5"/><path d="M451.2123,30.3991a8.8037,8.8037,0,0,1-12.5575,3.7033,8.5809,8.5809,0,0,1-3.1676-3.7111,13.085,13.085,0,0,1-1.1221-5.5872V22.3359a13.1515,13.1515,0,0,1,1.1143-5.5872,8.5746,8.5746,0,0,1,3.1521-3.7111,8.4765,8.4765,0,0,1,4.691-1.3053,8.2935,8.2935,0,0,1,7.882,5.0086,13.2561,13.2561,0,0,1,1.1066,5.595v2.4682A13.3111,13.3111,0,0,1,451.2123,30.3991Zm-1.6714-12.8108a6.7287,6.7287,0,0,0-2.4274-3.07,6.6105,6.6105,0,0,0-3.791-1.0773,6.4949,6.4949,0,0,0-3.7365,1.0773,6.807,6.807,0,0,0-2.4273,3.078,12.0174,12.0174,0,0,0-.8494,4.7086v2.4994a11.983,11.983,0,0,0,.8572,4.7242,6.8834,6.8834,0,0,0,2.4429,3.0877,6.497,6.497,0,0,0,3.7443,1.0832,6.6,6.6,0,0,0,3.7988-1.0754,6.6721,6.6721,0,0,0,2.4039-3.078,12.4249,12.4249,0,0,0,.826-4.7417V22.3047A12.0735,12.0735,0,0,0,449.5409,17.5883Z" class="cls-5"/><polyline points="53.404 45.763 53.404 23.405 383.697 23.405" class="cls-6"/><polyline points="474.03 23.403 786.179 23.403 786.179 45.761" class="cls-6"/><line x1="291.742" x2="436.091" y1="389.104" y2="389.104" class="cls-7"/><line x1="291.742" x2="436.514" y1="379.081" y2="379.081" class="cls-8"/><line x1="291.742" x2="436.514" y1="369.651" y2="368.803" class="cls-9"/><line x1="291.53" x2="435.88" y1="431.889" y2="431.889" class="cls-7"/><line x1="291.53" x2="436.303" y1="421.866" y2="421.866" class="cls-8"/><line x1="291.53" x2="436.303" y1="412.435" y2="411.587" class="cls-10"/><text class="cls-11" transform="translate(513.2298 387.0205)">VEX Ultrasonic <tspan x="0" y="47.112">Range Finder</tspan></text><text class="cls-12" transform="translate(391.6501 314.5277) rotate(-90)">VCC</text><rect width="37.605" height="90.1" x="112.325" y="90.439" class="cls-13"/><polyline points="120.401 160.849 120.381 388.975 264.73 388.975" class="cls-14"/><polyline points="131.128 130.037 131.531 378.952 265.153 378.952" class="cls-15"/><polyline points="141.622 111.103 142.026 369.521 265.153 368.674" class="cls-16"/><line x1="297.954" x2="242.747" y1="368.676" y2="368.672" class="cls-17"/><line x1="298.334" x2="243.126" y1="391.033" y2="391.029" class="cls-17"/><line x1="297.954" x2="242.747" y1="378.954" y2="378.95" class="cls-17"/><rect width="37.605" height="90.1" x="41.672" y="92.615" class="cls-13"/><polyline points="49.748 163.026 48.769 431.761 263.961 430.86" class="cls-14"/><polyline points="60.475 132.213 59.919 421.738 264.385 420.837" class="cls-15"/><polyline points="70.969 113.28 70.414 412.307 264.385 410.559" class="cls-16"/><line x1="297.185" x2="241.978" y1="410.562" y2="410.558" class="cls-17"/><line x1="297.565" x2="242.358" y1="432.918" y2="432.914" class="cls-17"/><line x1="297.185" x2="241.978" y1="420.839" y2="420.835" class="cls-17"/><rect width="8.61" height="31.545" x="357.982" y="363.309" class="cls-18" transform="translate(724.5746 758.1625) rotate(180)"/><rect width="8.61" height="31.545" x="357.982" y="405.966" class="cls-18" transform="translate(724.5746 843.476) rotate(180)"/><rect width="122.699" height="213.436" x="364.128" y="293.27" class="cls-19" transform="translate(850.9558 799.9764) rotate(180)"/><text class="cls-20" transform="translate(378.7243 395.1606) rotate(-90)">Input</text><text class="cls-20" transform="translate(379.029 452.5668) rotate(-90)">Output</text><circle cx="426.003" cy="456.186" r="27.156" class="cls-21"/><circle cx="426.003" cy="348.935" r="27.156" class="cls-21"/><rect width="122.699" height="68.994" x="364.128" y="506.706" class="cls-22" transform="translate(850.9558 1082.4062) rotate(180)"/><rect width="122.699" height="65.766" x="364.128" y="227.504" class="cls-22" transform="translate(850.9558 520.7743) rotate(180)"/><rect width="18.239" height="46.099" x="416.884" y="517.877" class="cls-5" rx="6.694" transform="translate(852.0067 1081.8528) rotate(-180)"/><rect width="18.239" height="46.099" x="416.358" y="239.909" class="cls-5" rx="6.694" transform="translate(850.9558 525.9159) rotate(-180)"/></g></svg>