<svg xmlns="http://www.w3.org/2000/svg" viewBox="0 0 1212.432 931.488"><defs><style>.cls-1{fill:#434343}.cls-2{fill:#4f4e51}.cls-3{fill:#424242}.cls-4{fill:#323031}.cls-5{fill:none;stroke:#5a5a5d;stroke-miterlimit:10;stroke-width:26.6644px}.cls-6{font-size:79.9932px}.cls-23,.cls-6{fill:#fff}.cls-24,.cls-6{font-family:Verdana}.cls-7{fill:#51545a}.cls-8{fill:#3c3d42}.cls-9{fill:#6a5f27}.cls-10{opacity:.9}.cls-11{fill:#006654}.cls-12{fill:#3c4852}.cls-13{fill:#788787}.cls-14{fill:#8c8d87}.cls-15{fill:#1b1c1c}.cls-16{fill:#cabca1}.cls-17{fill:#8c7a77}.cls-18{fill:#7d6d65}.cls-19{fill:#303541}.cls-20{fill:#3b424f}.cls-21{font-size:53.7502px;fill:#abbfc2;font-family:Verdana-Bold,Verdana;font-weight:700;letter-spacing:.107em}.cls-22{fill:#d2a364}.cls-24{font-size:80px;fill:#231f20}</style></defs><g id="Layer_1" data-name="Layer 1"><path d="M881.95,4057.5614l-3442.44,4.584c-113.5474,0-205.5957-92.2934-205.5957-206.143V454.3563c0-113.85,92.0483-206.143,205.5957-206.143L908.171,243.6292c113.5474,0,205.5957,92.2934,205.5957,206.1431V3825.1276c11.8133,137.3068-60.7893,234.778-191.9245,232.4258" class="cls-1"/><rect width="3758.599" height="3682.198" x="-2705.064" y="320.363" class="cls-2" rx="144.973"/><path d="M-69.1483,903.5462H-1606.9507a95.9964,95.9964,0,0,1-95.9941-95.9929V411.1016a95.9967,95.9967,0,0,1,95.9941-95.9941H-69.1483a95.9965,95.9965,0,0,1,95.9929,95.9941V807.5533a95.9962,95.9962,0,0,1-95.9929,95.9929" class="cls-3"/><rect width="253.834" height="586.898" x="196.807" y="334.287" class="cls-4"/><rect width="159.938" height="516.264" x="245.912" y="365.134" class="cls-4"/><polyline points="229.075 655.604 229.075 888.514 422.687 888.514 422.687 364.403 229.075 364.403 229.075 593.404" class="cls-5"/><text class="cls-6" transform="translate(666.6637 689.523)">POWER</text><rect width="78.941" height="74.762" x="986.173" y="623.986" class="cls-7"/><rect width="52.2" height="74.762" x="1060.827" y="624.573" class="cls-8"/><text class="cls-6" transform="translate(642.3531 817.3267)">STATUS</text><rect width="78.941" height="74.762" x="986.173" y="751.793" class="cls-7"/><rect width="52.2" height="74.762" x="1060.827" y="752.38" class="cls-8"/><path d="M308.6911,507.2633a13.4116,13.4116,0,1,1-13.4115-13.41,13.4062,13.4062,0,0,1,13.4115,13.41" class="cls-9"/><path d="M371.1262,507.2633a13.4062,13.4062,0,1,1-13.4019-13.41,13.3973,13.3973,0,0,1,13.4019,13.41" class="cls-9"/><path d="M307.4585,565.2665a13.4116,13.4116,0,1,1-13.4116-13.41,13.4063,13.4063,0,0,1,13.4116,13.41" class="cls-9"/><path d="M369.8936,565.2665a13.4062,13.4062,0,1,1-13.402-13.41,13.3974,13.3974,0,0,1,13.402,13.41" class="cls-9"/><path d="M307.4585,623.27a13.4116,13.4116,0,1,1-13.4116-13.41,13.4063,13.4063,0,0,1,13.4116,13.41" class="cls-9"/><path d="M369.8936,623.27a13.4062,13.4062,0,1,1-13.402-13.41,13.3974,13.3974,0,0,1,13.402,13.41" class="cls-9"/><path d="M307.4585,681.2729a13.4116,13.4116,0,1,1-13.4116-13.41,13.4063,13.4063,0,0,1,13.4116,13.41" class="cls-9"/><path d="M369.8936,681.2729a13.4062,13.4062,0,1,1-13.402-13.41,13.3974,13.3974,0,0,1,13.402,13.41" class="cls-9"/><path d="M307.4585,739.2761a13.4116,13.4116,0,1,1-13.4116-13.41,13.4064,13.4064,0,0,1,13.4116,13.41" class="cls-9"/><path d="M368.749,739.2761a13.4062,13.4062,0,1,1-13.402-13.41,13.3974,13.3974,0,0,1,13.402,13.41" class="cls-9"/><g class="cls-10"><rect width="631.268" height="522.646" x="217.742" y="361.726" class="cls-11"/><rect width="175.903" height="241.657" x="449.743" y="485.782" class="cls-12" rx="28.8"/><rect width="33.517" height="13.628" x="413.907" y="498.691" class="cls-13"/><rect width="33.517" height="13.628" x="413.907" y="527.788" class="cls-13"/><rect width="33.517" height="13.628" x="413.907" y="556.886" class="cls-13"/><rect width="33.517" height="13.628" x="415.012" y="585.983" class="cls-13"/><rect width="33.517" height="13.628" x="415.012" y="615.08" class="cls-13"/><rect width="33.517" height="13.628" x="415.012" y="644.177" class="cls-13"/><rect width="33.517" height="13.628" x="415.012" y="673.274" class="cls-13"/><rect width="33.517" height="13.628" x="415.012" y="702.371" class="cls-13"/><rect width="33.517" height="13.628" x="625.646" y="497.957" class="cls-13"/><rect width="33.517" height="13.628" x="625.646" y="527.054" class="cls-13"/><rect width="33.517" height="13.628" x="625.646" y="556.151" class="cls-13"/><rect width="33.517" height="13.628" x="626.751" y="585.248" class="cls-13"/><rect width="33.517" height="13.628" x="626.751" y="614.345" class="cls-13"/><rect width="33.517" height="13.628" x="626.751" y="643.442" class="cls-13"/><rect width="33.517" height="13.628" x="626.751" y="672.539" class="cls-13"/><rect width="33.517" height="13.628" x="626.751" y="701.637" class="cls-13"/><rect width="39.074" height="36.876" x="413.269" y="741.874" class="cls-14"/><rect width="39.074" height="36.876" x="452.343" y="741.874" class="cls-15"/><rect width="39.074" height="36.876" x="491.417" y="741.874" class="cls-14"/><rect width="18.811" height="24.634" x="336.408" y="446.713" class="cls-14"/><rect width="18.811" height="24.634" x="355.219" y="446.713" class="cls-16"/><rect width="18.811" height="24.634" x="374.03" y="446.713" class="cls-14"/><rect width="18.811" height="24.634" x="258.276" y="446.713" class="cls-14"/><rect width="18.811" height="24.634" x="277.087" y="446.713" class="cls-15"/><rect width="18.811" height="24.634" x="295.899" y="446.713" class="cls-14"/><rect width="18.811" height="24.634" x="597.429" y="754.116" class="cls-14"/><rect width="18.811" height="24.634" x="616.241" y="754.116" class="cls-17"/><rect width="18.811" height="24.634" x="635.052" y="754.116" class="cls-14"/><rect width="18.811" height="24.634" x="435.025" y="446.713" class="cls-14"/><rect width="18.811" height="24.634" x="453.837" y="446.713" class="cls-18"/><rect width="18.811" height="24.634" x="472.648" y="446.713" class="cls-14"/><rect width="18.811" height="24.634" x="537.695" y="446.713" class="cls-14"/><rect width="18.811" height="24.634" x="556.506" y="446.713" class="cls-15"/><rect width="18.811" height="24.634" x="575.317" y="446.713" class="cls-14"/><rect width="18.811" height="24.634" x="610.745" y="446.713" class="cls-14"/><rect width="18.811" height="24.634" x="629.557" y="446.713" class="cls-16"/><rect width="18.811" height="24.634" x="648.368" y="446.713" class="cls-14"/><rect width="18.811" height="24.634" x="261.187" y="813.461" class="cls-14" transform="translate(-555.1854 1096.3713) rotate(-90)"/><rect width="18.811" height="24.634" x="261.187" y="794.65" class="cls-17" transform="translate(-536.3741 1077.56) rotate(-90)"/><rect width="18.811" height="24.634" x="261.187" y="775.839" class="cls-14" transform="translate(-517.5629 1058.7488) rotate(-90)"/><rect width="18.811" height="24.634" x="694.034" y="505.505" class="cls-14"/><rect width="18.811" height="24.634" x="712.845" y="505.505" class="cls-17"/><rect width="18.811" height="24.634" x="731.657" y="505.505" class="cls-14"/><rect width="76.453" height="54.85" x="305.692" y="788.156" class="cls-19"/><circle cx="295.899" cy="509.264" r="21.586" class="cls-13"/><circle cx="295.899" cy="568.768" r="21.586" class="cls-13"/><circle cx="295.899" cy="625.048" r="21.586" class="cls-13"/><circle cx="295.899" cy="680.088" r="21.586" class="cls-13"/><circle cx="295.899" cy="740.212" r="21.586" class="cls-13"/><circle cx="357.994" cy="509.574" r="21.586" class="cls-13"/><circle cx="357.994" cy="569.078" r="21.586" class="cls-13"/><circle cx="357.994" cy="625.359" r="21.586" class="cls-13"/><circle cx="357.994" cy="680.398" r="21.586" class="cls-13"/><circle cx="357.994" cy="740.523" r="21.586" class="cls-13"/><rect width="59.752" height="51.943" x="692.375" y="554.327" class="cls-20" rx="24.601"/><rect width="59.752" height="51.943" x="690.429" y="610.553" class="cls-20" rx="24.601"/><rect width="59.752" height="51.943" x="690.429" y="666.993" class="cls-20" rx="24.601"/><rect width="59.752" height="51.943" x="750.468" y="610.553" class="cls-20" rx="24.601"/><rect width="12.132" height="12.132" x="714.239" y="574.233" class="cls-15"/><rect width="12.132" height="12.132" x="714.239" y="630.458" class="cls-15"/><rect width="12.132" height="12.132" x="714.239" y="686.899" class="cls-15"/><rect width="12.132" height="12.132" x="774.278" y="630.458" class="cls-15"/><text class="cls-21" transform="translate(312.0687 414.1149) scale(1.04 1)">FRC GYRO</text><circle cx="786.409" cy="421.749" r="40.421" class="cls-22"/><circle cx="786.409" cy="421.749" r="27.829" class="cls-23"/><circle cx="786.409" cy="825.778" r="40.421" class="cls-22"/><circle cx="786.409" cy="825.778" r="27.829" class="cls-23"/></g><text class="cls-24" transform="translate(255.1312 97.5211)">Analog Devices <tspan x="0" y="96">1-axis SPI Gyro</tspan></text></g></svg>