<svg xmlns="http://www.w3.org/2000/svg" viewBox="0 0 1080.964 447.961"><defs><style>.cls-1{fill:#434343}.cls-2{fill:#4f4e51}.cls-3{fill:#323031}.cls-4{fill:#6a5f27}.cls-5{font-size:32.2926px}.cls-12,.cls-13,.cls-14,.cls-16,.cls-5,.cls-7{fill:#fff}.cls-12,.cls-13,.cls-16,.cls-20,.cls-5,.cls-7{font-family:Verdana}.cls-6{letter-spacing:-.031em}.cls-7{font-size:23.3332px}.cls-11,.cls-15,.cls-17,.cls-18,.cls-19,.cls-23,.cls-24,.cls-25,.cls-26,.cls-8{fill:none}.cls-14,.cls-15,.cls-8{stroke:#fff}.cls-8{stroke-miterlimit:10;stroke-width:5.3821px}.cls-9{fill:#5a5d65}.cls-10{fill:#23446c}.cls-11{stroke:#f1f2f2}.cls-11,.cls-15{stroke-miterlimit:2}.cls-11,.cls-14,.cls-15{stroke-width:1.3634px}.cls-12{font-size:19.6908px}.cls-13{font-size:19.0954px}.cls-14,.cls-17,.cls-18,.cls-19,.cls-23,.cls-24,.cls-25,.cls-26{stroke-linecap:round;stroke-linejoin:round}.cls-16{font-size:21.7188px}.cls-17{stroke:#f7941d}.cls-17,.cls-18,.cls-19,.cls-23,.cls-24,.cls-25{stroke-width:10.832px}.cls-18{stroke:#1c75bc}.cls-19{stroke:#754c29}.cls-20{font-size:43.328px;fill:#010101}.cls-20,.cls-21{letter-spacing:.001em}.cls-22{fill:#221f1f}.cls-23{stroke:#221f1f}.cls-24{stroke:#e9262a}.cls-25{stroke:#babcbe}.cls-26{stroke:#939598;stroke-width:20px}.cls-27{fill:#a8aaaa}.cls-28{fill:#6f7170}.cls-29{fill:#c7cec7}.cls-30{fill:#a89240}.cls-31{fill:#e2d16d}.cls-32{fill:#b7a447}.cls-33{fill:#e1dcc3}.cls-34{fill:#524b52}</style></defs><g id="Layer_1" data-name="Layer 1"><path d="M705.4748,214.0173l-1389.6844,1.85A83.108,83.108,0,0,1-767.2069,132.65V-1240.5668a83.108,83.108,0,0,1,82.9973-83.2183l1400.27-1.8505a83.108,83.108,0,0,1,82.9973,83.2182V120.1857c4.7689,55.43-24.54,94.7779-77.4784,93.8283" class="cls-1"/><rect width="1517.315" height="1486.473" x="-742.573" y="-1294.659" class="cls-2" rx="58.525"/><rect width="314.976" height="89.536" x="27.635" y="78.457" class="cls-3"/><path d="M63.595,117.8129a5.412,5.412,0,1,1-5.41,5.41,5.409,5.409,0,0,1,5.41-5.41" class="cls-4"/><path d="M63.595,142.0392a5.414,5.414,0,1,1-5.41,5.4141,5.41,5.41,0,0,1,5.41-5.4141" class="cls-4"/><path d="M63.595,92.6045a5.414,5.414,0,1,1-5.41,5.41,5.4089,5.4089,0,0,1,5.41-5.41" class="cls-4"/><rect width="71.923" height="89.536" x="108.033" y="78.457" class="cls-3"/><path d="M143.9949,117.8129a5.412,5.412,0,1,1-5.4142,5.41,5.4082,5.4082,0,0,1,5.4142-5.41" class="cls-4"/><path d="M143.9949,142.0392a5.414,5.414,0,1,1-5.4142,5.4141,5.409,5.409,0,0,1,5.4142-5.4141" class="cls-4"/><path d="M143.9949,92.6045a5.414,5.414,0,1,1-5.4142,5.41,5.4081,5.4081,0,0,1,5.4142-5.41" class="cls-4"/><rect width="71.923" height="89.536" x="270.689" y="78.457" class="cls-3"/><path d="M306.65,117.8129a5.412,5.412,0,1,1-5.4141,5.41,5.4082,5.4082,0,0,1,5.4141-5.41" class="cls-4"/><path d="M306.65,142.0392a5.414,5.414,0,1,1-5.4141,5.4141,5.4091,5.4091,0,0,1,5.4141-5.4141" class="cls-4"/><path d="M306.65,92.6045a5.414,5.414,0,1,1-5.4141,5.41,5.4082,5.4082,0,0,1,5.4141-5.41" class="cls-4"/><rect width="71.927" height="89.536" x="189.405" y="78.457" class="cls-3"/><path d="M225.3691,117.8129a5.412,5.412,0,1,1-5.4142,5.41,5.4082,5.4082,0,0,1,5.4142-5.41" class="cls-4"/><path d="M225.3691,142.0392a5.414,5.414,0,1,1-5.4142,5.4141,5.409,5.409,0,0,1,5.4142-5.4141" class="cls-4"/><path d="M225.3691,92.6045a5.414,5.414,0,1,1-5.4142,5.41,5.4081,5.4081,0,0,1,5.4142-5.41" class="cls-4"/><text class="cls-5" transform="translate(107.6464 29.4375)">ANA<tspan x="68.307" y="0" class="cls-6">L</tspan><tspan x="85.281" y="0">OG IN</tspan></text><text class="cls-7" transform="translate(458.4907 54.5352)">RESET</text><text class="cls-7" transform="translate(570.1469 54.5352)">USER</text><polyline points="62.014 40.237 62.014 23.82 89.898 23.82" class="cls-8"/><polyline points="286.32 21.639 314.01 21.639 314.01 42.555" class="cls-8"/><rect width="216.334" height="101.351" x="437.746" y="72.55" class="cls-9" rx="19.586"/><rect width="53.902" height="54.265" x="466.101" y="96.093" class="cls-10" rx="26.951"/><rect width="53.902" height="54.265" x="571.824" y="96.093" class="cls-10" rx="26.951"/><rect width="92.078" height="821.17" x="651.818" y="-789.539" class="cls-3"/><line x1="392.92" x2="403.004" y1="177.894" y2="177.894" class="cls-11"/><line x1="388.927" x2="407.021" y1="173.619" y2="173.619" class="cls-11"/><line x1="384.522" x2="411.418" y1="169.351" y2="169.351" class="cls-11"/><line x1="389.209" x2="373.261" y1="124.668" y2="124.668" class="cls-11"/><line x1="389.201" x2="373.252" y1="97.708" y2="97.708" class="cls-11"/><polyline points="397.97 169.351 397.97 152.411 373.26 152.411" class="cls-11"/><text class="cls-12" transform="translate(390.9477 103.4102) scale(1 1.0605)">S</text><text class="cls-13" transform="translate(392.2524 131.5781) scale(1 1.1297)">5V</text><rect width="6.318" height="6.873" x="366.472" y="94.077" class="cls-14"/><rect width="6.318" height="6.873" x="366.886" y="120.963" class="cls-14"/><rect width="6.318" height="6.873" x="366.793" y="148.677" class="cls-14"/><line x1="718.295" x2="728.379" y1="83.241" y2="83.241" class="cls-15"/><line x1="714.302" x2="732.388" y1="78.973" y2="78.973" class="cls-15"/><line x1="709.905" x2="736.801" y1="74.706" y2="74.706" class="cls-15"/><line x1="668.891" x2="668.891" y1="52.893" y2="68.616" class="cls-15"/><line x1="696.11" x2="696.11" y1="53.014" y2="89.066" class="cls-15"/><line x1="723.319" x2="723.319" y1="52.893" y2="75.44" class="cls-15"/><text class="cls-16" transform="translate(662.311 87.1875) scale(1 1.0056)">S</text><text class="cls-16" transform="translate(683.811 109.0586) scale(1 1.0056)">6V</text><rect width="6.318" height="6.873" x="665.513" y="46.393" class="cls-14"/><rect width="6.318" height="6.873" x="692.937" y="46.393" class="cls-14"/><rect width="6.318" height="6.873" x="720.048" y="46.393" class="cls-14"/><line x1="140.882" x2="205.411" y1="346.178" y2="346.178" class="cls-17"/><line x1="138.383" x2="202.912" y1="329.598" y2="329.598" class="cls-18"/><line x1="138.383" x2="202.912" y1="313.018" y2="313.018" class="cls-19"/><text class="cls-20" transform="translate(677.934 315.0977)">Absolute Encoder<tspan class="cls-21"><tspan x="0" y="51.993">US Digital MA3</tspan></tspan></text><rect width="37.605" height="90.1" x="52.504" y="86.9" class="cls-22"/><polyline points="80.834 158.794 80.636 313.762 126.475 315.1" class="cls-23"/><polyline points="71.307 128.128 70.65 346.381 125.803 347.977" class="cls-24"/><polyline points="60.961 109.194 60.494 328.597 116.23 329.598" class="cls-25"/><line x1="98.227" x2="136.851" y1="315.098" y2="315.098" class="cls-26"/><line x1="98.227" x2="136.851" y1="346.178" y2="346.178" class="cls-26"/><line x1="98.227" x2="136.851" y1="329.598" y2="329.598" class="cls-26"/><rect width="144.04" height="78.704" x="510.61" y="291.286" class="cls-27" rx="18.923" transform="translate(1165.2592 661.2774) rotate(180)"/><rect width="26.531" height="99.728" x="492.573" y="280.775" class="cls-28" rx="11.48" transform="translate(1011.6759 661.2774) rotate(180)"/><rect width="15.819" height="120.397" x="494.791" y="270.44" class="cls-29" rx="7.909" transform="translate(1005.4003 661.2774) rotate(-180)"/><rect width="76.43" height="138.066" x="429.341" y="261.606" class="cls-30" rx="16.688" transform="translate(935.1123 661.2774) rotate(180)"/><rect width="18.902" height="120.397" x="410.44" y="270.44" class="cls-31" transform="translate(839.7809 661.2774) rotate(180)"/><rect width="150.804" height="178.335" x="259.635" y="241.471" class="cls-32" rx="32.947" transform="translate(670.0746 661.2774) rotate(-180)"/><rect width="60.775" height="53.008" x="193.889" y="304.135" class="cls-33" rx="5.713" transform="translate(448.5537 661.2774) rotate(180)"/><path d="M259.2242,375.6335c.1407,0,.2721-.0336.4109-.0414V285.6853c-.1388-.0078-.27-.0414-.4109-.0414a7.3964,7.3964,0,0,0-7.3964,7.3964v75.1968A7.3964,7.3964,0,0,0,259.2242,375.6335Z" class="cls-34"/></g></svg>