<svg xmlns="http://www.w3.org/2000/svg" id="Layer_1" data-name="Layer 1" viewBox="0 0 856.554 711.191"><defs><style>.cls-1{fill:#434343}.cls-2{fill:#4f4e51}.cls-3{fill:#323031}.cls-4{fill:#6a5f27}.cls-5{font-size:32.1518px}.cls-10,.cls-14,.cls-15,.cls-16,.cls-17,.cls-22,.cls-5{fill:#fff}.cls-10,.cls-14,.cls-15,.cls-17,.cls-23,.cls-32,.cls-5{font-family:Verdana}.cls-6{letter-spacing:.009em}.cls-7{letter-spacing:-.058em}.cls-13,.cls-29,.cls-30,.cls-31,.cls-8{fill:none}.cls-16,.cls-8{stroke:#fff}.cls-8{stroke-miterlimit:10;stroke-width:5.3586px}.cls-9{letter-spacing:-.031em}.cls-10{font-size:23.2314px}.cls-11{fill:#5a5d65}.cls-12{fill:#23446c}.cls-13{stroke:#f1f2f2;stroke-miterlimit:2}.cls-13,.cls-16{stroke-width:1.3575px}.cls-14{font-size:19.6049px}.cls-15{font-size:19.0121px}.cls-16,.cls-29,.cls-30,.cls-31{stroke-linecap:round;stroke-linejoin:round}.cls-17{font-size:22.628px}.cls-18{letter-spacing:-.02em}.cls-19{fill:#1d57a6}.cls-20{fill:#f3f3ee}.cls-21{fill:#9496b4}.cls-23{font-size:28px;fill:#eef1f2;letter-spacing:.001em}.cls-24{fill:#282630}.cls-25{fill:#8d725e}.cls-26{fill:#b5c0db}.cls-27{fill:#a0aac2}.cls-28{fill:#221f1f}.cls-29{stroke:#221f1f}.cls-29,.cls-30,.cls-31{stroke-width:10.832px}.cls-30{stroke:#e9262a}.cls-31{stroke:#babcbe}.cls-32{font-size:43.328px;fill:#010101;letter-spacing:.001em}</style></defs><path d="M1017.6538,221.671l-1383.623,1.8424a82.7455,82.7455,0,0,1-82.6353-82.8552V-1226.5687a82.7455,82.7455,0,0,1,82.6353-82.8552l1394.1621-1.8425a82.7455,82.7455,0,0,1,82.6352,82.8553v1356.66c4.7481,55.1878-24.4331,94.3645-77.14,93.4191" class="cls-1"/><rect width="1510.697" height="1479.989" x="-424.078" y="-1280.425" class="cls-2" rx="58.269"/><rect width="313.602" height="89.146" x="-6.546" y="86.916" class="cls-3"/><path d="M29.2621,126.1a5.3884,5.3884,0,1,1-5.39,5.3864,5.3846,5.3846,0,0,1,5.39-5.3864" class="cls-4"/><path d="M29.2621,150.2206a5.39,5.39,0,1,1-5.39,5.3905,5.3855,5.3855,0,0,1,5.39-5.3905" class="cls-4"/><path d="M29.2621,101.0014a5.39,5.39,0,1,1-5.39,5.3865,5.3847,5.3847,0,0,1,5.39-5.3865" class="cls-4"/><rect width="71.609" height="89.146" x="73.5" y="86.916" class="cls-3"/><path d="M109.3074,126.1a5.3884,5.3884,0,1,1-5.3866,5.3864,5.3879,5.3879,0,0,1,5.3866-5.3864" class="cls-4"/><path d="M109.3074,150.2206a5.39,5.39,0,1,1-5.3866,5.3905,5.3888,5.3888,0,0,1,5.3866-5.3905" class="cls-4"/><path d="M109.3074,101.0014a5.39,5.39,0,1,1-5.3866,5.3865,5.388,5.388,0,0,1,5.3866-5.3865" class="cls-4"/><rect width="71.609" height="89.146" x="235.447" y="86.916" class="cls-3"/><path d="M271.2532,126.1a5.3884,5.3884,0,1,1-5.3866,5.3864,5.3879,5.3879,0,0,1,5.3866-5.3864" class="cls-4"/><path d="M271.2532,150.2206a5.39,5.39,0,1,1-5.3866,5.3905,5.3888,5.3888,0,0,1,5.3866-5.3905" class="cls-4"/><path d="M271.2532,101.0014a5.39,5.39,0,1,1-5.3866,5.3865,5.388,5.388,0,0,1,5.3866-5.3865" class="cls-4"/><rect width="71.609" height="89.146" x="154.521" y="86.916" class="cls-3"/><path d="M190.3267,126.1a5.3884,5.3884,0,1,1-5.3866,5.3864,5.3846,5.3846,0,0,1,5.3866-5.3864" class="cls-4"/><path d="M190.3267,150.2206a5.39,5.39,0,1,1-5.3866,5.3905,5.3855,5.3855,0,0,1,5.3866-5.3905" class="cls-4"/><path d="M190.3267,101.0014a5.39,5.39,0,1,1-5.3866,5.3865,5.3847,5.3847,0,0,1,5.3866-5.3865" class="cls-4"/><rect width="313.602" height="89.146" x="342.771" y="86.702" class="cls-3"/><path d="M378.5737,125.8862a5.3884,5.3884,0,1,1-5.3867,5.3864,5.3854,5.3854,0,0,1,5.3867-5.3864" class="cls-4"/><path d="M378.5737,150.0068a5.39,5.39,0,1,1-5.3867,5.3906,5.3864,5.3864,0,0,1,5.3867-5.3906" class="cls-4"/><path d="M378.5737,100.7877a5.39,5.39,0,1,1-5.3867,5.3864,5.3855,5.3855,0,0,1,5.3867-5.3864" class="cls-4"/><rect width="71.609" height="89.146" x="422.818" y="86.702" class="cls-3"/><path d="M458.6229,125.8862a5.3884,5.3884,0,1,1-5.3906,5.3864,5.3847,5.3847,0,0,1,5.3906-5.3864" class="cls-4"/><path d="M458.6229,150.0068a5.39,5.39,0,1,1-5.3906,5.3906,5.3856,5.3856,0,0,1,5.3906-5.3906" class="cls-4"/><path d="M458.6229,100.7877a5.39,5.39,0,1,1-5.3906,5.3864,5.3847,5.3847,0,0,1,5.3906-5.3864" class="cls-4"/><rect width="71.609" height="89.146" x="584.764" y="86.702" class="cls-3"/><path d="M620.5687,125.8862a5.3884,5.3884,0,1,1-5.3906,5.3864,5.3847,5.3847,0,0,1,5.3906-5.3864" class="cls-4"/><path d="M620.5687,150.0068a5.39,5.39,0,1,1-5.3906,5.3906,5.3856,5.3856,0,0,1,5.3906-5.3906" class="cls-4"/><path d="M620.5687,100.7877a5.39,5.39,0,1,1-5.3906,5.3864,5.3847,5.3847,0,0,1,5.3906-5.3864" class="cls-4"/><rect width="71.613" height="89.146" x="503.835" y="86.702" class="cls-3"/><path d="M539.6422,125.8862a5.3884,5.3884,0,1,1-5.3906,5.3864,5.3846,5.3846,0,0,1,5.3906-5.3864" class="cls-4"/><path d="M539.6422,150.0068a5.39,5.39,0,1,1-5.3906,5.3906,5.3855,5.3855,0,0,1,5.3906-5.3906" class="cls-4"/><path d="M539.6422,100.7877a5.39,5.39,0,1,1-5.3906,5.3864,5.3846,5.3846,0,0,1,5.3906-5.3864" class="cls-4"/><text class="cls-5" transform="translate(109.0874 37.8994)">RE<tspan x="42.686" y="0" class="cls-6">L</tspan><tspan x="60.872" y="0" class="cls-7">A</tspan><tspan x="80.986" y="0">Y</tspan></text><polyline points="27.867 48.78 27.867 31.221 88.651 31.221" class="cls-8"/><polyline points="215.553 31.218 270.694 31.218 270.694 50.955" class="cls-8"/><text class="cls-5" transform="translate(422.439 37.8994)">ANA<tspan x="68.008" y="0" class="cls-9">L</tspan><tspan x="84.909" y="0">OG IN</tspan></text><text class="cls-10" transform="translate(771.7529 62.8915)">RESET</text><polyline points="377 48.648 377 32.304 404.762 32.304" class="cls-8"/><polyline points="600.327 30.132 627.896 30.132 627.896 50.957" class="cls-8"/><rect width="215.391" height="100.909" x="751.093" y="80.82" class="cls-11" rx="19.501"/><rect width="53.667" height="54.028" x="779.324" y="104.261" class="cls-12" rx="26.834"/><line x1="706.462" x2="716.502" y1="185.706" y2="185.706" class="cls-13"/><line x1="702.487" x2="720.502" y1="181.449" y2="181.449" class="cls-13"/><line x1="698.101" x2="724.879" y1="177.2" y2="177.2" class="cls-13"/><line x1="702.768" x2="686.889" y1="132.712" y2="132.712" class="cls-13"/><line x1="702.76" x2="686.881" y1="105.869" y2="105.869" class="cls-13"/><polyline points="711.49 177.2 711.49 160.333 686.888 160.333" class="cls-13"/><text class="cls-14" transform="translate(704.5068 111.5478) scale(1 1.0605)">S</text><text class="cls-15" transform="translate(705.8037 139.5947) scale(1 1.1297)">5V</text><rect width="6.291" height="6.843" x="680.13" y="102.254" class="cls-16"/><rect width="6.291" height="6.843" x="680.542" y="129.023" class="cls-16"/><rect width="6.291" height="6.843" x="680.449" y="156.616" class="cls-16"/><text class="cls-17" transform="translate(669.4482 -6.8858) scale(1 1.0349)"><tspan class="cls-18">A</tspan><tspan x="15.016" y="0">CCELEROMETER</tspan></text><path d="M466.83,866.616H789.585a48.1411,48.1411,0,0,0,48-48V508.9919a48.0471,48.0471,0,0,0-21.3806-39.8767L799.73,485.781a1.5908,1.5908,0,0,1-1.1316.4727h-8.2441a1.5925,1.5925,0,0,1-1.1675-.51L772.2191,467.426a1.5912,1.5912,0,0,1-.0748-2.0762l3.0123-3.7612a1.5912,1.5912,0,0,1,1.2421-.5967H466.83a48.1409,48.1409,0,0,0-48,48V818.616A48.1411,48.1411,0,0,0,466.83,866.616Z" class="cls-19"/><path d="M772.1443,465.35a1.5912,1.5912,0,0,0,.0748,2.0762l16.9677,18.3179a1.5925,1.5925,0,0,0,1.1675.51h8.2441a1.5908,1.5908,0,0,0,1.1316-.4727l16.4744-16.6658.24-.2424a1.55,1.55,0,0,0,.42-.96,47.817,47.817,0,0,0-14.957-6.9207H776.3987a1.5912,1.5912,0,0,0-1.2421.5967Z" class="cls-20"/><circle cx="794.349" cy="508.613" r="18.641" class="cls-21"/><circle cx="794.349" cy="508.613" r="11.512" class="cls-22"/><circle cx="739.168" cy="508.613" r="18.641" class="cls-21"/><circle cx="739.168" cy="508.613" r="11.512" class="cls-22"/><circle cx="684.604" cy="508.613" r="18.641" class="cls-21"/><circle cx="684.604" cy="508.613" r="11.512" class="cls-22"/><circle cx="628.207" cy="508.613" r="18.641" class="cls-21"/><circle cx="628.207" cy="508.613" r="11.512" class="cls-22"/><circle cx="572.058" cy="508.613" r="18.641" class="cls-21"/><circle cx="572.058" cy="508.613" r="11.512" class="cls-22"/><circle cx="514.867" cy="508.613" r="18.641" class="cls-21"/><circle cx="514.867" cy="508.613" r="11.512" class="cls-22"/><circle cx="459.472" cy="508.613" r="18.641" class="cls-21"/><circle cx="459.472" cy="508.613" r="11.512" class="cls-22"/><text class="cls-23" transform="translate(785.8974 537.5986) rotate(90)">VIN</text><text class="cls-23" transform="translate(729.3486 536.5908) rotate(90)">3vo</text><rect width="88.886" height="88.886" x="583.765" y="663.804" class="cls-24" transform="translate(1256.415 1416.4936) rotate(180)"/><rect width="21.701" height="27.077" x="753.589" y="644.843" class="cls-25" transform="translate(1528.8795 1316.7622) rotate(180)"/><rect width="21.701" height="27.077" x="733.028" y="644.843" class="cls-26" transform="translate(1487.7581 1316.7622) rotate(180)"/><rect width="21.701" height="27.077" x="775.29" y="644.843" class="cls-26" transform="translate(1572.2825 1316.7622) rotate(180)"/><rect width="21.701" height="27.077" x="662.902" y="612.036" class="cls-25" transform="translate(1347.5062 1251.1493) rotate(180)"/><rect width="21.701" height="27.077" x="642.342" y="612.036" class="cls-26" transform="translate(1306.3848 1251.1493) rotate(180)"/><rect width="21.701" height="27.077" x="684.604" y="612.036" class="cls-26" transform="translate(1390.9093 1251.1493) rotate(180)"/><rect width="21.701" height="27.077" x="568.997" y="612.036" class="cls-25" transform="translate(1159.6958 1251.1493) rotate(180)"/><rect width="21.701" height="27.077" x="548.436" y="612.036" class="cls-26" transform="translate(1118.5744 1251.1493) rotate(180)"/><rect width="21.701" height="27.077" x="590.699" y="612.036" class="cls-26" transform="translate(1203.0988 1251.1493) rotate(180)"/><rect width="21.701" height="27.077" x="470.894" y="660.906" class="cls-25" transform="translate(963.4896 1348.8894) rotate(180)"/><rect width="21.701" height="27.077" x="450.333" y="660.906" class="cls-26" transform="translate(922.3682 1348.8894) rotate(180)"/><rect width="21.701" height="27.077" x="492.596" y="660.906" class="cls-26" transform="translate(1006.8927 1348.8894) rotate(180)"/><rect width="21.701" height="27.077" x="471.464" y="612.036" class="cls-25" transform="translate(964.6305 1251.1493) rotate(180)"/><rect width="21.701" height="27.077" x="450.904" y="612.036" class="cls-26" transform="translate(923.5091 1251.1493) rotate(180)"/><rect width="21.701" height="27.077" x="493.166" y="612.036" class="cls-26" transform="translate(1008.0335 1251.1493) rotate(180)"/><path d="M672.6532,706.5211c.9853.4615,3.3435-1.153,3.3435-3.5355,0-2.8976-2.0371-4.0128-3.3435-3.5972C672.6871,703.7348,672.6386,698.55,672.6532,706.5211Z" class="cls-27"/><path d="M672.6532,692.201c.9853.4615,3.3435-1.1529,3.3435-3.5355,0-2.8976-2.0371-4.0128-3.3435-3.5972C672.6871,689.4147,672.6386,684.23,672.6532,692.201Z" class="cls-27"/><path d="M583.7618,684.4143c-.9854-.4615-3.3435,1.1529-3.3435,3.5355,0,2.8976,2.0371,4.0128,3.3435,3.5972C583.7279,687.2006,583.7763,692.3852,583.7618,684.4143Z" class="cls-27"/><path d="M583.7618,697.9533c-.9854-.4616-3.3435,1.1529-3.3435,3.5355,0,2.8976,2.0371,4.0128,3.3435,3.5972C583.7279,700.74,583.7763,705.9242,583.7618,697.9533Z" class="cls-27"/><path d="M651.5834,663.8011c.4615-.9853-1.153-3.3434-3.5355-3.3434-2.8976,0-4.0128,2.037-3.5972,3.3434C648.7971,663.7672,643.6125,663.8157,651.5834,663.8011Z" class="cls-27"/><path d="M638.0444,663.8011c.4615-.9853-1.1529-3.3434-3.5355-3.3434-2.8976,0-4.0128,2.037-3.5972,3.3434C635.2581,663.7672,630.0735,663.8157,638.0444,663.8011Z" class="cls-27"/><path d="M622.9433,663.8011c.4615-.9853-1.153-3.3434-3.5356-3.3434-2.8976,0-4.0128,2.037-3.5972,3.3434C620.157,663.7672,614.9723,663.8157,622.9433,663.8011Z" class="cls-27"/><path d="M608.6232,663.8011c.4615-.9853-1.153-3.3434-3.5356-3.3434-2.8976,0-4.0128,2.037-3.5972,3.3434C605.8369,663.7672,600.6523,663.8157,608.6232,663.8011Z" class="cls-27"/><text class="cls-23" transform="translate(674.5146 536.5908) rotate(90)">GND</text><text class="cls-23" transform="translate(621.0293 535.5908) rotate(90)">Zout</text><text class="cls-23" transform="translate(561.9248 536.5908) rotate(90)">Yout</text><text class="cls-23" transform="translate(506.4853 536.5908) rotate(90)">Xout</text><text class="cls-23" transform="translate(449.9927 536.5908) rotate(90)">test</text><path d="M758.3608,485.6571l3.0124-3.7613a1.5915,1.5915,0,0,0-.0747-2.0763l-16.968-18.3176a1.5909,1.5909,0,0,0-1.1674-.51h-8.244a1.5914,1.5914,0,0,0-1.1318.4727l-16.7139,16.9082a1.5916,1.5916,0,0,0-.3146,1.7825l2.3727,5.1707a1.5915,1.5915,0,0,0,1.4464.9277h36.5408A1.5914,1.5914,0,0,0,758.3608,485.6571Z" class="cls-20"/><path d="M665.4111,461.5885l-3.0123,3.7613a1.5914,1.5914,0,0,0,.0747,2.0763l16.9679,18.3176a1.5913,1.5913,0,0,0,1.1675.51h8.2439a1.5911,1.5911,0,0,0,1.1318-.4727l16.7139-16.9082a1.5915,1.5915,0,0,0,.3147-1.7825L704.64,461.92a1.5914,1.5914,0,0,0-1.4464-.9277H666.6533A1.5916,1.5916,0,0,0,665.4111,461.5885Z" class="cls-20"/><path d="M647.4,485.6571l3.0124-3.7613a1.5915,1.5915,0,0,0-.0747-2.0763L633.37,461.5019a1.5913,1.5913,0,0,0-1.1675-.51h-8.244a1.5914,1.5914,0,0,0-1.1318.4727l-16.7139,16.9082a1.5916,1.5916,0,0,0-.3146,1.7825l2.3727,5.1707a1.5915,1.5915,0,0,0,1.4464.9277h36.5408A1.5914,1.5914,0,0,0,647.4,485.6571Z" class="cls-20"/><path d="M591.2505,485.6571l3.0123-3.7613a1.5914,1.5914,0,0,0-.0747-2.0763L577.22,461.5019a1.5913,1.5913,0,0,0-1.1675-.51h-8.2439a1.5911,1.5911,0,0,0-1.1318.4727l-16.7139,16.9082a1.5913,1.5913,0,0,0-.3146,1.7825l2.3727,5.1707a1.5914,1.5914,0,0,0,1.4464.9277h36.5407A1.5914,1.5914,0,0,0,591.2505,485.6571Z" class="cls-20"/><path d="M534.06,485.6571l3.0123-3.7613a1.5914,1.5914,0,0,0-.0747-2.0763L520.03,461.5019a1.5913,1.5913,0,0,0-1.1675-.51h-8.2439a1.5911,1.5911,0,0,0-1.1318.4727l-16.7139,16.9082a1.5913,1.5913,0,0,0-.3146,1.7825l2.3727,5.1707a1.5914,1.5914,0,0,0,1.4464.9277h36.5407A1.5914,1.5914,0,0,0,534.06,485.6571Z" class="cls-20"/><rect width="37.605" height="90.1" x="444.001" y="101.51" class="cls-28"/><polyline points="450.223 171.92 449.163 346.411 541.079 346.914 541.079 421.471" class="cls-29"/><polyline points="462.803 141.108 461.743 330.895 556.72 331.398 556.72 421.471" class="cls-30"/><polyline points="474.867 122.174 473.807 315.393 571.42 316.208 572.48 507.508" class="cls-31"/><rect width="37.605" height="90.1" x="363.95" y="101.51" class="cls-28"/><polyline points="370.172 173.55 368.646 396.229 483.406 397.836 483.406 422.576" class="cls-29"/><polyline points="382.752 142.738 381.226 380.712 499.047 382.32 498.969 422.576" class="cls-30"/><polyline points="394.817 123.804 393.29 365.211 514.681 366.814 515.004 508.613" class="cls-31"/><text class="cls-32" transform="translate(16.4687 563.1523)">ADXL335<tspan x="0" y="51.993">Analog triple-axis </tspan><tspan x="0" y="103.987">accelerometer</tspan></text><rect width="37.605" height="90.1" x="516.255" y="101.51" class="cls-28"/><polyline points="522.478 171.92 521.229 297.802 684.646 298.823 684.646 507.508" class="cls-29"/><polyline points="535.058 141.108 533.809 282.286 797.034 281.992 794.392 507.508" class="cls-30"/><polyline points="547.122 122.174 545.873 266.784 630.87 266.586 628.25 507.508" class="cls-31"/></svg>