<svg xmlns="http://www.w3.org/2000/svg" id="Layer_1" data-name="Layer 1" viewBox="0 0 808.472 706.642"><defs><style>.cls-1{fill:#434343}.cls-2{fill:#4f4e51}.cls-3{fill:#323031}.cls-4{fill:#6a5f27}.cls-5{font-size:32.3181px}.cls-13,.cls-14,.cls-15,.cls-17,.cls-21,.cls-5,.cls-8{fill:#fff}.cls-13,.cls-14,.cls-17,.cls-18,.cls-5,.cls-8{font-family:Verdana}.cls-6{letter-spacing:-.031em}.cls-7{letter-spacing:0}.cls-8{font-size:23.3516px}.cls-12,.cls-16,.cls-22,.cls-23,.cls-26,.cls-28,.cls-30,.cls-31,.cls-32,.cls-9{fill:none}.cls-15,.cls-16,.cls-9{stroke:#fff}.cls-9{stroke-miterlimit:10;stroke-width:5.3864px}.cls-10{fill:#5a5d65}.cls-11{fill:#23446c}.cls-12{stroke:#f1f2f2}.cls-12,.cls-16{stroke-miterlimit:2}.cls-12,.cls-15,.cls-16{stroke-width:1.3645px}.cls-13{font-size:19.7064px}.cls-14{font-size:19.1105px}.cls-15,.cls-30,.cls-31,.cls-32{stroke-linecap:round}.cls-15,.cls-22,.cls-23,.cls-26,.cls-28,.cls-30,.cls-31,.cls-32{stroke-linejoin:round}.cls-17{font-size:21.736px}.cls-18{font-size:39.6519px;fill:#010101}.cls-18,.cls-19{letter-spacing:.001em}.cls-20{fill:#1e1e1e}.cls-20,.cls-21,.cls-24,.cls-25,.cls-27{fill-rule:evenodd}.cls-22{stroke:#7a52a1}.cls-22,.cls-23,.cls-26,.cls-28{stroke-width:8px}.cls-23{stroke:#ffda68}.cls-24{fill:#ffda68}.cls-25{fill:#ccc}.cls-26{stroke:#b7b7b8}.cls-27{fill:#2d2d2c}.cls-28{stroke:#9e9e9e}.cls-29{fill:#221f1f}.cls-30{stroke:#221f1f}.cls-30,.cls-31,.cls-32{stroke-width:10.832px}.cls-31{stroke:#e9262a}.cls-32{stroke:#babcbe}</style></defs><path d="M740.052,215.1642l-1390.7837,1.852a83.1736,83.1736,0,0,1-83.0629-83.284V-1240.57a83.1737,83.1737,0,0,1,83.0629-83.2841l1401.3773-1.852a83.1737,83.1737,0,0,1,83.0629,83.2841V121.2584c4.7727,55.4735-24.5595,94.8529-77.54,93.9026" class="cls-1"/><rect width="1518.515" height="1487.649" x="-709.141" y="-1294.705" class="cls-2" rx="58.571"/><rect width="315.225" height="89.607" x="-289.449" y="79.712" class="cls-3"/><rect width="71.98" height="89.607" x="-46.203" y="79.712" class="cls-3"/><rect width="315.225" height="89.607" x="61.676" y="79.497" class="cls-3"/><path d="M97.6644,118.8837A5.4163,5.4163,0,1,1,92.25,124.298a5.4133,5.4133,0,0,1,5.4145-5.4143" class="cls-4"/><path d="M97.6644,143.1292a5.4183,5.4183,0,1,1-5.4145,5.4185,5.4142,5.4142,0,0,1,5.4145-5.4185" class="cls-4"/><path d="M97.6644,93.6554A5.4183,5.4183,0,1,1,92.25,99.07a5.4133,5.4133,0,0,1,5.4145-5.4143" class="cls-4"/><rect width="71.98" height="89.607" x="142.137" y="79.497" class="cls-3"/><path d="M178.1279,118.8837a5.4163,5.4163,0,1,1-5.4184,5.4143,5.4125,5.4125,0,0,1,5.4184-5.4143" class="cls-4"/><path d="M178.1279,143.1292a5.4183,5.4183,0,1,1-5.4184,5.4185,5.4134,5.4134,0,0,1,5.4184-5.4185" class="cls-4"/><path d="M178.1279,93.6554A5.4183,5.4183,0,1,1,172.71,99.07a5.4125,5.4125,0,0,1,5.4184-5.4143" class="cls-4"/><rect width="71.98" height="89.607" x="304.922" y="79.497" class="cls-3"/><path d="M340.9118,118.8837a5.4163,5.4163,0,1,1-5.4184,5.4143,5.4125,5.4125,0,0,1,5.4184-5.4143" class="cls-4"/><path d="M340.9118,143.1292a5.4183,5.4183,0,1,1-5.4184,5.4185,5.4134,5.4134,0,0,1,5.4184-5.4185" class="cls-4"/><path d="M340.9118,93.6554a5.4183,5.4183,0,1,1-5.4184,5.4143,5.4125,5.4125,0,0,1,5.4184-5.4143" class="cls-4"/><rect width="71.984" height="89.607" x="223.574" y="79.497" class="cls-3"/><path d="M259.5665,118.8837a5.4163,5.4163,0,1,1-5.4185,5.4143,5.4125,5.4125,0,0,1,5.4185-5.4143" class="cls-4"/><path d="M259.5665,143.1292a5.4183,5.4183,0,1,1-5.4185,5.4185,5.4134,5.4134,0,0,1,5.4185-5.4185" class="cls-4"/><path d="M259.5665,93.6554A5.4183,5.4183,0,1,1,254.148,99.07a5.4125,5.4125,0,0,1,5.4185-5.4143" class="cls-4"/><text class="cls-5" transform="translate(130.7551 33.44)">ANA<tspan x="68.36" y="0" class="cls-6">L</tspan><tspan x="85.348" y="0" class="cls-7">OG IN</tspan></text><text class="cls-8" transform="translate(492.8713 55.5572)">RESET</text><text class="cls-8" transform="translate(604.6174 55.5533)">USER</text><polyline points="96.082 41.246 96.082 24.817 123.988 24.817" class="cls-9"/><polyline points="320.566 22.634 348.277 22.634 348.277 43.567" class="cls-9"/><rect width="216.506" height="101.431" x="472.112" y="73.585" class="cls-10" rx="19.602"/><rect width="53.945" height="54.308" x="500.489" y="97.146" class="cls-11" rx="26.972"/><rect width="53.945" height="54.308" x="606.296" y="97.146" class="cls-11" rx="26.972"/><rect width="92.151" height="821.819" x="686.352" y="-789.186" class="cls-3"/><line x1="427.25" x2="437.342" y1="179.013" y2="179.013" class="cls-12"/><line x1="423.254" x2="441.362" y1="174.734" y2="174.734" class="cls-12"/><line x1="418.846" x2="445.762" y1="170.463" y2="170.463" class="cls-12"/><line x1="423.536" x2="407.575" y1="125.745" y2="125.745" class="cls-12"/><line x1="423.528" x2="407.567" y1="98.763" y2="98.763" class="cls-12"/><polyline points="432.304 170.463 432.304 153.509 407.575 153.509" class="cls-12"/><text class="cls-13" transform="translate(425.2776 104.4634) scale(1 1.0605)">S</text><text class="cls-14" transform="translate(426.5823 132.6548) scale(1 1.1297)">5V</text><rect width="6.323" height="6.878" x="400.781" y="95.129" class="cls-15"/><rect width="6.323" height="6.878" x="401.195" y="122.037" class="cls-15"/><rect width="6.323" height="6.878" x="401.102" y="149.773" class="cls-15"/><line x1="752.882" x2="762.974" y1="84.284" y2="84.284" class="cls-16"/><line x1="748.886" x2="766.986" y1="80.014" y2="80.014" class="cls-16"/><line x1="744.486" x2="771.403" y1="75.743" y2="75.743" class="cls-16"/><line x1="703.44" x2="703.44" y1="53.913" y2="69.648" class="cls-16"/><line x1="730.679" x2="730.679" y1="54.033" y2="90.114" class="cls-16"/><line x1="757.911" x2="757.911" y1="53.913" y2="76.478" class="cls-16"/><text class="cls-17" transform="translate(696.8557 88.2291) scale(1 1.0056)">S</text><text class="cls-17" transform="translate(718.3752 110.1275) scale(1 1.0056)">6V</text><rect width="6.323" height="6.878" x="700.059" y="47.408" class="cls-15"/><rect width="6.323" height="6.878" x="727.504" y="47.408" class="cls-15"/><rect width="6.323" height="6.878" x="754.637" y="47.408" class="cls-15"/><text class="cls-18" transform="translate(437.3149 362.0016)">MB1013<tspan class="cls-19"><tspan x="0" y="47.582">Analog Ultrasonic</tspan><tspan x="0" y="95.165">Distance Sensor</tspan></tspan></text><path d="M23.3634,329.28V680.9767H415.7059V329.28Z" class="cls-20"/><path d="M51.9114,338.34h0A12.1816,12.1816,0,0,0,39.73,350.5219h0a12.1816,12.1816,0,0,0,12.1815,12.1815h0A12.1815,12.1815,0,0,0,64.093,350.5219h0A12.1816,12.1816,0,0,0,51.9114,338.34Z" class="cls-21"/><path d="M51.9114,338.34h0A12.1816,12.1816,0,0,0,39.73,350.5219h0a12.1816,12.1816,0,0,0,12.1815,12.1815h0A12.1815,12.1815,0,0,0,64.093,350.5219h0A12.1816,12.1816,0,0,0,51.9114,338.34Z" class="cls-22"/><path d="M97.2343,336.26h0a14.2621,14.2621,0,0,0-14.2621,14.2621h0A14.262,14.262,0,0,0,97.2343,364.784h0a14.262,14.262,0,0,0,14.262-14.2621h0A14.2621,14.2621,0,0,0,97.2343,336.26Z" class="cls-21"/><path d="M97.2343,336.26h0a14.2621,14.2621,0,0,0-14.2621,14.2621h0A14.262,14.262,0,0,0,97.2343,364.784h0a14.262,14.262,0,0,0,14.262-14.2621h0A14.2621,14.2621,0,0,0,97.2343,336.26Z" class="cls-23"/><path d="M142.1411,336.26h0a14.2622,14.2622,0,0,0-14.2621,14.2621h0a14.2622,14.2622,0,0,0,14.2621,14.2621h0a14.2621,14.2621,0,0,0,14.2621-14.2621h0A14.2622,14.2622,0,0,0,142.1411,336.26Z" class="cls-23"/><path d="M187.0479,336.26h0a14.2622,14.2622,0,0,0-14.2621,14.2621h0a14.2622,14.2622,0,0,0,14.2621,14.2621h0A14.2621,14.2621,0,0,0,201.31,350.5219h0A14.2622,14.2622,0,0,0,187.0479,336.26Z" class="cls-21"/><path d="M187.0479,336.26h0a14.2622,14.2622,0,0,0-14.2621,14.2621h0a14.2622,14.2622,0,0,0,14.2621,14.2621h0A14.2621,14.2621,0,0,0,201.31,350.5219h0A14.2622,14.2622,0,0,0,187.0479,336.26Z" class="cls-23"/><path d="M231.9547,336.26h0a14.2622,14.2622,0,0,0-14.2621,14.2621h0a14.2622,14.2622,0,0,0,14.2621,14.2621h0a14.262,14.262,0,0,0,14.2621-14.2621h0A14.2621,14.2621,0,0,0,231.9547,336.26Z" class="cls-21"/><path d="M231.9547,336.26h0a14.2622,14.2622,0,0,0-14.2621,14.2621h0a14.2622,14.2622,0,0,0,14.2621,14.2621h0a14.262,14.262,0,0,0,14.2621-14.2621h0A14.2621,14.2621,0,0,0,231.9547,336.26Z" class="cls-23"/><path d="M276.8616,336.26h0A14.2622,14.2622,0,0,0,262.6,350.5219h0a14.262,14.262,0,0,0,14.2621,14.2621h0a14.262,14.262,0,0,0,14.262-14.2621h0A14.2621,14.2621,0,0,0,276.8616,336.26Z" class="cls-23"/><path d="M321.7664,336.26h0a14.2621,14.2621,0,0,0-14.2621,14.2621h0a14.2622,14.2622,0,0,0,14.2621,14.2621h0a14.262,14.262,0,0,0,14.262-14.2621h0A14.2621,14.2621,0,0,0,321.7664,336.26Z" class="cls-23"/><path d="M38.0728,336.26v28.5241H66.5969V336.26Z" class="cls-24"/><path d="M38.0728,336.26v28.5241H66.5969V336.26Z" class="cls-23"/><path d="M67.4491,611.8021h0a30.8761,30.8761,0,0,0-30.876,30.876h0a30.8759,30.8759,0,0,0,30.876,30.876h0a30.876,30.876,0,0,0,30.8761-30.876h0A30.8761,30.8761,0,0,0,67.4491,611.8021Z" class="cls-21"/><path d="M67.4491,611.8021h0a30.8761,30.8761,0,0,0-30.876,30.876h0a30.8759,30.8759,0,0,0,30.876,30.876h0a30.876,30.876,0,0,0,30.8761-30.876h0A30.8761,30.8761,0,0,0,67.4491,611.8021Z" class="cls-23"/><path d="M374.5409,373.4929h0a30.8761,30.8761,0,0,0-30.876,30.876h0a30.8761,30.8761,0,0,0,30.876,30.8761h0a30.8761,30.8761,0,0,0,30.876-30.8761h0A30.8761,30.8761,0,0,0,374.5409,373.4929Z" class="cls-21"/><path d="M374.5409,373.4929h0a30.8761,30.8761,0,0,0-30.876,30.876h0a30.8761,30.8761,0,0,0,30.876,30.8761h0a30.8761,30.8761,0,0,0,30.876-30.8761h0A30.8761,30.8761,0,0,0,374.5409,373.4929Z" class="cls-23"/><path d="M52.3324,336.26h0A14.2621,14.2621,0,0,0,38.07,350.5219h0A14.262,14.262,0,0,0,52.3324,364.784h0a14.262,14.262,0,0,0,14.262-14.2621h0A14.2621,14.2621,0,0,0,52.3324,336.26Z" class="cls-21"/><path d="M52.3324,336.26h0A14.2621,14.2621,0,0,0,38.07,350.5219h0A14.262,14.262,0,0,0,52.3324,364.784h0a14.262,14.262,0,0,0,14.262-14.2621h0A14.2621,14.2621,0,0,0,52.3324,336.26Z" class="cls-23"/><path d="M97.2361,338.34h0a12.1815,12.1815,0,0,0-12.1815,12.1816h0a12.1814,12.1814,0,0,0,12.1815,12.1815h0a12.1815,12.1815,0,0,0,12.1816-12.1815h0A12.1816,12.1816,0,0,0,97.2361,338.34Z" class="cls-21"/><path d="M97.2361,338.34h0a12.1815,12.1815,0,0,0-12.1815,12.1816h0a12.1814,12.1814,0,0,0,12.1815,12.1815h0a12.1815,12.1815,0,0,0,12.1816-12.1815h0A12.1816,12.1816,0,0,0,97.2361,338.34Z" class="cls-23"/><path d="M187.0474,338.34h0a12.1817,12.1817,0,0,0-12.1816,12.1816h0a12.1817,12.1817,0,0,0,12.1816,12.1815h0a12.1815,12.1815,0,0,0,12.1816-12.1815h0A12.1816,12.1816,0,0,0,187.0474,338.34Z" class="cls-21"/><path d="M187.0474,338.34h0a12.1817,12.1817,0,0,0-12.1816,12.1816h0a12.1817,12.1817,0,0,0,12.1816,12.1815h0a12.1815,12.1815,0,0,0,12.1816-12.1815h0A12.1816,12.1816,0,0,0,187.0474,338.34Z" class="cls-23"/><path d="M231.9543,338.34h0a12.1815,12.1815,0,0,0-12.1815,12.1816h0a12.1816,12.1816,0,0,0,12.1815,12.1815h0a12.1815,12.1815,0,0,0,12.1816-12.1815h0A12.1816,12.1816,0,0,0,231.9543,338.34Z" class="cls-21"/><path d="M231.9543,338.34h0a12.1815,12.1815,0,0,0-12.1815,12.1816h0a12.1816,12.1816,0,0,0,12.1815,12.1815h0a12.1815,12.1815,0,0,0,12.1816-12.1815h0A12.1816,12.1816,0,0,0,231.9543,338.34Z" class="cls-23"/><path d="M51.4874,338.34h0a12.1815,12.1815,0,0,0-12.1815,12.1816h0a12.1816,12.1816,0,0,0,12.1815,12.1815h0A12.1815,12.1815,0,0,0,63.669,350.5219h0A12.1816,12.1816,0,0,0,51.4874,338.34Z" class="cls-21"/><path d="M51.4874,338.34h0a12.1815,12.1815,0,0,0-12.1815,12.1816h0a12.1816,12.1816,0,0,0,12.1815,12.1815h0A12.1815,12.1815,0,0,0,63.669,350.5219h0A12.1816,12.1816,0,0,0,51.4874,338.34Z" class="cls-23"/><path d="M245.1518,612.8738h0a24.6647,24.6647,0,0,1-24.6646,24.6647h0a24.6646,24.6646,0,0,1-24.6646-24.6647h0a24.6646,24.6646,0,0,1,24.6646-24.6646h0A24.6646,24.6646,0,0,1,245.1518,612.8738Z" class="cls-25"/><path d="M245.1518,612.8738h0a24.6647,24.6647,0,0,1-24.6646,24.6647h0a24.6646,24.6646,0,0,1-24.6646-24.6647h0a24.6646,24.6646,0,0,1,24.6646-24.6646h0A24.6646,24.6646,0,0,1,245.1518,612.8738Z" class="cls-26"/><path d="M245.1518,430.3817h0a24.6646,24.6646,0,0,1-24.6646,24.6646h0a24.6646,24.6646,0,0,1-24.6646-24.6646h0a24.6646,24.6646,0,0,1,24.6646-24.6646h0A24.6646,24.6646,0,0,1,245.1518,430.3817Z" class="cls-25"/><path d="M245.1518,430.3817h0a24.6646,24.6646,0,0,1-24.6646,24.6646h0a24.6646,24.6646,0,0,1-24.6646-24.6646h0a24.6646,24.6646,0,0,1,24.6646-24.6646h0A24.6646,24.6646,0,0,1,245.1518,430.3817Z" class="cls-26"/><path d="M241.7984,520.6747h0a20.6845,20.6845,0,0,1-20.6845,20.6845h0a20.6845,20.6845,0,0,1-20.6845-20.6845h0A20.6846,20.6846,0,0,1,221.1139,499.99h0A20.6845,20.6845,0,0,1,241.7984,520.6747Z" class="cls-27"/><path d="M241.7984,520.6747h0a20.6845,20.6845,0,0,1-20.6845,20.6845h0a20.6845,20.6845,0,0,1-20.6845-20.6845h0A20.6846,20.6846,0,0,1,221.1139,499.99h0A20.6845,20.6845,0,0,1,241.7984,520.6747Z" class="cls-28"/><path d="M167.1952,620.9179h-45.53v-45.53h45.53Z" class="cls-24"/><path d="M158.6085,612.33H130.2049V583.926h28.4036Z" class="cls-20"/><path d="M173.167,603.8617H146.3314V592.4641H173.167Z" class="cls-20"/><path d="M154.8293,608.55H134.0242V587.7453h20.8051Z" class="cls-24"/><path d="M142.1405,336.26h0a14.2622,14.2622,0,0,0-14.2621,14.2621h0a14.2622,14.2622,0,0,0,14.2621,14.2621h0a14.2622,14.2622,0,0,0,14.2621-14.2621h0A14.2622,14.2622,0,0,0,142.1405,336.26Z" class="cls-21"/><path d="M142.1405,336.26h0a14.2622,14.2622,0,0,0-14.2621,14.2621h0a14.2622,14.2622,0,0,0,14.2621,14.2621h0a14.2622,14.2622,0,0,0,14.2621-14.2621h0A14.2622,14.2622,0,0,0,142.1405,336.26Z" class="cls-23"/><path d="M142.14,338.34h0a12.1816,12.1816,0,0,0-12.1815,12.1816h0A12.1816,12.1816,0,0,0,142.14,362.7034h0a12.1816,12.1816,0,0,0,12.1816-12.1815h0A12.1816,12.1816,0,0,0,142.14,338.34Z" class="cls-21"/><path d="M142.14,338.34h0a12.1816,12.1816,0,0,0-12.1815,12.1816h0A12.1816,12.1816,0,0,0,142.14,362.7034h0a12.1816,12.1816,0,0,0,12.1816-12.1815h0A12.1816,12.1816,0,0,0,142.14,338.34Z" class="cls-23"/><path d="M276.8605,336.26h0a14.262,14.262,0,0,0-14.262,14.262h0a14.2619,14.2619,0,0,0,14.262,14.2621h0a14.2621,14.2621,0,0,0,14.2621-14.2621h0A14.2621,14.2621,0,0,0,276.8605,336.26Z" class="cls-21"/><path d="M276.8605,336.26h0a14.262,14.262,0,0,0-14.262,14.262h0a14.2619,14.2619,0,0,0,14.262,14.2621h0a14.2621,14.2621,0,0,0,14.2621-14.2621h0A14.2621,14.2621,0,0,0,276.8605,336.26Z" class="cls-23"/><path d="M276.86,338.34h0a12.1815,12.1815,0,0,0-12.1816,12.1815h0A12.1816,12.1816,0,0,0,276.86,362.7034h0a12.1815,12.1815,0,0,0,12.1815-12.1816h0A12.1814,12.1814,0,0,0,276.86,338.34Z" class="cls-21"/><path d="M276.86,338.34h0a12.1815,12.1815,0,0,0-12.1816,12.1815h0A12.1816,12.1816,0,0,0,276.86,362.7034h0a12.1815,12.1815,0,0,0,12.1815-12.1816h0A12.1814,12.1814,0,0,0,276.86,338.34Z" class="cls-23"/><path d="M321.7663,336.26h0a14.2621,14.2621,0,0,0-14.262,14.2621h0a14.262,14.262,0,0,0,14.262,14.2621h0a14.262,14.262,0,0,0,14.2621-14.2621h0A14.2621,14.2621,0,0,0,321.7663,336.26Z" class="cls-21"/><path d="M321.7663,336.26h0a14.2621,14.2621,0,0,0-14.262,14.2621h0a14.262,14.262,0,0,0,14.262,14.2621h0a14.262,14.262,0,0,0,14.2621-14.2621h0A14.2621,14.2621,0,0,0,321.7663,336.26Z" class="cls-23"/><path d="M321.7659,338.34h0a12.1816,12.1816,0,0,0-12.1816,12.1816h0a12.1814,12.1814,0,0,0,12.1816,12.1815h0a12.1815,12.1815,0,0,0,12.1816-12.1815h0A12.1816,12.1816,0,0,0,321.7659,338.34Z" class="cls-21"/><path d="M321.7659,338.34h0a12.1816,12.1816,0,0,0-12.1816,12.1816h0a12.1814,12.1814,0,0,0,12.1816,12.1815h0a12.1815,12.1815,0,0,0,12.1816-12.1815h0A12.1816,12.1816,0,0,0,321.7659,338.34Z" class="cls-23"/><rect width="37.605" height="90.1" x="83.354" y="90.71" class="cls-29"/><polyline points="114.737 162.751 116.264 257.429 321.766 259.037 321.766 350.984" class="cls-30"/><polyline points="102.157 131.939 103.383 274.053 276.666 274.217 277.074 350.984" class="cls-31"/><polyline points="90.093 113.005 92.013 288.585 142.284 288.139 141.98 350.984" class="cls-32"/></svg>