<svg xmlns="http://www.w3.org/2000/svg" viewBox="0 0 796.28 784.618"><defs><style>.cls-1{fill:#434343}.cls-2{fill:#4f4e51}.cls-3{fill:#323031}.cls-4{fill:#424242}.cls-5{fill:#6a5f27}.cls-6{fill:#5a5a5d}.cls-7{fill:#f2f2f2}.cls-8{fill:#221f1f}.cls-13,.cls-31,.cls-32,.cls-42,.cls-43,.cls-46,.cls-47,.cls-49,.cls-9{fill:none}.cls-9{stroke:#5a5a5d;stroke-width:5.416px}.cls-13,.cls-9{stroke-miterlimit:10}.cls-10{font-size:16.248px}.cls-10,.cls-11,.cls-12,.cls-16,.cls-18,.cls-23,.cls-30,.cls-33,.cls-34,.cls-35,.cls-37,.cls-38,.cls-39,.cls-40,.cls-41,.cls-44{fill:#fff}.cls-10,.cls-11,.cls-16,.cls-18,.cls-23,.cls-30,.cls-34,.cls-35,.cls-37,.cls-40,.cls-41,.cls-44{font-family:Verdana}.cls-11{font-size:10.832px}.cls-13,.cls-32,.cls-33,.cls-38,.cls-39,.cls-46,.cls-47,.cls-49{stroke:#fff}.cls-13{stroke-width:2.708px}.cls-14{letter-spacing:.009em}.cls-15{letter-spacing:-.058em}.cls-16{font-size:15.9201px}.cls-17{letter-spacing:-.031em}.cls-18{font-size:11.7401px}.cls-19{fill:#9b9b9b}.cls-20{fill:#171717}.cls-21{fill:#f3ea07}.cls-22{fill:#7cc244}.cls-23{font-size:32.496px}.cls-24{letter-spacing:-.013em}.cls-25{letter-spacing:0}.cls-26{fill:#51545a}.cls-27{fill:#3c3d42}.cls-28{fill:#5a5d65}.cls-29{fill:#23446c}.cls-30{font-size:11.1981px}.cls-31,.cls-42{stroke:#f1f2f2}.cls-31,.cls-32,.cls-33,.cls-39,.cls-42,.cls-43,.cls-46{stroke-miterlimit:2}.cls-32,.cls-33,.cls-38,.cls-39,.cls-42,.cls-43,.cls-49{stroke-width:.686px}.cls-33,.cls-38,.cls-47{stroke-linecap:round}.cls-34{font-size:10.9221px}.cls-35{font-size:11.699px}.cls-36{letter-spacing:-.019em}.cls-37{font-size:10.9278px}.cls-38,.cls-47,.cls-49{stroke-linejoin:round}.cls-40{font-size:9.9074px}.cls-41{font-size:9.6078px}.cls-43{stroke:#020202}.cls-44{font-size:11.4352px}.cls-45{letter-spacing:-.02em}.cls-46{stroke-width:.588px}.cls-47{stroke-width:.506px}.cls-48{fill:#231f20}.cls-50{opacity:.33}.cls-51{fill:#00aeef}</style></defs><g id="roboRIO"><path d="M744.9594,779.1809,45.741,780.112a41.8157,41.8157,0,0,1-41.76-41.8712V47.3082A41.8157,41.8157,0,0,1,45.741,5.437l704.5444-.9311a41.8157,41.8157,0,0,1,41.76,41.8712V731.97c2.3995,27.8894-12.3474,47.6874-38.9832,47.21" class="cls-1"/><rect width="763.436" height="747.917" x="16.375" y="20.092" class="cls-2" rx="29.447"/><rect width="46.329" height="413.171" x="22.776" y="281.303" class="cls-3"/><path d="M551.7751,138.5464H239.4211a19.4986,19.4986,0,0,1-19.4981-19.4978V38.5224a19.4986,19.4986,0,0,1,19.4981-19.498h312.354a19.4985,19.4985,0,0,1,19.4978,19.498v80.5262a19.4985,19.4985,0,0,1-19.4978,19.4978" class="cls-4"/><rect width="279.722" height="51.56" x="254.437" y="523.726" class="cls-3"/><path d="M48.42,303.8725a2.7241,2.7241,0,1,1-2.7241-2.7238,2.723,2.723,0,0,1,2.7241,2.7238" class="cls-5"/><path d="M36.2281,303.8725a2.7241,2.7241,0,1,1-2.7222-2.7238,2.7212,2.7212,0,0,1,2.7222,2.7238" class="cls-5"/><path d="M61.1012,303.8725a2.7231,2.7231,0,1,1-2.7222-2.7238,2.7213,2.7213,0,0,1,2.7222,2.7238" class="cls-5"/><path d="M48.42,345.1043a2.7241,2.7241,0,1,1-2.7241-2.7237,2.7231,2.7231,0,0,1,2.7241,2.7237" class="cls-5"/><path d="M36.2281,345.1043a2.7241,2.7241,0,1,1-2.7222-2.7237,2.7213,2.7213,0,0,1,2.7222,2.7237" class="cls-5"/><path d="M61.1012,345.1043a2.7231,2.7231,0,1,1-2.7222-2.7237,2.7213,2.7213,0,0,1,2.7222,2.7237" class="cls-5"/><path d="M48.42,386.3361a2.7241,2.7241,0,1,1-2.7241-2.7235,2.723,2.723,0,0,1,2.7241,2.7235" class="cls-5"/><path d="M36.2281,386.3361a2.7241,2.7241,0,1,1-2.7222-2.7235,2.7212,2.7212,0,0,1,2.7222,2.7235" class="cls-5"/><path d="M61.1012,386.3361a2.7231,2.7231,0,1,1-2.7222-2.7235,2.7213,2.7213,0,0,1,2.7222,2.7235" class="cls-5"/><path d="M48.42,427.5678a2.7241,2.7241,0,1,1-2.7241-2.7232,2.723,2.723,0,0,1,2.7241,2.7232" class="cls-5"/><path d="M36.2281,427.5678a2.7241,2.7241,0,1,1-2.7222-2.7232,2.7212,2.7212,0,0,1,2.7222,2.7232" class="cls-5"/><path d="M61.1012,427.5678a2.7231,2.7231,0,1,1-2.7222-2.7232,2.7213,2.7213,0,0,1,2.7222,2.7232" class="cls-5"/><path d="M48.42,468.8a2.7241,2.7241,0,1,1-2.7241-2.723A2.723,2.723,0,0,1,48.42,468.8" class="cls-5"/><path d="M36.2281,468.8a2.7241,2.7241,0,1,1-2.7222-2.723,2.7212,2.7212,0,0,1,2.7222,2.723" class="cls-5"/><path d="M61.1012,468.8a2.7231,2.7231,0,1,1-2.7222-2.723,2.7213,2.7213,0,0,1,2.7222,2.723" class="cls-5"/><path d="M48.42,510.0313a2.7241,2.7241,0,1,1-2.7241-2.7228,2.723,2.723,0,0,1,2.7241,2.7228" class="cls-5"/><path d="M36.2281,510.0313a2.7241,2.7241,0,1,1-2.7222-2.7228,2.7212,2.7212,0,0,1,2.7222,2.7228" class="cls-5"/><path d="M61.1012,510.0313a2.7231,2.7231,0,1,1-2.7222-2.7228,2.7213,2.7213,0,0,1,2.7222,2.7228" class="cls-5"/><path d="M48.42,551.2631a2.7241,2.7241,0,1,1-2.7241-2.7226,2.7231,2.7231,0,0,1,2.7241,2.7226" class="cls-5"/><path d="M36.2281,551.2631a2.7241,2.7241,0,1,1-2.7222-2.7226,2.7213,2.7213,0,0,1,2.7222,2.7226" class="cls-5"/><path d="M61.1012,551.2631a2.7231,2.7231,0,1,1-2.7222-2.7226,2.7213,2.7213,0,0,1,2.7222,2.7226" class="cls-5"/><path d="M48.42,592.4948a2.7241,2.7241,0,1,1-2.7241-2.7223,2.723,2.723,0,0,1,2.7241,2.7223" class="cls-5"/><path d="M36.2281,592.4948a2.7241,2.7241,0,1,1-2.7222-2.7223,2.7212,2.7212,0,0,1,2.7222,2.7223" class="cls-5"/><path d="M61.1012,592.4948a2.7231,2.7231,0,1,1-2.7222-2.7223,2.7213,2.7213,0,0,1,2.7222,2.7223" class="cls-5"/><path d="M48.42,633.7266a2.7241,2.7241,0,1,1-2.7241-2.7221,2.7231,2.7231,0,0,1,2.7241,2.7221" class="cls-5"/><path d="M36.2281,633.7266a2.7241,2.7241,0,1,1-2.7222-2.7221,2.7213,2.7213,0,0,1,2.7222,2.7221" class="cls-5"/><path d="M61.1012,633.7266a2.7231,2.7231,0,1,1-2.7222-2.7221,2.7213,2.7213,0,0,1,2.7222,2.7221" class="cls-5"/><path d="M48.42,674.9583a2.7241,2.7241,0,1,1-2.7241-2.7219,2.723,2.723,0,0,1,2.7241,2.7219" class="cls-5"/><path d="M36.2281,674.9583a2.7241,2.7241,0,1,1-2.7222-2.7219,2.7212,2.7212,0,0,1,2.7222,2.7219" class="cls-5"/><path d="M61.1012,674.9583a2.7231,2.7231,0,1,1-2.7222-2.7219,2.7213,2.7213,0,0,1,2.7222,2.7219" class="cls-5"/><rect width="45.05" height="36.188" x="24.151" y="226.31" class="cls-3"/><path d="M49.4,244.4038a2.7242,2.7242,0,1,1-2.7242-2.7219A2.7232,2.7232,0,0,1,49.4,244.4038" class="cls-5"/><path d="M37.2087,244.4038a2.7242,2.7242,0,1,1-2.7222-2.7219,2.7213,2.7213,0,0,1,2.7222,2.7219" class="cls-5"/><path d="M62.0817,244.4038a2.723,2.723,0,1,1-2.7222-2.7219,2.7213,2.7213,0,0,1,2.7222,2.7219" class="cls-5"/><rect width="60.652" height="39.05" x="24.151" y="162.904" class="cls-3"/><path d="M50.6715,182.4272a2.7241,2.7241,0,1,1-2.7241-2.7219,2.7247,2.7247,0,0,1,2.7241,2.7219" class="cls-5"/><path d="M38.48,182.4272a2.7241,2.7241,0,1,1-2.7221-2.7219,2.7229,2.7229,0,0,1,2.7221,2.7219" class="cls-5"/><path d="M63.3532,182.4272a2.7231,2.7231,0,1,1-2.7222-2.7219,2.7229,2.7229,0,0,1,2.7222,2.7219" class="cls-5"/><path d="M75.92,182.4272a2.7242,2.7242,0,1,1-2.7222-2.7219,2.7229,2.7229,0,0,1,2.7222,2.7219" class="cls-5"/><rect width="158.48" height="45.05" x="227.376" y="711.082" class="cls-3"/><path d="M245.4724,730.8837a2.7231,2.7231,0,1,1-2.7241,2.7221,2.7212,2.7212,0,0,1,2.7241-2.7221" class="cls-5"/><path d="M245.4724,743.0732a2.7241,2.7241,0,1,1-2.7241,2.7241,2.7216,2.7216,0,0,1,2.7241-2.7241" class="cls-5"/><path d="M245.4724,718.2a2.7241,2.7241,0,1,1-2.7241,2.7221,2.7212,2.7212,0,0,1,2.7241-2.7221" class="cls-5"/><rect width="36.188" height="45.05" x="267.828" y="711.082" class="cls-3"/><path d="M285.9236,730.8837a2.7231,2.7231,0,1,1-2.7222,2.7221,2.7229,2.7229,0,0,1,2.7222-2.7221" class="cls-5"/><path d="M285.9236,743.0732a2.7241,2.7241,0,1,1-2.7222,2.7241,2.7233,2.7233,0,0,1,2.7222-2.7241" class="cls-5"/><path d="M285.9236,718.2a2.7241,2.7241,0,1,1-2.7222,2.7221,2.7229,2.7229,0,0,1,2.7222-2.7221" class="cls-5"/><rect width="36.188" height="45.05" x="349.668" y="711.082" class="cls-3"/><path d="M367.7634,730.8837a2.7231,2.7231,0,1,1-2.7221,2.7221,2.7229,2.7229,0,0,1,2.7221-2.7221" class="cls-5"/><path d="M367.7634,743.0732a2.7241,2.7241,0,1,1-2.7221,2.7241,2.7233,2.7233,0,0,1,2.7221-2.7241" class="cls-5"/><path d="M367.7634,718.2a2.7241,2.7241,0,1,1-2.7221,2.7221,2.7229,2.7229,0,0,1,2.7221-2.7221" class="cls-5"/><rect width="36.188" height="45.05" x="308.772" y="711.082" class="cls-3"/><path d="M326.8669,730.8837a2.7231,2.7231,0,1,1-2.7221,2.7221,2.7213,2.7213,0,0,1,2.7221-2.7221" class="cls-5"/><path d="M326.8669,743.0732a2.7241,2.7241,0,1,1-2.7221,2.7241,2.7216,2.7216,0,0,1,2.7221-2.7241" class="cls-5"/><path d="M326.8669,718.2a2.7241,2.7241,0,1,1-2.7221,2.7221,2.7213,2.7213,0,0,1,2.7221-2.7221" class="cls-5"/><rect width="158.48" height="45.05" x="403.905" y="710.974" class="cls-3"/><path d="M421.9982,730.7757a2.7231,2.7231,0,1,1-2.7222,2.7221,2.7216,2.7216,0,0,1,2.7222-2.7221" class="cls-5"/><path d="M421.9982,742.9652a2.7241,2.7241,0,1,1-2.7222,2.7241,2.722,2.722,0,0,1,2.7222-2.7241" class="cls-5"/><path d="M421.9982,718.0921a2.7241,2.7241,0,1,1-2.7222,2.7221,2.7216,2.7216,0,0,1,2.7222-2.7221" class="cls-5"/><rect width="36.188" height="45.05" x="444.357" y="710.974" class="cls-3"/><path d="M462.4513,730.7757a2.7231,2.7231,0,1,1-2.7241,2.7221,2.7212,2.7212,0,0,1,2.7241-2.7221" class="cls-5"/><path d="M462.4513,742.9652a2.7241,2.7241,0,1,1-2.7241,2.7241,2.7216,2.7216,0,0,1,2.7241-2.7241" class="cls-5"/><path d="M462.4513,718.0921a2.7241,2.7241,0,1,1-2.7241,2.7221,2.7212,2.7212,0,0,1,2.7241-2.7221" class="cls-5"/><rect width="36.188" height="45.05" x="526.197" y="710.974" class="cls-3"/><path d="M544.2911,730.7757a2.7231,2.7231,0,1,1-2.7241,2.7221,2.7213,2.7213,0,0,1,2.7241-2.7221" class="cls-5"/><path d="M544.2911,742.9652a2.7241,2.7241,0,1,1-2.7241,2.7241,2.7216,2.7216,0,0,1,2.7241-2.7241" class="cls-5"/><path d="M544.2911,718.0921a2.7241,2.7241,0,1,1-2.7241,2.7221,2.7213,2.7213,0,0,1,2.7241-2.7221" class="cls-5"/><rect width="36.19" height="45.05" x="485.299" y="710.974" class="cls-3"/><path d="M503.3946,730.7757a2.7231,2.7231,0,1,1-2.7241,2.7221,2.7212,2.7212,0,0,1,2.7241-2.7221" class="cls-5"/><path d="M503.3946,742.9652a2.7241,2.7241,0,1,1-2.7241,2.7241,2.7216,2.7216,0,0,1,2.7241-2.7241" class="cls-5"/><path d="M503.3946,718.0921a2.7241,2.7241,0,1,1-2.7241,2.7221,2.7212,2.7212,0,0,1,2.7241-2.7221" class="cls-5"/><rect width="43.512" height="24.818" x="28.915" y="88.912" class="cls-6"/><rect width="27.92" height="14.734" x="38.691" y="93.566" class="cls-7"/><path d="M51.6813,101.3218a9.791,9.791,0,1,1-9.7922-9.792,9.79,9.79,0,0,1,9.7922,9.792" class="cls-8"/><rect width="43.512" height="24.816" x="28.915" y="113.73" class="cls-6"/><rect width="27.92" height="14.734" x="38.691" y="118.384" class="cls-7"/><path d="M51.6813,126.1382a9.791,9.791,0,1,1-9.7922-9.792,9.7922,9.7922,0,0,1,9.7922,9.792" class="cls-8"/><polygon points="152.918 26.779 152.918 60.753 145.531 60.753 145.531 100.933 152.918 100.933 152.918 126.139 188.368 126.139 188.368 100.933 203.875 100.933 203.875 59.275 188.368 58.537 188.368 26.779 152.918 26.779" class="cls-3"/><path d="M180.4333,41.9136a9.7911,9.7911,0,1,1-9.7923-9.792,9.7923,9.7923,0,0,1,9.7923,9.792" class="cls-8"/><path d="M180.4333,110.9a9.7911,9.7911,0,1,1-9.7923-9.792,9.7909,9.7909,0,0,1,9.7923,9.792" class="cls-8"/><rect width="25.478" height="10.338" x="174.705" y="65.086" class="cls-8"/><rect width="25.478" height="10.34" x="174.705" y="83.558" class="cls-8"/><path d="M365.6411,621.8724h-3.0762a82.8494,82.8494,0,0,1-6.85-8.944h-.042v8.944H352.051v-15.27h3.3379c2.2041,2.706,5.4961,6.6759,6.5881,8.7479h.042v-8.7479h3.6221v15.27" class="cls-7"/><path d="M376.31,606.602l5.802,15.27h-4.886l-1.2-3.642h-4.7341l-1.4619,3.642h-3.5979l6.2158-15.27Zm-1.0259,9.206c-.5022-1.81-.9382-3.272-1.4841-5.454h-.044c-.5881,2.182-1.1121,3.644-1.68,5.454h3.208" class="cls-7"/><polygon points="383.573 621.872 383.573 609.46 379.167 609.46 379.167 606.603 392.583 606.603 392.583 609.46 388.177 609.46 388.177 621.872 383.573 621.872" class="cls-7"/><rect width="4.604" height="15.27" x="394.066" y="606.604" class="cls-7"/><path d="M399.7786,614.0638a7.592,7.592,0,1,1,15.1818,0c0,4.5581-2.9018,8.07-7.592,8.07s-7.59-3.512-7.59-8.07m10.382,0c0-2.7059-.8281-4.5379-2.7922-4.5379s-2.792,1.832-2.792,4.5379c0,2.8781.7422,4.8841,2.792,4.8841s2.7922-2.006,2.7922-4.8841" class="cls-7"/><path d="M429.6606,621.8724h-3.0742a82.35,82.35,0,0,1-6.85-8.944h-.044v8.944h-3.622v-15.27h3.3378c2.2041,2.706,5.4961,6.6759,6.5882,8.7479h.0439v-8.7479h3.62v15.27" class="cls-7"/><path d="M440.11,606.602l5.802,15.27h-4.884l-1.2019-3.642h-4.7341l-1.4619,3.642h-3.5979l6.2177-15.27Zm-1.0258,9.206c-.5-1.81-.9383-3.272-1.4822-5.454h-.044c-.59,2.182-1.112,3.644-1.6818,5.454h3.208" class="cls-7"/><polygon points="446.94 606.603 451.542 606.603 451.542 619.015 457.126 619.015 457.126 621.873 446.94 621.873 446.94 606.603" class="cls-7"/><rect width="4.604" height="15.272" x="345.178" y="626.602" class="cls-7"/><path d="M365.3325,641.8724h-3.0742a82.6689,82.6689,0,0,1-6.8518-8.9459h-.042v8.9459h-3.6221V626.6H355.08c2.2041,2.7061,5.4981,6.6761,6.5882,8.7481h.0419V626.6h3.6221v15.272" class="cls-7"/><path d="M375.0415,629.765a4.3431,4.3431,0,0,0-2.248-.568c-.8941,0-1.3521.4381-1.3521.94,0,.848,1.2881,1.5479,2.772,2.92,1.96,1.834,2.4419,2.99,2.4419,4.584,0,1.35-1.1118,4.494-5.6939,4.494a7.7345,7.7345,0,0,1-4.7981-1.3981l1.396-2.53a4.3224,4.3224,0,0,0,2.616,1.068c.916,0,1.92-.458,1.92-1.5919,0-1.22-1.4842-2.1161-2.6822-3.162-1.592-1.396-2.532-2.2061-2.532-4.08,0-2.4439,2.4642-4.1019,5.346-4.1019a8.1258,8.1258,0,0,1,3.9922,1.026l-1.178,2.4" class="cls-7"/><polygon points="381.192 641.872 381.192 629.458 376.786 629.458 376.786 626.6 390.2 626.6 390.2 629.458 385.796 629.458 385.796 641.872 381.192 641.872" class="cls-7"/><path d="M391.6816,626.6H398.49c3.5979,0,5.54,1.572,5.54,4.08a4.58,4.58,0,0,1-2.5739,4.406l3.38,6.546-4.9279.5021-2.42-6.0441h-1.2019v5.782h-4.604Zm4.604,6.612h1.3079a1.8411,1.8411,0,0,0,1.832-1.876,1.6848,1.6848,0,0,0-1.9179-1.8779h-1.222v3.7539" class="cls-7"/><path d="M410.0083,626.6011v7.986c0,2.746.4138,4.362,2.356,4.362,1.5258,0,2.4-1.528,2.4-4.428v-7.92h3.97v9.228c0,4.56-3.0979,6.306-6.5879,6.306-3.904,0-6.7419-1.6379-6.7419-6.196v-9.338h4.604" class="cls-7"/><path d="M439.3052,641.8724h-4.6021v-10.69h-.042c-1.18,3.9919-2.4,7.352-3.624,10.69h-2.9c-1.2439-3.3379-2.4878-6.698-3.688-10.69h-.042v10.69h-3.6218V626.6h6.2377c1.0481,2.9241,2.094,5.8261,3.12,9.402h.0439c.9819-3.5759,2.0061-6.4779,3.01-9.402h6.1082v15.272" class="cls-7"/><polygon points="450.541 629.458 445.873 629.458 445.873 632.47 450.433 632.47 450.433 635.328 445.873 635.328 445.873 639.012 451.481 639.012 451.481 641.872 441.271 641.872 441.271 626.6 450.541 626.6 450.541 629.458" class="cls-7"/><path d="M465.8989,641.8724h-3.0762a82.6482,82.6482,0,0,1-6.85-8.9459h-.042v8.9459h-3.6221V626.6h3.3379c2.2041,2.7061,5.4961,6.6761,6.5882,8.7481h.042V626.6h3.622v15.272" class="cls-7"/><polygon points="471.135 641.872 471.135 629.458 466.729 629.458 466.729 626.6 480.145 626.6 480.145 629.458 475.739 629.458 475.739 641.872 471.135 641.872" class="cls-7"/><path d="M489.1528,629.765a4.3406,4.3406,0,0,0-2.2461-.568c-.896,0-1.354.4381-1.354.94,0,.848,1.2881,1.5479,2.77,2.92,1.9639,1.834,2.4439,2.99,2.4439,4.584,0,1.35-1.1118,4.494-5.6919,4.494a7.7362,7.7362,0,0,1-4.8-1.3981l1.3959-2.53a4.3327,4.3327,0,0,0,2.616,1.068c.916,0,1.92-.458,1.92-1.5919,0-1.22-1.4822-2.1161-2.6821-3.162-1.5921-1.396-2.532-2.2061-2.532-4.08,0-2.4439,2.466-4.1019,5.3459-4.1019a8.1258,8.1258,0,0,1,3.9922,1.026l-1.178,2.4" class="cls-7"/><path d="M491.5955,629.23v-2.16h-.82v-.276h2.0561v.276h-.8161v2.16Zm4.444,0h-.424v-1.7959h-.012l-.9641,1.7959h-.2l-.8959-1.7959h-.0081V629.23h-.344v-2.4359h.488l.918,1.826.9939-1.826h.4482V629.23" class="cls-7"/><path d="M328.4829,612.3666a5.8213,5.8213,0,0,1,4.2078-4.886c5.154-1.464,7.9121-1.194,17.154-1.27-5.54,4.9579-9.9638,12.77-8.9739,20.4139-1.99-1.63-3.3339-3.96-5.062-5.822a19.2547,19.2547,0,0,0,1.668-3.8879c.6121-2.3121,2.2781-2.8581,4.39-2.7941.1582.006-.124-1.78-.708-1.938-1.574-.426-2.906.08-4.7339-.626a2.2276,2.2276,0,0,0-1.7439.3321c-1.5.7659-2.45,2.4039-4.1382,2.922Z" class="cls-7"/><path d="M300.227,610.8705a25.0911,25.0911,0,0,1,9.9539-4.324c4.7161-.8619,9.8259-.926,13.3479,2.47,6.6541,6.4079,12.0422,13.1339,17.8782,20.4559.23.288.21,1.0761.01,1.19a83.7237,83.7237,0,0,1-12.6721,5.9339,2.1877,2.1877,0,0,1-2.03-.448c-6.6538-6.046-11.21-13.2819-17.5959-19.572a21.3219,21.3219,0,0,0-8.7239-5.186c-.2641-.0819-.312-.42-.168-.52" class="cls-7"/><path d="M323.481,640.3705a42.8288,42.8288,0,0,0-11.9383,12.718,26.5063,26.5063,0,0,1,.48-14.968c1.67-4.6759,1.99-9.216,2.212-14.09,3.0358,3.496,6.4819,7.36,9.32,10.866Z" class="cls-7"/><rect width="260.228" height="32.484" x="265.603" y="533.714" class="cls-3"/><path d="M284.3493,553.0326a1.9641,1.9641,0,1,1-1.9641,1.9641,1.9631,1.9631,0,0,1,1.9641-1.9641" class="cls-5"/><path d="M284.3493,542.9524a1.9641,1.9641,0,1,1-1.9641,1.9641,1.9618,1.9618,0,0,1,1.9641-1.9641" class="cls-5"/><path d="M296.4411,553.0326a1.9641,1.9641,0,1,1-1.9641,1.9641,1.9631,1.9631,0,0,1,1.9641-1.9641" class="cls-5"/><path d="M296.4411,542.9524a1.9641,1.9641,0,1,1-1.9641,1.9641,1.9618,1.9618,0,0,1,1.9641-1.9641" class="cls-5"/><path d="M311.3981,553.0209a1.9641,1.9641,0,1,1-1.9641,1.9641,1.9618,1.9618,0,0,1,1.9641-1.9641" class="cls-5"/><path d="M311.3981,542.9408a1.9641,1.9641,0,1,1-1.9641,1.9641,1.9618,1.9618,0,0,1,1.9641-1.9641" class="cls-5"/><path d="M323.49,553.0209a1.9641,1.9641,0,1,1-1.9622,1.9641,1.9618,1.9618,0,0,1,1.9622-1.9641" class="cls-5"/><path d="M323.49,542.9408a1.9641,1.9641,0,1,1-1.9622,1.9641,1.9618,1.9618,0,0,1,1.9622-1.9641" class="cls-5"/><path d="M339.0993,553.0209a1.9641,1.9641,0,1,1-1.9641,1.9641,1.9618,1.9618,0,0,1,1.9641-1.9641" class="cls-5"/><path d="M339.0993,542.9408a1.9641,1.9641,0,1,1-1.9641,1.962,1.9614,1.9614,0,0,1,1.9641-1.962" class="cls-5"/><path d="M351.1911,553.0209a1.9641,1.9641,0,1,1-1.9622,1.9641,1.9635,1.9635,0,0,1,1.9622-1.9641" class="cls-5"/><path d="M351.1911,542.9408a1.9641,1.9641,0,1,1-1.9622,1.962,1.963,1.963,0,0,1,1.9622-1.962" class="cls-5"/><path d="M366.4059,553.0209a1.9641,1.9641,0,1,1-1.9621,1.9641,1.9623,1.9623,0,0,1,1.9621-1.9641" class="cls-5"/><path d="M366.4059,542.9408a1.9641,1.9641,0,1,1-1.9621,1.962,1.9618,1.9618,0,0,1,1.9621-1.962" class="cls-5"/><path d="M381.0055,553.0209a1.9641,1.9641,0,1,1-1.9641,1.9641,1.9618,1.9618,0,0,1,1.9641-1.9641" class="cls-5"/><path d="M381.0055,542.9408a1.9641,1.9641,0,1,1-1.9641,1.962,1.9614,1.9614,0,0,1,1.9641-1.962" class="cls-5"/><path d="M395.4567,553.0209a1.9641,1.9641,0,1,1-1.9622,1.9641,1.9623,1.9623,0,0,1,1.9622-1.9641" class="cls-5"/><path d="M395.4567,542.9408a1.9641,1.9641,0,1,1-1.9622,1.9641,1.9623,1.9623,0,0,1,1.9622-1.9641" class="cls-5"/><path d="M408.3629,553.0228a1.963,1.963,0,1,1-1.9621,1.962,1.9619,1.9619,0,0,1,1.9621-1.962" class="cls-5"/><path d="M408.3629,542.9408a1.9641,1.9641,0,1,1-1.9621,1.9641,1.9623,1.9623,0,0,1,1.9621-1.9641" class="cls-5"/><path d="M421.58,553.0209a1.9641,1.9641,0,1,1-1.9641,1.9641,1.9632,1.9632,0,0,1,1.9641-1.9641" class="cls-5"/><path d="M421.58,542.9408a1.9641,1.9641,0,1,1-1.9641,1.9641,1.9619,1.9619,0,0,1,1.9641-1.9641" class="cls-5"/><path d="M434.5993,553.0209a1.9641,1.9641,0,1,1-1.9641,1.9641,1.9618,1.9618,0,0,1,1.9641-1.9641" class="cls-5"/><path d="M434.5993,542.9408a1.9641,1.9641,0,1,1-1.9641,1.9641,1.9618,1.9618,0,0,1,1.9641-1.9641" class="cls-5"/><path d="M449.4919,553.0209a1.9641,1.9641,0,1,1-1.9622,1.9641,1.9632,1.9632,0,0,1,1.9622-1.9641" class="cls-5"/><path d="M449.4919,542.9408a1.9641,1.9641,0,1,1-1.9622,1.9641,1.9619,1.9619,0,0,1,1.9622-1.9641" class="cls-5"/><path d="M462.6579,553.0209a1.9641,1.9641,0,1,1-1.9622,1.9641,1.9635,1.9635,0,0,1,1.9622-1.9641" class="cls-5"/><path d="M462.6579,542.9408a1.9641,1.9641,0,1,1-1.9622,1.9641,1.9635,1.9635,0,0,1,1.9622-1.9641" class="cls-5"/><path d="M475.652,553.0209a1.9641,1.9641,0,1,1-1.9641,1.9641,1.9631,1.9631,0,0,1,1.9641-1.9641" class="cls-5"/><path d="M475.652,542.9408a1.9641,1.9641,0,1,1-1.9641,1.9641,1.9618,1.9618,0,0,1,1.9641-1.9641" class="cls-5"/><path d="M489.7067,553.0228a1.963,1.963,0,1,1-1.9622,1.962,1.9619,1.9619,0,0,1,1.9622-1.962" class="cls-5"/><path d="M489.7067,542.9408a1.9641,1.9641,0,1,1-1.9622,1.9641,1.9623,1.9623,0,0,1,1.9622-1.9641" class="cls-5"/><path d="M502.6071,553.0228a1.963,1.963,0,1,1-1.9641,1.962,1.9614,1.9614,0,0,1,1.9641-1.962" class="cls-5"/><path d="M502.6071,542.9408a1.9641,1.9641,0,1,1-1.9641,1.9641,1.9618,1.9618,0,0,1,1.9641-1.9641" class="cls-5"/><polyline points="379.414 530.281 262.01 530.281 262.01 569.609 526.204 569.609 526.204 530.281 410.772 530.281" class="cls-9"/><path d="M270.6852,183.6694a9.3811,9.3811,0,1,1-9.38-9.38,9.3807,9.3807,0,0,1,9.38,9.38" class="cls-5"/><path d="M266.72,183.6694a5.4161,5.4161,0,1,1-5.416-5.4158,5.4161,5.4161,0,0,1,5.416,5.4158" class="cls-8"/><path d="M537.568,175.7436a9.3812,9.3812,0,1,1-13.268,0,9.3831,9.3831,0,0,1,13.268,0" class="cls-5"/><path d="M536.3512,182.3764a5.416,5.416,0,1,1-5.416-5.4157,5.4174,5.4174,0,0,1,5.416,5.4157" class="cls-8"/><rect width="51.558" height="119.209" x="605.795" y="22.92" class="cls-3"/><rect width="32.486" height="104.862" x="615.769" y="29.186" class="cls-3"/><polyline points="612.349 88.185 612.349 135.493 651.675 135.493 651.675 29.037 612.349 29.037 612.349 75.551" class="cls-9"/><text class="cls-10" transform="translate(76.8438 248.8621)">RS-232</text><text class="cls-10" transform="translate(95.3926 188.5305)">I</text><text class="cls-10" transform="translate(102.2314 183.1199) scale(0.583)">2</text><text class="cls-10" transform="translate(108.2534 188.5305)">C</text><text class="cls-10" transform="translate(34.5532 80.6277)">CAN</text><text class="cls-11" transform="translate(80.1401 103.9055)">L (GRN)</text><text class="cls-11" transform="translate(80.1401 128.7244)">H (YEL)</text><path d="M103.8294,483.3889a4.493,4.493,0,0,1-1.8438,1.748,5.8305,5.8305,0,0,1-2.749.627H98.1731a5.8188,5.8188,0,0,1-2.7529-.627,4.48,4.48,0,0,1-1.8408-1.76,5.1609,5.1609,0,0,1-.65-2.6113v-3.1583h11.5517v3.2305A5.0017,5.0017,0,0,1,103.8294,483.3889Zm-4.5772,1.4082a5.1574,5.1574,0,0,0,2.3125-.4922,3.6349,3.6349,0,0,0,1.5391-1.3887,3.9309,3.9309,0,0,0,.5439-2.0781v-2.2539H93.7542v2.1817a4.0206,4.0206,0,0,0,.5556,2.1347,3.6774,3.6774,0,0,0,1.5547,1.4043,5.161,5.161,0,0,0,2.3086.4922Z" class="cls-12"/><path d="M92.929,488.469h11.5517v.9765H92.929Z" class="cls-12"/><path d="M95.2815,500.5647a4.4132,4.4132,0,0,1-1.8564-6.2949,4.3011,4.3011,0,0,1,1.86-1.5879,6.56,6.56,0,0,1,2.8008-.5625h1.2373a6.5913,6.5913,0,0,1,2.8008.5586,4.2983,4.2983,0,0,1,1.86,1.58,4.2489,4.2489,0,0,1,.6543,2.3516,4.1575,4.1575,0,0,1-2.5107,3.9512,6.646,6.646,0,0,1-2.8047.5547H98.0862A6.6725,6.6725,0,0,1,95.2815,500.5647Zm6.4219-.8379a3.3734,3.3734,0,0,0,1.5391-1.2168,3.3144,3.3144,0,0,0,.54-1.9,3.2562,3.2562,0,0,0-.54-1.873A3.4125,3.4125,0,0,0,101.7,493.52a6.0249,6.0249,0,0,0-2.36-.4258H98.0862a6.0068,6.0068,0,0,0-2.3682.43,3.45,3.45,0,0,0-1.5478,1.2246,3.2569,3.2569,0,0,0-.543,1.8769,3.3083,3.3083,0,0,0,.5391,1.9043,3.3449,3.3449,0,0,0,1.543,1.2051,6.2284,6.2284,0,0,0,2.3769.4141h1.2529A6.0524,6.0524,0,0,0,101.7034,499.7268Z" class="cls-12"/><polyline points="87.58 301.148 98.788 301.148 98.788 466.72" class="cls-13"/><polyline points="98.789 512.003 98.789 668.479 87.581 668.479" class="cls-13"/><text class="cls-10" transform="translate(282.8096 686.3103)">RE<tspan x="21.571" y="0" class="cls-14">L</tspan><tspan x="30.762" y="0" class="cls-15">A</tspan><tspan x="40.927" y="0">Y</tspan></text><polyline points="244.767 691.81 244.767 682.936 275.485 682.936" class="cls-13"/><polyline points="339.615 682.935 367.481 682.935 367.481 692.909" class="cls-13"/><text class="cls-16" transform="translate(439.164 688.0273)">ANA<tspan x="33.675" y="0" class="cls-17">L</tspan><tspan x="42.043" y="0">OG IN</tspan></text><text class="cls-18" transform="translate(620.6895 698.9387)">RESET</text><text class="cls-18" transform="translate(676.8691 698.9368)">USER</text><polyline points="421.203 691.743 421.203 683.484 435.233 683.484" class="cls-13"/><polyline points="534.062 682.386 547.994 682.386 547.994 692.91" class="cls-13"/><rect width="39.958" height="45.05" x="100.986" y="711.082" class="cls-3"/><path d="M120.9641,730.8817a2.7241,2.7241,0,1,1-2.7222,2.7241,2.7246,2.7246,0,0,1,2.7222-2.7241" class="cls-5"/><path d="M120.9641,743.0732a2.7241,2.7241,0,1,1-2.7222,2.722,2.7228,2.7228,0,0,1,2.7222-2.722" class="cls-5"/><text class="cls-10" transform="translate(106.7095 699.0276)">RSL</text><text class="cls-10" transform="translate(699.9297 499.1184) rotate(-90)">PWM</text><polyline points="704.341 668.388 693.133 668.388 693.133 507.371" class="cls-13"/><polyline points="693.132 452.228 693.132 295.795 704.34 295.795" class="cls-13"/><path d="M342.5446,89.0893a9.3811,9.3811,0,1,1-9.38-9.38,9.3807,9.3807,0,0,1,9.38,9.38" class="cls-5"/><path d="M338.58,89.0893a5.416,5.416,0,1,1-5.416-5.4157,5.4174,5.4174,0,0,1,5.416,5.4157" class="cls-8"/><path d="M342.5446,43.56a9.3811,9.3811,0,1,1-9.38-9.3779,9.3795,9.3795,0,0,1,9.38,9.3779" class="cls-5"/><path d="M338.58,43.56a5.416,5.416,0,1,1-5.416-5.4138A5.4162,5.4162,0,0,1,338.58,43.56" class="cls-8"/><rect width="66.468" height="53.384" x="234.563" y="39.83" class="cls-19"/><polygon points="252.103 45.289 283.307 45.289 290.877 53.045 290.877 87.755 244.719 87.755 244.719 53.229 252.103 45.289" class="cls-20"/><path d="M261.7516,71.187a1.9641,1.9641,0,1,1-1.9641,1.9622,1.9616,1.9616,0,0,1,1.9641-1.9622" class="cls-5"/><path d="M261.7516,61.1069a1.9641,1.9641,0,1,1-1.9641,1.9622,1.9616,1.9616,0,0,1,1.9641-1.9622" class="cls-5"/><path d="M273.8434,71.187a1.9641,1.9641,0,1,1-1.9621,1.9622,1.962,1.962,0,0,1,1.9621-1.9622" class="cls-5"/><path d="M273.8434,61.1069a1.9641,1.9641,0,1,1-1.9621,1.9622,1.962,1.962,0,0,1,1.9621-1.9622" class="cls-5"/><rect width="87.148" height="94.458" x="469.631" y="28.956" class="cls-19"/><rect width="65.546" height="38.174" x="480.433" y="65.82" class="cls-20"/><rect width="36.004" height="8.862" x="495.017" y="103.994" class="cls-20"/><rect width="23.264" height="7.386" x="501.479" y="112.856" class="cls-20"/><rect width="23.448" height="13.292" x="471.569" y="103.994" class="cls-21"/><rect width="23.45" height="13.292" x="531.021" y="103.994" class="cls-22"/><rect width="75.392" height="33.31" x="367.373" y="75.115" class="cls-19"/><rect width="71.456" height="30.084" x="369.371" y="76.458" class="cls-20"/><rect width="75.392" height="33.31" x="367.405" y="28.636" class="cls-19"/><rect width="71.454" height="30.084" x="369.403" y="29.977" class="cls-20"/><text class="cls-23" transform="translate(305.8943 249.387)">NI <tspan x="49.41" y="0" class="cls-24">r</tspan><tspan x="62.856" y="0" class="cls-25">oboRIO</tspan></text><rect width="65.362" height="11.792" x="372.387" y="79.707" class="cls-6"/><rect width="65.362" height="11.792" x="372.387" y="33.23" class="cls-6"/><text class="cls-10" transform="translate(701.2314 95.0745)">POWER</text><rect width="16.034" height="15.185" x="766.129" y="81.763" class="cls-26"/><rect width="10.603" height="15.185" x="781.292" y="81.882" class="cls-27"/><text class="cls-10" transform="translate(696.2935 121.0339)">STATUS</text><rect width="16.034" height="15.185" x="766.129" y="107.723" class="cls-26"/><rect width="10.603" height="15.185" x="781.292" y="107.842" class="cls-27"/><text class="cls-10" transform="translate(706.98 160.6868)">RADIO</text><rect width="16.034" height="15.185" x="766.129" y="147.636" class="cls-26"/><rect width="10.603" height="15.185" x="781.292" y="147.755" class="cls-27"/><text class="cls-10" transform="translate(710.0107 187.5559)">COMM</text><rect width="16.034" height="15.185" x="766.129" y="174.245" class="cls-26"/><rect width="10.603" height="15.185" x="781.292" y="174.364" class="cls-27"/><text class="cls-10" transform="translate(712.2559 215.468)">MODE</text><rect width="16.034" height="15.185" x="766.129" y="200.853" class="cls-26"/><rect width="10.603" height="15.185" x="781.292" y="200.973" class="cls-27"/><text class="cls-10" transform="translate(730.0605 256.0149)">RSL</text><rect width="16.034" height="15.185" x="766.129" y="241.399" class="cls-26"/><rect width="10.603" height="15.185" x="781.292" y="241.518" class="cls-27"/><rect width="108.849" height="50.995" x="610.252" y="708.002" class="cls-28" rx="9.855"/><rect width="27.121" height="27.303" x="624.519" y="719.847" class="cls-29" rx="13.56"/><rect width="27.121" height="27.303" x="677.713" y="719.847" class="cls-29" rx="13.56"/><rect width="46.329" height="413.171" x="717.962" y="274.243" class="cls-3"/><path d="M743.6053,296.8124a2.7241,2.7241,0,1,1-2.7241-2.7239,2.723,2.723,0,0,1,2.7241,2.7239" class="cls-5"/><path d="M731.4139,296.8124a2.7241,2.7241,0,1,1-2.7222-2.7239,2.7212,2.7212,0,0,1,2.7222,2.7239" class="cls-5"/><path d="M756.2869,296.8124a2.723,2.723,0,1,1-2.7221-2.7239,2.7212,2.7212,0,0,1,2.7221,2.7239" class="cls-5"/><path d="M743.6053,338.0442a2.7241,2.7241,0,1,1-2.7241-2.7237,2.723,2.723,0,0,1,2.7241,2.7237" class="cls-5"/><path d="M731.4139,338.0442a2.7241,2.7241,0,1,1-2.7222-2.7237,2.7212,2.7212,0,0,1,2.7222,2.7237" class="cls-5"/><path d="M756.2869,338.0442a2.723,2.723,0,1,1-2.7221-2.7237,2.7212,2.7212,0,0,1,2.7221,2.7237" class="cls-5"/><path d="M743.6053,379.2759a2.7241,2.7241,0,1,1-2.7241-2.7234,2.7231,2.7231,0,0,1,2.7241,2.7234" class="cls-5"/><path d="M731.4139,379.2759a2.7241,2.7241,0,1,1-2.7222-2.7234,2.7213,2.7213,0,0,1,2.7222,2.7234" class="cls-5"/><path d="M756.2869,379.2759a2.723,2.723,0,1,1-2.7221-2.7234,2.7213,2.7213,0,0,1,2.7221,2.7234" class="cls-5"/><path d="M743.6053,420.5077a2.7241,2.7241,0,1,1-2.7241-2.7232,2.723,2.723,0,0,1,2.7241,2.7232" class="cls-5"/><path d="M731.4139,420.5077a2.7241,2.7241,0,1,1-2.7222-2.7232,2.7212,2.7212,0,0,1,2.7222,2.7232" class="cls-5"/><path d="M756.2869,420.5077a2.723,2.723,0,1,1-2.7221-2.7232,2.7212,2.7212,0,0,1,2.7221,2.7232" class="cls-5"/><path d="M743.6053,461.7394a2.7241,2.7241,0,1,1-2.7241-2.723,2.7231,2.7231,0,0,1,2.7241,2.723" class="cls-5"/><path d="M731.4139,461.7394a2.7241,2.7241,0,1,1-2.7222-2.723,2.7213,2.7213,0,0,1,2.7222,2.723" class="cls-5"/><path d="M756.2869,461.7394a2.723,2.723,0,1,1-2.7221-2.723,2.7213,2.7213,0,0,1,2.7221,2.723" class="cls-5"/><path d="M743.6053,502.9712a2.7241,2.7241,0,1,1-2.7241-2.7228,2.723,2.723,0,0,1,2.7241,2.7228" class="cls-5"/><path d="M731.4139,502.9712a2.7241,2.7241,0,1,1-2.7222-2.7228,2.7212,2.7212,0,0,1,2.7222,2.7228" class="cls-5"/><path d="M756.2869,502.9712a2.723,2.723,0,1,1-2.7221-2.7228,2.7212,2.7212,0,0,1,2.7221,2.7228" class="cls-5"/><path d="M743.6053,544.203a2.7241,2.7241,0,1,1-2.7241-2.7226,2.723,2.723,0,0,1,2.7241,2.7226" class="cls-5"/><path d="M731.4139,544.203a2.7241,2.7241,0,1,1-2.7222-2.7226,2.7212,2.7212,0,0,1,2.7222,2.7226" class="cls-5"/><path d="M756.2869,544.203a2.723,2.723,0,1,1-2.7221-2.7226,2.7212,2.7212,0,0,1,2.7221,2.7226" class="cls-5"/><path d="M743.6053,585.4347a2.7241,2.7241,0,1,1-2.7241-2.7224,2.723,2.723,0,0,1,2.7241,2.7224" class="cls-5"/><path d="M731.4139,585.4347a2.7241,2.7241,0,1,1-2.7222-2.7224,2.7212,2.7212,0,0,1,2.7222,2.7224" class="cls-5"/><path d="M756.2869,585.4347a2.723,2.723,0,1,1-2.7221-2.7224,2.7212,2.7212,0,0,1,2.7221,2.7224" class="cls-5"/><path d="M743.6053,626.6665a2.7241,2.7241,0,1,1-2.7241-2.7222,2.723,2.723,0,0,1,2.7241,2.7222" class="cls-5"/><path d="M731.4139,626.6665a2.7241,2.7241,0,1,1-2.7222-2.7222,2.7212,2.7212,0,0,1,2.7222,2.7222" class="cls-5"/><path d="M756.2869,626.6665a2.723,2.723,0,1,1-2.7221-2.7222,2.7212,2.7212,0,0,1,2.7221,2.7222" class="cls-5"/><path d="M743.6053,667.8982a2.7241,2.7241,0,1,1-2.7241-2.7219,2.7231,2.7231,0,0,1,2.7241,2.7219" class="cls-5"/><path d="M731.4139,667.8982a2.7241,2.7241,0,1,1-2.7222-2.7219,2.7213,2.7213,0,0,1,2.7222,2.7219" class="cls-5"/><path d="M756.2869,667.8982a2.723,2.723,0,1,1-2.7221-2.7219,2.7212,2.7212,0,0,1,2.7221,2.7219" class="cls-5"/><text class="cls-10" transform="translate(80.1401 40.8093)">INPUT</text><text class="cls-30" transform="translate(80.1401 54.3831)">7-16V</text><line x1="117.259" x2="120.641" y1="53.006" y2="53.006" class="cls-31"/><line x1="122.499" x2="125.876" y1="53.006" y2="53.006" class="cls-31"/><line x1="127.744" x2="131.125" y1="53.006" y2="53.006" class="cls-31"/><line x1="117.26" x2="131.125" y1="49.613" y2="49.613" class="cls-31"/><text class="cls-30" transform="translate(80.1401 67.408)">45 W MAX</text><line x1="138.293" x2="138.293" y1="182.813" y2="207.264" class="cls-32"/><line x1="151.991" x2="151.991" y1="157.416" y2="180.408" class="cls-32"/><line x1="165.682" x2="165.682" y1="180.969" y2="203.98" class="cls-32"/><line x1="179.373" x2="179.373" y1="157.177" y2="180.167" class="cls-32"/><line x1="133.743" x2="142.847" y1="209.407" y2="209.407" class="cls-32"/><line x1="131.527" x2="145.059" y1="207.26" y2="207.26" class="cls-32"/><rect width="3.423" height="3.425" x="136.584" y="179.034" class="cls-33"/><rect width="3.427" height="3.425" x="150.274" y="179.034" class="cls-12"/><rect width="3.425" height="3.425" x="163.97" y="179.031" class="cls-12"/><rect width="3.421" height="3.425" x="177.668" y="179.034" class="cls-12"/><polygon points="131.892 163.626 131.892 197.859 185.766 197.851 185.766 163.626 131.892 163.626" class="cls-32"/><text class="cls-34" transform="translate(155.8281 212.8899) scale(1 1.0622)">SCL</text><text class="cls-35" transform="translate(140.3877 153.2463) scale(1 1.0115)">3.3V S<tspan x="39.238" y="0" class="cls-36">D</tspan><tspan x="48.03" y="0">A</tspan></text><line x1="135.756" x2="140.83" y1="211.558" y2="211.558" class="cls-32"/><line x1="151.297" x2="151.297" y1="244.232" y2="268.565" class="cls-32"/><line x1="164.992" x2="164.992" y1="244.606" y2="276.192" class="cls-32"/><line x1="178.683" x2="178.683" y1="244.606" y2="265.042" class="cls-32"/><line x1="148.761" x2="153.834" y1="272.864" y2="272.864" class="cls-32"/><line x1="146.747" x2="155.851" y1="270.712" y2="270.712" class="cls-32"/><line x1="144.531" x2="158.064" y1="268.565" y2="268.565" class="cls-32"/><rect width="3.425" height="3.425" x="176.975" y="240.808" class="cls-33"/><rect width="3.423" height="3.425" x="149.588" y="240.808" class="cls-33"/><rect width="3.421" height="3.425" x="163.284" y="240.808" class="cls-33"/><rect width="41.08" height="34.232" x="144.454" y="224.997" class="cls-32"/><text class="cls-35" transform="translate(168.1973 275.6057) scale(1 1.0115)">TXD</text><text class="cls-35" transform="translate(153.4424 286.5823) scale(1 1.0115)">RXD</text><line x1="32.513" x2="32.513" y1="702.77" y2="713.668" class="cls-32"/><line x1="46.216" x2="46.533" y1="702.697" y2="721.108" class="cls-32"/><line x1="59.907" x2="59.907" y1="702.77" y2="710.616" class="cls-32"/><line x1="29.977" x2="35.05" y1="717.97" y2="717.97" class="cls-32"/><line x1="27.963" x2="37.067" y1="715.815" y2="715.815" class="cls-32"/><line x1="25.747" x2="39.279" y1="713.672" y2="713.672" class="cls-32"/><text class="cls-37" transform="translate(40.0957 731.262) scale(1 1.0056)">5V</text><text class="cls-37" transform="translate(56.4795 719.9465) scale(1 1.0056)">S</text><rect width="3.179" height="3.458" x="58.358" y="699.234" class="cls-38"/><rect width="3.179" height="3.458" x="44.785" y="699.49" class="cls-38"/><rect width="3.179" height="3.458" x="31.027" y="699.445" class="cls-38"/><line x1="77.115" x2="82.189" y1="760.856" y2="760.856" class="cls-32"/><line x1="75.102" x2="84.206" y1="758.696" y2="758.696" class="cls-32"/><line x1="72.89" x2="86.422" y1="756.553" y2="756.553" class="cls-32"/><line x1="79.656" x2="92.194" y1="748.171" y2="748.171" class="cls-32"/><line x1="92.129" x2="84.125" y1="734.424" y2="734.424" class="cls-32"/><line x1="79.652" x2="79.652" y1="747.826" y2="756.553" class="cls-32"/><line x1="79.656" x2="79.656" y1="755.177" y2="748.521" class="cls-32"/><text class="cls-37" transform="translate(75.9795 738.1838) scale(1 1.0056)">S</text><rect width="3.179" height="3.458" x="92.199" y="732.62" class="cls-38"/><rect width="3.179" height="3.458" x="92.017" y="746.481" class="cls-38"/><line x1="199.946" x2="205.02" y1="760.851" y2="760.851" class="cls-32"/><line x1="197.933" x2="207.037" y1="758.696" y2="758.696" class="cls-39"/><line x1="195.721" x2="209.253" y1="756.549" y2="756.549" class="cls-32"/><line x1="215.066" x2="206.956" y1="734.424" y2="734.424" class="cls-32"/><line x1="215.066" x2="206.956" y1="720.701" y2="720.701" class="cls-32"/><polyline points="202.487 756.549 202.487 747.973 215.066 747.973" class="cls-32"/><text class="cls-40" transform="translate(182.3267 723.1824) scale(1 1.0605)">FWD</text><text class="cls-41" transform="translate(186.4014 737.115) scale(1 1.1297)">REV</text><rect width="3.179" height="3.458" x="215.18" y="718.878" class="cls-38"/><rect width="3.179" height="3.458" x="214.858" y="732.591" class="cls-38"/><rect width="3.179" height="3.458" x="214.829" y="746.338" class="cls-38"/><line x1="587.698" x2="592.771" y1="761.006" y2="761.006" class="cls-42"/><line x1="585.689" x2="594.793" y1="758.854" y2="758.854" class="cls-42"/><line x1="583.472" x2="597.005" y1="756.707" y2="756.707" class="cls-42"/><line x1="585.831" x2="577.806" y1="734.225" y2="734.225" class="cls-42"/><line x1="585.827" x2="577.802" y1="720.66" y2="720.66" class="cls-42"/><polyline points="590.239 756.707 590.239 748.184 577.806 748.184" class="cls-42"/><text class="cls-40" transform="translate(586.7065 723.5276) scale(1 1.0605)">S</text><text class="cls-41" transform="translate(587.3628 737.7009) scale(1 1.1297)">5V</text><rect width="3.179" height="3.458" x="574.391" y="718.833" class="cls-38"/><rect width="3.179" height="3.458" x="574.599" y="732.361" class="cls-38"/><rect width="3.179" height="3.458" x="574.552" y="746.305" class="cls-38"/><line x1="751.41" x2="756.484" y1="713.381" y2="713.381" class="cls-32"/><line x1="749.401" x2="758.501" y1="711.234" y2="711.234" class="cls-32"/><line x1="747.189" x2="760.721" y1="709.087" y2="709.087" class="cls-32"/><line x1="726.553" x2="726.553" y1="698.111" y2="706.022" class="cls-32"/><line x1="740.247" x2="740.247" y1="698.172" y2="716.312" class="cls-32"/><line x1="753.938" x2="753.938" y1="698.111" y2="709.456" class="cls-32"/><text class="cls-37" transform="translate(723.2422 715.365) scale(1 1.0056)">S</text><text class="cls-37" transform="translate(734.061 726.3728) scale(1 1.0056)">6V</text><rect width="3.179" height="3.458" x="724.853" y="694.841" class="cls-38"/><rect width="3.179" height="3.458" x="738.651" y="694.841" class="cls-38"/><rect width="3.179" height="3.458" x="752.292" y="694.841" class="cls-38"/><path d="M608.4348,650.4734a6.8485,6.8485,0,0,0,6.8555-6.8392" class="cls-43"/><path d="M608.4348,636.7828a6.8529,6.8529,0,0,0-6.8394,6.8515" class="cls-43"/><text class="cls-44" transform="translate(558.2002 663.6775) scale(1 1.0349)"><tspan class="cls-45">A</tspan><tspan x="7.588" y="0">CCELEROMETER</tspan></text><text class="cls-44" transform="translate(604.1157 610.5105) scale(1 1.0349)">Y</text><text class="cls-44" transform="translate(591.5674 638.1057) scale(1 1.0349)">Z</text><text class="cls-44" transform="translate(636.9126 647.5886) scale(1 1.0349)">X</text><line x1="632.451" x2="608.439" y1="643.975" y2="643.975" class="cls-46"/><line x1="608.435" x2="608.435" y1="643.975" y2="616.87" class="cls-46"/><path d="M608.4348,650.4734a6.8453,6.8453,0,1,0-6.8394-6.8392A6.8485,6.8485,0,0,0,608.4348,650.4734Z" class="cls-32"/><polyline points="636.076 643.975 631.351 642.153 632.472 643.975 631.351 645.794" class="cls-12"/><polyline points="636.076 643.975 631.351 642.153 632.472 643.975 631.351 645.794" class="cls-47"/><polyline points="608.435 613.367 606.637 618.1 608.435 616.63 610.245 618.1 608.435 613.367" class="cls-12"/><polyline points="608.435 613.367 606.637 618.1 608.435 616.63 610.245 618.1 608.435 613.367" class="cls-47"/><line x1="631.351" x2="636.076" y1="645.793" y2="643.975" class="cls-48"/><line x1="631.351" x2="636.076" y1="645.793" y2="643.975" class="cls-47"/><path d="M608.4387,645.1806a1.5465,1.5465,0,1,0-1.5424-1.5464,1.5521,1.5521,0,0,0,1.5424,1.5464" class="cls-12"/><path d="M608.4387,645.1806a1.5465,1.5465,0,1,0-1.5424-1.5464A1.5521,1.5521,0,0,0,608.4387,645.1806Z" class="cls-32"/><line x1="613.145" x2="654.225" y1="272.024" y2="272.024" class="cls-43"/><line x1="604.414" x2="628.102" y1="248.052" y2="248.052" class="cls-32"/><line x1="604.414" x2="628.102" y1="234.357" y2="234.357" class="cls-32"/><line x1="604.415" x2="628.102" y1="220.666" y2="220.666" class="cls-32"/><line x1="613.149" x2="613.149" y1="169.321" y2="272.024" class="cls-32"/><line x1="604.414" x2="628.102" y1="206.976" y2="206.976" class="cls-32"/><line x1="604.414" x2="628.102" y1="193.289" y2="193.289" class="cls-32"/><line x1="654.229" x2="654.229" y1="272.035" y2="169.333" class="cls-32"/><line x1="654.229" x2="613.149" y1="169.317" y2="169.317" class="cls-43"/><line x1="638.822" x2="662.513" y1="248.06" y2="248.06" class="cls-49"/><line x1="604.414" x2="628.102" y1="248.052" y2="248.052" class="cls-49"/><line x1="604.41" x2="628.098" y1="234.361" y2="234.361" class="cls-49"/><line x1="638.818" x2="662.509" y1="234.361" y2="234.361" class="cls-49"/><line x1="604.41" x2="628.098" y1="220.67" y2="220.67" class="cls-49"/><line x1="638.818" x2="662.509" y1="220.67" y2="220.67" class="cls-49"/><line x1="593.516" x2="593.516" y1="184.449" y2="193.354" class="cls-49"/><line x1="604.41" x2="628.098" y1="206.976" y2="206.976" class="cls-49"/><line x1="638.818" x2="662.509" y1="206.976" y2="206.976" class="cls-49"/><line x1="590.975" x2="596.053" y1="197.656" y2="197.656" class="cls-49"/><line x1="588.97" x2="598.07" y1="195.505" y2="195.505" class="cls-49"/><line x1="586.754" x2="600.282" y1="193.358" y2="193.358" class="cls-49"/><line x1="604.41" x2="628.098" y1="193.281" y2="193.281" class="cls-49"/><line x1="638.818" x2="662.509" y1="193.281" y2="193.281" class="cls-49"/><rect width="41.08" height="102.703" x="613.149" y="169.321" class="cls-49"/><text class="cls-35" transform="translate(664.6221 196.2122) scale(1 1.0115)">CS0</text><text class="cls-35" transform="translate(664.6157 209.8884) scale(1 1.0115)">CS1</text><text class="cls-35" transform="translate(664.6079 223.8308) scale(1 1.0115)">5V</text><text class="cls-35" transform="translate(664.6001 237.5852) scale(1 1.0115)">CS2</text><text class="cls-35" transform="translate(664.7925 251.2903) scale(1 1.0115)">CS3</text><text class="cls-35" transform="translate(572.627 210.8137) scale(1 1.0115)">SCLK</text><text class="cls-35" transform="translate(571.333 224.5105) scale(1 1.0115)">MOSI</text><text class="cls-35" transform="translate(571.3252 238.2649) scale(1 1.0115)">MISO</text><text class="cls-35" transform="translate(578.4531 252.4558) scale(1 1.0115)">3.3V</text><rect width="3.179" height="3.458" x="626.474" y="191.265" class="cls-38"/><rect width="3.179" height="3.458" x="626.474" y="204.951" class="cls-38"/><rect width="3.179" height="3.458" x="626.474" y="218.642" class="cls-38"/><rect width="3.179" height="3.458" x="626.474" y="232.333" class="cls-38"/><rect width="3.179" height="3.458" x="626.474" y="246.027" class="cls-38"/><rect width="3.179" height="3.458" x="637.193" y="246.036" class="cls-38"/><rect width="3.179" height="3.458" x="637.189" y="232.337" class="cls-38"/><rect width="3.179" height="3.458" x="637.189" y="218.646" class="cls-38"/><rect width="3.179" height="3.458" x="637.189" y="204.951" class="cls-38"/><rect width="3.179" height="3.458" x="637.189" y="191.256" class="cls-38"/><text class="cls-10" transform="translate(620.0332 158.9714)">SPI</text><path d="M628.5207,58.0545a2.7241,2.7241,0,1,1-2.7241-2.7238,2.723,2.723,0,0,1,2.7241,2.7238" class="cls-5"/><path d="M641.2024,58.0545a2.7231,2.7231,0,1,1-2.7222-2.7238,2.7212,2.7212,0,0,1,2.7222,2.7238" class="cls-5"/><path d="M628.27,69.836a2.7242,2.7242,0,1,1-2.7242-2.7239A2.7231,2.7231,0,0,1,628.27,69.836" class="cls-5"/><path d="M640.952,69.836a2.7231,2.7231,0,1,1-2.7222-2.7239,2.7212,2.7212,0,0,1,2.7222,2.7239" class="cls-5"/><path d="M628.27,81.6174a2.7242,2.7242,0,1,1-2.7242-2.7239,2.7231,2.7231,0,0,1,2.7242,2.7239" class="cls-5"/><path d="M640.952,81.6174a2.7231,2.7231,0,1,1-2.7222-2.7239,2.7212,2.7212,0,0,1,2.7222,2.7239" class="cls-5"/><path d="M628.27,93.3989a2.7242,2.7242,0,1,1-2.7242-2.7239,2.7231,2.7231,0,0,1,2.7242,2.7239" class="cls-5"/><path d="M640.952,93.3989A2.7231,2.7231,0,1,1,638.23,90.675a2.7212,2.7212,0,0,1,2.7222,2.7239" class="cls-5"/><path d="M628.27,105.18a2.7242,2.7242,0,1,1-2.7242-2.7239A2.7231,2.7231,0,0,1,628.27,105.18" class="cls-5"/><path d="M640.72,105.18a2.723,2.723,0,1,1-2.7222-2.7239A2.7212,2.7212,0,0,1,640.72,105.18" class="cls-5"/></g><g id="Shader"><g class="cls-50"><path d="M53.0862,781.6179A50.1427,50.1427,0,0,1,3,731.532V53.0857A50.1427,50.1427,0,0,1,53.0862,3H743.1941C771.7478,3,793.28,26.6814,793.28,58.0857V736.532c0,11.09-5.3769,22.4336-14.7524,31.1211a51.8947,51.8947,0,0,1-35.3335,13.9648Zm569.688-99.123a11.4131,11.4131,0,0,0-11.4,11.3994v62.124a11.4134,11.4134,0,0,0,11.4,11.4h34.3012a11.413,11.413,0,0,0,11.4-11.4v-62.124a11.4127,11.4127,0,0,0-11.4-11.3994ZM699.6028,96.7371a11.4132,11.4132,0,0,0-11.4,11.4v14.3017a11.4124,11.4124,0,0,0,11.4,11.3994h72.1245a11.4125,11.4125,0,0,0,11.4-11.3994V108.1375a11.4133,11.4133,0,0,0-11.4-11.4Z" class="cls-48"/></g><path d="M743.1941,6C769.198,6,790.28,27.082,790.28,58.0859V736.532c0,21.0061-21.082,42.0859-47.0859,42.0859H53.0859A47.0857,47.0857,0,0,1,6,731.532V53.0859A47.0871,47.0871,0,0,1,53.0859,6H743.1941M699.6029,136.8389h72.1243a14.4,14.4,0,0,0,14.4-14.4V108.1372a14.4,14.4,0,0,0-14.4-14.4H699.6029a14.4,14.4,0,0,0-14.4,14.4v14.3015a14.4,14.4,0,0,0,14.4,14.4m-76.8289,633.58h34.3016a14.4,14.4,0,0,0,14.4-14.4V693.8945a14.4,14.4,0,0,0-14.4-14.4H622.774a14.4,14.4,0,0,0-14.4,14.4v62.1243a14.4,14.4,0,0,0,14.4,14.4M743.1941,0H53.0859A53.146,53.146,0,0,0,0,53.0859V731.532a53.146,53.146,0,0,0,53.0859,53.0859H743.1941a54.8827,54.8827,0,0,0,37.3726-14.7646c9.986-9.2534,15.7133-21.3985,15.7133-33.3213V58.0859c0-16.2685-5.47-31.0991-15.4014-41.7595A50.9539,50.9539,0,0,0,743.1941,0ZM699.6029,130.8389a8.41,8.41,0,0,1-8.4-8.4V108.1372a8.41,8.41,0,0,1,8.4-8.4h72.1243a8.41,8.41,0,0,1,8.4,8.4v14.3015a8.41,8.41,0,0,1-8.4,8.4Zm-76.8289,633.58a8.41,8.41,0,0,1-8.4-8.4V693.8945a8.41,8.41,0,0,1,8.4-8.4h34.3016a8.41,8.41,0,0,1,8.4,8.4v62.1243a8.41,8.41,0,0,1-8.4,8.4Z" class="cls-51"/></g><g id="Edge_Fix_TOP_" data-name="Edge Fix (TOP)"><path d="M-.8689-1.5509v787.72H797.1489V-1.5509ZM748.8779,777.2662,50.8551,777.78C25.0707,775.7153,9.14,757.6163,5.9782,732.64L6.7421,46.9749c2.03-21.1,20.1644-39.3677,40.9884-41.6014l700.17.1456c21.0427,2.4862,38.8976,20.007,41.9894,40.9877l.0759,684.1015C789.9913,755.8423,773.8058,773.01,748.8779,777.2662Z" class="cls-12"/></g></svg>