<svg xmlns="http://www.w3.org/2000/svg" viewBox="0 0 1219.333 782.046"><defs><style>.cls-1{fill:#434343}.cls-2{fill:#4f4e51}.cls-3{fill:#323031}.cls-4{fill:#6a5f27}.cls-5{fill:#fff}.cls-10,.cls-12,.cls-6,.cls-8,.cls-9{fill:none}.cls-6{stroke:#fff;stroke-miterlimit:10;stroke-width:8.0596px}.cls-7{fill:#221f1f}.cls-8{stroke:#221f1f}.cls-10,.cls-12,.cls-8,.cls-9{stroke-linecap:round;stroke-linejoin:round}.cls-10,.cls-8,.cls-9{stroke-width:16.248px}.cls-9{stroke:#e9262a}.cls-10{stroke:#babcbe}.cls-11{font-size:64.992px;font-family:Verdana;letter-spacing:.001em}.cls-11,.cls-17{fill:#010101}.cls-12{stroke:#6d6e71;stroke-width:24px}.cls-13{fill:#38363d}.cls-14{fill:#5f5c65}.cls-15{fill:#cccdd1}.cls-16{fill:#1c1b20}.cls-18{fill:#0d0d0e}</style></defs><g id="Layer_1" data-name="Layer 1"><path d="M1508.7912-1833.5,1511.5623,247.53c0,68.6419-55.7933,124.2871-124.618,124.2871h-2056.37c-68.8246,0-124.618-55.6452-124.618-124.2871l-2.7711-2096.8818c0-68.6419,55.7933-124.2871,124.618-124.2871H1368.28c83.005-7.1413,141.9284,36.7485,140.5064,116.0226" class="cls-1"/><rect width="2272.156" height="2225.97" x="-773.521" y="-1914.134" class="cls-2" rx="87.64" transform="translate(1163.7063 -438.5924) rotate(-90)"/><rect width="1229.689" height="137.885" x="26.994" y="177.994" class="cls-3"/><path d="M94.1672,239.5583a8.1076,8.1076,0,1,1-8.1069,8.1076,8.1044,8.1044,0,0,1,8.1069-8.1076" class="cls-4"/><path d="M94.1672,275.8427a8.1076,8.1076,0,1,1-8.1069,8.1017,8.099,8.099,0,0,1,8.1069-8.1017" class="cls-4"/><path d="M94.1672,201.8149a8.1044,8.1044,0,1,1-8.1069,8.1018,8.099,8.099,0,0,1,8.1069-8.1018" class="cls-4"/><path d="M216.8821,239.5583a8.1076,8.1076,0,1,1-8.1062,8.1076,8.1044,8.1044,0,0,1,8.1062-8.1076" class="cls-4"/><path d="M216.8821,275.8427a8.1076,8.1076,0,1,1-8.1062,8.1017,8.099,8.099,0,0,1,8.1062-8.1017" class="cls-4"/><path d="M216.8821,201.8149a8.1044,8.1044,0,1,1-8.1062,8.1018,8.099,8.099,0,0,1,8.1062-8.1018" class="cls-4"/><path d="M339.597,239.5583a8.1076,8.1076,0,1,1-8.1055,8.1076,8.1043,8.1043,0,0,1,8.1055-8.1076" class="cls-4"/><path d="M339.597,275.8427a8.1076,8.1076,0,1,1-8.1055,8.1017,8.0989,8.0989,0,0,1,8.1055-8.1017" class="cls-4"/><path d="M339.597,201.8149a8.1044,8.1044,0,1,1-8.1055,8.1018,8.0989,8.0989,0,0,1,8.1055-8.1018" class="cls-4"/><path d="M462.312,239.5583a8.1076,8.1076,0,1,1-8.105,8.1076,8.1043,8.1043,0,0,1,8.105-8.1076" class="cls-4"/><path d="M462.312,275.8427a8.1076,8.1076,0,1,1-8.105,8.1017,8.0989,8.0989,0,0,1,8.105-8.1017" class="cls-4"/><path d="M462.312,201.8149a8.1044,8.1044,0,1,1-8.105,8.1018,8.0989,8.0989,0,0,1,8.105-8.1018" class="cls-4"/><path d="M585.0269,239.5583a8.1076,8.1076,0,1,1-8.1043,8.1076,8.1043,8.1043,0,0,1,8.1043-8.1076" class="cls-4"/><path d="M585.0269,275.8427a8.1076,8.1076,0,1,1-8.1043,8.1017,8.0989,8.0989,0,0,1,8.1043-8.1017" class="cls-4"/><path d="M585.0269,201.8149a8.1044,8.1044,0,1,1-8.1043,8.1018,8.0989,8.0989,0,0,1,8.1043-8.1018" class="cls-4"/><path d="M707.7418,239.5583a8.1076,8.1076,0,1,1-8.1036,8.1076,8.1043,8.1043,0,0,1,8.1036-8.1076" class="cls-4"/><path d="M707.7418,275.8427a8.1076,8.1076,0,1,1-8.1036,8.1017,8.0989,8.0989,0,0,1,8.1036-8.1017" class="cls-4"/><path d="M707.7418,201.8149a8.1044,8.1044,0,1,1-8.1036,8.1018,8.0989,8.0989,0,0,1,8.1036-8.1018" class="cls-4"/><path d="M830.4568,239.5583a8.1076,8.1076,0,1,1-8.103,8.1076,8.1043,8.1043,0,0,1,8.103-8.1076" class="cls-4"/><path d="M830.4568,275.8427a8.1076,8.1076,0,1,1-8.103,8.1017,8.0989,8.0989,0,0,1,8.103-8.1017" class="cls-4"/><path d="M830.4568,201.8149a8.1044,8.1044,0,1,1-8.103,8.1018,8.0989,8.0989,0,0,1,8.103-8.1018" class="cls-4"/><path d="M953.1717,239.5583a8.1076,8.1076,0,1,1-8.1023,8.1076,8.1043,8.1043,0,0,1,8.1023-8.1076" class="cls-4"/><path d="M953.1717,275.8427a8.1076,8.1076,0,1,1-8.1023,8.1017,8.0989,8.0989,0,0,1,8.1023-8.1017" class="cls-4"/><path d="M953.1717,201.8149a8.1044,8.1044,0,1,1-8.1023,8.1018,8.0989,8.0989,0,0,1,8.1023-8.1018" class="cls-4"/><path d="M1075.8866,239.5583a8.1076,8.1076,0,1,1-8.1017,8.1076,8.1043,8.1043,0,0,1,8.1017-8.1076" class="cls-4"/><path d="M1075.8866,275.8427a8.1076,8.1076,0,1,1-8.1017,8.1017,8.0989,8.0989,0,0,1,8.1017-8.1017" class="cls-4"/><path d="M1075.8866,201.8149a8.1044,8.1044,0,1,1-8.1017,8.1018,8.0989,8.0989,0,0,1,8.1017-8.1018" class="cls-4"/><path d="M1198.6016,239.5583a8.1076,8.1076,0,1,1-8.1011,8.1076,8.1043,8.1043,0,0,1,8.1011-8.1076" class="cls-4"/><path d="M1198.6016,275.8427a8.1076,8.1076,0,1,1-8.1011,8.1017,8.0989,8.0989,0,0,1,8.1011-8.1017" class="cls-4"/><path d="M1198.6016,201.8149a8.1044,8.1044,0,1,1-8.1011,8.1018,8.0989,8.0989,0,0,1,8.1011-8.1018" class="cls-4"/><path d="M628.448,74.6462a13.3724,13.3724,0,0,1,5.2026,5.4874,17.3533,17.3533,0,0,1,1.866,8.1817v3.1652a17.3189,17.3189,0,0,1-1.866,8.1933,13.3363,13.3363,0,0,1-5.2375,5.4787,15.36,15.36,0,0,1-7.7718,1.9357h-9.4V72.7076h9.6146A14.8859,14.8859,0,0,1,628.448,74.6462Zm4.1912,13.6226a15.3485,15.3485,0,0,0-1.4649-6.8825,10.82,10.82,0,0,0-4.133-4.5806,11.7,11.7,0,0,0-6.185-1.6189h-6.7081v29.4454h6.4931a11.9661,11.9661,0,0,0,6.3535-1.6538,10.9429,10.9429,0,0,0,4.1795-4.6271,15.3584,15.3584,0,0,0,1.4649-6.8708Z" class="cls-5"/><path d="M643.5675,107.0882V72.7076h2.9064v34.3806Z" class="cls-5"/><path d="M679.567,100.0865a13.1349,13.1349,0,0,1-18.7351,5.5252,12.802,12.802,0,0,1-4.7259-5.5368,19.5222,19.5222,0,0,1-1.6741-8.3358V88.0566a19.6189,19.6189,0,0,1,1.6625-8.3357,12.7924,12.7924,0,0,1,4.7026-5.5368,12.6471,12.6471,0,0,1,6.9988-1.9474,12.3736,12.3736,0,0,1,11.76,7.4726,19.7784,19.7784,0,0,1,1.6508,8.3473v3.6825A19.86,19.86,0,0,1,679.567,100.0865Zm-2.4938-19.1129a10.0382,10.0382,0,0,0-3.6214-4.5806,9.8624,9.8624,0,0,0-5.656-1.6073,9.69,9.69,0,0,0-5.5746,1.6073A10.1557,10.1557,0,0,0,658.6,80.9852a17.931,17.931,0,0,0-1.2672,7.0249v3.729a17.8786,17.8786,0,0,0,1.2789,7.0482,10.27,10.27,0,0,0,3.6447,4.6068,9.6931,9.6931,0,0,0,5.5862,1.616,9.8469,9.8469,0,0,0,5.6676-1.6044,9.9563,9.9563,0,0,0,3.5866-4.5922,18.5392,18.5392,0,0,0,1.2323-7.0744V88.01A18.01,18.01,0,0,0,677.0732,80.9736Z" class="cls-5"/><polyline points="86.058 123.009 86.058 89.652 578.838 89.652" class="cls-6"/><polyline points="713.61 89.648 1179.319 89.648 1179.319 123.006" class="cls-6"/><rect width="56.408" height="135.15" x="178.748" y="188.677" class="cls-7"/><polyline points="190.862 294.293 190.862 557.2 458.385 557.2" class="cls-8"/><polyline points="206.951 248.074 206.951 520.96 458.385 520.96" class="cls-9"/><polyline points="222.694 219.674 222.694 577.115 458.385 575.844" class="cls-10"/><text class="cls-11" transform="translate(718.9435 714.9821)">IR Transmitter</text><text class="cls-11" transform="translate(718.9435 575.9743)">IR Reciver</text><line x1="507.587" x2="424.776" y1="575.847" y2="575.841" class="cls-12"/><line x1="507.587" x2="424.776" y1="557.2" y2="557.194" class="cls-12"/><line x1="507.587" x2="424.776" y1="520.963" y2="520.957" class="cls-12"/><path d="M668.78,500.5832H507.04V601.3246H668.78a21.6,21.6,0,0,0,21.6-21.6V522.1832A21.6,21.6,0,0,0,668.78,500.5832Z" class="cls-13"/><circle cx="647.049" cy="550.954" r="36.313" class="cls-14"/><circle cx="647.049" cy="550.954" r="12.415" class="cls-15"/><circle cx="552.935" cy="550.954" r="25.019" class="cls-16"/><circle cx="552.935" cy="550.954" r="12.415" class="cls-17"/><rect width="56.408" height="135.15" x="72.838" y="190.937" class="cls-7"/><polyline points="84.951 296.553 84.951 699.243 449.198 699.243" class="cls-8"/><polyline points="101.041 250.334 101.041 663.003 449.198 663.003" class="cls-9"/><line x1="116.784" x2="116.784" y1="221.934" y2="575.841" class="cls-10"/><line x1="507.587" x2="424.776" y1="699.879" y2="699.873" class="cls-12"/><line x1="507.587" x2="424.776" y1="663.642" y2="663.636" class="cls-12"/><path d="M668.78,640.71H507.04V741.4517H668.78a21.6,21.6,0,0,0,21.6-21.6V662.31A21.6,21.6,0,0,0,668.78,640.71Z" class="cls-13"/><circle cx="647.049" cy="691.081" r="36.313" class="cls-14"/><circle cx="647.049" cy="691.081" r="12.415" class="cls-18"/><circle cx="552.935" cy="691.081" r="25.019" class="cls-16"/><circle cx="552.935" cy="691.081" r="12.415" class="cls-17"/></g></svg>