<svg xmlns="http://www.w3.org/2000/svg" viewBox="0 0 1196.961 786.566"><defs><style>.cls-1{fill:#434343}.cls-2{fill:#4f4e51}.cls-3{fill:#323031}.cls-4{fill:#6a5f27}.cls-30,.cls-5,.cls-7{fill:#fff}.cls-10,.cls-11,.cls-31,.cls-6,.cls-9{fill:none}.cls-6{stroke:#fff;stroke-miterlimit:10;stroke-width:8.0784px}.cls-7{font-size:48.4703px}.cls-12,.cls-30,.cls-7{font-family:Verdana}.cls-8{fill:#221f1f}.cls-9{stroke:#221f1f}.cls-10,.cls-11,.cls-31,.cls-9{stroke-linecap:round;stroke-linejoin:round}.cls-10,.cls-11,.cls-9{stroke-width:16.248px}.cls-10{stroke:#e9262a}.cls-11{stroke:#babcbe}.cls-12{font-size:64.992px;fill:#010101;letter-spacing:.001em}.cls-13{fill:#34232b}.cls-14{fill:#e0d8e3}.cls-15{fill:#9a1b1e}.cls-16{fill:#f8f3f9}.cls-17{fill:#e0cea0}.cls-18{fill:#d0d5d5}.cls-19{fill:#371d1c}.cls-20{fill:#805b44}.cls-21{fill:#e9dba0}.cls-22{fill:#d9c5c5}.cls-23{fill:#251a1e}.cls-24{fill:#cfced5}.cls-25{fill:#28449c}.cls-26{fill:#8f7b8a}.cls-27{fill:#31253d}.cls-28{fill:#2f2431}.cls-29{fill:#c9c9b5}.cls-30{font-size:24.46px;letter-spacing:.001em}.cls-31{stroke:#6d6e71;stroke-width:24px}</style></defs><g id="Layer_1" data-name="Layer 1"><path d="M1475.3285-1869.6557,1478.1061,216.22c0,68.8017-55.9233,124.5765-124.9081,124.5765H-707.96c-68.9849,0-124.9082-55.7748-124.9082-124.5765l-2.7776-2101.7638c0-68.8017,55.9233-124.5765,124.9082-124.5765H1334.49c83.1982-7.158,142.2588,36.834,140.8336,116.2927" class="cls-1"/><rect width="2277.446" height="2231.152" x="-812.297" y="-1950.477" class="cls-2" rx="87.844" transform="translate(1161.3267 -508.4755) rotate(-90)"/><rect width="1232.552" height="138.206" x="-9.918" y="146.522" class="cls-3"/><path d="M57.4109,208.23a8.1265,8.1265,0,1,1-8.1257,8.1265,8.1233,8.1233,0,0,1,8.1257-8.1265" class="cls-4"/><path d="M57.4109,244.5984a8.1265,8.1265,0,1,1-8.1257,8.1206,8.1178,8.1178,0,0,1,8.1257-8.1206" class="cls-4"/><path d="M57.4109,170.3983a8.1232,8.1232,0,1,1-8.1257,8.1206,8.1178,8.1178,0,0,1,8.1257-8.1206" class="cls-4"/><path d="M180.4116,208.23a8.1265,8.1265,0,1,1-8.1251,8.1265,8.1232,8.1232,0,0,1,8.1251-8.1265" class="cls-4"/><path d="M180.4116,244.5984a8.1265,8.1265,0,1,1-8.1251,8.1206,8.1178,8.1178,0,0,1,8.1251-8.1206" class="cls-4"/><path d="M180.4116,170.3983a8.1232,8.1232,0,1,1-8.1251,8.1206,8.1178,8.1178,0,0,1,8.1251-8.1206" class="cls-4"/><path d="M303.4122,208.23a8.1265,8.1265,0,1,1-8.1244,8.1265,8.1232,8.1232,0,0,1,8.1244-8.1265" class="cls-4"/><path d="M303.4122,244.5984a8.1265,8.1265,0,1,1-8.1244,8.1206,8.1178,8.1178,0,0,1,8.1244-8.1206" class="cls-4"/><path d="M303.4122,170.3983a8.1232,8.1232,0,1,1-8.1244,8.1206,8.1178,8.1178,0,0,1,8.1244-8.1206" class="cls-4"/><path d="M426.4129,208.23a8.1265,8.1265,0,1,1-8.1238,8.1265,8.1232,8.1232,0,0,1,8.1238-8.1265" class="cls-4"/><path d="M426.4129,244.5984a8.1265,8.1265,0,1,1-8.1238,8.1206,8.1177,8.1177,0,0,1,8.1238-8.1206" class="cls-4"/><path d="M426.4129,170.3983a8.1232,8.1232,0,1,1-8.1238,8.1206,8.1177,8.1177,0,0,1,8.1238-8.1206" class="cls-4"/><path d="M549.4135,208.23a8.1265,8.1265,0,1,1-8.1231,8.1265,8.1232,8.1232,0,0,1,8.1231-8.1265" class="cls-4"/><path d="M549.4135,244.5984a8.1265,8.1265,0,1,1-8.1231,8.1206,8.1177,8.1177,0,0,1,8.1231-8.1206" class="cls-4"/><path d="M549.4135,170.3983a8.1232,8.1232,0,1,1-8.1231,8.1206,8.1177,8.1177,0,0,1,8.1231-8.1206" class="cls-4"/><path d="M672.4141,208.23a8.1265,8.1265,0,1,1-8.1225,8.1265,8.1232,8.1232,0,0,1,8.1225-8.1265" class="cls-4"/><path d="M672.4141,244.5984a8.1265,8.1265,0,1,1-8.1225,8.1206,8.1177,8.1177,0,0,1,8.1225-8.1206" class="cls-4"/><path d="M672.4141,170.3983a8.1232,8.1232,0,1,1-8.1225,8.1206,8.1177,8.1177,0,0,1,8.1225-8.1206" class="cls-4"/><path d="M795.4148,208.23a8.1265,8.1265,0,1,1-8.1219,8.1265,8.1232,8.1232,0,0,1,8.1219-8.1265" class="cls-4"/><path d="M795.4148,244.5984a8.1265,8.1265,0,1,1-8.1219,8.1206,8.1177,8.1177,0,0,1,8.1219-8.1206" class="cls-4"/><path d="M795.4148,170.3983a8.1232,8.1232,0,1,1-8.1219,8.1206,8.1177,8.1177,0,0,1,8.1219-8.1206" class="cls-4"/><path d="M918.4154,208.23a8.1265,8.1265,0,1,1-8.1212,8.1265,8.1232,8.1232,0,0,1,8.1212-8.1265" class="cls-4"/><path d="M918.4154,244.5984a8.1265,8.1265,0,1,1-8.1212,8.1206,8.1177,8.1177,0,0,1,8.1212-8.1206" class="cls-4"/><path d="M918.4154,170.3983a8.1232,8.1232,0,1,1-8.1212,8.1206,8.1177,8.1177,0,0,1,8.1212-8.1206" class="cls-4"/><path d="M1041.4161,208.23a8.1265,8.1265,0,1,1-8.1206,8.1265,8.1232,8.1232,0,0,1,8.1206-8.1265" class="cls-4"/><path d="M1041.4161,244.5984a8.1265,8.1265,0,1,1-8.1206,8.1206,8.1177,8.1177,0,0,1,8.1206-8.1206" class="cls-4"/><path d="M1041.4161,170.3983a8.1232,8.1232,0,1,1-8.1206,8.1206,8.1177,8.1177,0,0,1,8.1206-8.1206" class="cls-4"/><path d="M1164.4167,208.23a8.1265,8.1265,0,1,1-8.12,8.1265,8.1232,8.1232,0,0,1,8.12-8.1265" class="cls-4"/><path d="M1164.4167,244.5984a8.1265,8.1265,0,1,1-8.12,8.1206,8.1177,8.1177,0,0,1,8.12-8.1206" class="cls-4"/><path d="M1164.4167,170.3983a8.1232,8.1232,0,1,1-8.12,8.1206,8.1177,8.1177,0,0,1,8.12-8.1206" class="cls-4"/><path d="M592.9357,42.9335a13.4029,13.4029,0,0,1,5.2147,5.5,17.3936,17.3936,0,0,1,1.87,8.2007v3.1725a17.359,17.359,0,0,1-1.87,8.2124,13.3675,13.3675,0,0,1-5.25,5.4915,15.3959,15.3959,0,0,1-7.79,1.94h-9.4214V40.99h9.6369A14.9208,14.9208,0,0,1,592.9357,42.9335Zm4.2009,13.6543a15.3837,15.3837,0,0,0-1.4683-6.8985,10.8446,10.8446,0,0,0-4.1426-4.5913,11.7272,11.7272,0,0,0-6.1994-1.6227h-6.7237v29.514h6.5082a11.9947,11.9947,0,0,0,6.3683-1.6576,10.9683,10.9683,0,0,0,4.1892-4.6379,15.3938,15.3938,0,0,0,1.4683-6.8869Z" class="cls-5"/><path d="M608.09,75.451V40.99h2.9132V75.451Z" class="cls-5"/><path d="M644.1737,68.433a13.1655,13.1655,0,0,1-18.7787,5.5381,12.8311,12.8311,0,0,1-4.7369-5.55,19.5679,19.5679,0,0,1-1.6781-8.3552V56.3751a19.6658,19.6658,0,0,1,1.6664-8.3551,12.8228,12.8228,0,0,1,4.7136-5.55,12.676,12.676,0,0,1,7.0151-1.9519,12.4023,12.4023,0,0,1,11.787,7.49,19.8243,19.8243,0,0,1,1.6547,8.3668v3.6911A19.9051,19.9051,0,0,1,644.1737,68.433Zm-2.5-19.1574a10.0609,10.0609,0,0,0-3.63-4.5913,9.8854,9.8854,0,0,0-5.6692-1.611,9.7122,9.7122,0,0,0-5.5876,1.611,10.18,10.18,0,0,0-3.63,4.6029,17.9728,17.9728,0,0,0-1.27,7.0413v3.7377a17.92,17.92,0,0,0,1.2818,7.0646,10.2945,10.2945,0,0,0,3.6532,4.6175,9.7158,9.7158,0,0,0,5.5992,1.62,9.87,9.87,0,0,0,5.6808-1.6081,9.98,9.98,0,0,0,3.595-4.6029,18.5821,18.5821,0,0,0,1.2352-7.0908V56.3285A18.0506,18.0506,0,0,0,641.6741,49.2756Z" class="cls-5"/><polyline points="49.283 91.409 49.283 57.974 543.21 57.974" class="cls-6"/><polyline points="678.296 57.97 1145.089 57.97 1145.089 91.406" class="cls-6"/><text class="cls-7" transform="translate(1236.2213 34.3409) rotate(-90)">RSL</text><rect width="56.408" height="135.15" x="10.611" y="154.381" class="cls-8"/><polyline points="22.725 259.997 22.725 516.652 215.249 516.652" class="cls-9"/><polyline points="38.815 213.778 38.815 468.597 215.249 468.597" class="cls-10"/><polyline points="54.557 185.378 54.557 568.974 215.249 567.703" class="cls-11"/><text class="cls-12" transform="translate(41.8859 746.752) scale(0.9166 1)">IR Digital Obstacle Avoidance Sensor</text><path d="M1056.5805,654.0992a47.82,47.82,0,0,0,34.9091-40.9647c2.0737-20.7316-10.1069-40.7734-29.922-48.8013H920.5068v91.789Z" class="cls-13"/><path d="M1056.5805,531.3092a47.8194,47.8194,0,0,0,34.9091-40.9647c2.0737-20.7316-10.1069-40.7734-29.922-48.8013H920.5068v91.7891Z" class="cls-14"/><rect width="557.331" height="261.043" x="351.999" y="405.24" class="cls-15" transform="translate(1261.3287 1071.5223) rotate(180)"/><circle cx="879.885" cy="588.6" r="12.458" class="cls-16"/><rect width="46.538" height="5.572" x="878.803" y="585.814" class="cls-17" rx="2.786" transform="translate(1804.1445 1177.2008) rotate(180)"/><circle cx="879.885" cy="637.344" r="12.458" class="cls-16"/><rect width="46.538" height="5.572" x="878.803" y="634.558" class="cls-17" rx="2.786" transform="translate(1804.1445 1274.6887) rotate(180)"/><circle cx="881.821" cy="463.408" r="12.458" class="cls-16"/><rect width="46.538" height="5.572" x="880.74" y="460.622" class="cls-17" rx="2.786" transform="translate(1808.0179 926.8163) rotate(-180)"/><circle cx="881.821" cy="512.152" r="12.458" class="cls-16"/><rect width="46.538" height="5.572" x="880.74" y="509.366" class="cls-17" rx="2.786" transform="translate(1808.0179 1024.3042) rotate(180)"/><rect width="24.513" height="15.992" x="799.82" y="640.13" class="cls-18" transform="translate(1624.153 1296.2527) rotate(180)"/><rect width="24.513" height="15.992" x="799.82" y="599.626" class="cls-18" transform="translate(1624.153 1215.2436) rotate(180)"/><rect width="24.513" height="24.513" x="799.82" y="615.618" class="cls-19" transform="translate(1624.153 1255.7482) rotate(180)"/><rect width="24.513" height="15.992" x="799.82" y="468.422" class="cls-18" transform="translate(1624.153 952.8355) rotate(180)"/><rect width="24.513" height="15.992" x="799.82" y="427.917" class="cls-18" transform="translate(1624.153 871.8264) rotate(180)"/><rect width="24.513" height="24.513" x="799.82" y="443.909" class="cls-19" transform="translate(1624.153 912.3309) rotate(180)"/><rect width="24.513" height="15.992" x="460.34" y="591.63" class="cls-18" transform="translate(-127.0297 1072.2222) rotate(-90)"/><rect width="24.513" height="15.992" x="500.844" y="591.63" class="cls-18" transform="translate(-86.5252 1112.7267) rotate(-90)"/><rect width="24.513" height="24.513" x="480.592" y="587.37" class="cls-19" transform="translate(-106.7774 1092.4744) rotate(-90)"/><rect width="24.513" height="15.992" x="460.34" y="549.833" class="cls-18" transform="translate(-85.2322 1030.4247) rotate(-90)"/><rect width="24.513" height="15.992" x="500.844" y="549.833" class="cls-18" transform="translate(-44.7277 1070.9293) rotate(-90)"/><rect width="24.513" height="24.513" x="480.592" y="545.572" class="cls-19" transform="translate(-64.98 1050.677) rotate(-90)"/><rect width="24.513" height="15.992" x="460.34" y="491.698" class="cls-18" transform="translate(-27.0979 972.2904) rotate(-90)"/><rect width="24.513" height="15.992" x="500.844" y="491.698" class="cls-18" transform="translate(13.4067 1012.7949) rotate(-90)"/><rect width="24.513" height="24.513" x="480.592" y="487.438" class="cls-19" transform="translate(-6.8456 992.5426) rotate(-90)"/><rect width="24.513" height="15.992" x="460.34" y="457.901" class="cls-18" transform="translate(6.6992 938.4933) rotate(-90)"/><rect width="24.513" height="15.992" x="500.844" y="457.901" class="cls-18" transform="translate(47.2037 978.9979) rotate(-90)"/><rect width="24.513" height="24.513" x="480.592" y="453.641" class="cls-20" transform="translate(26.9514 958.7456) rotate(-90)"/><rect width="24.513" height="15.992" x="460.34" y="637.16" class="cls-18" transform="translate(-172.5599 1117.7524) rotate(-90)"/><rect width="24.513" height="15.992" x="500.844" y="637.16" class="cls-18" transform="translate(-132.0554 1158.2569) rotate(-90)"/><rect width="24.513" height="24.513" x="480.592" y="632.9" class="cls-20" transform="translate(-152.3076 1138.0047) rotate(-90)"/><rect width="24.513" height="15.992" x="711.14" y="641.807" class="cls-18" transform="translate(73.5938 1373.1985) rotate(-90)"/><rect width="24.513" height="15.992" x="751.644" y="641.807" class="cls-18" transform="translate(114.0983 1413.7031) rotate(-90)"/><rect width="24.513" height="24.513" x="731.392" y="637.546" class="cls-21" transform="translate(93.8461 1393.4508) rotate(-90)"/><rect width="24.513" height="15.992" x="716.851" y="427.917" class="cls-18" transform="translate(293.1944 1165.0208) rotate(-90)"/><rect width="24.513" height="15.992" x="757.356" y="427.917" class="cls-18" transform="translate(333.6989 1205.5253) rotate(-90)"/><rect width="24.513" height="24.513" x="737.104" y="423.657" class="cls-21" transform="translate(313.4467 1185.273) rotate(-90)"/><circle cx="749.36" cy="538.197" r="39.575" class="cls-22"/><rect width="83.773" height="92.444" x="575.695" y="563.678" class="cls-23" transform="translate(1235.1637 1219.8006) rotate(180)"/><rect width="36.399" height="8.954" x="654.376" y="644.695" class="cls-24" transform="translate(1345.1509 1298.3446) rotate(180)"/><rect width="36.399" height="8.954" x="654.376" y="620.365" class="cls-24" transform="translate(1345.1509 1249.6827) rotate(180)"/><rect width="36.399" height="8.954" x="654.376" y="596.034" class="cls-24" transform="translate(1345.1509 1201.0208) rotate(180)"/><rect width="36.399" height="8.954" x="654.376" y="571.703" class="cls-24" transform="translate(1345.1509 1152.3589) rotate(180)"/><rect width="36.399" height="8.954" x="547.514" y="643.902" class="cls-24" transform="translate(1131.4278 1296.7575) rotate(180)"/><rect width="36.399" height="8.954" x="547.514" y="619.571" class="cls-24" transform="translate(1131.4278 1248.0956) rotate(180)"/><rect width="36.399" height="8.954" x="547.514" y="595.24" class="cls-24" transform="translate(1131.4278 1199.4337) rotate(180)"/><rect width="36.399" height="8.954" x="547.514" y="570.909" class="cls-24" transform="translate(1131.4278 1150.7717) rotate(180)"/><rect width="137.956" height="137.956" x="542.867" y="418.46" class="cls-25" transform="translate(1223.6899 974.8755) rotate(180)"/><circle cx="611.845" cy="487.438" r="26.97" class="cls-26"/><path d="M585.8235,494.1643h17.6934v18.7976a24.6881,24.6881,0,0,0,14.673.6156v-20.603h20.0457a27.0405,27.0405,0,0,0,.5793-5.5368,26.7289,26.7289,0,0,0-.958-6.7569H618.19V461.298a25.0018,25.0018,0,0,0-12.2937-.1231v21.0919h-20.5a27.033,27.033,0,0,0-.5211,5.1709A26.7449,26.7449,0,0,0,585.8235,494.1643Z" class="cls-27"/><rect width="48.061" height="48.061" x="359.205" y="588.746" class="cls-28" rx="10.213" transform="translate(766.472 1225.5534) rotate(180)"/><rect width="48.061" height="48.061" x="359.205" y="540.685" class="cls-28" rx="10.213" transform="translate(766.472 1129.4314) rotate(180)"/><rect width="48.061" height="48.061" x="359.205" y="492.624" class="cls-28" rx="10.213" transform="translate(766.472 1033.3094) rotate(180)"/><rect width="48.061" height="48.061" x="359.205" y="444.563" class="cls-28" rx="10.213" transform="translate(766.472 937.1874) rotate(180)"/><rect width="149.607" height="9.901" x="236.77" y="609.67" class="cls-29" transform="translate(623.1468 1229.2411) rotate(180)"/><rect width="149.607" height="9.901" x="234.847" y="562.75" class="cls-29" transform="translate(619.3009 1135.3999) rotate(180)"/><rect width="149.607" height="9.901" x="234.847" y="511.704" class="cls-29" transform="translate(619.3009 1033.3094) rotate(180)"/><rect width="149.607" height="9.901" x="236.77" y="463.643" class="cls-29" transform="translate(623.1468 937.1874) rotate(180)"/><text class="cls-30" transform="translate(431.1119 628.7159) rotate(-90)">AO</text><text class="cls-30" transform="translate(431.1119 585.255) rotate(-90)">DO</text><text class="cls-30" transform="translate(431.1119 543.2354) rotate(-90)">GND</text><text class="cls-30" transform="translate(431.1119 490.5167) rotate(-90)">VCC</text><line x1="267.434" x2="184.623" y1="567.703" y2="567.697" class="cls-31"/><line x1="267.434" x2="184.623" y1="516.658" y2="516.652" class="cls-31"/><line x1="267.434" x2="184.623" y1="468.597" y2="468.591" class="cls-31"/></g></svg>