<svg xmlns="http://www.w3.org/2000/svg" viewBox="0 0 664.558 849.111"><defs><style>.cls-1{fill:#434343}.cls-2{fill:#4f4e51}.cls-3{fill:#323031}.cls-4{fill:#6a5f27}.cls-5{fill:#5a5a5d}.cls-6{fill:#221f1f}.cls-7{fill:#f2f2f2}.cls-8{font-size:32.306px}.cls-13,.cls-19,.cls-20,.cls-8,.cls-9{fill:#fff}.cls-19,.cls-20,.cls-22,.cls-8,.cls-9{font-family:Verdana}.cls-9{font-size:21.5373px}.cls-10,.cls-23,.cls-24,.cls-25,.cls-26{fill:none}.cls-10{stroke:#fff;stroke-miterlimit:10;stroke-width:5.3843px}.cls-11{fill:#1e4696}.cls-12{fill:#e3cba4}.cls-14{fill:#45444d}.cls-15{fill:#a88a72}.cls-16{fill:#bfbebe}.cls-17{fill:#31313a}.cls-18{fill:#bcbab6}.cls-19{font-size:58.0665px}.cls-20{font-size:35.4174px}.cls-21{fill:#231f20}.cls-22{font-size:39.6483px;fill:#010101;letter-spacing:.001em}.cls-23{stroke:#e9262a}.cls-23,.cls-24,.cls-25,.cls-26{stroke-linecap:round;stroke-linejoin:round;stroke-width:10.832px}.cls-24{stroke:#221f1f}.cls-25{stroke:#babcbe}.cls-26{stroke:#1c75bc}</style></defs><g id="Layer_1" data-name="Layer 1"><path d="M-667.6906,2071.1875l-1.8513-1390.2611a83.1424,83.1424,0,0,1,83.2527-83.0317H787.4971A83.1424,83.1424,0,0,1,870.75,680.9264l1.8514,1400.8507a83.1425,83.1425,0,0,1-83.2528,83.0317H-573.82c-55.4526,4.7709-94.8173-24.55-93.8673-77.51" class="cls-1"/><rect width="1517.945" height="1487.09" x="-660.905" y="637.966" class="cls-2" rx="58.549" transform="translate(1479.5781 1283.4443) rotate(90)"/><rect width="821.51" height="92.116" x="-499.266" y="635.265" class="cls-3"/><path d="M277.3684,686.2522a5.4164,5.4164,0,1,1,5.4159-5.4164,5.4143,5.4143,0,0,1-5.4159,5.4164" class="cls-4"/><path d="M277.3684,662.0119a5.4164,5.4164,0,1,1,5.4159-5.4125,5.4106,5.4106,0,0,1-5.4159,5.4125" class="cls-4"/><path d="M277.3684,711.4672a5.4142,5.4142,0,1,1,5.4159-5.4125,5.4106,5.4106,0,0,1-5.4159,5.4125" class="cls-4"/><path d="M195.387,686.2522a5.4164,5.4164,0,1,1,5.4154-5.4164,5.4143,5.4143,0,0,1-5.4154,5.4164" class="cls-4"/><path d="M195.387,662.0119a5.4164,5.4164,0,1,1,5.4154-5.4125,5.4106,5.4106,0,0,1-5.4154,5.4125" class="cls-4"/><path d="M195.387,711.4672a5.4142,5.4142,0,1,1,5.4154-5.4125,5.4106,5.4106,0,0,1-5.4154,5.4125" class="cls-4"/><path d="M113.4056,686.2522a5.4164,5.4164,0,1,1,5.415-5.4164,5.4143,5.4143,0,0,1-5.415,5.4164" class="cls-4"/><path d="M113.4056,662.0119a5.4164,5.4164,0,1,1,5.415-5.4125,5.4106,5.4106,0,0,1-5.415,5.4125" class="cls-4"/><path d="M113.4056,711.4672a5.4142,5.4142,0,1,1,5.415-5.4125,5.4106,5.4106,0,0,1-5.415,5.4125" class="cls-4"/><path d="M31.4242,686.2522a5.4164,5.4164,0,1,1,5.4146-5.4164,5.4142,5.4142,0,0,1-5.4146,5.4164" class="cls-4"/><path d="M31.4242,662.0119a5.4164,5.4164,0,1,1,5.4146-5.4125,5.4105,5.4105,0,0,1-5.4146,5.4125" class="cls-4"/><path d="M31.4242,711.4672a5.4142,5.4142,0,1,1,5.4146-5.4125,5.4105,5.4105,0,0,1-5.4146,5.4125" class="cls-4"/><rect width="71.953" height="89.573" x="359.635" y="637.999" class="cls-3"/><path d="M395.6105,688.2018a5.4164,5.4164,0,1,1,5.412-5.4164,5.4143,5.4143,0,0,1-5.412,5.4164" class="cls-4"/><path d="M395.6105,663.9615a5.4164,5.4164,0,1,1,5.412-5.4125,5.4106,5.4106,0,0,1-5.412,5.4125" class="cls-4"/><path d="M395.6105,713.4168a5.4142,5.4142,0,1,1,5.412-5.4125,5.4106,5.4106,0,0,1-5.412,5.4125" class="cls-4"/><rect width="77.644" height="120.595" x="480.014" y="637.999" class="cls-3"/><path d="M518.839,690.73a5.4164,5.4164,0,1,1,5.412-5.4164,5.4175,5.4175,0,0,1-5.412,5.4164" class="cls-4"/><path d="M518.839,666.49a5.4164,5.4164,0,1,1,5.412-5.4125,5.4139,5.4139,0,0,1-5.412,5.4125" class="cls-4"/><path d="M518.839,715.9449a5.4142,5.4142,0,1,1,5.412-5.4125,5.4139,5.4139,0,0,1-5.412,5.4125" class="cls-4"/><path d="M518.839,740.9308a5.4164,5.4164,0,1,1,5.412-5.4125,5.4139,5.4139,0,0,1-5.412,5.4125" class="cls-4"/><rect width="49.346" height="86.515" x="655.431" y="647.472" class="cls-5"/><path d="M680.1015,692.7376a19.4676,19.4676,0,1,1,19.47-19.47,19.4663,19.4663,0,0,1-19.47,19.47" class="cls-6"/><rect width="49.342" height="86.515" x="606.089" y="647.472" class="cls-5"/><rect width="29.296" height="55.513" x="616.881" y="666.909" class="cls-7"/><path d="M630.7589,692.7376a19.4676,19.4676,0,1,1,19.4695-19.47,19.47,19.47,0,0,1-19.4695,19.47" class="cls-6"/><text class="cls-8" transform="translate(386.7478 746.7446) rotate(90)">RS-232</text><text class="cls-8" transform="translate(506.7087 781.6353) rotate(90)">I</text><text class="cls-8" transform="translate(517.4665 795.2329) rotate(90) scale(0.583)">2</text><text class="cls-8" transform="translate(506.7087 807.2066) rotate(90)">C</text><text class="cls-9" transform="translate(625.6189 755.9478) rotate(90)">H (YEL)</text><polyline points="282.786 764.115 282.786 786.399 -46.422 786.399" class="cls-10"/><path d="M521.3713,513.4846H141.4621A59.9385,59.9385,0,0,1,81.5236,453.546V138.1372a59.9385,59.9385,0,0,1,59.9385-59.9386H521.3713A59.9385,59.9385,0,0,1,581.31,138.1372V453.546A59.9385,59.9385,0,0,1,521.3713,513.4846Z" class="cls-11"/><circle cx="144.683" cy="138.731" r="43.28" class="cls-12"/><circle cx="144.683" cy="138.731" r="31.535" class="cls-13"/><circle cx="144.683" cy="449.055" r="21.067" class="cls-12"/><circle cx="144.683" cy="449.055" r="15.35" class="cls-13"/><circle cx="205.675" cy="449.055" r="21.067" class="cls-12"/><circle cx="205.675" cy="449.055" r="15.35" class="cls-13"/><circle cx="269.545" cy="449.055" r="21.067" class="cls-12"/><circle cx="269.545" cy="449.055" r="15.35" class="cls-13"/><circle cx="330.536" cy="449.055" r="21.067" class="cls-12"/><circle cx="330.536" cy="449.055" r="15.35" class="cls-13"/><circle cx="392.651" cy="449.055" r="21.067" class="cls-12"/><circle cx="392.651" cy="449.055" r="15.35" class="cls-13"/><circle cx="456.521" cy="449.055" r="21.067" class="cls-12"/><circle cx="456.521" cy="449.055" r="15.35" class="cls-13"/><circle cx="517.512" cy="449.055" r="21.067" class="cls-12"/><circle cx="517.512" cy="449.055" r="15.35" class="cls-13"/><circle cx="518.469" cy="138.731" r="43.28" class="cls-12"/><circle cx="518.469" cy="138.731" r="31.535" class="cls-13"/><rect width="58.041" height="108.654" x="302.396" y="208.164" class="cls-14"/><rect width="22.213" height="32.028" x="232.073" y="158.169" class="cls-15"/><rect width="22.213" height="32.028" x="254.286" y="158.169" class="cls-16"/><rect width="22.213" height="32.028" x="210.018" y="158.169" class="cls-16"/><rect width="22.213" height="32.028" x="140.183" y="199.401" class="cls-15"/><rect width="22.213" height="32.028" x="162.395" y="199.401" class="cls-16"/><rect width="22.213" height="32.028" x="118.128" y="199.401" class="cls-16"/><rect width="22.213" height="32.028" x="143.538" y="355.498" class="cls-15"/><rect width="22.213" height="32.028" x="165.751" y="355.498" class="cls-16"/><rect width="22.213" height="32.028" x="121.483" y="355.498" class="cls-16"/><rect width="26.842" height="32.028" x="223.718" y="325.415" class="cls-17" transform="translate(578.5675 104.2907) rotate(90)"/><rect width="26.842" height="32.028" x="223.718" y="352.257" class="cls-16" transform="translate(605.4094 131.1325) rotate(90)"/><rect width="26.842" height="32.028" x="223.718" y="298.764" class="cls-16" transform="translate(551.9166 77.6397) rotate(90)"/><rect width="26.842" height="32.028" x="227.579" y="225.508" class="cls-17" transform="translate(482.521 0.5219) rotate(90)"/><rect width="26.842" height="32.028" x="227.579" y="252.35" class="cls-16" transform="translate(509.3628 27.3637) rotate(90)"/><rect width="26.842" height="32.028" x="227.579" y="198.857" class="cls-16" transform="translate(455.87 -26.1291) rotate(90)"/><rect width="26.842" height="32.028" x="423.628" y="219.329" class="cls-17" transform="translate(874.0984 470.685) rotate(180)"/><rect width="26.842" height="32.028" x="396.786" y="219.329" class="cls-16" transform="translate(820.4147 470.685) rotate(180)"/><rect width="26.842" height="32.028" x="450.279" y="219.329" class="cls-16" transform="translate(927.4003 470.685) rotate(180)"/><rect width="26.842" height="32.028" x="423.724" y="219.329" class="cls-17" transform="translate(874.2892 470.685) rotate(180)"/><rect width="26.842" height="32.028" x="396.882" y="219.329" class="cls-16" transform="translate(820.6056 470.685) rotate(180)"/><rect width="26.842" height="32.028" x="450.375" y="219.329" class="cls-16" transform="translate(927.5912 470.685) rotate(180)"/><rect width="26.842" height="32.028" x="513.776" y="219.329" class="cls-17" transform="translate(1054.3935 470.685) rotate(180)"/><rect width="26.842" height="32.028" x="486.934" y="219.329" class="cls-16" transform="translate(1000.7099 470.685) rotate(180)"/><rect width="26.842" height="32.028" x="540.427" y="219.329" class="cls-16" transform="translate(1107.6955 470.685) rotate(180)"/><rect width="26.842" height="32.028" x="518.12" y="354.85" class="cls-17" transform="translate(1063.0811 741.7277) rotate(180)"/><rect width="26.842" height="32.028" x="491.278" y="354.85" class="cls-16" transform="translate(1009.3975 741.7277) rotate(180)"/><rect width="26.842" height="32.028" x="544.771" y="354.85" class="cls-16" transform="translate(1116.3831 741.7277) rotate(180)"/><rect width="26.842" height="32.028" x="423.819" y="354.85" class="cls-17" transform="translate(874.48 741.7277) rotate(180)"/><rect width="26.842" height="32.028" x="396.977" y="354.85" class="cls-16" transform="translate(820.7964 741.7277) rotate(180)"/><rect width="26.842" height="32.028" x="450.47" y="354.85" class="cls-16" transform="translate(927.782 741.7277) rotate(180)"/><rect width="26.842" height="28.375" x="318.091" y="352.03" class="cls-17" transform="translate(663.0242 732.4349) rotate(180)"/><rect width="26.842" height="28.375" x="291.249" y="352.03" class="cls-16" transform="translate(609.3406 732.4349) rotate(180)"/><rect width="26.842" height="28.375" x="344.742" y="352.03" class="cls-16" transform="translate(716.3262 732.4349) rotate(180)"/><rect width="69.648" height="24.9" x="400.56" y="287.222" class="cls-17"/><rect width="23.069" height="24.731" x="400.56" y="262.491" class="cls-18"/><rect width="23.069" height="24.731" x="422.045" y="312.122" class="cls-18"/><rect width="24.329" height="24.731" x="445.879" y="262.491" class="cls-18"/><rect width="69.648" height="32.939" x="119.82" y="275.774" class="cls-17"/><rect width="14.113" height="32.716" x="123.765" y="243.059" class="cls-18"/><rect width="14.113" height="32.716" x="170.495" y="243.059" class="cls-18"/><rect width="14.113" height="32.716" x="169.801" y="308.714" class="cls-18"/><rect width="14.113" height="32.716" x="145.983" y="308.714" class="cls-18"/><rect width="14.113" height="32.716" x="123.765" y="308.714" class="cls-18"/><rect width="69.648" height="24.9" x="496.716" y="287.222" class="cls-17"/><rect width="23.069" height="24.731" x="496.716" y="262.491" class="cls-18"/><rect width="23.069" height="24.731" x="518.202" y="312.122" class="cls-18"/><rect width="24.329" height="24.731" x="542.036" y="262.491" class="cls-18"/><text class="cls-19" transform="translate(193.7439 133.1157) scale(1.0844 1)">VL53L0X</text><text class="cls-20" transform="translate(119.8215 502.5103) scale(1.0844 1)">VIN</text><text class="cls-20" transform="translate(176.8611 421.4907) scale(1.0844 1)">2v8</text><text class="cls-20" transform="translate(286.9372 421.4907) scale(1.0844 1)">GPIO</text><text class="cls-20" transform="translate(422.0466 421.4907) scale(1.0844 1)">SCL</text><text class="cls-20" transform="translate(466.8708 502.5103) scale(1.0844 1)">SDA</text><text class="cls-20" transform="translate(339.7419 502.5103) scale(1.0844 1)">SHDN</text><text class="cls-20" transform="translate(232.0759 502.5103) scale(1.0844 1)">GND</text><circle cx="329.787" cy="225.605" r="5.255" class="cls-21"/><text class="cls-22" transform="translate(26.8428 50.8134)">Time of Flight Distance Sensor</text><rect width="49.569" height="99.861" x="497.606" y="647.793" class="cls-6"/><polyline points="527.26 692.196 528.147 548.313 144.683 548.308 144.683 449.055" class="cls-23"/><polyline points="538.124 675.614 539.885 538.043 271.294 537.726 269.545 449.055" class="cls-24"/><polyline points="516.481 711.223 517.835 547.954 517.835 547.954 517.512 449.055" class="cls-25"/><polyline points="505.42 725.36 506.898 558.689 456.682 558.689 456.521 449.055" class="cls-26"/></g></svg>