<svg xmlns="http://www.w3.org/2000/svg" viewBox="0 0 997.491 630.984"><defs><style>.cls-1{fill:#434343}.cls-2{fill:#4f4e51}.cls-3{fill:#323031}.cls-4{fill:#6a5f27}.cls-5{font-size:36.2844px}.cls-11,.cls-15,.cls-16,.cls-17,.cls-5{fill:#fff}.cls-11,.cls-15,.cls-16,.cls-18,.cls-5{font-family:Verdana}.cls-6{letter-spacing:.009em}.cls-7{letter-spacing:-.058em}.cls-8{letter-spacing:0}.cls-14,.cls-20,.cls-21,.cls-22,.cls-31,.cls-9{fill:none}.cls-17,.cls-9{stroke:#fff}.cls-9{stroke-miterlimit:10;stroke-width:6.0474px}.cls-10{letter-spacing:-.031em}.cls-11{font-size:26.2174px}.cls-12{fill:#5a5d65}.cls-13{fill:#23446c}.cls-14{stroke:#f1f2f2;stroke-miterlimit:2}.cls-14,.cls-17{stroke-width:1.5319px}.cls-15{font-size:22.1248px}.cls-16{font-size:21.4559px}.cls-17,.cls-20,.cls-21,.cls-22,.cls-31{stroke-linecap:round;stroke-linejoin:round}.cls-18{font-size:48.744px;fill:#010101;letter-spacing:.001em}.cls-19{fill:#221f1f}.cls-20{stroke:#221f1f}.cls-20,.cls-21,.cls-22{stroke-width:12.186px}.cls-21{stroke:#e9262a}.cls-22{stroke:#babcbe}.cls-23{fill:#1b1b19}.cls-24{fill:#1e1f19}.cls-25{fill:#262626}.cls-26{fill:#232122}.cls-27{fill:#624118}.cls-28{fill:#a6a39b}.cls-29{fill:#181818}.cls-30{fill:#0b0c09}.cls-31{stroke:#939598;stroke-width:22.5px}</style></defs><g id="Layer_1" data-name="Layer 1"><path d="M1067.1346,245.0392l-1561.4669,2.0793a93.3812,93.3812,0,0,1-93.2568-93.5051V-1389.35a93.3812,93.3812,0,0,1,93.2568-93.5051l1573.3606-2.0793a93.3811,93.3811,0,0,1,93.2567,93.5051V139.6088c5.3584,62.2815-27.5736,106.4937-87.0556,105.4268" class="cls-1"/><rect width="1704.874" height="1670.219" x="-559.91" y="-1450.128" class="cls-2" rx="65.759"/><rect width="353.911" height="100.604" x="-88.711" y="92.963" class="cls-3"/><rect width="80.814" height="100.604" x="1.625" y="92.963" class="cls-3"/><path d="M42.034,137.1839a6.081,6.081,0,1,1-6.0791,6.0788,6.08,6.08,0,0,1,6.0791-6.0788" class="cls-4"/><path d="M42.034,164.4049a6.0833,6.0833,0,1,1-6.0791,6.0834,6.0814,6.0814,0,0,1,6.0791-6.0834" class="cls-4"/><path d="M42.034,108.8594a6.0833,6.0833,0,1,1-6.0791,6.0788,6.08,6.08,0,0,1,6.0791-6.0788" class="cls-4"/><rect width="80.814" height="100.604" x="184.387" y="92.963" class="cls-3"/><path d="M224.7955,137.1839a6.081,6.081,0,1,1-6.0791,6.0788,6.08,6.08,0,0,1,6.0791-6.0788" class="cls-4"/><path d="M224.7955,164.4049a6.0833,6.0833,0,1,1-6.0791,6.0834,6.0814,6.0814,0,0,1,6.0791-6.0834" class="cls-4"/><path d="M224.7955,108.8594a6.0833,6.0833,0,1,1-6.0791,6.0788,6.08,6.08,0,0,1,6.0791-6.0788" class="cls-4"/><rect width="80.814" height="100.604" x="93.059" y="92.963" class="cls-3"/><path d="M133.4671,137.1839a6.081,6.081,0,1,1-6.0791,6.0788,6.0768,6.0768,0,0,1,6.0791-6.0788" class="cls-4"/><path d="M133.4671,164.4049a6.0833,6.0833,0,1,1-6.0791,6.0834,6.0778,6.0778,0,0,1,6.0791-6.0834" class="cls-4"/><path d="M133.4671,108.8594a6.0833,6.0833,0,1,1-6.0791,6.0788,6.0768,6.0768,0,0,1,6.0791-6.0788" class="cls-4"/><rect width="353.911" height="100.604" x="305.506" y="92.722" class="cls-3"/><path d="M345.91,136.9427a6.081,6.081,0,1,1-6.079,6.0788,6.0777,6.0777,0,0,1,6.079-6.0788" class="cls-4"/><path d="M345.91,164.1637a6.0833,6.0833,0,1,1-6.079,6.0834,6.0787,6.0787,0,0,1,6.079-6.0834" class="cls-4"/><path d="M345.91,108.6182a6.0833,6.0833,0,1,1-6.079,6.0788,6.0777,6.0777,0,0,1,6.079-6.0788" class="cls-4"/><rect width="80.814" height="100.604" x="395.841" y="92.722" class="cls-3"/><path d="M436.2486,136.9427a6.081,6.081,0,1,1-6.0834,6.0788,6.0767,6.0767,0,0,1,6.0834-6.0788" class="cls-4"/><path d="M436.2486,164.1637a6.0833,6.0833,0,1,1-6.0834,6.0834,6.0777,6.0777,0,0,1,6.0834-6.0834" class="cls-4"/><path d="M436.2486,108.6182a6.0833,6.0833,0,1,1-6.0834,6.0788,6.0767,6.0767,0,0,1,6.0834-6.0788" class="cls-4"/><rect width="80.814" height="100.604" x="578.603" y="92.722" class="cls-3"/><path d="M619.01,136.9427a6.081,6.081,0,1,1-6.0834,6.0788,6.0767,6.0767,0,0,1,6.0834-6.0788" class="cls-4"/><path d="M619.01,164.1637a6.0833,6.0833,0,1,1-6.0834,6.0834,6.0777,6.0777,0,0,1,6.0834-6.0834" class="cls-4"/><path d="M619.01,108.6182a6.0833,6.0833,0,1,1-6.0834,6.0788,6.0767,6.0767,0,0,1,6.0834-6.0788" class="cls-4"/><rect width="80.818" height="100.604" x="487.272" y="92.722" class="cls-3"/><path d="M527.6817,136.9427a6.081,6.081,0,1,1-6.0834,6.0788,6.0767,6.0767,0,0,1,6.0834-6.0788" class="cls-4"/><path d="M527.6817,164.1637a6.0833,6.0833,0,1,1-6.0834,6.0834,6.0777,6.0777,0,0,1,6.0834-6.0834" class="cls-4"/><path d="M527.6817,108.6182a6.0833,6.0833,0,1,1-6.0834,6.0788,6.0767,6.0767,0,0,1,6.0834-6.0788" class="cls-4"/><text class="cls-5" transform="translate(41.7817 37.6421)">RE<tspan x="48.172" y="0" class="cls-6">L</tspan><tspan x="68.696" y="0" class="cls-7">A</tspan><tspan x="91.395" y="0" class="cls-8">Y</tspan></text><polyline points="-49.875 49.926 -49.875 30.109 18.723 30.109" class="cls-9"/><polyline points="161.935 30.107 224.164 30.107 224.164 52.381" class="cls-9"/><text class="cls-5" transform="translate(395.4067 37.6421)">ANA<tspan x="76.75" y="0" class="cls-10">L</tspan><tspan x="95.822" y="0">OG IN</tspan></text><text class="cls-11" transform="translate(789.6216 65.8413)">RESET</text><text class="cls-11" transform="translate(915.0747 65.8413)">USER</text><polyline points="344.134 49.777 344.134 31.332 375.465 31.332" class="cls-9"/><polyline points="596.167 28.881 627.279 28.881 627.279 52.382" class="cls-9"/><polyline points="976.428 -2.379 951.399 -2.379 951.399 -361.955" class="cls-9"/><rect width="243.076" height="113.879" x="766.312" y="86.084" class="cls-12" rx="22.007"/><rect width="60.565" height="60.972" x="798.171" y="112.538" class="cls-13" rx="30.282"/><rect width="60.565" height="60.972" x="916.963" y="112.538" class="cls-13" rx="30.282"/><line x1="715.944" x2="727.274" y1="204.451" y2="204.451" class="cls-14"/><line x1="711.457" x2="731.788" y1="199.647" y2="199.647" class="cls-14"/><line x1="706.508" x2="736.728" y1="194.852" y2="194.852" class="cls-14"/><line x1="711.775" x2="693.855" y1="144.645" y2="144.645" class="cls-14"/><line x1="711.765" x2="693.846" y1="114.353" y2="114.353" class="cls-14"/><polyline points="721.618 194.852 721.618 175.817 693.854 175.817" class="cls-14"/><text class="cls-15" transform="translate(713.7309 120.7554) scale(1 1.0605)">S</text><text class="cls-16" transform="translate(715.1958 152.4038) scale(1 1.1297)">5V</text><rect width="7.099" height="7.723" x="686.227" y="110.273" class="cls-17"/><rect width="7.099" height="7.723" x="686.692" y="140.483" class="cls-17"/><rect width="7.099" height="7.723" x="686.587" y="171.622" class="cls-17"/><text class="cls-18" transform="translate(468.0166 310.7202)">IR Proximity Sensor<tspan x="0" y="58.493">Sharp GP2Y0A21YK</tspan></text><rect width="42.306" height="101.363" x="334.459" y="101.289" class="cls-19"/><line x1="366.33" x2="368.048" y1="182.17" y2="391.152" class="cls-20"/><line x1="355.613" x2="356.303" y1="147.671" y2="391.152" class="cls-21"/><line x1="343.974" x2="344.514" y1="126.37" y2="391.152" class="cls-22"/><path d="M598.0393,461.8191H568.8116a48.9756,48.9756,0,0,0-48.9756,48.9756h0A48.9756,48.9756,0,0,0,568.8116,559.77h29.2277a48.9756,48.9756,0,0,0,48.9756-48.9756h0A48.9756,48.9756,0,0,0,598.0393,461.8191Zm-.333,70.2454a21.27,21.27,0,1,1,21.27-21.27A21.27,21.27,0,0,1,597.7063,532.0645Z" class="cls-23"/><path d="M172.3216,460.2883H113.15a48.94,48.94,0,0,0-48.94,48.94h0a48.94,48.94,0,0,0,48.94,48.94h59.1719a48.94,48.94,0,0,0,48.94-48.94h0A48.94,48.94,0,0,0,172.3216,460.2883Zm-57.8148,69.4749a21.0874,21.0874,0,1,1,21.0874-21.0874A21.0875,21.0875,0,0,1,114.5068,529.7632Z" class="cls-23"/><rect width="393.832" height="172.259" x="164.804" y="423.314" class="cls-24" transform="translate(723.4399 1018.8873) rotate(180)"/><rect width="393.832" height="113.488" x="164.804" y="453.037" class="cls-25" transform="translate(723.4399 1019.5628) rotate(180)"/><rect width="102.68" height="97.951" x="449.201" y="461.819" class="cls-26" transform="translate(1001.0811 1021.5894) rotate(180)"/><rect width="216.844" height="93.713" x="178.99" y="461.819" class="cls-23" transform="translate(574.8241 1017.3515) rotate(180)"/><rect width="139.66" height="108.106" x="287.412" y="344.932" class="cls-27" transform="translate(714.4843 797.969) rotate(180)"/><polygon points="407.538 448.049 407.538 348.452 306.946 348.452 306.946 448.049 319.501 448.049 319.501 423.314 396.422 423.314 396.422 448.049 407.538 448.049" class="cls-28"/><path d="M178.99,459.7937H279.24a66.14,66.14,0,0,1,0,94.9318H178.99Z" class="cls-26"/><circle cx="231.751" cy="508.676" r="32.967"/><path d="M114.5068,463.1787a46.05,46.05,0,1,0,46.05,46.05A46.05,46.05,0,0,0,114.5068,463.1787Zm-.2507,66.9356a21.0874,21.0874,0,1,1,21.0873-21.0874A21.0874,21.0874,0,0,1,114.2561,530.1143Z" class="cls-26"/><path d="M597.7062,464.969a45.7507,45.7507,0,0,0-39.07,21.9672v47.7171a45.8062,45.8062,0,1,0,39.07-69.6843Zm0,67.0955a21.27,21.27,0,1,1,21.27-21.27A21.27,21.27,0,0,1,597.7063,532.0645Z" class="cls-26"/><circle cx="500.541" cy="510.795" r="40.702" class="cls-29"/><circle cx="500.541" cy="510.795" r="24.621" class="cls-30"/><line x1="369.457" x2="369.457" y1="323.528" y2="366.98" class="cls-31"/><line x1="355.612" x2="355.612" y1="323.205" y2="366.658" class="cls-31"/><line x1="341.767" x2="341.767" y1="323.528" y2="366.98" class="cls-31"/></g></svg>