<svg xmlns="http://www.w3.org/2000/svg" xmlns:xlink="http://www.w3.org/1999/xlink" id="Layer_1" data-name="Layer 1" viewBox="0 0 197.534 238.85"><defs><style>.cls-1{fill:none}.cls-2{fill:#323031}.cls-14,.cls-3{fill:#819356}.cls-4{fill:#079247}.cls-5{fill:#f2f2f2}.cls-6{fill:#6e7071}.cls-7{fill:#424242}.cls-8{fill:#5a5a5d}.cls-22,.cls-9{fill:#221f1f}.cls-10{fill:#bc2030}.cls-11{fill:#2f3378}.cls-12{fill:#d6dd28}.cls-13{fill:#37b24a}.cls-14{font-size:8.7057px;font-family:Heebo-Regular,Heebo}.cls-15{letter-spacing:.001em}.cls-16{letter-spacing:-.0001em}.cls-17{letter-spacing:-.015em}.cls-18,.cls-19{fill:#fff}.cls-19,.cls-22{font-size:5.8038px;font-family:Heebo-Light,Heebo;font-weight:300}.cls-20{letter-spacing:.0009em}.cls-21{letter-spacing:.001em}.cls-23{letter-spacing:-.0001em}.cls-24{letter-spacing:.0011em}.cls-25{letter-spacing:-.03em}.cls-26{letter-spacing:-.046em}.cls-27{letter-spacing:-.06em}.cls-28{fill:#383d37}.cls-29{fill:#b0a997}.cls-30{clip-path:url(#clip-path)}.cls-31{opacity:.33}.cls-32{fill:#231f20}.cls-33{fill:#00aeef}</style><clipPath id="clip-path"><path d="M184.7815,103.8419h-.3887a4.05,4.05,0,0,0-.108-.6h2.9819a3.4814,3.4814,0,0,0,3.4819-3.482V12.5453a3.4823,3.4823,0,0,0-3.4819-3.483H11.1486a3.4838,3.4838,0,0,0-3.483,3.483V99.76a3.4829,3.4829,0,0,0,3.483,3.482h.08a3.615,3.615,0,0,0-.1306.8824,8.5223,8.5223,0,0,0-6.2329,8.2045v78.2413a8.52,8.52,0,0,0,4.9918,7.7516,3.39,3.39,0,0,0-.08.6542v27.675a3.4814,3.4814,0,0,0,3.481,3.483h170.843a3.4823,3.4823,0,0,0,3.482-3.483v-27.675c0-.1069-.02-.2081-.03-.3126a8.5222,8.5222,0,0,0,5.7531-8.0552V112.3672A8.5253,8.5253,0,0,0,184.7815,103.8419Z" class="cls-1"/></clipPath></defs><path d="M186.8264,103.0691H10.7084a3.4829,3.4829,0,0,1-3.483-3.482V12.3721a3.4838,3.4838,0,0,1,3.483-3.483h176.118a3.4823,3.4823,0,0,1,3.482,3.483v87.215a3.4814,3.4814,0,0,1-3.482,3.482" class="cls-2"/><path d="M180.38,198.8317H14.2531a3.5974,3.5974,0,0,1-3.598-3.5979v-91.245a3.5974,3.5974,0,0,1,3.598-3.5971H180.38a3.5974,3.5974,0,0,1,3.598,3.5971v91.245a3.5974,3.5974,0,0,1-3.598,3.5979" class="cls-2"/><path d="M12.8185,195.3211H183.6614a3.4826,3.4826,0,0,1,3.482,3.482v27.675a3.4822,3.4822,0,0,1-3.482,3.483H12.8185a3.4814,3.4814,0,0,1-3.481-3.483v-27.675a3.4819,3.4819,0,0,1,3.481-3.482" class="cls-2"/><path d="M82.3859,110.7459h36.167V83.6979H82.3859a2.3494,2.3494,0,0,0-2.349,2.349v22.35a2.3494,2.3494,0,0,0,2.349,2.349" class="cls-3"/><path d="M80.2931,64.2645v36.127h27.972V64.2645a2.39,2.39,0,0,0-2.3891-2.389H82.6821a2.3889,2.3889,0,0,0-2.389,2.389" class="cls-3"/><rect width="9.458" height="16.818" x="95.733" y="84.471" class="cls-4"/><rect width="9.629" height="17.368" x="83.73" y="92.211" class="cls-2"/><path d="M92.7961,164.9324h0a4.6511,4.6511,0,0,1-4.651-4.6509V116.4694a.4741.4741,0,0,1,.4729-.474h8.357a.4736.4736,0,0,1,.4731.474V160.28a4.6523,4.6523,0,0,1-4.652,4.652" class="cls-3"/><path d="M106.47,165.1336h0a4.65,4.65,0,0,1-4.65-4.65v-43.813a.4742.4742,0,0,1,.473-.474h8.356a.4742.4742,0,0,1,.473.474v43.811a4.6523,4.6523,0,0,1-4.652,4.652" class="cls-3"/><path d="M137.0129,195.8855l.0069-89.565a1.164,1.164,0,0,1,1.164-1.165h9.209l-.0069,92.361h-8.742a1.63,1.63,0,0,1-1.631-1.631" class="cls-3"/><path d="M62.718,105.7391l-.007,89.566a1.164,1.164,0,0,1-1.165,1.164H52.337l.007-92.361h8.743a1.6314,1.6314,0,0,1,1.631,1.631" class="cls-3"/><path d="M144.093,92.83V47.5109a.825.825,0,0,1,.824-.825h9.318v47.297h-8.989a1.1534,1.1534,0,0,1-1.153-1.153" class="cls-5"/><rect width="25.346" height="13.512" x="108.817" y="45.172" class="cls-3"/><rect width="15.348" height="9.712" x="113.158" y="58.684" class="cls-3"/><path d="M64.6193,95.0232H59.05a1.9636,1.9636,0,0,1-1.964-1.964V24.3082a1.9636,1.9636,0,0,1,1.964-1.964h5.569a1.9642,1.9642,0,0,1,1.964,1.964v68.751a1.9642,1.9642,0,0,1-1.964,1.964" class="cls-3"/><path d="M60.1242,95.0232H46.1992a1.9077,1.9077,0,0,1-1.908-1.908V72.2432a1.9077,1.9077,0,0,1,1.908-1.908h13.925a1.9077,1.9077,0,0,1,1.908,1.908v20.872a1.9077,1.9077,0,0,1-1.908,1.908" class="cls-3"/><rect width="25.286" height="25.589" x="108.818" y="18.102" class="cls-6"/><rect width="25.589" height="92.201" x="26.748" y="104.257" class="cls-7"/><rect width="25.589" height="92.201" x="147.396" y="105.241" class="cls-6"/><rect width="25.589" height="47.529" x="155.504" y="46.571" class="cls-6"/><rect width="25.59" height="47.529" x="17.408" y="46.571" class="cls-7"/><rect width="18.767" height="10.703" x="19.446" y="48.118" class="cls-8"/><rect width="12.041" height="6.355" x="23.663" y="50.126" class="cls-5"/><path d="M29.2658,53.4694a4.223,4.223,0,1,1-4.223-4.2229,4.2234,4.2234,0,0,1,4.223,4.2229" class="cls-9"/><rect width="18.767" height="10.703" x="19.446" y="58.822" class="cls-8"/><rect width="12.041" height="6.355" x="23.663" y="60.829" class="cls-5"/><path d="M29.2658,64.1727a4.223,4.223,0,1,1-4.223-4.223,4.2234,4.2234,0,0,1,4.223,4.223" class="cls-9"/><rect width="18.767" height="10.704" x="19.446" y="69.525" class="cls-8"/><rect width="12.041" height="6.355" x="23.663" y="71.532" class="cls-5"/><path d="M29.2658,74.8758a4.223,4.223,0,1,1-4.223-4.223,4.2236,4.2236,0,0,1,4.223,4.223" class="cls-9"/><rect width="18.767" height="10.703" x="19.446" y="80.228" class="cls-8"/><rect width="12.041" height="6.354" x="23.663" y="82.236" class="cls-5"/><path d="M29.2658,85.58a4.223,4.223,0,1,1-4.223-4.223,4.2234,4.2234,0,0,1,4.223,4.223" class="cls-9"/><rect width="18.767" height="10.703" x="161.595" y="81.358" class="cls-8"/><rect width="12.041" height="6.355" x="164.104" y="83.698" class="cls-5"/><path d="M170.5422,86.7088a4.2225,4.2225,0,1,1,4.2229,4.223,4.2227,4.2227,0,0,1-4.2229-4.223" class="cls-9"/><rect width="18.767" height="10.704" x="161.595" y="70.654" class="cls-8"/><rect width="12.041" height="6.355" x="164.104" y="72.995" class="cls-5"/><path d="M170.5422,76.0047a4.2225,4.2225,0,1,1,4.2229,4.224,4.2234,4.2234,0,0,1-4.2229-4.224" class="cls-9"/><rect width="18.767" height="10.703" x="161.595" y="59.95" class="cls-8"/><rect width="12.041" height="6.354" x="164.104" y="62.292" class="cls-5"/><path d="M170.5422,65.3016a4.2225,4.2225,0,1,1,4.2229,4.223,4.2234,4.2234,0,0,1-4.2229-4.223" class="cls-9"/><rect width="18.767" height="10.703" x="161.595" y="49.246" class="cls-8"/><rect width="12.041" height="6.355" x="164.104" y="51.587" class="cls-5"/><path d="M170.5422,54.5983a4.2225,4.2225,0,1,1,4.2229,4.2231,4.2233,4.2233,0,0,1-4.2229-4.2231" class="cls-9"/><rect width="10.704" height="18.767" x="121.46" y="19.233" class="cls-8"/><rect width="6.355" height="12.041" x="123.802" y="23.449" class="cls-5"/><path d="M126.8117,29.0516a4.223,4.223,0,1,1,4.224-4.223,4.2234,4.2234,0,0,1-4.224,4.223" class="cls-9"/><rect width="10.703" height="18.767" x="110.757" y="19.233" class="cls-8"/><rect width="6.354" height="12.041" x="113.099" y="23.449" class="cls-5"/><path d="M116.1086,29.0516a4.223,4.223,0,1,1,4.2229-4.223,4.2234,4.2234,0,0,1-4.2229,4.223" class="cls-9"/><rect width="18.767" height="10.703" x="28.829" y="108.451" class="cls-8"/><rect width="12.042" height="6.354" x="33.046" y="110.457" class="cls-5"/><path d="M38.6486,113.8016a4.2225,4.2225,0,1,1-4.223-4.223,4.2234,4.2234,0,0,1,4.223,4.223" class="cls-9"/><rect width="18.767" height="10.703" x="28.829" y="119.154" class="cls-8"/><rect width="6.355" height="12.042" x="35.89" y="118.317" class="cls-5" transform="translate(-86.0651 160.7817) rotate(-88.795)"/><path d="M38.6486,124.5047a4.2225,4.2225,0,1,1-4.223-4.223,4.2234,4.2234,0,0,1,4.223,4.223" class="cls-9"/><rect width="18.767" height="10.703" x="28.829" y="129.857" class="cls-8"/><rect width="12.042" height="6.355" x="33.046" y="131.864" class="cls-5"/><path d="M38.6486,135.2078a4.2225,4.2225,0,1,1-4.223-4.223,4.2234,4.2234,0,0,1,4.223,4.223" class="cls-9"/><rect width="18.767" height="10.704" x="28.829" y="140.56" class="cls-8"/><rect width="12.042" height="6.355" x="33.046" y="142.567" class="cls-5"/><path d="M38.6486,145.9119a4.2225,4.2225,0,1,1-4.223-4.224,4.2234,4.2234,0,0,1,4.223,4.224" class="cls-9"/><rect width="18.767" height="10.703" x="28.829" y="151.34" class="cls-8"/><rect width="12.042" height="6.355" x="33.046" y="153.348" class="cls-5"/><path d="M38.6486,156.6922a4.2225,4.2225,0,1,1-4.223-4.223,4.2234,4.2234,0,0,1,4.223,4.223" class="cls-9"/><rect width="18.767" height="10.703" x="28.829" y="162.043" class="cls-8"/><rect width="12.042" height="6.355" x="33.046" y="164.051" class="cls-5"/><path d="M38.6486,167.3953a4.2225,4.2225,0,1,1-4.223-4.223,4.2234,4.2234,0,0,1,4.223,4.223" class="cls-9"/><rect width="18.767" height="10.704" x="28.829" y="172.747" class="cls-8"/><rect width="12.042" height="6.355" x="33.046" y="174.755" class="cls-5"/><path d="M38.6486,178.0983a4.2225,4.2225,0,1,1-4.223-4.2229,4.2236,4.2236,0,0,1,4.223,4.2229" class="cls-9"/><rect width="18.767" height="10.703" x="28.829" y="183.452" class="cls-8"/><rect width="12.042" height="6.354" x="33.046" y="185.459" class="cls-5"/><path d="M38.6486,188.8025a4.2225,4.2225,0,1,1-4.223-4.223,4.2234,4.2234,0,0,1,4.223,4.223" class="cls-9"/><rect width="18.767" height="10.703" x="152.995" y="184.618" class="cls-8"/><rect width="12.041" height="6.354" x="155.504" y="186.96" class="cls-5"/><path d="M161.9426,189.9694a4.2225,4.2225,0,1,1,4.223,4.2231,4.2234,4.2234,0,0,1-4.223-4.2231" class="cls-9"/><rect width="18.767" height="10.703" x="152.995" y="173.915" class="cls-8"/><rect width="12.041" height="6.354" x="155.504" y="176.257" class="cls-5"/><path d="M161.9426,179.2664a4.2225,4.2225,0,1,1,4.223,4.223,4.2234,4.2234,0,0,1-4.223-4.223" class="cls-9"/><rect width="18.767" height="10.703" x="152.995" y="163.212" class="cls-8"/><rect width="12.041" height="6.355" x="155.504" y="165.553" class="cls-5"/><path d="M161.9426,168.5633a4.2225,4.2225,0,1,1,4.223,4.223,4.2234,4.2234,0,0,1-4.223-4.223" class="cls-9"/><rect width="18.767" height="10.703" x="152.995" y="152.509" class="cls-8"/><rect width="12.041" height="6.355" x="155.504" y="154.85" class="cls-5"/><path d="M161.9426,157.86a4.2225,4.2225,0,1,1,4.223,4.223,4.2236,4.2236,0,0,1-4.223-4.223" class="cls-9"/><rect width="18.767" height="10.703" x="152.995" y="141.728" class="cls-8"/><rect width="12.041" height="6.354" x="155.504" y="144.07" class="cls-5"/><path d="M161.9426,147.0789a4.2225,4.2225,0,1,1,4.223,4.223,4.2234,4.2234,0,0,1-4.223-4.223" class="cls-9"/><rect width="18.767" height="10.703" x="152.995" y="131.025" class="cls-8"/><rect width="12.041" height="6.355" x="155.504" y="133.365" class="cls-5"/><path d="M161.9426,136.3758a4.2225,4.2225,0,1,1,4.223,4.223,4.2234,4.2234,0,0,1-4.223-4.223" class="cls-9"/><rect width="18.767" height="10.703" x="152.995" y="120.321" class="cls-8"/><rect width="12.041" height="6.355" x="155.504" y="122.662" class="cls-5"/><path d="M161.9426,125.6727a4.2225,4.2225,0,1,1,4.223,4.223,4.2234,4.2234,0,0,1-4.223-4.223" class="cls-9"/><rect width="8.149" height="10.389" x="53.883" y="108.765" class="cls-10"/><rect width="18.767" height="10.704" x="152.995" y="109.617" class="cls-8"/><rect width="12.041" height="6.355" x="155.504" y="111.959" class="cls-5"/><path d="M161.9426,114.9686a4.2225,4.2225,0,1,1,4.223,4.224,4.2234,4.2234,0,0,1-4.223-4.224" class="cls-9"/><rect width="8.149" height="10.389" x="53.883" y="119.143" class="cls-9"/><rect width="8.149" height="10.388" x="53.883" y="129.532" class="cls-10"/><rect width="8.149" height="10.389" x="53.883" y="139.91" class="cls-9"/><rect width="8.149" height="10.389" x="53.883" y="150.289" class="cls-10"/><rect width="8.149" height="10.389" x="53.883" y="160.668" class="cls-9"/><rect width="8.149" height="10.388" x="53.883" y="171.056" class="cls-10"/><rect width="8.149" height="10.389" x="53.883" y="181.434" class="cls-9"/><rect width="8.149" height="11.94" x="45.967" y="70.788" class="cls-9"/><rect width="8.149" height="10.388" x="137.554" y="182.405" class="cls-10"/><rect width="8.149" height="10.389" x="137.554" y="172.026" class="cls-9"/><rect width="8.149" height="10.389" x="137.554" y="161.637" class="cls-10"/><rect width="8.149" height="10.388" x="137.554" y="151.259" class="cls-9"/><rect width="8.149" height="10.389" x="137.554" y="140.88" class="cls-10"/><rect width="8.149" height="10.389" x="137.554" y="130.501" class="cls-9"/><rect width="8.149" height="10.388" x="137.554" y="120.113" class="cls-10"/><rect width="8.149" height="10.389" x="137.554" y="109.735" class="cls-9"/><rect width="8.149" height="11.951" x="45.967" y="82.62" class="cls-10"/><path d="M53.9152,68.6463h-6.399a1.5483,1.5483,0,0,1-1.549-1.549V24.9983a1.5483,1.5483,0,0,1,1.549-1.549h6.399a1.549,1.549,0,0,1,1.549,1.549v42.099a1.549,1.549,0,0,1-1.549,1.549" class="cls-11"/><rect width="11.94" height="12.521" x="121.412" y="45.172" class="cls-9"/><rect width="11.951" height="12.521" x="109.568" y="45.172" class="cls-10"/><rect width="8.149" height="11.077" x="145.787" y="47.923" class="cls-12"/><rect width="8.149" height="11.077" x="145.787" y="58.991" class="cls-13"/><rect width="8.149" height="11.077" x="145.787" y="70.067" class="cls-12"/><rect width="8.149" height="11.077" x="145.787" y="81.134" class="cls-13"/><path d="M136.0471,81.0506V59.7676a.7791.7791,0,0,1,.778-.779h7.268v23.152h-6.956a1.09,1.09,0,0,1-1.09-1.09" class="cls-5"/><path d="M72.3713,121.16H62.7172v-8.462h9.6541a2.7854,2.7854,0,0,1,2.785,2.786v2.89a2.7854,2.7854,0,0,1-2.785,2.786" class="cls-3"/><path d="M72.3713,143.6619H62.7172V135.2h9.6541a2.7854,2.7854,0,0,1,2.785,2.786v2.89a2.7854,2.7854,0,0,1-2.785,2.786" class="cls-3"/><path d="M72.3713,166.8563H62.7172v-8.462h9.6541a2.7854,2.7854,0,0,1,2.785,2.786v2.89a2.7854,2.7854,0,0,1-2.785,2.786" class="cls-3"/><path d="M72.3713,189.3582H62.7172v-8.462h9.6541a2.7854,2.7854,0,0,1,2.785,2.786v2.89a2.7861,2.7861,0,0,1-2.785,2.786" class="cls-3"/><path d="M127.9,181.2088h9.654v8.462H127.9a2.786,2.786,0,0,1-2.785-2.786v-2.891a2.7851,2.7851,0,0,1,2.785-2.785" class="cls-3"/><path d="M127.9,158.7067h9.654v8.4621H127.9a2.7854,2.7854,0,0,1-2.785-2.786v-2.89a2.7854,2.7854,0,0,1,2.785-2.7861" class="cls-3"/><path d="M127.9,135.5125h9.654v8.462H127.9a2.7854,2.7854,0,0,1-2.785-2.786v-2.89a2.7854,2.7854,0,0,1,2.785-2.786" class="cls-3"/><path d="M127.9,113.0105h9.654v8.462H127.9a2.7854,2.7854,0,0,1-2.785-2.786v-2.89a2.7854,2.7854,0,0,1,2.785-2.786" class="cls-3"/><path d="M117.5158,131.93h-6.448a.4346.4346,0,0,1-.435-.435V116.4965a.4342.4342,0,0,1,.435-.433h6.448a.4342.4342,0,0,1,.435.433v14.9989a.4346.4346,0,0,1-.435.435" class="cls-4"/><path d="M88.1447,131.8631h-6.448a.4345.4345,0,0,1-.435-.434V116.43a.4345.4345,0,0,1,.435-.434h6.448a.4345.4345,0,0,1,.435.434v14.999a.4345.4345,0,0,1-.435.434" class="cls-4"/><rect width="4.881" height="12.53" x="86.104" y="94.629" class="cls-3"/><rect width="3.957" height="12.471" x="98.484" y="86.876" class="cls-3"/><path d="M129.6974,110.7459h-11.145V83.6979h11.145a1.3377,1.3377,0,0,1,1.3379,1.337v24.374a1.3377,1.3377,0,0,1-1.3379,1.337" class="cls-9"/><text class="cls-14" transform="translate(46.4182 213.6699)">Pn<tspan x="10.304" y="0" class="cls-15">e</tspan><tspan x="14.934" y="0" class="cls-16">umati</tspan><tspan x="37.067" y="0" class="cls-15">c</tspan><tspan x="41.637" y="0">s </tspan><tspan x="48.29" y="0" class="cls-15">Co</tspan><tspan x="58.943" y="0">nt</tspan><tspan x="66.599" y="0" class="cls-17">r</tspan><tspan x="69.418" y="0" class="cls-15">o</tspan><tspan x="74.396" y="0">l M</tspan><tspan x="86.277" y="0" class="cls-15">o</tspan><tspan x="91.255" y="0">dule</tspan></text><path d="M168.3625,24.0886a6.4344,6.4344,0,1,1,7.042,5.763,6.4336,6.4336,0,0,1-7.042-5.763" class="cls-18"/><path d="M14.4172,22.9832a6.4348,6.4348,0,1,1,7.042,5.764,6.4362,6.4362,0,0,1-7.042-5.764" class="cls-18"/><path d="M14.4172,216.619a6.4348,6.4348,0,1,1,7.042,5.763,6.4351,6.4351,0,0,1-7.042-5.763" class="cls-18"/><path d="M170.5744,216.619a6.4344,6.4344,0,1,1,7.042,5.763,6.4337,6.4337,0,0,1-7.042-5.763" class="cls-18"/><text class="cls-19" transform="translate(48.8513 26.8681) rotate(90)"><tspan class="cls-20">P</tspan><tspan x="3.579" y="0">R</tspan><tspan x="7.266" y="0" class="cls-21">E</tspan><tspan x="10.573" y="0">SS</tspan><tspan x="17.448" y="0" class="cls-21">U</tspan><tspan x="21.271" y="0">R</tspan><tspan x="24.959" y="0" class="cls-21">E</tspan><tspan x="28.266" y="0" xml:space="preserve"> SW</tspan></text><text class="cls-22" transform="translate(99.2742 67.9765) rotate(90)"><tspan class="cls-21">12</tspan><tspan x="6.45" y="0">V</tspan></text><text class="cls-22" transform="translate(59.5066 32.5211) rotate(90)">COM<tspan x="12.721" y="0" class="cls-21">P</tspan><tspan x="16.301" y="0" class="cls-23">R</tspan><tspan x="19.987" y="0" class="cls-24">E</tspan><tspan x="23.295" y="0">SSOR</tspan><tspan x="37.787" y="0" class="cls-21"> </tspan><tspan x="39.207" y="0">O</tspan><tspan x="43.138" y="0" class="cls-21">U</tspan><tspan x="46.961" y="0">T</tspan></text><text class="cls-22" transform="translate(86.9636 67.9763) rotate(90)"><tspan class="cls-21">24</tspan><tspan x="6.45" y="0">V</tspan></text><text class="cls-22" transform="translate(113.1101 88.7658) rotate(90)">VS<tspan x="7.019" y="0" class="cls-25">L</tspan><tspan x="9.906" y="0" class="cls-23">OL</tspan></text><text class="cls-22" transform="translate(91.6189 131.7602) rotate(90)">COMP</text><text class="cls-22" transform="translate(105.0212 128.8756) rotate(90)">S<tspan x="3.438" y="0" class="cls-26">T</tspan><tspan x="6.636" y="0" class="cls-27">A</tspan><tspan x="9.915" y="0">T</tspan><tspan x="13.381" y="0" class="cls-21">U</tspan><tspan x="17.205" y="0">S</tspan></text><text class="cls-22" transform="translate(124.8767 61.1008) rotate(180)">V<tspan x="3.582" y="0" class="cls-21">i</tspan><tspan x="4.892" y="0">n</tspan></text><text class="cls-22" transform="translate(142.8157 76.4192) rotate(-90)">CAN</text><text class="cls-22" transform="translate(133.843 118.8488) rotate(-90)">7</text><text class="cls-22" transform="translate(133.8434 141.5305) rotate(-90)">6</text><text class="cls-22" transform="translate(133.9361 164.6701) rotate(-90)">5</text><text class="cls-22" transform="translate(133.9354 187.3459) rotate(-90)">4</text><text class="cls-22" transform="translate(66.7869 183.4111) rotate(90)">3</text><text class="cls-22" transform="translate(66.7869 160.7356) rotate(90)">2</text><text class="cls-22" transform="translate(66.6941 137.5959) rotate(90)">1</text><text class="cls-22" transform="translate(66.6941 114.9204) rotate(90)">0</text><rect width="6.107" height="6.107" x="121.74" y="87.184" class="cls-28" rx=".455"/><rect width="6.107" height="6.107" x="121.74" y="93.716" class="cls-28" rx=".455"/><rect width="6.107" height="6.107" x="121.74" y="100.248" class="cls-28" rx=".455"/><rect width="2.831" height="2.831" x="123.378" y="88.822" class="cls-29"/><rect width="2.831" height="2.831" x="123.378" y="101.886" class="cls-29"/><rect width="2.831" height="2.831" x="123.378" y="95.354" class="cls-29"/><rect width="1.219" height="12.047" x="122.189" y="87.557" class="cls-29"/><rect width="3.786" height="17.287" x="12.465" y="110.457" class="cls-8"/><rect width="3.786" height="17.287" x="12.465" y="131.864" class="cls-8"/><rect width="3.786" height="17.287" x="12.678" y="153.348" class="cls-8"/><rect width="3.786" height="17.287" x="12.678" y="174.755" class="cls-8"/><rect width="3.786" height="17.287" x="178.012" y="111.959" class="cls-8"/><rect width="3.786" height="17.287" x="178.012" y="133.365" class="cls-8"/><rect width="3.786" height="17.287" x="178.225" y="154.849" class="cls-8"/><rect width="3.786" height="17.287" x="178.225" y="176.256" class="cls-8"/><g class="cls-30"><g class="cls-31"><path d="M13.8132,247.9123a24.96,24.96,0,0,1-24.9316-24.9316V14.758A24.96,24.96,0,0,1,13.8132-10.1736H188.8669A24.96,24.96,0,0,1,213.7986,14.758V222.9807a24.96,24.96,0,0,1-24.9317,24.9316ZM182.36,105.2317a7.1451,7.1451,0,0,0-7.1372,7.1367V190.61a7.1451,7.1451,0,0,0,7.1372,7.1367h2.0459a7.1447,7.1447,0,0,0,7.1367-7.1367V112.3684a7.1446,7.1446,0,0,0-7.1367-7.1367Zm-169.3442-.0381A7.145,7.145,0,0,0,5.8791,112.33v78.2412a7.145,7.145,0,0,0,7.1368,7.1367h2.0463a7.145,7.145,0,0,0,7.1368-7.1367V112.33a7.145,7.145,0,0,0-7.1368-7.1367Zm68.1113,8.1225a4.4946,4.4946,0,0,0-4.7813,4.8116v45.2812a4.4945,4.4945,0,0,0,4.7813,4.8115h36.7236a4.4945,4.4945,0,0,0,4.7813-4.8115V118.1277a4.4946,4.4946,0,0,0-4.7813-4.8116Z" class="cls-32"/></g><path d="M188.8672-8.7852a23.5436,23.5436,0,0,1,23.543,23.543v208.223a23.5429,23.5429,0,0,1-23.543,23.543H13.8131A23.5429,23.5429,0,0,1-9.73,222.9808V14.7578A23.5436,23.5436,0,0,1,13.8131-8.7852H188.8672M13.0156,199.0968h2.0467a8.5253,8.5253,0,0,0,8.5253-8.5253V112.33a8.5254,8.5254,0,0,0-8.5253-8.5253H13.0156A8.5254,8.5254,0,0,0,4.49,112.33v78.2413a8.5253,8.5253,0,0,0,8.5253,8.5253m169.3441.038h2.0468a8.5252,8.5252,0,0,0,8.5252-8.5252V112.3683a8.5254,8.5254,0,0,0-8.5252-8.5254H182.36a8.5254,8.5254,0,0,0-8.5253,8.5254V190.61a8.5253,8.5253,0,0,0,8.5253,8.5252M81.1271,169.609h36.7236a5.86,5.86,0,0,0,6.17-6.2V118.1274a5.86,5.86,0,0,0-6.17-6.2H81.1271a5.86,5.86,0,0,0-6.17,6.2V163.409a5.86,5.86,0,0,0,6.17,6.2m107.74-181.1713H13.8131a26.35,26.35,0,0,0-26.32,26.32v208.223a26.35,26.35,0,0,0,26.32,26.32H188.8672a26.35,26.35,0,0,0,26.32-26.32V14.7578a26.35,26.35,0,0,0-26.32-26.32ZM13.0156,196.32a5.7547,5.7547,0,0,1-5.7482-5.7482V112.33a5.7548,5.7548,0,0,1,5.7482-5.7482h2.0467a5.7547,5.7547,0,0,1,5.7482,5.7482v78.2413a5.7547,5.7547,0,0,1-5.7482,5.7482Zm169.3441.038a5.7547,5.7547,0,0,1-5.7482-5.7481V112.3683A5.7547,5.7547,0,0,1,182.36,106.62h2.0468a5.7546,5.7546,0,0,1,5.7481,5.7482V190.61a5.7546,5.7546,0,0,1-5.7481,5.7481ZM81.1271,166.8319a3.1225,3.1225,0,0,1-3.3927-3.4229V118.1274a3.1225,3.1225,0,0,1,3.3927-3.4229h36.7236a3.1225,3.1225,0,0,1,3.3927,3.4229V163.409a3.1225,3.1225,0,0,1-3.3927,3.4229Z" class="cls-33"/></g></svg>