<svg xmlns="http://www.w3.org/2000/svg" xmlns:xlink="http://www.w3.org/1999/xlink" id="Layer_1" data-name="Layer 1" viewBox="0 0 372.633 178.256"><defs><style>.cls-1,.cls-25,.cls-26,.cls-27,.cls-28,.cls-3,.cls-4{fill:none}.cls-2{clip-path:url(#clip-path)}.cls-25,.cls-3{stroke:#e9262a}.cls-25,.cls-26,.cls-27,.cls-28,.cls-3,.cls-4{stroke-linecap:round;stroke-linejoin:round}.cls-3,.cls-4{stroke-width:18.956px}.cls-26,.cls-4{stroke:#221f1f}.cls-5{fill:#424242}.cls-6{fill:#5a5a5c}.cls-11,.cls-7{fill:#f2f2f2}.cls-17,.cls-18,.cls-8{fill:#221f1f}.cls-9{fill:#37b24a}.cls-10{fill:#d6dd28}.cls-11{font-size:40.5208px}.cls-11,.cls-17,.cls-18,.cls-20,.cls-21,.cls-24{font-family:Verdana}.cls-12{fill:#4f4e51}.cls-13{fill:#bc2030}.cls-14{fill:#631011}.cls-15{fill:#a6a7aa}.cls-16{fill:#819356}.cls-17{font-size:10.5481px}.cls-18{font-size:8.4385px}.cls-19{letter-spacing:-.059em}.cls-20{font-size:10.832px}.cls-20,.cls-21,.cls-24{fill:#fff}.cls-21{font-size:5.416px}.cls-22{letter-spacing:-.014em}.cls-23{letter-spacing:-.0001em}.cls-24{font-size:4.062px}.cls-25,.cls-26{stroke-width:16.248px}.cls-27,.cls-28{stroke:#37b24a;stroke-width:1.5px}.cls-28{stroke:#d6dd28}.cls-29{clip-path:url(#clip-path-3)}.cls-30{opacity:.4}.cls-31{fill:#231f20}.cls-32{fill:#00aeef}</style><clipPath id="clip-path"><rect width="372.633" height="178.256" class="cls-1"/></clipPath><clipPath id="clip-path-3"><path d="M520.921,34.0515H352.5192v-13.97H493.0313a8.1241,8.1241,0,0,0,0-16.2481H352.5192V-2.9538h0V-33.04h-6.2483V-378.404a19.1245,19.1245,0,0,0-19.124-19.124H45.971a19.1237,19.1237,0,0,0-19.123,19.124V-33.1729H21.8133V-3.086h0v6.48h-135.1a8.1243,8.1243,0,0,0-8.1241,8.124,8.1243,8.1243,0,0,0,8.1241,8.124h135.1v14.395l-162.2366-.1215h-.0058a8.1247,8.1247,0,0,0-8.1241,8.1181,8.124,8.124,0,0,0,8.1182,8.13l162.2483.1215v6.8008H26.848V127.934a19.1236,19.1236,0,0,0,19.123,19.1239H83.3961v76.0062H.2222a9.4776,9.4776,0,1,0,0,18.9551H92.8741a9.4779,9.4779,0,0,0,9.478-9.4776V147.058h41.2637v85.4837a9.4779,9.4779,0,0,0,9.478,9.4776h123.96a9.4776,9.4776,0,1,0,0-18.9551H162.5718V147.058H327.1469a19.1238,19.1238,0,0,0,19.124-19.1239V102.0779h103.984a.75.75,0,0,0,0-1.5H346.2709V89.5436l101.5827.211h.0014a.75.75,0,0,0,.0015-1.5l-101.5856-.211V62.5351h6.2483V50.3H520.921a8.1241,8.1241,0,0,0,0-16.2481Z" class="cls-1"/></clipPath></defs><g class="cls-2"><polyline points="153.093 147.057 153.093 232.541 277.053 232.541" class="cls-3"/><polyline points="92.873 147.057 92.873 232.541 .221 232.541" class="cls-4"/><path d="M26.8469,127.9335V-378.4046A19.1236,19.1236,0,0,1,45.97-397.5285H327.1459a19.1244,19.1244,0,0,1,19.124,19.1239V127.9335a19.1239,19.1239,0,0,1-19.124,19.1239H45.97a19.1237,19.1237,0,0,1-19.1231-19.1239" class="cls-5"/><rect width="37.973" height="80.418" x="73.887" y="66.639" class="cls-6"/><rect width="37.974" height="80.418" x="134.106" y="66.639" class="cls-6"/><rect width="1.079" height="1.079" x="57.103" y="97.85" class="cls-6"/><rect width="50.274" height="64.225" x="270.081" y="67.824" class="cls-7"/><rect width="21.756" height="12.408" x="298.6" y="119.639" class="cls-6"/><rect width="13.959" height="7.367" x="301.508" y="122.355" class="cls-7"/><path d="M308.9719,125.8436a4.8955,4.8955,0,1,1,4.896,4.896,4.8967,4.8967,0,0,1-4.896-4.896" class="cls-8"/><rect width="21.756" height="12.408" x="298.6" y="107.338" class="cls-6"/><rect width="13.959" height="7.368" x="301.508" y="110.052" class="cls-7"/><path d="M308.9719,113.5419a4.8955,4.8955,0,1,1,4.896,4.896,4.8961,4.8961,0,0,1-4.896-4.896" class="cls-8"/><rect width="21.756" height="12.408" x="298.6" y="94.93" class="cls-6"/><rect width="13.959" height="7.367" x="301.508" y="97.644" class="cls-7"/><path d="M308.9719,101.1337a4.8955,4.8955,0,1,1,4.896,4.896,4.8961,4.8961,0,0,1-4.896-4.896" class="cls-8"/><rect width="21.756" height="12.408" x="298.6" y="82.522" class="cls-6"/><rect width="13.959" height="7.367" x="301.508" y="85.236" class="cls-7"/><path d="M308.9719,88.7255a4.8955,4.8955,0,1,1,4.896,4.8959,4.896,4.896,0,0,1-4.896-4.8959" class="cls-8"/><rect width="5.523" height="12.408" x="293.076" y="119.639" class="cls-9"/><rect width="5.523" height="12.408" x="293.076" y="82.522" class="cls-10"/><rect width="5.523" height="12.408" x="293.076" y="94.93" class="cls-9"/><rect width="5.523" height="12.408" x="293.076" y="107.338" class="cls-10"/><text class="cls-11" transform="translate(68.0231 88.641) rotate(180)">-</text><rect width="138.947" height="417.241" x="117.084" y="-368.872" class="cls-12"/><rect width="92.444" height="30.086" x="260.074" y="27.132" class="cls-8"/><path d="M321.9524,42.1747a11.4525,11.4525,0,1,1,11.452,11.4529,11.4517,11.4517,0,0,1-11.452-11.4529" class="cls-5"/><rect width="92.444" height="30.086" x="260.074" y="-2.954" class="cls-13"/><path d="M321.9524,12.0887a11.4525,11.4525,0,1,1,11.452,11.4519,11.4526,11.4526,0,0,1-11.452-11.4519" class="cls-14"/><rect width="92.444" height="30.086" x="21.812" y="-3.087" class="cls-8"/><path d="M52.2463,12.0887A11.4525,11.4525,0,1,1,40.7944.6357a11.4515,11.4515,0,0,1,11.4519,11.453" class="cls-5"/><rect width="92.444" height="30.086" x="21.812" y="27" class="cls-13"/><path d="M52.2463,42.1747A11.4525,11.4525,0,1,1,40.7944,30.7226,11.4524,11.4524,0,0,1,52.2463,42.1747" class="cls-14"/><rect width="92.444" height="5.368" x="260.074" y="57.166" class="cls-15"/><path d="M199.7385,113.2059h30.687a7.7425,7.7425,0,1,1,0,15.485h-30.687a7.7425,7.7425,0,0,1,0-15.485" class="cls-16"/><path d="M235.6955,120.9481a5.726,5.726,0,1,1-5.727-5.7261,5.7262,5.7262,0,0,1,5.727,5.7261" class="cls-5"/><path d="M199.7385,74.7782h30.687a7.7425,7.7425,0,1,1,0,15.485h-30.687a7.7425,7.7425,0,0,1,0-15.485" class="cls-16"/><path d="M235.6955,82.5213a5.726,5.726,0,1,1-5.727-5.727,5.7261,5.7261,0,0,1,5.727,5.727" class="cls-5"/><text class="cls-17" transform="translate(286.341 117.6396) rotate(-90)">CAN</text><text class="cls-18" transform="translate(195.5402 123.8733)">COMM</text><text class="cls-18" transform="translate(196.7639 84.7947)">S<tspan x="5.769" y="0" class="cls-19">TA</tspan><tspan x="15.741" y="0">T</tspan></text><path d="M233.1408,42.702V13.59a1.6323,1.6323,0,0,1,1.6331-1.6331h12.22a1.6314,1.6314,0,0,1,1.632,1.6331V42.702a1.6319,1.6319,0,0,1-1.632,1.6329h-12.22a1.6328,1.6328,0,0,1-1.6331-1.6329" class="cls-16"/><path d="M123.7746,42.2635V13.1505a1.6329,1.6329,0,0,1,1.633-1.6331h12.22a1.6321,1.6321,0,0,1,1.632,1.6331v29.113a1.6327,1.6327,0,0,1-1.632,1.633h-12.22a1.6336,1.6336,0,0,1-1.633-1.633" class="cls-16"/><rect width="25.479" height="5.435" x="179.133" y="39.325" class="cls-5"/><rect width="25.479" height="5.435" x="128.974" y="39.325" class="cls-5"/><rect width="25.479" height="5.435" x="217.229" y="11.957" class="cls-5"/><rect width="25.479" height="5.435" x="168.608" y="11.957" class="cls-5"/><path d="M129.383,31.8827h74.82a.4094.4094,0,0,1,.409.4089v19.502a.4089.4089,0,0,1-.409.409h-74.82a.4082.4082,0,0,1-.409-.409V32.2916a.4088.4088,0,0,1,.409-.4089" class="cls-8"/><text class="cls-20" transform="translate(198.5373 41.3398) rotate(180)">40</text><text class="cls-21" transform="translate(198.3703 36.12) rotate(180)">AMP</text><text class="cls-21" transform="translate(146.7072 41.9477) rotate(180)">AU<tspan x="7.667" y="0" class="cls-22">T</tspan><tspan x="10.928" y="0" class="cls-23">O</tspan></text><text class="cls-24" transform="translate(146.0978 37.9111) rotate(180)">RESET</text><path d="M167.2023,4.5135h74.82a.409.409,0,0,1,.409.41v19.501a.4082.4082,0,0,1-.409.4091h-74.82a.4089.4089,0,0,1-.409-.4091V4.9234a.41.41,0,0,1,.409-.41" class="cls-8"/><text class="cls-20" transform="translate(236.3566 13.9726) rotate(180)">40</text><text class="cls-21" transform="translate(236.1896 8.749) rotate(180)">AMP</text><text class="cls-21" transform="translate(184.5265 14.5766) rotate(180)">AU<tspan x="7.667" y="0" class="cls-22">T</tspan><tspan x="10.928" y="0" class="cls-23">O</tspan></text><text class="cls-24" transform="translate(183.9172 10.5419) rotate(180)">RESET</text><line x1="333.665" x2="493.03" y1="11.957" y2="11.957" class="cls-25"/><line x1="333.665" x2="520.92" y1="42.175" y2="42.175" class="cls-26"/><line x1="40.794" x2="-113.288" y1="11.517" y2="11.517" class="cls-26"/><line x1="40.794" x2="-140.43" y1="42.175" y2="42.04" class="cls-25"/><line x1="313.867" x2="450.254" y1="101.327" y2="101.327" class="cls-27"/><line x1="313.867" x2="447.854" y1="88.725" y2="89.004" class="cls-28"/></g><g class="cls-2"><g class="cls-29"><g class="cls-30"><path d="M8.1711,385.5331a33.0964,33.0964,0,0,1-33.0581-33.06V-95.3223A33.0956,33.0956,0,0,1,8.1711-128.3809H463.6652a33.0956,33.0956,0,0,1,33.0581,33.0586V352.4736a33.0965,33.0965,0,0,1-33.0581,33.06ZM193.3092,64.55a7.5325,7.5325,0,0,0-7.5244,7.5235v59.7744a7.5327,7.5327,0,0,0,7.5244,7.5244h43.2745a7.5327,7.5327,0,0,0,7.5244-7.5244V72.0732a7.5325,7.5325,0,0,0-7.5244-7.5235Z" class="cls-31"/></g><path d="M463.665-126.4008a31.0791,31.0791,0,0,1,31.0782,31.0783V352.474a31.0782,31.0782,0,0,1-31.0782,31.0783H8.1711A31.0782,31.0782,0,0,1-22.9072,352.474V-95.3225A31.0791,31.0791,0,0,1,8.1711-126.4008H463.665M193.3092,141.3524h43.2744a9.5045,9.5045,0,0,0,9.5044-9.5045V72.0733a9.5045,9.5045,0,0,0-9.5044-9.5045H193.3092a9.5045,9.5045,0,0,0-9.5045,9.5045v59.7746a9.5045,9.5045,0,0,0,9.5045,9.5045M463.665-130.361H8.1711A35.0782,35.0782,0,0,0-26.8674-95.3225V352.474A35.0782,35.0782,0,0,0,8.1711,387.5125H463.665a35.0782,35.0782,0,0,0,35.0385-35.0385V-95.3225A35.0782,35.0782,0,0,0,463.665-130.361ZM193.3092,137.3922a5.55,5.55,0,0,1-5.5443-5.5443V72.0733a5.55,5.55,0,0,1,5.5443-5.5442h43.2744a5.55,5.55,0,0,1,5.5442,5.5442v59.7746a5.55,5.55,0,0,1-5.5442,5.5443Z" class="cls-32"/></g></g></svg>