<svg xmlns="http://www.w3.org/2000/svg" xmlns:xlink="http://www.w3.org/1999/xlink" id="Layer_1" data-name="Layer 1" viewBox="0 0 266.495 156.963"><defs><style>.cls-1,.cls-12,.cls-13,.cls-17,.cls-20,.cls-4,.cls-5,.cls-6,.cls-7,.cls-9{fill:none}.cls-2{clip-path:url(#clip-path)}.cls-3{font-size:10px;fill:#231f20}.cls-10,.cls-14,.cls-3{font-family:Verdana}.cls-12,.cls-17,.cls-4{stroke:gray}.cls-12,.cls-4,.cls-5,.cls-6,.cls-7{stroke-linejoin:round}.cls-4,.cls-5{stroke-width:1.2px}.cls-13,.cls-20,.cls-5,.cls-6,.cls-7{stroke:#000}.cls-12,.cls-6,.cls-7{stroke-linecap:round}.cls-12,.cls-6{stroke-width:.48px}.cls-13,.cls-17,.cls-7,.cls-9{stroke-width:.24px}.cls-8{fill:#fff}.cls-9{stroke:#fff}.cls-13,.cls-17,.cls-9{stroke-miterlimit:10}.cls-10{font-size:6px}.cls-14{font-size:5.2848px}.cls-16{fill:red}.cls-18{fill:#8c9091}.cls-19{fill:#00953b}</style><clipPath id="clip-path"><rect width="266.495" height="156.963" class="cls-1"/></clipPath></defs><g class="cls-2"><rect width="65536" height="65536" x="-32963.086" y="-32155.428" class="cls-1"/><rect width="65536" height="65536" x="-32963.086" y="-32155.428" class="cls-1"/><text class="cls-3" transform="translate(188.6743 146.7694)">LED Indicator</text><line x1="56.114" x2="56.114" y1="82.692" y2="81.252" class="cls-4"/><line x1="57.794" x2="70.034" y1="84.372" y2="84.372" class="cls-4"/><line x1="56.114" x2="56.114" y1="14.532" y2="11.892" class="cls-5"/><path d="M48.6744,32.2919a9.1051,9.1051,0,0,1,7.44-4.08,8.6434,8.6434,0,0,1,0,17.28,8.7706,8.7706,0,0,1-7.44-4.32" class="cls-5"/><rect width="270.32" height="129.68" x="-21.925" y="4.532" class="cls-1"/><line x1="46.634" x2="46.874" y1="45.852" y2="27.612" class="cls-6"/><line x1="65.114" x2="65.114" y1="45.852" y2="27.612" class="cls-6"/><line x1="46.634" x2="65.114" y1="45.852" y2="45.852" class="cls-6"/><line x1="46.634" x2="65.114" y1="27.612" y2="27.612" class="cls-6"/><line x1="47.475" x2="47.475" y1="45.492" y2="28.212" class="cls-7"/><line x1="64.515" x2="64.755" y1="45.492" y2="28.212" class="cls-7"/><line x1="47.475" x2="64.515" y1="45.492" y2="45.492" class="cls-7"/><line x1="47.475" x2="64.515" y1="28.212" y2="28.212" class="cls-7"/><line x1="46.634" x2="46.874" y1="45.852" y2="27.612" class="cls-6"/><line x1="65.114" x2="65.114" y1="45.852" y2="27.612" class="cls-6"/><line x1="46.634" x2="65.114" y1="45.852" y2="45.852" class="cls-6"/><line x1="46.634" x2="65.114" y1="27.612" y2="27.612" class="cls-6"/><rect width="5.52" height="4.8" x="53.114" y="25.452" class="cls-8"/><rect width="5.52" height="4.8" x="53.234" y="25.572" class="cls-9"/><rect width="7.92" height="11.04" x="51.914" y="14.412" class="cls-8"/><rect width="7.92" height="11.04" x="52.035" y="14.532" class="cls-9"/><line x1="47.475" x2="47.475" y1="67.572" y2="50.532" class="cls-7"/><line x1="64.515" x2="64.755" y1="67.572" y2="50.532" class="cls-7"/><line x1="47.475" x2="64.515" y1="67.572" y2="67.812" class="cls-7"/><line x1="47.475" x2="64.515" y1="50.532" y2="50.532" class="cls-7"/><line x1="161.715" x2="161.954" y1="45.492" y2="28.212" class="cls-7"/><line x1="178.994" x2="179.234" y1="45.492" y2="28.212" class="cls-7"/><line x1="161.715" x2="178.994" y1="45.492" y2="45.492" class="cls-7"/><line x1="161.715" x2="178.994" y1="28.212" y2="28.212" class="cls-7"/><line x1="161.715" x2="161.954" y1="67.572" y2="50.532" class="cls-7"/><line x1="178.994" x2="179.234" y1="67.572" y2="50.532" class="cls-7"/><line x1="161.715" x2="178.994" y1="67.572" y2="67.812" class="cls-7"/><line x1="161.715" x2="178.994" y1="50.532" y2="50.532" class="cls-7"/><line x1="161.114" x2="161.114" y1="68.172" y2="49.692" class="cls-6"/><line x1="179.595" x2="179.595" y1="68.172" y2="49.692" class="cls-6"/><line x1="161.114" x2="179.594" y1="68.172" y2="68.172" class="cls-6"/><line x1="161.114" x2="179.594" y1="49.692" y2="49.692" class="cls-6"/><line x1="161.114" x2="161.114" y1="68.172" y2="49.692" class="cls-6"/><line x1="179.595" x2="179.595" y1="68.172" y2="49.692" class="cls-6"/><line x1="161.114" x2="179.594" y1="68.172" y2="68.172" class="cls-6"/><line x1="161.114" x2="179.594" y1="49.692" y2="49.692" class="cls-6"/><rect width="7.199" height="8.88" x="177.674" y="54.492" class="cls-8"/><rect width="7.199" height="8.88" x="177.794" y="54.612" class="cls-9"/><line x1="161.114" x2="161.114" y1="45.852" y2="27.612" class="cls-6"/><line x1="179.595" x2="179.595" y1="45.852" y2="27.612" class="cls-6"/><line x1="161.114" x2="179.594" y1="45.852" y2="45.852" class="cls-6"/><line x1="161.114" x2="179.594" y1="27.612" y2="27.612" class="cls-6"/><line x1="161.114" x2="161.114" y1="45.852" y2="27.612" class="cls-6"/><line x1="179.595" x2="179.595" y1="45.852" y2="27.612" class="cls-6"/><line x1="161.114" x2="179.594" y1="45.852" y2="45.852" class="cls-6"/><line x1="161.114" x2="179.594" y1="27.612" y2="27.612" class="cls-6"/><rect width="7.199" height="8.88" x="177.674" y="32.172" class="cls-8"/><rect width="7.199" height="8.88" x="177.794" y="32.292" class="cls-9"/><line x1="46.634" x2="46.874" y1="68.172" y2="49.692" class="cls-6"/><line x1="65.114" x2="65.114" y1="68.172" y2="49.692" class="cls-6"/><line x1="46.634" x2="65.114" y1="68.172" y2="68.172" class="cls-6"/><line x1="46.634" x2="65.114" y1="49.692" y2="49.692" class="cls-6"/><line x1="46.634" x2="46.874" y1="68.172" y2="49.692" class="cls-6"/><line x1="65.114" x2="65.114" y1="68.172" y2="49.692" class="cls-6"/><line x1="46.634" x2="65.114" y1="68.172" y2="68.172" class="cls-6"/><line x1="46.634" x2="65.114" y1="49.692" y2="49.692" class="cls-6"/><rect width="7.2" height="8.88" x="41.355" y="54.492" class="cls-8"/><rect width="7.2" height="8.88" x="41.474" y="54.612" class="cls-9"/><rect width="7.2" height="8.88" x="41.355" y="32.172" class="cls-8"/><rect width="7.2" height="8.88" x="41.474" y="32.292" class="cls-9"/><polyline points="44.955 10.572 43.035 10.812 41.355 11.532 39.915 12.492 38.955 13.932 38.235 15.612 37.995 17.532" class="cls-6"/><polyline points="188.234 17.532 187.994 15.612 187.274 13.932 186.314 12.492 184.874 11.532 183.194 10.812 181.274 10.572" class="cls-6"/><line x1="44.955" x2="181.275" y1="10.572" y2="10.572" class="cls-6"/><path d="M185.3545,17.5321a3.9992,3.9992,0,0,1-4.08,3.84,3.7909,3.7909,0,0,1-3.84-3.84,3.9992,3.9992,0,0,1,3.84-4.08,4.2057,4.2057,0,0,1,4.08,4.08" class="cls-6"/><rect width="270.32" height="129.68" x="-21.925" y="4.532" class="cls-1"/><polyline points="44.955 10.572 43.035 10.812 41.355 11.532 39.915 12.492 38.955 13.932 38.235 15.612 37.995 17.532" class="cls-6"/><polyline points="188.234 17.532 187.994 15.612 187.274 13.932 186.314 12.492 184.874 11.532 183.194 10.812 181.274 10.572" class="cls-6"/><line x1="44.955" x2="181.275" y1="10.572" y2="10.572" class="cls-6"/><polyline points="37.995 126.012 38.235 127.692 38.955 129.612 39.915 130.812 41.355 132.012 43.035 132.732 44.955 132.972" class="cls-6"/><polyline points="181.274 132.972 183.194 132.732 184.874 132.012 186.314 130.812 187.274 129.612 187.994 127.692 188.234 126.012" class="cls-6"/><path d="M48.7945,126.0121h0a3.84,3.84,0,1,1-3.84-3.841,3.7909,3.7909,0,0,1,3.84,3.841" class="cls-6"/><rect width="270.32" height="129.68" x="-21.925" y="4.532" class="cls-1"/><line x1="44.955" x2="181.275" y1="132.972" y2="132.972" class="cls-6"/><polyline points="37.995 126.012 38.235 127.692 38.955 129.612 39.915 130.812 41.355 132.012 43.035 132.732 44.955 132.972" class="cls-6"/><polyline points="181.274 132.972 183.194 132.732 184.874 132.012 186.314 130.812 187.274 129.612 187.994 127.692 188.234 126.012" class="cls-6"/><line x1="44.955" x2="181.275" y1="132.972" y2="132.972" class="cls-6"/><path d="M175.0342,116.892h0a5.4305,5.4305,0,0,1-5.52,5.52,5.525,5.525,0,1,1,0-11.04,5.4305,5.4305,0,0,1,5.52,5.52" class="cls-6"/><rect width="270.32" height="129.68" x="-21.925" y="4.532" class="cls-1"/><line x1="52.634" x2="54.554" y1="33.132" y2="32.172" class="cls-6"/><line x1="59.355" x2="60.554" y1="33.372" y2="35.292" class="cls-6"/><line x1="57.194" x2="59.114" y1="41.292" y2="40.092" class="cls-6"/><line x1="51.435" x2="52.395" y1="38.172" y2="39.852" class="cls-6"/><line x1="52.395" x2="54.075" y1="39.852" y2="38.892" class="cls-6"/><line x1="56.475" x2="57.195" y1="39.612" y2="41.292" class="cls-6"/><path d="M54.0743,39.1318c.24-.24.48-.24.96-.24a2.0744,2.0744,0,0,1,1.44.72" class="cls-6"/><rect width="270.32" height="129.68" x="-21.925" y="4.532" class="cls-1"/><line x1="58.154" x2="59.114" y1="38.652" y2="40.092" class="cls-6"/><line x1="58.875" x2="60.555" y1="36.252" y2="35.292" class="cls-6"/><path d="M58.1543,38.6518c0-.24-.24-.72-.24-.96a1.9733,1.9733,0,0,1,.96-1.44" class="cls-6"/><rect width="270.32" height="129.68" x="-21.925" y="4.532" class="cls-1"/><line x1="57.915" x2="59.355" y1="34.332" y2="33.372" class="cls-6"/><line x1="54.555" x2="55.515" y1="32.172" y2="33.612" class="cls-6"/><path d="M57.9146,34.332a1.88,1.88,0,0,1-2.4-.48" class="cls-6"/><rect width="270.32" height="129.68" x="-21.925" y="4.532" class="cls-1"/><line x1="52.634" x2="53.594" y1="33.132" y2="34.812" class="cls-6"/><line x1="51.435" x2="52.875" y1="38.172" y2="37.212" class="cls-6"/><path d="M53.5943,34.8118c.24.24.24.48.24.96a1.7107,1.7107,0,0,1-.72,1.44" class="cls-6"/><rect width="270.32" height="129.68" x="-21.925" y="4.532" class="cls-1"/><line x1="52.634" x2="54.554" y1="55.452" y2="54.492" class="cls-6"/><line x1="59.355" x2="60.554" y1="55.692" y2="57.612" class="cls-6"/><line x1="57.194" x2="59.114" y1="63.612" y2="62.412" class="cls-6"/><line x1="51.435" x2="52.395" y1="60.252" y2="62.172" class="cls-6"/><line x1="52.395" x2="54.075" y1="62.172" y2="61.212" class="cls-6"/><line x1="56.475" x2="57.195" y1="61.932" y2="63.612" class="cls-6"/><path d="M54.0743,61.2117c.24,0,.48-.24.96-.24s.96.48,1.44.96" class="cls-6"/><rect width="270.32" height="129.68" x="-21.925" y="4.532" class="cls-1"/><line x1="58.154" x2="59.114" y1="60.972" y2="62.412" class="cls-6"/><line x1="58.875" x2="60.555" y1="58.572" y2="57.612" class="cls-6"/><path d="M58.1543,60.7319c0-.24-.24-.48-.24-.72a1.62,1.62,0,0,1,.96-1.44" class="cls-6"/><rect width="270.32" height="129.68" x="-21.925" y="4.532" class="cls-1"/><line x1="57.915" x2="59.355" y1="56.652" y2="55.692" class="cls-6"/><line x1="54.555" x2="55.515" y1="54.492" y2="55.932" class="cls-6"/><path d="M57.9146,56.6518a1.8142,1.8142,0,0,1-.96.24,1.316,1.316,0,0,1-1.44-.96" class="cls-6"/><rect width="270.32" height="129.68" x="-21.925" y="4.532" class="cls-1"/><line x1="52.634" x2="53.594" y1="55.452" y2="57.132" class="cls-6"/><line x1="51.435" x2="52.875" y1="60.252" y2="59.292" class="cls-6"/><path d="M53.5943,57.1318a.8817.8817,0,0,1,.24.72,2.1788,2.1788,0,0,1-.72,1.68" class="cls-6"/><rect width="270.32" height="129.68" x="-21.925" y="4.532" class="cls-1"/><line x1="167.114" x2="169.034" y1="55.452" y2="54.492" class="cls-6"/><line x1="173.834" x2="174.795" y1="55.692" y2="57.612" class="cls-6"/><line x1="171.675" x2="173.595" y1="63.612" y2="62.412" class="cls-6"/><line x1="165.914" x2="166.874" y1="60.252" y2="62.172" class="cls-6"/><line x1="166.874" x2="168.555" y1="62.172" y2="61.212" class="cls-6"/><line x1="170.715" x2="171.675" y1="61.932" y2="63.612" class="cls-6"/><path d="M168.5547,61.2117c.24,0,.479-.24.72-.24a1.6217,1.6217,0,0,1,1.44.96" class="cls-6"/><rect width="270.32" height="129.68" x="-21.925" y="4.532" class="cls-1"/><line x1="172.635" x2="173.595" y1="60.972" y2="62.412" class="cls-6"/><line x1="173.355" x2="174.794" y1="58.572" y2="57.612" class="cls-6"/><path d="M172.6348,60.9721a1.8142,1.8142,0,0,1-.24-.96,1.316,1.316,0,0,1,.96-1.44" class="cls-6"/><rect width="270.32" height="129.68" x="-21.925" y="4.532" class="cls-1"/><line x1="172.154" x2="173.834" y1="56.652" y2="55.692" class="cls-6"/><line x1="169.034" x2="169.755" y1="54.492" y2="55.932" class="cls-6"/><path d="M172.1543,56.6518a.8807.8807,0,0,1-.72.24,1.81,1.81,0,0,1-1.679-.96" class="cls-6"/><rect width="270.32" height="129.68" x="-21.925" y="4.532" class="cls-1"/><line x1="167.114" x2="168.074" y1="55.452" y2="57.132" class="cls-6"/><line x1="165.914" x2="167.354" y1="60.252" y2="59.292" class="cls-6"/><path d="M168.0743,57.1318c0,.24.24.48.24.72a2.4293,2.4293,0,0,1-.96,1.68" class="cls-6"/><path d="M177.1944,59.0522a6.96,6.96,0,1,1-6.96-6.96,6.965,6.965,0,0,1,6.96,6.96" class="cls-6"/><rect width="270.32" height="129.68" x="-21.925" y="4.532" class="cls-1"/><line x1="167.114" x2="169.034" y1="33.132" y2="32.172" class="cls-6"/><line x1="173.834" x2="174.795" y1="33.372" y2="35.292" class="cls-6"/><line x1="171.675" x2="173.595" y1="41.292" y2="40.092" class="cls-6"/><line x1="165.914" x2="166.874" y1="38.172" y2="39.852" class="cls-6"/><line x1="166.874" x2="168.555" y1="39.852" y2="38.892" class="cls-6"/><line x1="170.715" x2="171.675" y1="39.612" y2="41.292" class="cls-6"/><path d="M168.5547,39.1318a.8807.8807,0,0,1,.72-.24,1.4521,1.4521,0,0,1,1.44.72" class="cls-6"/><rect width="270.32" height="129.68" x="-21.925" y="4.532" class="cls-1"/><line x1="172.635" x2="173.595" y1="38.652" y2="40.092" class="cls-6"/><line x1="173.355" x2="174.794" y1="36.252" y2="35.292" class="cls-6"/><path d="M172.6348,38.6518c-.24-.24-.24-.48-.24-.96a1.4925,1.4925,0,0,1,.96-1.44" class="cls-6"/><rect width="270.32" height="129.68" x="-21.925" y="4.532" class="cls-1"/><line x1="172.154" x2="173.834" y1="34.332" y2="33.372" class="cls-6"/><line x1="169.034" x2="169.755" y1="32.172" y2="33.612" class="cls-6"/><path d="M172.1543,34.332a.8807.8807,0,0,1-.72.24,2.1767,2.1767,0,0,1-1.679-.72" class="cls-6"/><rect width="270.32" height="129.68" x="-21.925" y="4.532" class="cls-1"/><line x1="167.114" x2="168.074" y1="33.132" y2="34.812" class="cls-6"/><line x1="165.914" x2="167.354" y1="38.172" y2="37.212" class="cls-6"/><path d="M168.0743,34.8118c0,.24.24.48.24.96a1.9735,1.9735,0,0,1-.96,1.44" class="cls-6"/><path d="M177.1944,36.7319a6.96,6.96,0,1,1-6.96-6.96,6.965,6.965,0,0,1,6.96,6.96" class="cls-6"/><rect width="270.32" height="129.68" x="-21.925" y="4.532" class="cls-1"/><text class="cls-10" transform="translate(57.1928 120.2514)">C</text><rect width="4.32" height="6.719" x="57.194" y="114.733" class="cls-1"/><text class="cls-10" transform="translate(51.6733 120.2514)">B</text><rect width="4.081" height="6.719" x="51.673" y="114.733" class="cls-1"/><text class="cls-10" transform="translate(165.6743 74.6508)">M</text><rect width="5.04" height="6.96" x="165.675" y="69.131" class="cls-1"/><text class="cls-10" transform="translate(165.6743 25.6908)">M</text><rect width="5.04" height="6.96" x="165.675" y="20.171" class="cls-1"/><line x1="170.834" x2="174.675" y1="72.372" y2="72.372" class="cls-7"/><line x1="172.755" x2="172.755" y1="74.292" y2="70.452" class="cls-7"/><line x1="172.755" x2="172.755" y1="74.292" y2="70.452" class="cls-7"/><line x1="172.515" x2="172.515" y1="74.292" y2="70.452" class="cls-7"/><line x1="170.834" x2="174.675" y1="72.372" y2="72.372" class="cls-7"/><line x1="170.834" x2="174.675" y1="72.612" y2="72.612" class="cls-7"/><line x1="170.834" x2="174.675" y1="23.412" y2="23.412" class="cls-7"/><line x1="170.834" x2="174.675" y1="23.412" y2="23.412" class="cls-7"/><line x1="170.834" x2="174.675" y1="23.652" y2="23.652" class="cls-7"/><path d="M155.3545,118.5717h0a2.7737,2.7737,0,0,1-2.88,2.881,2.7255,2.7255,0,0,1-2.641-2.881,2.665,2.665,0,0,1,2.641-2.64,2.8825,2.8825,0,0,1,2.88,2.64" class="cls-6"/><rect width="270.32" height="129.68" x="-21.925" y="4.532" class="cls-1"/><line x1="41.475" x2="48.675" y1="32.292" y2="32.532" class="cls-5"/><line x1="41.475" x2="48.675" y1="41.172" y2="41.412" class="cls-5"/><line x1="19.395" x2="41.475" y1="30.612" y2="30.612" class="cls-5"/><line x1="19.395" x2="41.475" y1="42.852" y2="43.092" class="cls-5"/><line x1="19.395" x2="19.395" y1="42.852" y2="30.612" class="cls-5"/><path d="M48.6744,54.6117a8.5216,8.5216,0,1,1,0,8.88" class="cls-5"/><rect width="270.32" height="129.68" x="-21.925" y="4.532" class="cls-1"/><line x1="41.475" x2="48.675" y1="54.612" y2="54.612" class="cls-5"/><line x1="41.475" x2="48.675" y1="63.492" y2="63.492" class="cls-5"/><line x1="41.475" x2="41.475" y1="65.172" y2="52.932" class="cls-5"/><line x1="19.395" x2="41.475" y1="52.932" y2="52.932" class="cls-5"/><line x1="19.395" x2="41.475" y1="65.172" y2="65.172" class="cls-5"/><line x1="19.395" x2="19.395" y1="65.172" y2="52.932" class="cls-5"/><path d="M177.795,41.1718a8.6245,8.6245,0,1,1-7.44-12.96,9.1065,9.1065,0,0,1,7.44,4.08" class="cls-5"/><rect width="270.32" height="129.68" x="-21.925" y="4.532" class="cls-1"/><line x1="177.795" x2="184.994" y1="32.292" y2="32.532" class="cls-5"/><line x1="177.795" x2="184.994" y1="41.172" y2="41.412" class="cls-5"/><line x1="184.994" x2="184.994" y1="42.852" y2="30.612" class="cls-5"/><line x1="184.994" x2="207.074" y1="30.612" y2="30.612" class="cls-5"/><line x1="184.994" x2="207.074" y1="42.852" y2="43.092" class="cls-5"/><line x1="207.074" x2="207.314" y1="42.852" y2="30.612" class="cls-5"/><path d="M177.795,63.4921a8.5459,8.5459,0,0,1-7.44,4.08,8.5208,8.5208,0,1,1,0-17.04,8.5459,8.5459,0,0,1,7.44,4.08" class="cls-5"/><rect width="270.32" height="129.68" x="-21.925" y="4.532" class="cls-1"/><line x1="177.795" x2="184.994" y1="54.612" y2="54.612" class="cls-5"/><line x1="177.795" x2="184.994" y1="63.492" y2="63.492" class="cls-5"/><line x1="184.994" x2="184.994" y1="65.172" y2="52.932" class="cls-5"/><line x1="184.994" x2="207.074" y1="52.932" y2="52.932" class="cls-5"/><line x1="184.994" x2="207.074" y1="65.172" y2="65.172" class="cls-5"/><line x1="207.074" x2="207.314" y1="65.172" y2="52.932" class="cls-5"/><line x1="41.475" x2="41.475" y1="42.852" y2="30.612" class="cls-5"/><line x1="37.995" x2="37.995" y1="52.812" y2="42.732" class="cls-6"/><line x1="37.995" x2="37.995" y1="30.492" y2="17.532" class="cls-6"/><line x1="188.234" x2="188.234" y1="126.012" y2="65.052" class="cls-6"/><line x1="188.234" x2="188.234" y1="30.492" y2="17.532" class="cls-6"/><line x1="188.234" x2="188.234" y1="52.812" y2="42.732" class="cls-6"/><line x1="42.794" x2="68.954" y1="69.852" y2="69.852" class="cls-12"/><polyline points="76.154 14.652 74.474 14.892 72.794 15.372 71.354 16.572 70.154 18.012 69.434 19.692 69.194 21.612" class="cls-12"/><line x1="76.154" x2="150.074" y1="102.251" y2="102.251" class="cls-12"/><polyline points="150.074 102.251 151.755 102.012 153.434 101.292 154.874 100.091 156.074 98.651 156.795 96.972 157.034 95.292" class="cls-12"/><line x1="157.034" x2="157.034" y1="95.292" y2="21.611" class="cls-12"/><line x1="76.154" x2="150.074" y1="14.652" y2="14.652" class="cls-12"/><polyline points="157.034 21.612 156.795 19.692 156.074 18.012 154.874 16.572 153.434 15.372 151.755 14.892 150.074 14.652" class="cls-12"/><line x1="75.674" x2="77.114" y1="20.892" y2="19.932" class="cls-12"/><line x1="81.194" x2="81.914" y1="20.892" y2="22.572" class="cls-12"/><line x1="79.515" x2="80.955" y1="27.372" y2="26.412" class="cls-12"/><line x1="74.714" x2="75.434" y1="24.732" y2="26.172" class="cls-12"/><line x1="75.435" x2="76.875" y1="26.172" y2="25.452" class="cls-12"/><line x1="78.794" x2="79.514" y1="25.932" y2="27.372" class="cls-12"/><path d="M76.8746,25.452c.24,0,.48-.24.72-.24a2.0406,2.0406,0,0,1,1.2.72" class="cls-12"/><rect width="270.32" height="129.68" x="-21.925" y="4.532" class="cls-1"/><line x1="80.234" x2="80.954" y1="25.212" y2="26.412" class="cls-12"/><line x1="80.714" x2="81.914" y1="23.292" y2="22.572" class="cls-12"/><path d="M80.2344,25.2117a.8814.8814,0,0,1-.24-.72,1.32,1.32,0,0,1,.72-1.2" class="cls-12"/><rect width="270.32" height="129.68" x="-21.925" y="4.532" class="cls-1"/><line x1="79.754" x2="81.194" y1="21.852" y2="20.892" class="cls-12"/><line x1="77.114" x2="78.074" y1="19.932" y2="21.132" class="cls-12"/><path d="M79.7544,21.8519h-.72a1.32,1.32,0,0,1-1.2-.72" class="cls-12"/><rect width="270.32" height="129.68" x="-21.925" y="4.532" class="cls-1"/><line x1="75.674" x2="76.394" y1="20.892" y2="22.092" class="cls-12"/><line x1="74.714" x2="75.914" y1="24.732" y2="24.012" class="cls-12"/><path d="M76.3946,22.0917a.8817.8817,0,0,1,.24.72,1.32,1.32,0,0,1-.72,1.2" class="cls-12"/><path d="M83.8345,23.5321h0a5.525,5.525,0,1,1-11.04,0,5.52,5.52,0,0,1,11.04,0" class="cls-12"/><rect width="270.32" height="129.68" x="-21.925" y="4.532" class="cls-1"/><line x1="145.274" x2="146.714" y1="20.892" y2="19.932" class="cls-12"/><line x1="150.795" x2="151.515" y1="20.892" y2="22.572" class="cls-12"/><line x1="149.114" x2="150.554" y1="27.372" y2="26.412" class="cls-12"/><line x1="144.315" x2="145.035" y1="24.732" y2="26.172" class="cls-12"/><line x1="145.034" x2="146.474" y1="26.172" y2="25.452" class="cls-12"/><line x1="148.395" x2="149.115" y1="25.932" y2="27.372" class="cls-12"/><path d="M146.4747,25.452c.24,0,.479-.24.72-.24a2.0406,2.0406,0,0,1,1.2.72" class="cls-12"/><rect width="270.32" height="129.68" x="-21.925" y="4.532" class="cls-1"/><line x1="149.834" x2="150.555" y1="25.212" y2="26.412" class="cls-12"/><line x1="150.315" x2="151.514" y1="23.292" y2="22.572" class="cls-12"/><path d="M149.834,25.2117a.8837.8837,0,0,1-.239-.72,1.3189,1.3189,0,0,1,.719-1.2" class="cls-12"/><rect width="270.32" height="129.68" x="-21.925" y="4.532" class="cls-1"/><line x1="149.355" x2="150.794" y1="21.852" y2="20.892" class="cls-12"/><line x1="146.715" x2="147.675" y1="19.932" y2="21.132" class="cls-12"/><path d="M149.3545,21.8519h-.72a1.32,1.32,0,0,1-1.2-.72" class="cls-12"/><rect width="270.32" height="129.68" x="-21.925" y="4.532" class="cls-1"/><line x1="145.274" x2="145.994" y1="20.892" y2="22.092" class="cls-12"/><line x1="144.315" x2="145.514" y1="24.732" y2="24.012" class="cls-12"/><path d="M145.9942,22.0917a.8817.8817,0,0,1,.24.72,1.3207,1.3207,0,0,1-.719,1.2" class="cls-12"/><path d="M153.4346,23.5321h0a5.525,5.525,0,1,1-11.04,0,5.52,5.52,0,1,1,11.04,0" class="cls-12"/><rect width="270.32" height="129.68" x="-21.925" y="4.532" class="cls-1"/><line x1="145.274" x2="146.714" y1="90.492" y2="89.533" class="cls-12"/><line x1="150.795" x2="151.515" y1="90.492" y2="92.172" class="cls-12"/><line x1="149.114" x2="150.554" y1="96.972" y2="96.012" class="cls-12"/><line x1="144.315" x2="145.035" y1="94.332" y2="95.772" class="cls-12"/><line x1="145.034" x2="146.474" y1="95.772" y2="95.052" class="cls-12"/><line x1="148.395" x2="149.115" y1="95.532" y2="96.972" class="cls-12"/><path d="M146.4747,95.0522a.8807.8807,0,0,1,.72-.24,1.32,1.32,0,0,1,1.2.72" class="cls-12"/><rect width="270.32" height="129.68" x="-21.925" y="4.532" class="cls-1"/><line x1="149.834" x2="150.555" y1="94.812" y2="96.012" class="cls-12"/><line x1="150.315" x2="151.514" y1="92.892" y2="92.171" class="cls-12"/><path d="M149.834,94.8118a.8848.8848,0,0,1-.239-.7209,1.3185,1.3185,0,0,1,.719-1.199" class="cls-12"/><rect width="270.32" height="129.68" x="-21.925" y="4.532" class="cls-1"/><line x1="149.355" x2="150.794" y1="91.212" y2="90.491" class="cls-12"/><line x1="146.715" x2="147.675" y1="89.532" y2="90.732" class="cls-12"/><path d="M149.3545,91.4526h-.72a1.319,1.319,0,0,1-1.2-.721" class="cls-12"/><rect width="270.32" height="129.68" x="-21.925" y="4.532" class="cls-1"/><line x1="145.274" x2="145.994" y1="90.492" y2="91.692" class="cls-12"/><line x1="144.315" x2="145.514" y1="94.332" y2="93.612" class="cls-12"/><path d="M145.9942,91.6918a.8807.8807,0,0,1,.24.72,1.32,1.32,0,0,1-.719,1.2" class="cls-12"/><path d="M153.4346,93.1322h0a5.525,5.525,0,1,1-11.04,0,5.52,5.52,0,1,1,11.04,0" class="cls-12"/><rect width="270.32" height="129.68" x="-21.925" y="4.532" class="cls-1"/><line x1="75.674" x2="77.114" y1="90.492" y2="89.533" class="cls-12"/><line x1="81.194" x2="81.914" y1="90.492" y2="92.172" class="cls-12"/><line x1="79.515" x2="80.955" y1="96.972" y2="96.012" class="cls-12"/><line x1="74.714" x2="75.434" y1="94.332" y2="95.772" class="cls-12"/><line x1="75.435" x2="76.875" y1="95.772" y2="95.052" class="cls-12"/><line x1="78.794" x2="79.514" y1="95.532" y2="96.972" class="cls-12"/><path d="M76.8746,95.0522a.8817.8817,0,0,1,.72-.24,1.32,1.32,0,0,1,1.2.72" class="cls-12"/><rect width="270.32" height="129.68" x="-21.925" y="4.532" class="cls-1"/><line x1="80.234" x2="80.954" y1="94.812" y2="96.012" class="cls-12"/><line x1="80.714" x2="81.914" y1="92.892" y2="92.171" class="cls-12"/><path d="M80.2344,94.8118a.8824.8824,0,0,1-.24-.7209,1.3194,1.3194,0,0,1,.72-1.199" class="cls-12"/><rect width="270.32" height="129.68" x="-21.925" y="4.532" class="cls-1"/><line x1="79.754" x2="81.194" y1="91.212" y2="90.491" class="cls-12"/><line x1="77.114" x2="78.074" y1="89.532" y2="90.732" class="cls-12"/><path d="M79.7544,91.4526h-.48a1.45,1.45,0,0,1-1.44-.721" class="cls-12"/><rect width="270.32" height="129.68" x="-21.925" y="4.532" class="cls-1"/><line x1="75.674" x2="76.394" y1="90.492" y2="91.692" class="cls-12"/><line x1="74.714" x2="75.914" y1="94.332" y2="93.612" class="cls-12"/><path d="M76.3946,91.6918a.8807.8807,0,0,1,.24.72,1.3188,1.3188,0,0,1-.72,1.2" class="cls-12"/><path d="M83.8345,93.1322h0a5.525,5.525,0,1,1-11.04,0,5.52,5.52,0,1,1,11.04,0" class="cls-12"/><rect width="270.32" height="129.68" x="-21.925" y="4.532" class="cls-1"/><polyline points="69.194 69.852 69.194 69.852 68.954 69.852" class="cls-12"/><line x1="70.634" x2="70.634" y1="106.091" y2="99.372" class="cls-12"/><line x1="69.194" x2="69.194" y1="95.292" y2="21.611" class="cls-12"/><polyline points="69.194 95.292 69.434 96.972 70.154 98.651 71.354 100.091 72.794 101.292 74.474 102.012 76.154 102.251" class="cls-12"/><path d="M154.8741,58.332a41.76,41.76,0,1,1-41.76-41.76,41.7885,41.7885,0,0,1,41.76,41.76" class="cls-12"/><path d="M138.0743,58.332a24.96,24.96,0,1,1-24.96-24.96,24.9947,24.9947,0,0,1,24.96,24.96" class="cls-12"/><rect width="270.32" height="129.68" x="-21.925" y="4.532" class="cls-1"/><line x1="100.634" x2="105.434" y1="96.732" y2="82.091" class="cls-12"/><line x1="120.795" x2="125.595" y1="34.572" y2="20.172" class="cls-12"/><line x1="100.634" x2="105.434" y1="20.172" y2="34.572" class="cls-12"/><line x1="120.795" x2="125.595" y1="82.091" y2="96.732" class="cls-12"/><line x1="80.475" x2="92.715" y1="34.812" y2="43.692" class="cls-12"/><line x1="133.515" x2="145.755" y1="73.212" y2="82.091" class="cls-12"/><line x1="72.794" x2="88.154" y1="58.332" y2="58.572" class="cls-12"/><line x1="138.074" x2="153.434" y1="58.332" y2="58.572" class="cls-12"/><line x1="80.475" x2="92.955" y1="82.091" y2="73.212" class="cls-12"/><line x1="133.515" x2="145.755" y1="43.692" y2="34.812" class="cls-12"/><path d="M80.4747,34.8118a40.2744,40.2744,0,0,1,20.16-14.88" class="cls-12"/><rect width="270.32" height="129.68" x="-21.925" y="4.532" class="cls-1"/><polyline points="72.795 58.332 72.795 60.972 73.034 63.372 73.514 66.012 73.994 68.412 74.714 70.812 75.674 73.212 76.635 75.612 77.834 77.772 79.034 79.932 80.474 82.091" class="cls-12"/><path d="M125.5948,96.7319a36.7055,36.7055,0,0,1-12.48,1.92,37.6234,37.6234,0,0,1-12.48-1.92" class="cls-12"/><rect width="270.32" height="129.68" x="-21.925" y="4.532" class="cls-1"/><polyline points="145.755 82.091 147.194 79.932 148.395 77.772 149.595 75.612 150.555 73.212 151.515 70.812 152.234 68.412 152.715 66.012 153.194 63.372 153.435 60.972 153.435 58.332" class="cls-12"/><path d="M125.5948,19.9321a40.274,40.274,0,0,1,20.16,14.88" class="cls-12"/><rect width="270.32" height="129.68" x="-21.925" y="4.532" class="cls-1"/><polyline points="41.114 106.091 41.114 106.571 41.354 106.812 41.594 107.292 42.074 107.532 42.314 107.772 42.794 107.772" class="cls-12"/><line x1="48.074" x2="66.074" y1="114.492" y2="114.492" class="cls-12"/><line x1="48.074" x2="48.074" y1="114.492" y2="107.772" class="cls-12"/><line x1="66.074" x2="66.074" y1="114.492" y2="107.772" class="cls-12"/><line x1="42.794" x2="68.715" y1="107.772" y2="107.772" class="cls-12"/><polyline points="68.955 107.772 69.435 107.772 69.915 107.533 70.155 107.293 70.395 106.812 70.635 106.572 70.635 106.091" class="cls-12"/><polyline points="42.795 69.852 42.314 70.092 42.075 70.092 41.594 70.332 41.355 70.812 41.114 71.292 41.114 71.772" class="cls-12"/><line x1="41.114" x2="41.114" y1="106.091" y2="71.772" class="cls-12"/><line x1="50.955" x2="50.955" y1="112.091" y2="111.132" class="cls-12"/><line x1="50.955" x2="50.955" y1="111.132" y2="109.932" class="cls-12"/><line x1="50.955" x2="51.915" y1="111.132" y2="111.132" class="cls-12"/><line x1="49.754" x2="50.954" y1="111.132" y2="111.132" class="cls-12"/><line x1="56.475" x2="56.475" y1="112.091" y2="111.132" class="cls-12"/><line x1="56.475" x2="56.475" y1="111.132" y2="109.932" class="cls-12"/><line x1="56.475" x2="57.675" y1="111.132" y2="111.132" class="cls-12"/><line x1="55.275" x2="56.474" y1="111.132" y2="111.132" class="cls-12"/><line x1="61.995" x2="61.995" y1="112.091" y2="111.132" class="cls-12"/><line x1="61.995" x2="61.995" y1="111.132" y2="109.932" class="cls-12"/><line x1="61.995" x2="63.195" y1="111.132" y2="111.132" class="cls-12"/><line x1="61.034" x2="61.994" y1="111.132" y2="111.132" class="cls-12"/><line x1="44.714" x2="66.794" y1="94.572" y2="94.812" class="cls-6"/><line x1="67.034" x2="67.034" y1="104.171" y2="94.571" class="cls-6"/><text class="cls-10" transform="translate(48.3134 93.3715)">W</text><rect width="5.521" height="6.961" x="48.315" y="87.851" class="cls-1"/><text class="cls-10" transform="translate(60.0732 93.3715)">B</text><rect width="4.08" height="6.961" x="60.075" y="87.851" class="cls-1"/><text class="cls-10" transform="translate(54.7934 93.3715)">R</text><rect width="4.32" height="6.961" x="54.794" y="87.851" class="cls-1"/><line x1="44.714" x2="44.714" y1="104.171" y2="94.571" class="cls-6"/><line x1="44.714" x2="66.794" y1="104.171" y2="104.171" class="cls-6"/><line x1="48.674" x2="48.914" y1="102.372" y2="96.611" class="cls-7"/><line x1="65.475" x2="65.475" y1="102.372" y2="96.611" class="cls-7"/><line x1="48.674" x2="65.474" y1="102.372" y2="102.372" class="cls-7"/><line x1="48.674" x2="65.474" y1="96.612" y2="96.852" class="cls-7"/><path d="M188.2344,17.5321a6.96,6.96,0,1,1-6.96-6.96,6.965,6.965,0,0,1,6.96,6.96" class="cls-6"/><path d="M185.3545,17.5321a3.9992,3.9992,0,0,1-4.08,3.84,3.7909,3.7909,0,0,1-3.84-3.84,3.9992,3.9992,0,0,1,3.84-4.08,4.2057,4.2057,0,0,1,4.08,4.08" class="cls-6"/><path d="M51.9146,126.0121a6.96,6.96,0,1,1-6.96-6.96,6.965,6.965,0,0,1,6.96,6.96" class="cls-6"/><path d="M48.7945,126.0121h0a3.84,3.84,0,1,1-3.84-3.841,3.7909,3.7909,0,0,1,3.84,3.841" class="cls-6"/><rect width="270.32" height="129.68" x="-21.925" y="4.532" class="cls-1"/><line x1="37.995" x2="37.995" y1="126.012" y2="65.052" class="cls-6"/><line x1="161.114" x2="179.594" y1="46.092" y2="46.092" class="cls-12"/><line x1="161.114" x2="179.594" y1="49.452" y2="49.452" class="cls-12"/><polyline points="179.595 49.452 179.834 49.452 180.315 49.212 180.795 48.972 181.034 48.732 181.034 48.252 181.275 47.772 181.034 47.292 181.034 47.052 180.795 46.572 180.315 46.332 179.834 46.332 179.595 46.092" class="cls-12"/><polyline points="161.114 46.092 160.635 46.332 160.394 46.332 159.914 46.572 159.675 47.052 159.434 47.292 159.434 47.772 159.434 48.252 159.675 48.732 159.914 48.972 160.394 49.212 160.635 49.452 161.114 49.452" class="cls-12"/><line x1="46.634" x2="65.114" y1="46.092" y2="46.092" class="cls-12"/><line x1="46.634" x2="65.114" y1="49.452" y2="49.452" class="cls-12"/><polyline points="65.114 49.452 65.594 49.452 65.834 49.212 66.314 48.972 66.554 48.732 66.794 48.252 66.794 47.772 66.794 47.292 66.554 47.052 66.314 46.572 65.834 46.332 65.594 46.332 65.114 46.092" class="cls-12"/><polyline points="46.634 46.092 46.394 46.332 45.914 46.332 45.674 46.572 45.194 47.052 45.194 47.292 44.954 47.772 45.194 48.252 45.194 48.732 45.674 48.972 45.914 49.212 46.394 49.452 46.634 49.452" class="cls-12"/><rect width="11.04" height="5.521" x="54.315" y="108.251"/><rect width="11.04" height="5.52" x="54.434" y="108.373" class="cls-13"/><line x1="53.234" x2="53.234" y1="30.372" y2="25.572" class="cls-7"/><line x1="58.754" x2="58.994" y1="30.372" y2="25.572" class="cls-7"/><line x1="52.035" x2="59.955" y1="25.572" y2="25.812" class="cls-7"/><line x1="52.035" x2="52.275" y1="25.572" y2="14.532" class="cls-7"/><line x1="59.955" x2="59.955" y1="25.572" y2="14.532" class="cls-7"/><line x1="52.035" x2="59.955" y1="14.532" y2="14.532" class="cls-7"/><path d="M62.9546,36.7319a6.96,6.96,0,1,1-6.96-6.96,6.965,6.965,0,0,1,6.96,6.96" class="cls-6"/><rect width="270.32" height="129.68" x="-21.925" y="4.532" class="cls-1"/><line x1="46.754" x2="65.234" y1="47.892" y2="47.892" class="cls-7"/><rect width="5.52" height="4.8" x="53.114" y="65.292" class="cls-8"/><rect width="5.52" height="4.8" x="53.234" y="65.412" class="cls-9"/><rect width="7.92" height="11.041" x="51.914" y="70.092" class="cls-8"/><rect width="7.92" height="11.04" x="52.035" y="70.212" class="cls-9"/><line x1="53.234" x2="53.234" y1="70.212" y2="65.412" class="cls-7"/><line x1="58.754" x2="58.994" y1="70.212" y2="65.412" class="cls-7"/><line x1="52.035" x2="59.955" y1="70.212" y2="70.212" class="cls-7"/><line x1="52.035" x2="52.275" y1="81.251" y2="70.211" class="cls-7"/><line x1="59.955" x2="59.955" y1="81.251" y2="70.211" class="cls-7"/><line x1="52.035" x2="59.955" y1="81.251" y2="81.491" class="cls-7"/><path d="M62.9546,59.0522a6.96,6.96,0,1,1-6.96-6.96,6.965,6.965,0,0,1,6.96,6.96" class="cls-6"/><rect width="270.32" height="129.68" x="-21.925" y="4.532" class="cls-1"/><polyline points="61.634 6.132 60.194 6.372 58.754 6.852 57.554 7.812 56.834 9.012 56.114 10.212 56.114 11.892" class="cls-5"/><polyline points="68.355 11.892 68.114 10.212 67.635 9.012 66.674 7.812 65.474 6.852 64.274 6.372 62.834 6.132" class="cls-5"/><line x1="61.634" x2="62.834" y1="6.132" y2="6.132" class="cls-5"/><line x1="68.355" x2="68.355" y1="82.692" y2="11.892" class="cls-5"/><line x1="70.034" x2="70.514" y1="84.372" y2="84.372" class="cls-5"/><polyline points="68.355 82.692 68.355 82.932 68.594 83.412 68.834 83.652 69.074 84.132 69.554 84.132 70.034 84.373" class="cls-5"/><text class="cls-14" transform="translate(41.5932 75.913)">12V</text><text class="cls-10" transform="translate(38.9531 26.4115)">GN</text><rect width="13.2" height="6.961" x="38.955" y="20.891" class="cls-1"/><rect width="39.12" height="8.88" x="-19.846" y="32.172"/><rect width="39.12" height="8.88" x="-19.726" y="32.292" class="cls-13"/><rect width="39.12" height="8.88" x="-19.846" y="54.492" class="cls-16"/><rect width="39.12" height="8.88" x="-19.726" y="54.612" class="cls-17"/><rect width="69.981" height="8.88" x="207.152" y="32.172"/><rect width="39.12" height="8.88" x="207.075" y="32.292" class="cls-13"/><rect width="72.012" height="8.88" x="207.165" y="54.492" class="cls-16"/><polyline points="56.114 82.692 56.114 82.932 56.354 83.412 56.594 83.652 56.834 84.132 57.314 84.132 57.794 84.373" class="cls-4"/><path d="M135.6792,105.9428h-44.89a5.4755,5.4755,0,0,0-5.474,5.477v10.947a5.4751,5.4751,0,0,0,5.474,5.475h44.89a5.4753,5.4753,0,0,0,5.475-5.475V111.42a5.4758,5.4758,0,0,0-5.475-5.477"/><polygon points="117.208 112.457 117.649 112.457 119.061 115.013 120.472 112.457 120.914 112.457 119.302 115.365 118.819 115.365 117.208 112.457" class="cls-18"/><rect width=".395" height="2.908" x="121.591" y="112.458" class="cls-18"/><path d="M122.7945,113.5131c0-.734.249-1.089,1.037-1.089h1.507c.715,0,.912.332.912.724v.249h-.345v-.133c0-.495-.306-.52-.667-.52h-1.367c-.378,0-.682.115-.682.622v1.091c0,.507.304.621.682.621h1.379c.529,0,.684-.114.684-.506v-.182h.369v.197c0,.528-.169.812-.986.812h-1.486c-.788,0-1.037-.355-1.037-1.089Z" class="cls-18"/><polygon points="128.317 112.779 126.845 112.779 126.845 112.458 130.181 112.458 130.181 112.779 128.711 112.779 128.711 115.366 128.317 115.366 128.317 112.779" class="cls-18"/><path d="M130.7481,113.5126c0-.734.248-1.088,1.036-1.088h1.675c.789,0,1.038.354,1.038,1.088v.797c0,.735-.249,1.089-1.038,1.089h-1.675c-.788,0-1.036-.354-1.036-1.089Zm3.355-.147c0-.507-.306-.621-.684-.621h-1.594c-.379,0-.684.114-.684.621v1.092c0,.507.305.621.684.621h1.594c.378,0,.684-.114.684-.621Z" class="cls-18"/><path d="M135.2962,112.4579h2.329c.838,0,.971.275.971.823v.236c0,.41-.233.524-.534.552v.008c.401.072.498.281.498.547v.742h-.371v-.638c0-.454-.22-.512-.578-.512H135.69v1.15h-.394Zm2.282,1.437c.439,0,.623-.116.623-.421v-.266c0-.326-.139-.429-.719-.429H135.69v1.116Z" class="cls-18"/><path d="M116.8389,119.7565c0-.538.22-.826.889-.923v-.016a.9563.9563,0,0,1-.862-1.047v-.283c0-1.117.482-1.192,2.448-1.192h1.517c1.276,0,1.855.241,1.855,1.185v.326c0,.537-.131.895-.834.984v.014a.9886.9886,0,0,1,.875,1.062v.399c0,.835-.531,1.132-1.462,1.132h-2.882c-1.076,0-1.544-.407-1.544-1.207Zm3.847.566c.517,0,.594-.152.594-.505,0-.385-.069-.496-.677-.496h-1.64c-.608,0-.676.111-.676.496,0,.353.076.505.593.505Zm-.034-2.036c.448,0,.586-.178.586-.461a.41.41,0,0,0-.469-.454h-1.986a.41.41,0,0,0-.469.454c0,.283.138.461.586.461Z" class="cls-18"/><path d="M124.9366,119.7565c0-.538.221-.826.89-.923v-.016a.9563.9563,0,0,1-.862-1.047v-.283c0-1.117.482-1.192,2.448-1.192h1.517c1.276,0,1.855.241,1.855,1.185v.326c0,.537-.131.895-.834.984v.014a.9893.9893,0,0,1,.875,1.062v.399c0,.835-.531,1.132-1.462,1.132h-2.882c-1.076,0-1.545-.407-1.545-1.207Zm3.847.566c.518,0,.594-.152.594-.505,0-.385-.068-.496-.677-.496h-1.639c-.609,0-.676.111-.676.496,0,.353.075.505.593.505Zm-.034-2.036c.448,0,.587-.178.587-.461a.41.41,0,0,0-.47-.454h-1.985a.41.41,0,0,0-.469.454c0,.283.137.461.585.461Z" class="cls-18"/><path d="M133.1582,119.7c0-.537.22-.827.89-.924v-.014a.957.957,0,0,1-.863-1.049v-.281c0-1.118.483-1.194,2.449-1.194h1.516c1.278,0,1.856.242,1.856,1.186v.324c0,.539-.131.897-.834.988v.013a.9922.9922,0,0,1,.877,1.062v.399c0,.835-.534,1.131-1.465,1.131h-2.882c-1.075,0-1.544-.407-1.544-1.207Zm3.847.564c.518,0,.592-.15.592-.502,0-.385-.066-.495-.675-.495h-1.639c-.609,0-.676.11-.676.495,0,.352.075.502.593.502Zm-.034-2.033c.447,0,.587-.18.587-.461a.4122.4122,0,0,0-.47-.457h-1.985a.4122.4122,0,0,0-.47.457c0,.281.138.461.586.461Z" class="cls-18"/><path d="M110.7486,112.3217a.0928.0928,0,0,0-.053.017s-2.095,1.456-2.196,1.527c-.102-.071-2.206-1.527-2.206-1.527a.0928.0928,0,0,0-.053-.017h-1.939a.0924.0924,0,0,0-.089.065.0975.0975,0,0,0-.005.028.0993.0993,0,0,0,.042.077s2.929,1.983,3.141,2.126c-.214.142-3.409,2.284-3.409,2.284a.098.098,0,0,0-.042.077.0808.0808,0,0,0,.005.027.0921.0921,0,0,0,.089.066h1.981a.0849.0849,0,0,0,.053-.018s2.329-1.612,2.432-1.682c.102.071,2.41,1.682,2.41,1.682a.087.087,0,0,0,.053.018h1.95a.093.093,0,0,0,.089-.066.1176.1176,0,0,0,.003-.027.0958.0958,0,0,0-.04-.077s-3.175-2.14-3.389-2.282c.213-.144,3.153-2.128,3.153-2.128a.0943.0943,0,0,0,.037-.105.0933.0933,0,0,0-.089-.065Z" class="cls-18"/><path d="M95.5064,112.3217a.093.093,0,0,0-.072.035s-2.767,3.383-2.905,3.553c-.136-.172-2.852-3.553-2.852-3.553a.093.093,0,0,0-.072-.035h-1.628a.0923.0923,0,0,0-.084.054.09.09,0,0,0,.012.097l3.759,4.565a.0952.0952,0,0,0,.072.034h1.585a.0916.0916,0,0,0,.071-.034l3.813-4.565a.0863.0863,0,0,0,.013-.097.0923.0923,0,0,0-.084-.054Z" class="cls-18"/><path d="M98.08,112.3217a2.7441,2.7441,0,0,1-.3-1.291c0-1.039.521-1.911,1.154-1.911h4.012c.214,0,.39.292.39.643,0,.355-.176.645-.39.645h-4.012c-.212,0-.376.291-.376.623,0,.334.151.657.376.657h4.012c.214,0,.39.284.39.634s-.176.634-.39.634h-4.012c-.225,0-.376.322-.376.656s.164.623.376.623h4.012c.214,0,.39.29.39.645,0,.353-.176.645-.39.645h-4.012c-.633,0-1.154-.874-1.154-1.913a2.73,2.73,0,0,1,.3-1.289Z" class="cls-19"/><path d="M113.4429,116.5032a.3238.3238,0,0,1,.155.041.2941.2941,0,0,1,.117.115.3343.3343,0,0,1,.042.159.317.317,0,0,1-.042.155.2855.2855,0,0,1-.116.115.3089.3089,0,0,1-.311,0,.2892.2892,0,0,1-.115-.115.3066.3066,0,0,1-.042-.155.3233.3233,0,0,1,.042-.159.2879.2879,0,0,1,.117-.115.3193.3193,0,0,1,.153-.041m0,.054a.27.27,0,0,0-.128.032.2385.2385,0,0,0-.097.097.2611.2611,0,0,0-.035.132.2576.2576,0,0,0,.034.127.2247.2247,0,0,0,.097.096.2436.2436,0,0,0,.129.035.248.248,0,0,0,.131-.035.242.242,0,0,0,.097-.096.2686.2686,0,0,0,.034-.127.2716.2716,0,0,0-.035-.132.247.247,0,0,0-.098-.097.2708.2708,0,0,0-.129-.032m-.137.432v-.335h.117a.3061.3061,0,0,1,.085.007.0752.0752,0,0,1,.042.035.0743.0743,0,0,1,.016.047.095.095,0,0,1-.026.065.105.105,0,0,1-.07.03.1822.1822,0,0,1,.029.019.5906.5906,0,0,1,.049.066l.041.066h-.066l-.03-.052a.2418.2418,0,0,0-.057-.078.0682.0682,0,0,0-.044-.011h-.031v.141Zm.055-.189h.066a.1184.1184,0,0,0,.064-.014.0456.0456,0,0,0,.017-.038.0462.0462,0,0,0-.007-.026.0916.0916,0,0,0-.024-.019.1812.1812,0,0,0-.054-.004h-.062Z" class="cls-18"/><path d="M87.8927,124.0483v-.105l.1.038-.1-.038v.105h-.154l2.108-5.529h4.515a2.0214,2.0214,0,0,1,1.177.272.8906.8906,0,0,1,.362.766,2.7108,2.7108,0,0,1-.21.928l-.174.455a2.4934,2.4934,0,0,1-2.246,1.772h-3.165l-.509,1.336Zm1.558-.211.51-1.336h3.31a2.2857,2.2857,0,0,0,2.049-1.638l.173-.454a2.4857,2.4857,0,0,0,.195-.852.67.67,0,0,0-.273-.591,1.7943,1.7943,0,0,0-1.053-.234h-4.37l-1.944,5.105Z" class="cls-19"/><path d="M90.43,121.2846a.1054.1054,0,0,1,.106-.106H93.07a.6809.6809,0,0,0,.645-.498l.078-.205a.646.646,0,0,0,.05-.217.1466.1466,0,0,0-.071-.141.6518.6518,0,0,0-.333-.064h-2.394a.106.106,0,1,1,0-.212h2.394a.84.84,0,0,1,.448.097.3644.3644,0,0,1,.168.32.8554.8554,0,0,1-.063.294l-.079.205a.8957.8957,0,0,1-.843.633h-2.534a.1048.1048,0,0,1-.106-.106" class="cls-19"/><path d="M100.7368,124.0483v-.105l.1.038-.1-.038v.105h-.153l.298-.782a1.2248,1.2248,0,0,0,.099-.399c-.003-.089-.019-.112-.067-.144a.6315.6315,0,0,0-.319-.055h-2.49l-.525,1.38h-1.859l2.107-5.529h4.994a1.6691,1.6691,0,0,1,.972.226.7693.7693,0,0,1,.31.66,2.4738,2.4738,0,0,1-.191.837l-.129.338a1.8792,1.8792,0,0,1-1.164,1.283,1.0264,1.0264,0,0,1,.129.085.6078.6078,0,0,1,.206.489,1.843,1.843,0,0,1-.144.639l-.37.972Zm-4.707-.211h1.403l.527-1.382h2.635a.8642.8642,0,0,1,.428.084.3607.3607,0,0,1,.171.328,1.415,1.415,0,0,1-.114.475l-.189.494h1.404l.318-.834a1.65,1.65,0,0,0,.13-.565.3985.3985,0,0,0-.13-.327.8378.8378,0,0,0-.362-.142l-.123-.024.07-.185.056-.012a1.6521,1.6521,0,0,0,1.332-1.242l.129-.338a2.2748,2.2748,0,0,0,.177-.762.5541.5541,0,0,0-.222-.488,1.48,1.48,0,0,0-.848-.185h-4.847Z" class="cls-19"/><path d="M98.43,121.2406a.1067.1067,0,0,1,.105-.107h2.696a.7635.7635,0,0,0,.457-.116.7733.7733,0,0,0,.259-.374l.067-.174a.76.76,0,0,0,.057-.242c-.006-.08-.016-.091-.088-.127a1.2206,1.2206,0,0,0-.407-.047h-2.548a.106.106,0,1,1,0-.212h2.548a1.3263,1.3263,0,0,1,.488.063.332.332,0,0,1,.22.323.9288.9288,0,0,1-.073.317l-.067.175a.9607.9607,0,0,1-.334.472.9851.9851,0,0,1-.579.155h-2.696a.1065.1065,0,0,1-.105-.106" class="cls-19"/><path d="M106.4285,124.1076a3.244,3.244,0,0,1-1.375-.217.926.926,0,0,1-.547-.899,2.7509,2.7509,0,0,1,.213-.953l.604-1.585a2.893,2.893,0,0,1,1.257-1.602,3.8742,3.8742,0,0,1,1.918-.391h2.614a3.2938,3.2938,0,0,1,1.376.217.9261.9261,0,0,1,.546.899,2.7368,2.7368,0,0,1-.213.952l-.604,1.587a2.8878,2.8878,0,0,1-1.257,1.6,3.8609,3.8609,0,0,1-1.918.392Zm-1.51-1.992a2.5291,2.5291,0,0,0-.199.876.7085.7085,0,0,0,.427.709,3.0758,3.0758,0,0,0,1.282.195h2.614a3.6552,3.6552,0,0,0,1.814-.364,2.6743,2.6743,0,0,0,1.163-1.493l.604-1.585a2.51,2.51,0,0,0,.198-.877.7069.7069,0,0,0-.426-.707,3.0463,3.0463,0,0,0-1.283-.196h-2.614a3.6634,3.6634,0,0,0-1.814.365,2.67,2.67,0,0,0-1.162,1.49Z" class="cls-19"/><path d="M109.2994,122.7426h-2.628a.1065.1065,0,0,1,0-.213h2.628a1.1179,1.1179,0,0,0,.779-.22,1.8152,1.8152,0,0,0,.459-.778l.218-.571a1.6759,1.6759,0,0,0,.138-.552.289.289,0,0,0-.123-.265.9988.9988,0,0,0-.531-.104h-2.451a.1067.1067,0,0,1-.105-.107.1056.1056,0,0,1,.105-.105h2.451a1.1681,1.1681,0,0,1,.65.142.4991.4991,0,0,1,.216.439,1.8738,1.8738,0,0,1-.151.627l-.218.574a2.04,2.04,0,0,1-.521.863,1.3341,1.3341,0,0,1-.912.27Z" class="cls-19"/><rect width="270.32" height="129.68" x="-21.925" y="4.532" class="cls-1"/><line x1="175.153" x2="188.283" y1="125.796" y2="142.319" class="cls-20"/><polygon points="171.754 121.52 174.119 128.598 178.114 125.422 171.754 121.52"/></g></svg>