<svg xmlns="http://www.w3.org/2000/svg" xmlns:xlink="http://www.w3.org/1999/xlink" id="Layer_1" data-name="Layer 1" viewBox="0 0 192.818 179.511"><defs><style>.cls-1{fill:none}.cls-2{fill:#323031}.cls-20,.cls-3{fill:#819356}.cls-10,.cls-21,.cls-4{fill:#fff}.cls-5{fill:#bc2030}.cls-11,.cls-15,.cls-19,.cls-6{fill:#221f1f}.cls-7{fill:#5a5a5c}.cls-8{fill:#f2f2f2}.cls-9{fill:#079247}.cls-10,.cls-11,.cls-20,.cls-21{font-size:8.8489px}.cls-10,.cls-11,.cls-15,.cls-19,.cls-20,.cls-21{font-family:Verdana}.cls-12,.cls-21{letter-spacing:.001em}.cls-13{letter-spacing:.0001em}.cls-14{letter-spacing:.0009em}.cls-15,.cls-19{font-size:7.8656px}.cls-16,.cls-19{letter-spacing:.0011em}.cls-17{letter-spacing:.001em}.cls-18,.cls-22{letter-spacing:-.0001em}.cls-23{letter-spacing:-.013em}.cls-24{clip-path:url(#clip-path)}.cls-25{opacity:.33}.cls-26{fill:#231f20}.cls-27{fill:#00aeef}</style><clipPath id="clip-path"><path d="M179.824,3.9668H13.7069a8.8493,8.8493,0,0,0-8.849,8.849V165.2517a8.8493,8.8493,0,0,0,8.849,8.8491H179.824a8.8492,8.8492,0,0,0,8.849-8.8491V12.8158A8.8492,8.8492,0,0,0,179.824,3.9668ZM21.0718,163.7259A6.258,6.258,0,1,1,27.33,157.468,6.2583,6.2583,0,0,1,21.0718,163.7259Zm0-135.4209A6.258,6.258,0,1,1,27.33,22.0471,6.2583,6.2583,0,0,1,21.0718,28.305Zm150.08,138.4492a6.258,6.258,0,1,1,6.258-6.2579A6.2583,6.2583,0,0,1,171.1519,166.7542ZM172.56,26.2093a6.258,6.258,0,1,1,6.258-6.2579A6.2583,6.2583,0,0,1,172.56,26.2093Z" class="cls-1"/></clipPath></defs><path d="M179.8543,3.7627H13.7372a8.8492,8.8492,0,0,0-8.849,8.849V165.0476a8.8492,8.8492,0,0,0,8.849,8.8491H179.8543a8.8493,8.8493,0,0,0,8.849-8.8491V12.6117A8.8493,8.8493,0,0,0,179.8543,3.7627ZM21.1021,163.5218a6.258,6.258,0,1,1,6.258-6.2579A6.2583,6.2583,0,0,1,21.1021,163.5218Zm0-135.4209A6.258,6.258,0,1,1,27.36,21.843,6.2583,6.2583,0,0,1,21.1021,28.1009ZM171.1821,166.55a6.258,6.258,0,1,1,6.2581-6.258A6.2583,6.2583,0,0,1,171.1821,166.55ZM172.59,26.0052a6.258,6.258,0,1,1,6.2581-6.2579A6.2582,6.2582,0,0,1,172.59,26.0052Z" class="cls-2"/><path d="M86.9939,160.2913h-9.915a1.5358,1.5358,0,0,1-1.536-1.536v-37.187a1.5358,1.5358,0,0,1,1.536-1.536h9.915a1.5357,1.5357,0,0,1,1.5359,1.536v37.187a1.5357,1.5357,0,0,1-1.5359,1.536" class="cls-3"/><path d="M85.4412,149.9729c0,5.698-5.2311,10.318-11.687,10.318-6.4541,0-11.6861-4.62-11.6861-10.318s5.232-10.317,11.6861-10.317c6.4559,0,11.687,4.6189,11.687,10.317" class="cls-3"/><polygon points="132.392 89.731 132.392 42.514 138.223 39.296 186.077 39.296 186.077 89.731 132.392 89.731" class="cls-4"/><polygon points="132.392 89.731 132.392 136.945 138.223 140.163 186.077 140.163 186.077 89.731 132.392 89.731" class="cls-3"/><path d="M114.8465,73.5491h-35.99a1.77,1.77,0,0,1-1.77-1.77V10.06a1.7706,1.7706,0,0,1,1.77-1.77h35.99a1.77,1.77,0,0,1,1.77,1.77v61.719a1.77,1.77,0,0,1-1.77,1.77" class="cls-3"/><rect width="19.799" height="52.477" x="77.086" y="7.802" class="cls-5"/><rect width="19.798" height="52.477" x="96.819" y="7.802" class="cls-6"/><polygon points="61.4 89.73 61.4 42.513 55.568 39.295 7.704 39.295 7.704 89.73 61.4 89.73" class="cls-4"/><polygon points="61.4 89.73 61.4 136.944 55.568 140.162 7.704 140.162 7.704 89.73 61.4 89.73" class="cls-3"/><rect width="20.433" height="11.653" x="14.845" y="41.865" class="cls-7"/><rect width="13.11" height="6.919" x="19.435" y="44.05" class="cls-8"/><path d="M25.5359,47.6917a4.5976,4.5976,0,1,1-4.598-4.598,4.5986,4.5986,0,0,1,4.598,4.598" class="cls-6"/><rect width="20.433" height="11.653" x="14.845" y="53.419" class="cls-7"/><rect width="13.11" height="6.919" x="19.435" y="55.604" class="cls-8"/><path d="M25.5359,59.2454a4.5976,4.5976,0,1,1-4.598-4.598,4.5986,4.5986,0,0,1,4.598,4.598" class="cls-6"/><rect width="20.433" height="11.654" x="14.845" y="65.072" class="cls-7"/><rect width="13.11" height="6.919" x="19.435" y="67.257" class="cls-8"/><path d="M25.5359,70.8987a4.5976,4.5976,0,1,1-4.598-4.598,4.5985,4.5985,0,0,1,4.598,4.598" class="cls-6"/><rect width="20.433" height="11.653" x="14.845" y="76.726" class="cls-7"/><rect width="13.11" height="6.92" x="19.436" y="78.91" class="cls-8"/><path d="M25.5359,82.552a4.5976,4.5976,0,1,1-4.598-4.598,4.5985,4.5985,0,0,1,4.598,4.598" class="cls-6"/><rect width="20.433" height="11.653" x="14.845" y="87.705" class="cls-7"/><rect width="13.11" height="6.919" x="19.435" y="89.889" class="cls-8"/><path d="M25.5359,93.5306a4.5976,4.5976,0,1,1-4.598-4.5981,4.5986,4.5986,0,0,1,4.598,4.5981" class="cls-6"/><rect width="20.433" height="11.653" x="14.845" y="99.259" class="cls-7"/><rect width="13.11" height="6.92" x="19.435" y="101.443" class="cls-8"/><path d="M25.5359,105.0843a4.5976,4.5976,0,1,1-4.598-4.5981,4.5979,4.5979,0,0,1,4.598,4.5981" class="cls-6"/><rect width="20.433" height="11.653" x="14.845" y="110.912" class="cls-7"/><rect width="13.11" height="6.919" x="19.435" y="113.097" class="cls-8"/><path d="M25.5359,116.7386a4.5976,4.5976,0,1,1-4.598-4.5981,4.5986,4.5986,0,0,1,4.598,4.5981" class="cls-6"/><rect width="20.433" height="11.653" x="14.845" y="122.565" class="cls-7"/><rect width="13.11" height="6.919" x="19.435" y="124.75" class="cls-8"/><path d="M25.5359,128.3919a4.5976,4.5976,0,1,1-4.598-4.598,4.5986,4.5986,0,0,1,4.598,4.598" class="cls-6"/><rect width="11.654" height="20.433" x="95.802" y="14.617" class="cls-7"/><rect width="6.919" height="13.11" x="98.352" y="19.209" class="cls-8"/><path d="M101.6287,25.3079a4.5976,4.5976,0,1,1,4.5979-4.598,4.5979,4.5979,0,0,1-4.5979,4.598" class="cls-6"/><rect width="11.653" height="20.433" x="84.248" y="14.617" class="cls-7"/><rect width="6.919" height="13.11" x="86.797" y="19.209" class="cls-8"/><path d="M90.075,25.3079a4.5976,4.5976,0,1,1,4.5979-4.598,4.598,4.598,0,0,1-4.5979,4.598" class="cls-6"/><path d="M81.865,150.0911a8.5731,8.5731,0,1,1-8.5731-8.5731,8.5741,8.5741,0,0,1,8.5731,8.5731" class="cls-9"/><rect width="14.983" height="11.438" x="35.278" y="41.973" class="cls-5"/><rect width="14.983" height="11.653" x="35.278" y="53.411" class="cls-6"/><rect width="14.983" height="11.438" x="35.278" y="65.064" class="cls-5"/><rect width="14.983" height="11.653" x="35.278" y="76.503" class="cls-6"/><rect width="14.983" height="11.438" x="35.278" y="88.156" class="cls-5"/><rect width="14.983" height="11.653" x="35.278" y="99.595" class="cls-6"/><rect width="14.983" height="11.438" x="35.278" y="111.248" class="cls-5"/><rect width="14.983" height="11.654" x="35.278" y="122.686" class="cls-6"/><rect width="7.141" height="11.438" x="7.704" y="42.196" class="cls-5"/><rect width="7.141" height="11.653" x="7.704" y="53.635" class="cls-6"/><rect width="7.141" height="11.438" x="7.704" y="65.288" class="cls-5"/><rect width="7.141" height="11.653" x="7.704" y="76.726" class="cls-6"/><rect width="7.141" height="11.438" x="7.704" y="88.38" class="cls-5"/><rect width="7.141" height="11.653" x="7.704" y="99.818" class="cls-6"/><rect width="7.141" height="11.438" x="7.704" y="111.472" class="cls-5"/><rect width="7.141" height="11.653" x="7.704" y="122.91" class="cls-6"/><rect width="20.434" height="11.653" x="158.502" y="123.951" class="cls-7"/><rect width="13.11" height="6.919" x="161.234" y="126.499" class="cls-8"/><path d="M168.2449,129.7767a4.5975,4.5975,0,1,1,4.5979,4.5979,4.5985,4.5985,0,0,1-4.5979-4.5979" class="cls-6"/><rect width="20.434" height="11.653" x="158.502" y="112.397" class="cls-7"/><rect width="13.11" height="6.919" x="161.234" y="114.946" class="cls-8"/><path d="M168.2449,118.2229a4.5975,4.5975,0,1,1,4.5979,4.5979,4.5985,4.5985,0,0,1-4.5979-4.5979" class="cls-6"/><rect width="20.434" height="11.654" x="158.502" y="100.743" class="cls-7"/><rect width="13.11" height="6.919" x="161.234" y="103.292" class="cls-8"/><path d="M168.2449,106.57a4.5975,4.5975,0,1,1,4.5979,4.5979,4.5985,4.5985,0,0,1-4.5979-4.5979" class="cls-6"/><rect width="20.434" height="11.653" x="158.502" y="89.089" class="cls-7"/><rect width="13.11" height="6.919" x="161.234" y="91.639" class="cls-8"/><path d="M168.2449,94.9163a4.5975,4.5975,0,1,1,4.5979,4.5979,4.5984,4.5984,0,0,1-4.5979-4.5979" class="cls-6"/><rect width="20.434" height="11.653" x="158.502" y="78.111" class="cls-7"/><rect width="13.11" height="6.919" x="161.234" y="80.661" class="cls-8"/><path d="M168.2449,83.9378a4.5975,4.5975,0,1,1,4.5979,4.5979,4.5984,4.5984,0,0,1-4.5979-4.5979" class="cls-6"/><rect width="20.434" height="11.653" x="158.502" y="66.557" class="cls-7"/><rect width="13.11" height="6.92" x="161.234" y="69.106" class="cls-8"/><path d="M168.2449,72.3841a4.5975,4.5975,0,1,1,4.5979,4.5979,4.5979,4.5979,0,0,1-4.5979-4.5979" class="cls-6"/><rect width="20.434" height="11.653" x="158.502" y="54.904" class="cls-7"/><rect width="13.11" height="6.92" x="161.234" y="57.453" class="cls-8"/><path d="M168.2449,60.73a4.5975,4.5975,0,1,1,4.5979,4.5979,4.5984,4.5984,0,0,1-4.5979-4.5979" class="cls-6"/><rect width="20.434" height="11.653" x="158.502" y="43.25" class="cls-7"/><rect width="13.11" height="6.919" x="161.234" y="45.799" class="cls-8"/><path d="M168.2449,49.0765a4.5975,4.5975,0,1,1,4.5979,4.5979,4.5985,4.5985,0,0,1-4.5979-4.5979" class="cls-6"/><rect width="14.982" height="11.438" x="143.52" y="124.058" class="cls-5"/><rect width="14.982" height="11.653" x="143.52" y="112.405" class="cls-6"/><rect width="14.982" height="11.438" x="143.52" y="100.966" class="cls-5"/><rect width="14.982" height="11.653" x="143.52" y="89.313" class="cls-6"/><rect width="14.982" height="11.438" x="143.52" y="77.875" class="cls-5"/><rect width="14.982" height="11.653" x="143.52" y="66.221" class="cls-6"/><rect width="14.982" height="11.438" x="143.52" y="54.783" class="cls-5"/><rect width="14.982" height="11.653" x="143.52" y="43.129" class="cls-6"/><rect width="7.141" height="11.438" x="178.935" y="123.834" class="cls-5"/><rect width="7.141" height="11.653" x="178.935" y="112.181" class="cls-6"/><rect width="7.141" height="11.438" x="178.935" y="100.743" class="cls-5"/><rect width="7.141" height="11.653" x="178.935" y="89.089" class="cls-6"/><rect width="7.141" height="11.438" x="178.935" y="77.651" class="cls-5"/><rect width="7.141" height="11.653" x="178.935" y="65.998" class="cls-6"/><rect width="7.141" height="11.438" x="178.935" y="54.559" class="cls-5"/><rect width="7.141" height="11.653" x="178.935" y="42.906" class="cls-6"/><text class="cls-10" transform="translate(84.2975 52.9506)">+</text><text class="cls-10" transform="translate(104.9597 52.9506)">-</text><text class="cls-11" transform="translate(109.5291 63.0037) rotate(180)"><tspan class="cls-12">12</tspan><tspan x="11.269" y="0" class="cls-13">V</tspan><tspan x="17.318" y="0" class="cls-14">i</tspan><tspan x="19.755" y="0">n</tspan></text><text class="cls-15" transform="translate(53.7459 91.0556) rotate(90)"><tspan class="cls-16">12</tspan><tspan x="10.017" y="0">V</tspan><tspan x="15.394" y="0" class="cls-16">500m</tspan><tspan x="38.077" y="0">A</tspan></text><text class="cls-15" transform="translate(53.4686 52.5165) rotate(90)"><tspan class="cls-17">12</tspan><tspan x="10.017" y="0">V</tspan><tspan x="15.394" y="0" class="cls-17" xml:space="preserve"> 2</tspan><tspan x="23.175" y="0">A</tspan></text><text class="cls-15" transform="translate(141.1071 78.1981) rotate(-90)"><tspan class="cls-17">5</tspan><tspan x="5.009" y="0" class="cls-18">V</tspan><tspan x="10.385" y="0" class="cls-17" xml:space="preserve"> 2</tspan><tspan x="18.167" y="0">A</tspan></text><text class="cls-15" transform="translate(141.1071 132.8865) rotate(-90)"><tspan class="cls-16">5</tspan><tspan x="5.009" y="0" class="cls-18">V</tspan><tspan x="10.385" y="0" class="cls-17" xml:space="preserve"> 500m</tspan><tspan x="35.842" y="0">A</tspan></text><text class="cls-15" transform="translate(79.3846 123.1615) rotate(90)"><tspan class="cls-16">12</tspan><tspan x="10.017" y="0">V</tspan></text><path d="M105.658,160.2923h9.9189a1.5358,1.5358,0,0,0,1.536-1.536v-37.187a1.5358,1.5358,0,0,0-1.536-1.5361H105.658a1.5364,1.5364,0,0,0-1.536,1.5361v37.187a1.5365,1.5365,0,0,0,1.536,1.536" class="cls-3"/><path d="M107.2117,149.9739c0,5.698,5.2329,10.318,11.689,10.318s11.69-4.62,11.69-10.318-5.2329-10.317-11.69-10.317-11.689,4.6189-11.689,10.317" class="cls-3"/><path d="M127.4744,149.9729a8.5731,8.5731,0,1,1-8.5731-8.5731,8.5734,8.5734,0,0,1,8.5731,8.5731" class="cls-9"/><text class="cls-19" transform="translate(113.3767 134.5701) rotate(-90)">5<tspan x="5.009" y="0" class="cls-18">V</tspan></text><text class="cls-20" transform="translate(76.5026 87.0639)">V</text><text class="cls-21" transform="translate(81.9538 87.0637)">o<tspan x="5.38" y="0" class="cls-22">ltage</tspan></text><text class="cls-20" transform="translate(76.5026 97.2756)">R</text><text class="cls-10" transform="translate(81.9636 97.2753)"><tspan class="cls-12">e</tspan><tspan x="5.28" y="0" class="cls-22">gula</tspan><tspan x="24.136" y="0" class="cls-23">t</tspan><tspan x="27.508" y="0" class="cls-12">o</tspan><tspan x="32.888" y="0">r</tspan></text><text class="cls-20" transform="translate(76.5026 107.85)">M</text><text class="cls-21" transform="translate(84.237 107.85)">o<tspan x="5.38" y="0" class="cls-22">dule</tspan></text><path d="M21.1021,151.0059a6.258,6.258,0,1,0,6.258,6.258A6.2583,6.2583,0,0,0,21.1021,151.0059Z" class="cls-4"/><path d="M21.1021,15.585a6.258,6.258,0,1,0,6.258,6.258A6.2583,6.2583,0,0,0,21.1021,15.585Z" class="cls-4"/><path d="M171.1821,154.0342a6.258,6.258,0,1,0,6.2581,6.258A6.2583,6.2583,0,0,0,171.1821,154.0342Z" class="cls-4"/><path d="M0,0V179.5113H192.8184V0ZM188.7033,165.0476a8.8493,8.8493,0,0,1-8.849,8.8491H13.7372a8.8492,8.8492,0,0,1-8.849-8.8491V12.6117a8.8492,8.8492,0,0,1,8.849-8.849H179.8543a8.8493,8.8493,0,0,1,8.849,8.849Z" class="cls-4"/><path d="M172.59,13.4893a6.258,6.258,0,1,0,6.2581,6.258A6.2583,6.2583,0,0,0,172.59,13.4893Z" class="cls-4"/><g class="cls-24"><g class="cls-25"><path d="M10.7435,192.4266a25.0716,25.0716,0,0,1-25.043-25.043V12.1609A25.0715,25.0715,0,0,1,10.7435-12.882H175.7977a25.0715,25.0715,0,0,1,25.043,25.0429V167.3836a25.0716,25.0716,0,0,1-25.043,25.043Zm53.189-78.1573a5.7064,5.7064,0,0,0-5.7,5.7v39.2813a5.7064,5.7064,0,0,0,5.7,5.7h65.69a5.7061,5.7061,0,0,0,5.7-5.7V119.97a5.7061,5.7061,0,0,0-5.7-5.7Z" class="cls-26"/></g><path d="M175.7977-11.382a23.5436,23.5436,0,0,1,23.543,23.543V167.384a23.5428,23.5428,0,0,1-23.543,23.5429H10.7437a23.5428,23.5428,0,0,1-23.543-23.5429V12.161a23.5436,23.5436,0,0,1,23.543-23.543h165.054M63.9326,166.4513h65.69a7.2,7.2,0,0,0,7.2-7.2V119.97a7.2,7.2,0,0,0-7.2-7.2h-65.69a7.2,7.2,0,0,0-7.2,7.2v39.2816a7.2,7.2,0,0,0,7.2,7.2M175.7977-14.382H10.7437a26.573,26.573,0,0,0-26.543,26.543V167.384a26.573,26.573,0,0,0,26.543,26.5429h165.054a26.573,26.573,0,0,0,26.543-26.5429V12.161a26.573,26.573,0,0,0-26.543-26.543ZM63.9326,163.4513a4.2047,4.2047,0,0,1-4.2-4.2V119.97a4.2047,4.2047,0,0,1,4.2-4.2h65.69a4.2047,4.2047,0,0,1,4.2,4.2v39.2816a4.2047,4.2047,0,0,1-4.2,4.2Z" class="cls-27"/></g></svg>