<svg xmlns="http://www.w3.org/2000/svg" xmlns:ev="http://www.w3.org/2001/xml-events" xmlns:xlink="http://www.w3.org/1999/xlink" width="367" height="337" class="st14" color-interpolation-filters="sRGB" viewBox="0 0 275.25 252.75" xml:space="preserve"><style type="text/css">.st1{marker-end:url(#mrkr4-9);marker-start:url(#mrkr4-7);stroke:red;stroke-linecap:round;stroke-linejoin:round;stroke-width:1.5}.st2{fill:red;fill-opacity:1;stroke:red;stroke-opacity:1;stroke-width:.37313432835821}.st3,.st4{stroke:#00b050}.st3{marker-end:url(#mrkr4-18);marker-start:url(#mrkr4-16);stroke-linecap:round;stroke-linejoin:round;stroke-width:1.5}.st4{fill:#00b050;fill-opacity:1;stroke-opacity:1;stroke-width:.37313432835821}.st5{fill:none;stroke:none;stroke-linecap:round;stroke-linejoin:round;stroke-width:.75}.st6{fill:red;font-weight:700}.st6,.st7,.st8{font-family:Calibri;font-size:1.16666em}.st7{fill:#00b050;font-weight:700}.st8{fill:#000}.st10,.st9{font-size:1em}.st9{fill:red}.st10{fill:#00b050}.st11{fill:#000;font-family:Calibri;font-size:1.5em;font-weight:700}.st12,.st13{fill:none;stroke:#000;stroke-linecap:round;stroke-linejoin:round;stroke-width:1}.st13{fill:#000;stroke-width:.24}.st14{fill:none;fill-rule:evenodd;font-size:12px;overflow:visible;stroke-linecap:square;stroke-miterlimit:3}</style><defs id="Markers"><g id="lend4"><path d="M 2 1 L 0 0 L 2 -1 L 2 1" style="stroke:none"/></g><marker id="mrkr4-7" class="st2" markerUnits="strokeWidth" orient="auto" overflow="visible" refX="5.12"><use transform="scale(2.68)" xlink:href="#lend4"/></marker><marker id="mrkr4-9" class="st2" markerUnits="strokeWidth" orient="auto" overflow="visible" refX="-5.36"><use transform="scale(-2.68,-2.68)" xlink:href="#lend4"/></marker><marker id="mrkr4-16" class="st4" markerUnits="strokeWidth" orient="auto" overflow="visible" refX="5.12"><use transform="scale(2.68)" xlink:href="#lend4"/></marker><marker id="mrkr4-18" class="st4" markerUnits="strokeWidth" orient="auto" overflow="visible" refX="-5.36"><use transform="scale(-2.68,-2.68)" xlink:href="#lend4"/></marker></defs><g><title>Page-1</title><g id="shape2-1" transform="translate(389.385,24.135) rotate(90)"><title>Sheet.2</title><path d="M7.68 252.75 L8.04 252.75 L198.96 252.75" class="st1"/></g><g id="shape3-10" transform="translate(240.135,380.385) rotate(180)"><title>Sheet.3</title><path d="M7.68 252.75 L8.04 252.75 L198.96 252.75" class="st3"/></g><g id="shape4-19" transform="translate(114.135,-225.375)"><title>Sheet.4</title><desc>+X</desc><rect width="45" height="27" x="0" y="225.75" class="st5"/><text x="15.16" y="243.45" class="st6">+X</text></g><g id="shape6-22" transform="translate(114.135,-0.375)"><title>Sheet.6</title><desc>-X</desc><rect width="45" height="27" x="0" y="225.75" class="st5"/><text x="16.5" y="243.45" class="st6">-X</text></g><g id="shape7-25" transform="translate(0.375,-111.615)"><title>Sheet.7</title><desc>+Y</desc><rect width="45" height="27" x="0" y="225.75" class="st5"/><text x="15.38" y="243.45" class="st7">+Y</text></g><g id="shape8-28" transform="translate(229.875,-111.615)"><title>Sheet.8</title><desc>-Y</desc><rect width="45" height="27" x="0" y="225.75" class="st5"/><text x="16.72" y="243.45" class="st7">-Y</text></g><g id="shape9-31" transform="translate(25.125,-154.995)"><title>Sheet.9</title><desc>(+, +)</desc><rect width="58.5" height="45" x="0" y="207.75" class="st5"/><text x="14.7" y="234.45" class="st8">(<tspan class="st9">+</tspan>, <tspan class="st10">+</tspan>)</text></g><g id="shape10-36" transform="translate(191.625,-151.755)"><title>Sheet.10</title><desc>(+, -)</desc><rect width="58.5" height="45" x="0" y="207.75" class="st5"/><text x="16.05" y="234.45" class="st8">(<tspan class="st9">+</tspan>, <tspan class="st10">-</tspan>)</text></g><g id="shape11-41" transform="translate(27.87,-52.755)"><title>Sheet.11</title><desc>(-, +)</desc><rect width="58.5" height="45" x="0" y="207.75" class="st5"/><text x="16.05" y="234.45" class="st8">(<tspan class="st9">-</tspan>, <tspan class="st10">+</tspan>)</text></g><g id="shape12-46" transform="translate(192.12,-52.755)"><title>Sheet.12</title><desc>(-, -)</desc><rect width="58.5" height="45" x="0" y="207.75" class="st5"/><text x="17.39" y="234.45" class="st8">(<tspan class="st9">-</tspan>, <tspan class="st10">-</tspan>)</text></g><g id="group23-51" transform="translate(69.135,-59.865)"><title>Sheet.23</title><g id="shape15-52" transform="translate(0.990015,-126.63)"><title>Sheet.15</title><desc>FRONT</desc><rect width="135" height="23.76" x="0" y="228.99" class="st5"/><text x="41.83" y="246.27" class="st11">FRONT</text></g><g id="shape14-55" transform="translate(4.49999,0)"><title>Square</title><rect width="130.5" height="130.5" x="0" y="122.25" class="st12"/></g><g id="shape16-57" transform="translate(8.36999,-102.792)"><title>Rectangle</title><rect width="9" height="25.176" x="0" y="227.574" class="st13" rx="1.8" ry="1.8"/></g><g id="shape17-59" transform="translate(8.36999,-3.79194)"><title>Rectangle.17</title><rect width="9" height="25.176" x="0" y="227.574" class="st13" rx="1.8" ry="1.8"/></g><g id="shape18-61" transform="translate(123.12,-3.79194)"><title>Rectangle.18</title><rect width="9" height="25.176" x="0" y="227.574" class="st13" rx="1.8" ry="1.8"/></g><g id="shape19-63" transform="translate(123.12,-102.792)"><title>Rectangle.19</title><rect width="9" height="25.176" x="0" y="227.574" class="st13" rx="1.8" ry="1.8"/></g></g></g></svg>