<svg xmlns="http://www.w3.org/2000/svg" xmlns:ev="http://www.w3.org/2001/xml-events" xmlns:xlink="http://www.w3.org/1999/xlink" width="535.166" height="337" class="st12" color-interpolation-filters="sRGB" viewBox="0 0 401.375 252.75" xml:space="preserve"><style type="text/css">.st1{marker-end:url(#mrkr4-9);marker-start:url(#mrkr4-7);stroke:red;stroke-linecap:round;stroke-linejoin:round;stroke-width:1.5}.st2{fill:red;fill-opacity:1;stroke:red;stroke-opacity:1;stroke-width:.37313432835821}.st3,.st4{stroke:#00b050}.st3{marker-end:url(#mrkr4-18);marker-start:url(#mrkr4-16);stroke-linecap:round;stroke-linejoin:round;stroke-width:1.5}.st4{fill:#00b050;fill-opacity:1;stroke-opacity:1;stroke-width:.37313432835821}.st5{fill:none;stroke:none;stroke-linecap:round;stroke-linejoin:round;stroke-width:.75}.st6,.st7{fill:red;font-family:Calibri;font-size:1.16666em;font-weight:700}.st7{fill:#00b050}.st8{fill:#92cddc;stroke:#000;stroke-linecap:round;stroke-linejoin:round;stroke-width:1}.st9{fill:#000;font-family:Calibri;font-size:1.5em;font-weight:700}.st10,.st11{fill:none;stroke:#000;stroke-linecap:round;stroke-linejoin:round;stroke-width:1}.st11{fill:#000;stroke-width:.24}.st12{fill:none;fill-rule:evenodd;font-size:12px;overflow:visible;stroke-linecap:square;stroke-miterlimit:3}</style><defs id="Markers"><g id="lend4"><path d="M 2 1 L 0 0 L 2 -1 L 2 1" style="stroke:none"/></g><marker id="mrkr4-7" class="st2" markerUnits="strokeWidth" orient="auto" overflow="visible" refX="5.12"><use transform="scale(2.68)" xlink:href="#lend4"/></marker><marker id="mrkr4-9" class="st2" markerUnits="strokeWidth" orient="auto" overflow="visible" refX="-5.36"><use transform="scale(-2.68,-2.68)" xlink:href="#lend4"/></marker><marker id="mrkr4-16" class="st4" markerUnits="strokeWidth" orient="auto" overflow="visible" refX="5.12"><use transform="scale(2.68)" xlink:href="#lend4"/></marker><marker id="mrkr4-18" class="st4" markerUnits="strokeWidth" orient="auto" overflow="visible" refX="-5.36"><use transform="scale(-2.68,-2.68)" xlink:href="#lend4"/></marker></defs><g><title>Page-1</title><g id="shape2-1" transform="translate(389.385,24.135) rotate(90)"><title>Sheet.2</title><path d="M7.68 252.75 L8.04 252.75 L198.96 252.75" class="st1"/></g><g id="shape3-10" transform="translate(240.135,380.385) rotate(180)"><title>Sheet.3</title><path d="M7.68 252.75 L8.04 252.75 L198.96 252.75" class="st3"/></g><g id="shape4-19" transform="translate(114.135,-225.375)"><title>Sheet.4</title><desc>+X</desc><rect width="45" height="27" x="0" y="225.75" class="st5"/><text x="15.16" y="243.45" class="st6">+X</text></g><g id="shape6-22" transform="translate(114.135,-0.375)"><title>Sheet.6</title><desc>-X</desc><rect width="45" height="27" x="0" y="225.75" class="st5"/><text x="16.5" y="243.45" class="st6">-X</text></g><g id="shape7-25" transform="translate(0.375,-111.615)"><title>Sheet.7</title><desc>+Y</desc><rect width="45" height="27" x="0" y="225.75" class="st5"/><text x="15.38" y="243.45" class="st7">+Y</text></g><g id="shape8-28" transform="translate(229.875,-111.615)"><title>Sheet.8</title><desc>-Y</desc><rect width="45" height="27" x="0" y="225.75" class="st5"/><text x="16.72" y="243.45" class="st7">-Y</text></g><g id="shape13-31" transform="translate(161.811,-94.0228) scale(-1,1)"><title>Circular Arrow</title><path d="M37.76 240.16 L50.35 227.57 L47.83 227.57 A22.6585 22.6585 -180 0 0 2.52 227.57 L12.23 227.57 A12.9459 12.9459 0 0 1 38.12 227.57 L35.6 227.57 L37.76 240.16 Z" class="st8"/></g><g id="shape15-33" transform="translate(265.875,-166.74)"><title>Sheet.15</title><desc>FRONT</desc><rect width="135" height="23.76" x="0" y="228.99" class="st5"/><text x="41.83" y="246.27" class="st9">FRONT</text></g><g id="shape14-36" transform="translate(270.375,-60)"><title>Square</title><rect width="130.5" height="130.5" x="0" y="122.25" class="st10"/></g><g id="shape16-38" transform="translate(274.245,-162.792)"><title>Rectangle</title><rect width="9" height="25.176" x="0" y="227.574" class="st11" rx="1.8" ry="1.8"/></g><g id="shape17-40" transform="translate(274.245,-63.7919)"><title>Rectangle.17</title><rect width="9" height="25.176" x="0" y="227.574" class="st11" rx="1.8" ry="1.8"/></g><g id="shape18-42" transform="translate(388.995,-63.7919)"><title>Rectangle.18</title><rect width="9" height="25.176" x="0" y="227.574" class="st11" rx="1.8" ry="1.8"/></g><g id="shape19-44" transform="translate(388.995,-162.792)"><title>Rectangle.19</title><rect width="9" height="25.176" x="0" y="227.574" class="st11" rx="1.8" ry="1.8"/></g><g id="shape21-46" transform="translate(274.245,-112.662)"><title>Rectangle.21</title><rect width="9" height="25.176" x="0" y="227.574" class="st11" rx="1.8" ry="1.8"/></g><g id="shape22-48" transform="translate(388.995,-112.662)"><title>Rectangle.22</title><rect width="9" height="25.176" x="0" y="227.574" class="st11" rx="1.8" ry="1.8"/></g></g></svg>