<svg xmlns="http://www.w3.org/2000/svg" xmlns:ev="http://www.w3.org/2001/xml-events" xmlns:xlink="http://www.w3.org/1999/xlink" width="391" height="359.799" class="st11" color-interpolation-filters="sRGB" viewBox="0 0 293.25 269.85" xml:space="preserve"><style type="text/css">.st1{marker-end:url(#mrkr4-9);marker-start:url(#mrkr4-7);stroke:red;stroke-linecap:round;stroke-linejoin:round;stroke-width:1.5}.st2{fill:red;fill-opacity:1;stroke:red;stroke-opacity:1;stroke-width:.37313432835821}.st3,.st4{stroke:#00b050}.st3{marker-end:url(#mrkr4-18);marker-start:url(#mrkr4-16);stroke-linecap:round;stroke-linejoin:round;stroke-width:1.5}.st4{fill:#00b050;fill-opacity:1;stroke-opacity:1;stroke-width:.37313432835821}.st5,.st6{fill:none;stroke:#000;stroke-linecap:round;stroke-linejoin:round;stroke-width:1.25}.st6{stroke:none;stroke-width:.75}.st7{fill:#000;font-family:Calibri;font-size:1.16666em}.st8{font-size:1em}.st10,.st9{stroke:#000;stroke-linecap:round;stroke-linejoin:round;stroke-width:.75}.st10{fill:#4bacc6}.st11{fill:none;fill-rule:evenodd;font-size:12px;overflow:visible;stroke-linecap:square;stroke-miterlimit:3}</style><defs id="Markers"><g id="lend4"><path d="M 2 1 L 0 0 L 2 -1 L 2 1" style="stroke:none"/></g><marker id="mrkr4-7" class="st2" markerUnits="strokeWidth" orient="auto" overflow="visible" refX="5.12"><use transform="scale(2.68)" xlink:href="#lend4"/></marker><marker id="mrkr4-9" class="st2" markerUnits="strokeWidth" orient="auto" overflow="visible" refX="-5.36"><use transform="scale(-2.68,-2.68)" xlink:href="#lend4"/></marker><marker id="mrkr4-16" class="st4" markerUnits="strokeWidth" orient="auto" overflow="visible" refX="5.12"><use transform="scale(2.68)" xlink:href="#lend4"/></marker><marker id="mrkr4-18" class="st4" markerUnits="strokeWidth" orient="auto" overflow="visible" refX="-5.36"><use transform="scale(-2.68,-2.68)" xlink:href="#lend4"/></marker></defs><g><title>Page-1</title><g id="shape21-1" transform="translate(413.235,30.2998) rotate(90)"><title>Sheet.21</title><path d="M7.68 269.85 L8.04 269.85 L198.96 269.85" class="st1"/></g><g id="shape22-10" transform="translate(246.885,403.65) rotate(180)"><title>Sheet.22</title><path d="M7.68 269.85 L8.04 269.85 L198.96 269.85" class="st3"/></g><g id="shape1-19" transform="translate(63.375,-54.9582)"><title>Circle</title><path d="M0 188.85 A81 81 0 1 1 162 188.85 A81 81 0 0 1 -0 188.85 Z" class="st5"/></g><g id="shape8-21" transform="translate(112.875,-237.3)"><title>Sheet.8</title><desc>0° 0 rad</desc><rect width="63" height="31.5" x="0" y="238.35" class="st6"/><text x="25.58" y="249.9" class="st7">0°<tspan x="16.9" class="st8" dy="1.2em">0 rad</tspan></text></g><g id="shape10-25" transform="translate(0.375,-120.208)"><title>Sheet.10</title><desc>90° ½π rad</desc><rect width="63" height="31.5" x="0" y="238.35" class="st6"/><text x="22.03" y="249.9" class="st7">90°<tspan x="10.3" class="st8" dy="1.2em">½</tspan>π rad</text></g><g id="shape11-29" transform="translate(112.875,-1.05002)"><title>Sheet.11</title><desc>180° π rad</desc><rect width="63" height="31.5" x="0" y="238.35" class="st6"/><text x="18.48" y="249.9" class="st7">180°<tspan x="14.99" class="st8" dy="1.2em">π</tspan> rad</text></g><g id="shape12-33" transform="translate(229.875,-120.208)"><title>Sheet.12</title><desc>-90° -½π rad</desc><rect width="63" height="31.5" x="0" y="238.35" class="st6"/><text x="19.89" y="249.9" class="st7">-90°<tspan x="8.15" class="st8" dy="1.2em">-</tspan>½π rad</text></g><g id="shape13-37" transform="translate(4.95947,-108.41) rotate(-45)"><title>Sheet.13</title><path d="M0 269.85 L18 269.85" class="st9"/></g><g id="shape14-40" transform="translate(-109.438,5.98715) rotate(-45)"><title>Sheet.14</title><path d="M0 269.85 L18 269.85" class="st9"/></g><g id="shape15-43" transform="translate(385.46,-6.74079) rotate(45)"><title>Sheet.15</title><path d="M0 269.85 L18 269.85" class="st9"/></g><g id="shape16-46" transform="translate(271.835,-120.366) rotate(45)"><title>Sheet.16</title><path d="M0 269.85 L18 269.85" class="st9"/></g><g id="shape17-49" transform="translate(-132.164,-98.1913) rotate(-45)"><title>Sheet.17</title><desc>45° ¼π rad</desc><rect width="63" height="31.5" x="0" y="238.35" class="st6"/><text x="22.03" y="249.9" class="st7">45°<tspan x="10.54" class="st8" dy="1.2em">¼</tspan>π rad</text></g><g id="shape18-53" transform="translate(380.188,-144.65) rotate(45)"><title>Sheet.18</title><desc>-45° -¼π rad</desc><rect width="63" height="31.5" x="0" y="238.35" class="st6"/><text x="19.89" y="249.9" class="st7">-45°<tspan x="8.4" class="st8" dy="1.2em">-</tspan>¼π rad</text></g><g id="shape19-57" transform="translate(5.97548,68.3437) rotate(-50)"><title>Sheet.19</title><desc>-135° -¾π rad</desc><rect width="63" height="31.5" x="0" y="238.35" class="st6"/><text x="16.34" y="249.9" class="st7">-135°<tspan x="8.12" class="st8" dy="1.2em">-</tspan>¾π rad</text></g><g id="shape20-61" transform="translate(227.188,6.43942) rotate(45)"><title>Sheet.20</title><desc>135° ¾π rad</desc><rect width="63" height="31.5" x="0" y="238.35" class="st6"/><text x="18.48" y="249.9" class="st7">135°<tspan x="10.27" class="st8" dy="1.2em">¾</tspan>π rad</text></g><g id="shape2-65" transform="translate(164.625,-115.708) scale(-1,1)"><title>Circular Arrow</title><path d="M30.38 259.72 L40.5 249.6 L38.48 249.6 A18.225 18.225 -180 0 0 2.03 249.6 L9.84 249.6 A10.4128 10.4128 0 1 1 30.66 249.6 L28.64 249.6 L30.38 259.72 Z" class="st10"/></g></g></svg>