<svg xmlns="http://www.w3.org/2000/svg" id="Layer_1" data-name="Layer 1" viewBox="0 0 766.977 614.43"><defs><style>.cls-1{fill:#b0242b}.cls-2{fill:#d6c5b9}.cls-10,.cls-15,.cls-18,.cls-23,.cls-24,.cls-25,.cls-27,.cls-3{fill:#fff}.cls-4{fill:#967966}.cls-5{fill:#b59a96}.cls-19,.cls-22,.cls-26,.cls-30,.cls-31,.cls-32,.cls-6{fill:none}.cls-6{stroke:#f7ecf2;stroke-width:5px}.cls-25,.cls-30,.cls-31,.cls-32,.cls-6{stroke-linecap:round}.cls-19,.cls-6{stroke-miterlimit:10}.cls-7{fill:#f7ecf2}.cls-8{fill:#d5c1ab}.cls-9{fill:#a28868}.cls-10{font-size:23.345px}.cls-10,.cls-15,.cls-18,.cls-23,.cls-24,.cls-27,.cls-28{font-family:Verdana}.cls-11{fill:#434343}.cls-12{fill:#4f4e51}.cls-13{fill:#323031}.cls-14{fill:#6a5f27}.cls-15{font-size:32.3181px}.cls-16{letter-spacing:-.031em}.cls-17{letter-spacing:0}.cls-18{font-size:23.3516px}.cls-19,.cls-25,.cls-26{stroke:#fff}.cls-19{stroke-width:5.3864px}.cls-20{fill:#5a5d65}.cls-21{fill:#23446c}.cls-22{stroke:#f1f2f2}.cls-22,.cls-26{stroke-miterlimit:2}.cls-22,.cls-25,.cls-26{stroke-width:1.3645px}.cls-23{font-size:19.7064px}.cls-24{font-size:19.1105px}.cls-25,.cls-30,.cls-31,.cls-32{stroke-linejoin:round}.cls-27{font-size:21.736px}.cls-28{font-size:39.6519px;fill:#010101;letter-spacing:.001em}.cls-29{fill:#221f1f}.cls-30{stroke:#221f1f}.cls-30,.cls-31,.cls-32{stroke-width:10.832px}.cls-31{stroke:#e9262a}.cls-32{stroke:#babcbe}</style></defs><rect width="250.711" height="177.814" x="38.578" y="364.826" class="cls-1" transform="translate(617.6671 289.7991) rotate(90)"/><circle cx="190.176" cy="352.187" r="13.776" class="cls-2"/><circle cx="190.405" cy="352.212" r="9.378" class="cls-3"/><circle cx="145.275" cy="351.945" r="13.776" class="cls-2"/><circle cx="145.503" cy="351.971" r="9.378" class="cls-3"/><circle cx="100.373" cy="352.187" r="13.776" class="cls-2"/><circle cx="100.602" cy="352.212" r="9.378" class="cls-3"/><rect width="27.498" height="27.498" x="221.125" y="337.515" class="cls-2" transform="translate(586.1374 116.39) rotate(90)"/><circle cx="234.874" cy="351.264" r="9.378" class="cls-3"/><rect width="83.875" height="85.116" x="129.063" y="442.3" class="cls-4" transform="translate(655.8581 313.8571) rotate(90)"/><rect width="4.698" height="16.127" x="184.674" y="432.736" class="cls-5" transform="translate(627.8223 253.7765) rotate(90)"/><rect width="4.698" height="16.127" x="164.33" y="432.736" class="cls-5" transform="translate(607.4782 274.1206) rotate(90)"/><rect width="4.698" height="16.127" x="143.986" y="432.736" class="cls-5" transform="translate(587.1341 294.4648) rotate(90)"/><rect width="4.698" height="16.127" x="184.674" y="521.231" class="cls-5" transform="translate(716.3171 342.2713) rotate(90)"/><rect width="4.698" height="16.127" x="164.33" y="521.231" class="cls-5" transform="translate(695.9729 362.6154) rotate(90)"/><rect width="4.698" height="16.127" x="143.986" y="521.231" class="cls-5" transform="translate(675.6288 382.9595) rotate(90)"/><line x1="119.168" x2="156.66" y1="553.655" y2="553.655" class="cls-6"/><polygon points="144.112 564.336 154.798 553.655 144.112 542.975 153.181 542.975 163.861 553.655 153.181 564.336 144.112 564.336" class="cls-7"/><circle cx="100.897" cy="553.082" r="7.156" class="cls-8"/><circle cx="234.071" cy="441.999" r="7.156" class="cls-8"/><rect width="13.531" height="15.035" x="183.842" y="546.343" class="cls-8" transform="translate(744.468 363.253) rotate(90)"/><rect width="13.531" height="4.836" x="173.906" y="551.442" class="cls-9" transform="translate(734.5324 373.1886) rotate(90)"/><rect width="13.531" height="4.836" x="193.666" y="551.442" class="cls-9" transform="translate(754.2924 353.4286) rotate(90)"/><text class="cls-10" transform="translate(229.2159 376.355) rotate(90)">VDD</text><text class="cls-10" transform="translate(183.88 376.3553) rotate(90)">GND</text><text class="cls-10" transform="translate(139.5089 376.355) rotate(90)">ST</text><text class="cls-10" transform="translate(94.4952 376.355) rotate(90)">OUT</text><path d="M698.5567,215.1642l-1390.7836,1.852a83.1737,83.1737,0,0,1-83.063-83.284V-1240.57a83.1738,83.1738,0,0,1,83.063-83.2841l1401.3772-1.852a83.1737,83.1737,0,0,1,83.0629,83.2841V121.2584c4.7726,55.4735-24.56,94.8529-77.54,93.9026" class="cls-11"/><rect width="1518.515" height="1487.649" x="-750.636" y="-1294.705" class="cls-12" rx="58.571"/><rect width="315.225" height="89.607" x="20.181" y="79.497" class="cls-13"/><path d="M56.1692,118.8837a5.4163,5.4163,0,1,1-5.4146,5.4143,5.4133,5.4133,0,0,1,5.4146-5.4143" class="cls-14"/><path d="M56.1692,143.1292a5.4183,5.4183,0,1,1-5.4146,5.4185,5.4142,5.4142,0,0,1,5.4146-5.4185" class="cls-14"/><path d="M56.1692,93.6554A5.4183,5.4183,0,1,1,50.7546,99.07a5.4133,5.4133,0,0,1,5.4146-5.4143" class="cls-14"/><rect width="71.98" height="89.607" x="100.642" y="79.497" class="cls-13"/><path d="M136.6326,118.8837a5.4163,5.4163,0,1,1-5.4184,5.4143,5.4125,5.4125,0,0,1,5.4184-5.4143" class="cls-14"/><path d="M136.6326,143.1292a5.4183,5.4183,0,1,1-5.4184,5.4185,5.4134,5.4134,0,0,1,5.4184-5.4185" class="cls-14"/><path d="M136.6326,93.6554a5.4183,5.4183,0,1,1-5.4184,5.4143,5.4125,5.4125,0,0,1,5.4184-5.4143" class="cls-14"/><rect width="71.98" height="89.607" x="263.427" y="79.497" class="cls-13"/><path d="M299.4165,118.8837a5.4163,5.4163,0,1,1-5.4184,5.4143,5.4125,5.4125,0,0,1,5.4184-5.4143" class="cls-14"/><path d="M299.4165,143.1292a5.4183,5.4183,0,1,1-5.4184,5.4185,5.4134,5.4134,0,0,1,5.4184-5.4185" class="cls-14"/><path d="M299.4165,93.6554a5.4183,5.4183,0,1,1-5.4184,5.4143,5.4125,5.4125,0,0,1,5.4184-5.4143" class="cls-14"/><rect width="71.984" height="89.607" x="182.078" y="79.497" class="cls-13"/><path d="M218.0712,118.8837a5.4163,5.4163,0,1,1-5.4184,5.4143,5.4126,5.4126,0,0,1,5.4184-5.4143" class="cls-14"/><path d="M218.0712,143.1292a5.4183,5.4183,0,1,1-5.4184,5.4185,5.4135,5.4135,0,0,1,5.4184-5.4185" class="cls-14"/><path d="M218.0712,93.6554a5.4183,5.4183,0,1,1-5.4184,5.4143,5.4126,5.4126,0,0,1,5.4184-5.4143" class="cls-14"/><text class="cls-15" transform="translate(89.2598 33.44)">ANA<tspan x="68.36" y="0" class="cls-16">L</tspan><tspan x="85.348" y="0" class="cls-17">OG IN</tspan></text><text class="cls-18" transform="translate(451.3761 55.5572)">RESET</text><text class="cls-18" transform="translate(563.1222 55.5533)">USER</text><polyline points="54.587 41.246 54.587 24.817 82.493 24.817" class="cls-19"/><polyline points="279.071 22.634 306.782 22.634 306.782 43.567" class="cls-19"/><rect width="216.506" height="101.431" x="430.616" y="73.585" class="cls-20" rx="19.602"/><rect width="53.945" height="54.308" x="458.993" y="97.146" class="cls-21" rx="26.972"/><rect width="53.945" height="54.308" x="564.8" y="97.146" class="cls-21" rx="26.972"/><rect width="92.151" height="821.819" x="644.857" y="-789.186" class="cls-13"/><line x1="385.755" x2="395.846" y1="179.013" y2="179.013" class="cls-22"/><line x1="381.758" x2="399.867" y1="174.734" y2="174.734" class="cls-22"/><line x1="377.35" x2="404.267" y1="170.463" y2="170.463" class="cls-22"/><line x1="382.041" x2="366.08" y1="125.745" y2="125.745" class="cls-22"/><line x1="382.033" x2="366.072" y1="98.763" y2="98.763" class="cls-22"/><polyline points="390.808 170.463 390.808 153.509 366.08 153.509" class="cls-22"/><text class="cls-23" transform="translate(383.7823 104.4634) scale(1 1.0605)">S</text><text class="cls-24" transform="translate(385.087 132.6548) scale(1 1.1297)">5V</text><rect width="6.323" height="6.878" x="359.286" y="95.129" class="cls-25"/><rect width="6.323" height="6.878" x="359.7" y="122.037" class="cls-25"/><rect width="6.323" height="6.878" x="359.607" y="149.773" class="cls-25"/><line x1="711.387" x2="721.479" y1="84.284" y2="84.284" class="cls-26"/><line x1="707.391" x2="725.491" y1="80.014" y2="80.014" class="cls-26"/><line x1="702.991" x2="729.907" y1="75.743" y2="75.743" class="cls-26"/><line x1="661.944" x2="661.944" y1="53.913" y2="69.648" class="cls-26"/><line x1="689.184" x2="689.184" y1="54.033" y2="90.114" class="cls-26"/><line x1="716.415" x2="716.415" y1="53.913" y2="76.478" class="cls-26"/><text class="cls-27" transform="translate(655.3604 88.2291) scale(1 1.0056)">S</text><text class="cls-27" transform="translate(676.88 110.1275) scale(1 1.0056)">6V</text><rect width="6.323" height="6.878" x="658.563" y="47.408" class="cls-25"/><rect width="6.323" height="6.878" x="686.009" y="47.408" class="cls-25"/><rect width="6.323" height="6.878" x="713.142" y="47.408" class="cls-25"/><text class="cls-28" transform="translate(289.81 362.6178)">SparkFun Single Axis <tspan x="0" y="47.582">Accelerometer </tspan><tspan x="0" y="95.165">ADXL193</tspan></text><rect width="37.605" height="90.1" x="41.859" y="90.71" class="cls-29"/><polyline points="73.242 162.751 74.769 257.429 190.271 259.037 190.271 350.984" class="cls-30"/><polyline points="60.662 131.939 61.888 274.053 234.171 274.217 234.579 350.984" class="cls-31"/><polyline points="48.598 113.005 50.518 288.585 100.789 288.139 100.484 350.984" class="cls-32"/></svg>