<svg xmlns="http://www.w3.org/2000/svg" viewBox="0 0 800 785"><defs><style>.cls-1{fill:#434343}.cls-2{fill:#4f4e51}.cls-3{fill:#323031}.cls-4{fill:#424242}.cls-5{fill:#6a5f27}.cls-6{fill:#5a5a5d}.cls-7{fill:#f2f2f2}.cls-8{fill:#221f1f}.cls-13,.cls-31,.cls-32,.cls-42,.cls-43,.cls-46,.cls-47,.cls-49,.cls-9{fill:none}.cls-9{stroke:#5a5a5d;stroke-width:5.416px}.cls-13,.cls-9{stroke-miterlimit:10}.cls-10{font-size:16.248px}.cls-10,.cls-11,.cls-12,.cls-16,.cls-18,.cls-23,.cls-30,.cls-33,.cls-34,.cls-35,.cls-37,.cls-38,.cls-39,.cls-40,.cls-41,.cls-44{fill:#fff}.cls-10,.cls-11,.cls-16,.cls-18,.cls-23,.cls-30,.cls-34,.cls-35,.cls-37,.cls-40,.cls-41,.cls-44{font-family:Verdana}.cls-11{font-size:10.832px}.cls-13,.cls-32,.cls-33,.cls-38,.cls-39,.cls-46,.cls-47,.cls-49{stroke:#fff}.cls-13{stroke-width:2.708px}.cls-14{letter-spacing:.009em}.cls-15{letter-spacing:-.058em}.cls-16{font-size:15.9201px}.cls-17{letter-spacing:-.031em}.cls-18{font-size:11.7401px}.cls-19{fill:#9b9b9b}.cls-20{fill:#171717}.cls-21{fill:#f3ea07}.cls-22{fill:#7cc244}.cls-23{font-size:32.496px}.cls-24{letter-spacing:-.013em}.cls-25{letter-spacing:0}.cls-26{fill:#51545a}.cls-27{fill:#3c3d42}.cls-28{fill:#5a5d65}.cls-29{fill:#23446c}.cls-30{font-size:11.1981px}.cls-31,.cls-42{stroke:#f1f2f2}.cls-31,.cls-32,.cls-33,.cls-39,.cls-42,.cls-43,.cls-46{stroke-miterlimit:2}.cls-32,.cls-33,.cls-38,.cls-39,.cls-42,.cls-43,.cls-49{stroke-width:.686px}.cls-33,.cls-38,.cls-47{stroke-linecap:round}.cls-34{font-size:10.9221px}.cls-35{font-size:11.699px}.cls-36{letter-spacing:-.019em}.cls-37{font-size:10.9278px}.cls-38,.cls-47,.cls-49{stroke-linejoin:round}.cls-40{font-size:9.9074px}.cls-41{font-size:9.6078px}.cls-43{stroke:#020202}.cls-44{font-size:11.4352px}.cls-45{letter-spacing:-.02em}.cls-46{stroke-width:.588px}.cls-47{stroke-width:.506px}.cls-48{fill:#231f20}.cls-50{opacity:.33}.cls-51{fill:#00aeef}</style></defs><g id="roboRIO"><path d="M746.8194,779.3719l-699.2185.9311a41.8157,41.8157,0,0,1-41.76-41.8712V47.4992a41.8156,41.8156,0,0,1,41.76-41.8711L752.1454,4.697a41.8157,41.8157,0,0,1,41.76,41.8712V732.1607c2.3995,27.8893-12.3474,47.6874-38.9832,47.21" class="cls-1"/><rect width="763.436" height="747.917" x="18.235" y="20.283" class="cls-2" rx="29.447"/><rect width="46.329" height="413.171" x="24.636" y="281.494" class="cls-3"/><path d="M553.635,138.7374H241.281A19.4985,19.4985,0,0,1,221.783,119.24V38.7135a19.4986,19.4986,0,0,1,19.498-19.4981H553.635a19.4986,19.4986,0,0,1,19.4979,19.4981V119.24a19.4985,19.4985,0,0,1-19.4979,19.4978" class="cls-4"/><rect width="279.722" height="51.56" x="256.297" y="523.917" class="cls-3"/><path d="M50.28,304.0636a2.7241,2.7241,0,1,1-2.7241-2.7239,2.723,2.723,0,0,1,2.7241,2.7239" class="cls-5"/><path d="M38.0881,304.0636a2.7241,2.7241,0,1,1-2.7222-2.7239,2.7212,2.7212,0,0,1,2.7222,2.7239" class="cls-5"/><path d="M62.9611,304.0636A2.723,2.723,0,1,1,60.239,301.34a2.7212,2.7212,0,0,1,2.7221,2.7239" class="cls-5"/><path d="M50.28,345.2953a2.7241,2.7241,0,1,1-2.7241-2.7236,2.723,2.723,0,0,1,2.7241,2.7236" class="cls-5"/><path d="M38.0881,345.2953a2.7241,2.7241,0,1,1-2.7222-2.7236,2.7212,2.7212,0,0,1,2.7222,2.7236" class="cls-5"/><path d="M62.9611,345.2953a2.723,2.723,0,1,1-2.7221-2.7236,2.7212,2.7212,0,0,1,2.7221,2.7236" class="cls-5"/><path d="M50.28,386.5271a2.7241,2.7241,0,1,1-2.7241-2.7234,2.723,2.723,0,0,1,2.7241,2.7234" class="cls-5"/><path d="M38.0881,386.5271a2.7241,2.7241,0,1,1-2.7222-2.7234,2.7212,2.7212,0,0,1,2.7222,2.7234" class="cls-5"/><path d="M62.9611,386.5271a2.723,2.723,0,1,1-2.7221-2.7234,2.7212,2.7212,0,0,1,2.7221,2.7234" class="cls-5"/><path d="M50.28,427.7589a2.7241,2.7241,0,1,1-2.7241-2.7233,2.723,2.723,0,0,1,2.7241,2.7233" class="cls-5"/><path d="M38.0881,427.7589a2.7241,2.7241,0,1,1-2.7222-2.7233,2.7212,2.7212,0,0,1,2.7222,2.7233" class="cls-5"/><path d="M62.9611,427.7589a2.723,2.723,0,1,1-2.7221-2.7233,2.7212,2.7212,0,0,1,2.7221,2.7233" class="cls-5"/><path d="M50.28,468.9906a2.7241,2.7241,0,1,1-2.7241-2.723,2.723,2.723,0,0,1,2.7241,2.723" class="cls-5"/><path d="M38.0881,468.9906a2.7241,2.7241,0,1,1-2.7222-2.723,2.7212,2.7212,0,0,1,2.7222,2.723" class="cls-5"/><path d="M62.9611,468.9906a2.723,2.723,0,1,1-2.7221-2.723,2.7212,2.7212,0,0,1,2.7221,2.723" class="cls-5"/><path d="M50.28,510.2224A2.7241,2.7241,0,1,1,47.5554,507.5a2.7231,2.7231,0,0,1,2.7241,2.7228" class="cls-5"/><path d="M38.0881,510.2224A2.7241,2.7241,0,1,1,35.3659,507.5a2.7213,2.7213,0,0,1,2.7222,2.7228" class="cls-5"/><path d="M62.9611,510.2224A2.723,2.723,0,1,1,60.239,507.5a2.7212,2.7212,0,0,1,2.7221,2.7228" class="cls-5"/><path d="M50.28,551.4541a2.7241,2.7241,0,1,1-2.7241-2.7226,2.723,2.723,0,0,1,2.7241,2.7226" class="cls-5"/><path d="M38.0881,551.4541a2.7241,2.7241,0,1,1-2.7222-2.7226,2.7212,2.7212,0,0,1,2.7222,2.7226" class="cls-5"/><path d="M62.9611,551.4541a2.723,2.723,0,1,1-2.7221-2.7226,2.7212,2.7212,0,0,1,2.7221,2.7226" class="cls-5"/><path d="M50.28,592.6859a2.7241,2.7241,0,1,1-2.7241-2.7224,2.723,2.723,0,0,1,2.7241,2.7224" class="cls-5"/><path d="M38.0881,592.6859a2.7241,2.7241,0,1,1-2.7222-2.7224,2.7212,2.7212,0,0,1,2.7222,2.7224" class="cls-5"/><path d="M62.9611,592.6859a2.723,2.723,0,1,1-2.7221-2.7224,2.7212,2.7212,0,0,1,2.7221,2.7224" class="cls-5"/><path d="M50.28,633.9176a2.7241,2.7241,0,1,1-2.7241-2.7221,2.723,2.723,0,0,1,2.7241,2.7221" class="cls-5"/><path d="M38.0881,633.9176a2.7241,2.7241,0,1,1-2.7222-2.7221,2.7212,2.7212,0,0,1,2.7222,2.7221" class="cls-5"/><path d="M62.9611,633.9176a2.723,2.723,0,1,1-2.7221-2.7221,2.7212,2.7212,0,0,1,2.7221,2.7221" class="cls-5"/><path d="M50.28,675.1494a2.7241,2.7241,0,1,1-2.7241-2.7219,2.723,2.723,0,0,1,2.7241,2.7219" class="cls-5"/><path d="M38.0881,675.1494a2.7241,2.7241,0,1,1-2.7222-2.7219,2.7212,2.7212,0,0,1,2.7222,2.7219" class="cls-5"/><path d="M62.9611,675.1494a2.723,2.723,0,1,1-2.7221-2.7219,2.7212,2.7212,0,0,1,2.7221,2.7219" class="cls-5"/><rect width="45.05" height="36.188" x="26.011" y="226.501" class="cls-3"/><path d="M51.26,244.5948a2.7241,2.7241,0,1,1-2.7241-2.7219,2.723,2.723,0,0,1,2.7241,2.7219" class="cls-5"/><path d="M39.0686,244.5948a2.7241,2.7241,0,1,1-2.7221-2.7219,2.7212,2.7212,0,0,1,2.7221,2.7219" class="cls-5"/><path d="M63.9417,244.5948a2.7231,2.7231,0,1,1-2.7222-2.7219,2.7212,2.7212,0,0,1,2.7222,2.7219" class="cls-5"/><rect width="60.652" height="39.05" x="26.011" y="163.095" class="cls-3"/><path d="M52.5315,182.6183a2.7241,2.7241,0,1,1-2.7241-2.722,2.7247,2.7247,0,0,1,2.7241,2.722" class="cls-5"/><path d="M40.34,182.6183a2.7241,2.7241,0,1,1-2.7221-2.722,2.7229,2.7229,0,0,1,2.7221,2.722" class="cls-5"/><path d="M65.2132,182.6183a2.7231,2.7231,0,1,1-2.7222-2.722,2.7229,2.7229,0,0,1,2.7222,2.722" class="cls-5"/><path d="M77.78,182.6183a2.7242,2.7242,0,1,1-2.7222-2.722,2.7229,2.7229,0,0,1,2.7222,2.722" class="cls-5"/><rect width="158.48" height="45.05" x="229.237" y="711.273" class="cls-3"/><path d="M247.3324,731.0748a2.723,2.723,0,1,1-2.7241,2.722,2.7211,2.7211,0,0,1,2.7241-2.722" class="cls-5"/><path d="M247.3324,743.2642a2.7241,2.7241,0,1,1-2.7241,2.7242,2.7216,2.7216,0,0,1,2.7241-2.7242" class="cls-5"/><path d="M247.3324,718.3912a2.7241,2.7241,0,1,1-2.7241,2.722,2.7211,2.7211,0,0,1,2.7241-2.722" class="cls-5"/><rect width="36.188" height="45.05" x="269.688" y="711.273" class="cls-3"/><path d="M287.7836,731.0748a2.723,2.723,0,1,1-2.7222,2.722,2.7228,2.7228,0,0,1,2.7222-2.722" class="cls-5"/><path d="M287.7836,743.2642a2.7241,2.7241,0,1,1-2.7222,2.7242,2.7233,2.7233,0,0,1,2.7222-2.7242" class="cls-5"/><path d="M287.7836,718.3912a2.7241,2.7241,0,1,1-2.7222,2.722,2.7228,2.7228,0,0,1,2.7222-2.722" class="cls-5"/><rect width="36.188" height="45.05" x="351.528" y="711.273" class="cls-3"/><path d="M369.6234,731.0748a2.723,2.723,0,1,1-2.7221,2.722,2.7228,2.7228,0,0,1,2.7221-2.722" class="cls-5"/><path d="M369.6234,743.2642a2.7241,2.7241,0,1,1-2.7221,2.7242,2.7233,2.7233,0,0,1,2.7221-2.7242" class="cls-5"/><path d="M369.6234,718.3912a2.7241,2.7241,0,1,1-2.7221,2.722,2.7228,2.7228,0,0,1,2.7221-2.722" class="cls-5"/><rect width="36.188" height="45.05" x="310.632" y="711.273" class="cls-3"/><path d="M328.7269,731.0748a2.723,2.723,0,1,1-2.7221,2.722,2.7212,2.7212,0,0,1,2.7221-2.722" class="cls-5"/><path d="M328.7269,743.2642a2.7241,2.7241,0,1,1-2.7221,2.7242,2.7217,2.7217,0,0,1,2.7221-2.7242" class="cls-5"/><path d="M328.7269,718.3912a2.7241,2.7241,0,1,1-2.7221,2.722,2.7212,2.7212,0,0,1,2.7221-2.722" class="cls-5"/><rect width="158.48" height="45.05" x="405.765" y="711.165" class="cls-3"/><path d="M423.8582,730.9668a2.723,2.723,0,1,1-2.7222,2.722,2.7215,2.7215,0,0,1,2.7222-2.722" class="cls-5"/><path d="M423.8582,743.1562a2.7241,2.7241,0,1,1-2.7222,2.7242,2.722,2.722,0,0,1,2.7222-2.7242" class="cls-5"/><path d="M423.8582,718.2832a2.7241,2.7241,0,1,1-2.7222,2.722,2.7215,2.7215,0,0,1,2.7222-2.722" class="cls-5"/><rect width="36.188" height="45.05" x="446.217" y="711.165" class="cls-3"/><path d="M464.3113,730.9668a2.723,2.723,0,1,1-2.7241,2.722,2.7211,2.7211,0,0,1,2.7241-2.722" class="cls-5"/><path d="M464.3113,743.1562a2.7241,2.7241,0,1,1-2.7241,2.7242,2.7216,2.7216,0,0,1,2.7241-2.7242" class="cls-5"/><path d="M464.3113,718.2832a2.7241,2.7241,0,1,1-2.7241,2.722,2.7211,2.7211,0,0,1,2.7241-2.722" class="cls-5"/><rect width="36.188" height="45.05" x="528.057" y="711.165" class="cls-3"/><path d="M546.1511,730.9668a2.723,2.723,0,1,1-2.7241,2.722,2.7212,2.7212,0,0,1,2.7241-2.722" class="cls-5"/><path d="M546.1511,743.1562a2.7241,2.7241,0,1,1-2.7241,2.7242,2.7217,2.7217,0,0,1,2.7241-2.7242" class="cls-5"/><path d="M546.1511,718.2832a2.7241,2.7241,0,1,1-2.7241,2.722,2.7212,2.7212,0,0,1,2.7241-2.722" class="cls-5"/><rect width="36.19" height="45.05" x="487.159" y="711.165" class="cls-3"/><path d="M505.2546,730.9668a2.723,2.723,0,1,1-2.7241,2.722,2.7212,2.7212,0,0,1,2.7241-2.722" class="cls-5"/><path d="M505.2546,743.1562a2.7241,2.7241,0,1,1-2.7241,2.7242,2.7217,2.7217,0,0,1,2.7241-2.7242" class="cls-5"/><path d="M505.2546,718.2832a2.7241,2.7241,0,1,1-2.7241,2.722,2.7212,2.7212,0,0,1,2.7241-2.722" class="cls-5"/><rect width="43.512" height="24.818" x="30.775" y="89.103" class="cls-6"/><rect width="27.92" height="14.734" x="40.551" y="93.757" class="cls-7"/><path d="M53.5413,101.5128a9.791,9.791,0,1,1-9.7922-9.792,9.79,9.79,0,0,1,9.7922,9.792" class="cls-8"/><rect width="43.512" height="24.816" x="30.775" y="113.921" class="cls-6"/><rect width="27.92" height="14.734" x="40.551" y="118.575" class="cls-7"/><path d="M53.5413,126.3292a9.791,9.791,0,1,1-9.7922-9.792,9.7922,9.7922,0,0,1,9.7922,9.792" class="cls-8"/><polygon points="154.778 26.97 154.778 60.944 147.391 60.944 147.391 101.124 154.778 101.124 154.778 126.33 190.228 126.33 190.228 101.124 205.735 101.124 205.735 59.466 190.228 58.728 190.228 26.97 154.778 26.97" class="cls-3"/><path d="M182.2933,42.1046a9.7911,9.7911,0,1,1-9.7923-9.792,9.7923,9.7923,0,0,1,9.7923,9.792" class="cls-8"/><path d="M182.2933,111.0909a9.7911,9.7911,0,1,1-9.7923-9.792,9.7909,9.7909,0,0,1,9.7923,9.792" class="cls-8"/><rect width="25.478" height="10.338" x="176.565" y="65.277" class="cls-8"/><rect width="25.478" height="10.34" x="176.565" y="83.749" class="cls-8"/><path d="M367.5011,622.0635h-3.0762a82.8592,82.8592,0,0,1-6.85-8.944h-.042v8.944H353.911v-15.27h3.3379c2.2041,2.7059,5.4961,6.6759,6.5881,8.7479h.042v-8.7479h3.6221v15.27" class="cls-7"/><path d="M378.17,606.7931l5.802,15.27h-4.886l-1.2-3.642h-4.7341l-1.4619,3.642h-3.5979l6.2158-15.27Zm-1.0259,9.2059c-.5022-1.81-.9383-3.272-1.4842-5.454h-.0439c-.5881,2.182-1.1121,3.6441-1.68,5.454h3.208" class="cls-7"/><polygon points="385.433 622.063 385.433 609.651 381.027 609.651 381.027 606.794 394.443 606.794 394.443 609.651 390.037 609.651 390.037 622.063 385.433 622.063" class="cls-7"/><rect width="4.604" height="15.27" x="395.926" y="606.795" class="cls-7"/><path d="M401.6386,614.2549a7.592,7.592,0,1,1,15.1818,0c0,4.5581-2.9018,8.07-7.592,8.07s-7.59-3.5119-7.59-8.07m10.382,0c0-2.706-.8281-4.538-2.7922-4.538s-2.792,1.832-2.792,4.538c0,2.878.7422,4.884,2.792,4.884s2.7922-2.006,2.7922-4.884" class="cls-7"/><path d="M431.5206,622.0635h-3.0742a82.3592,82.3592,0,0,1-6.85-8.944h-.044v8.944h-3.6221v-15.27h3.3379c2.2041,2.7059,5.4961,6.6759,6.5882,8.7479h.0439v-8.7479h3.62v15.27" class="cls-7"/><path d="M441.97,606.7931l5.802,15.27h-4.884l-1.2019-3.642h-4.7341l-1.4619,3.642h-3.5979l6.2177-15.27Zm-1.0258,9.2059c-.5-1.81-.9383-3.272-1.4822-5.454h-.044c-.59,2.182-1.112,3.6441-1.6818,5.454h3.208" class="cls-7"/><polygon points="448.8 606.794 453.402 606.794 453.402 619.206 458.986 619.206 458.986 622.064 448.8 622.064 448.8 606.794" class="cls-7"/><rect width="4.604" height="15.272" x="347.038" y="626.793" class="cls-7"/><path d="M367.1925,642.0635h-3.0742a82.6566,82.6566,0,0,1-6.8518-8.946h-.042v8.946h-3.6221v-15.272H356.94c2.2041,2.706,5.4981,6.676,6.5881,8.748h.042v-8.748h3.6221v15.272" class="cls-7"/><path d="M376.9015,629.956a4.3441,4.3441,0,0,0-2.2481-.568c-.894,0-1.352.4382-1.352.94,0,.848,1.2881,1.548,2.772,2.92,1.96,1.8339,2.4419,2.99,2.4419,4.5839,0,1.35-1.1119,4.4941-5.6939,4.4941a7.7352,7.7352,0,0,1-4.7981-1.3981l1.396-2.53a4.323,4.323,0,0,0,2.616,1.0679c.916,0,1.92-.458,1.92-1.5919,0-1.22-1.4841-2.1161-2.6821-3.162-1.592-1.396-2.532-2.206-2.532-4.08,0-2.444,2.4641-4.102,5.346-4.102a8.1258,8.1258,0,0,1,3.9922,1.026l-1.178,2.4" class="cls-7"/><polygon points="383.052 642.063 383.052 629.65 378.646 629.65 378.646 626.791 392.06 626.791 392.06 629.65 387.656 629.65 387.656 642.063 383.052 642.063" class="cls-7"/><path d="M393.5416,626.7914H400.35c3.5979,0,5.54,1.572,5.54,4.08a4.58,4.58,0,0,1-2.5739,4.406l3.38,6.546-4.9279.5021-2.42-6.044h-1.2019v5.7819h-4.604Zm4.604,6.6119h1.3079a1.8411,1.8411,0,0,0,1.832-1.876,1.6848,1.6848,0,0,0-1.9179-1.8779h-1.222v3.7539" class="cls-7"/><path d="M411.8683,626.7921v7.9861c0,2.746.4138,4.3619,2.3559,4.3619,1.5259,0,2.4-1.5279,2.4-4.428v-7.92h3.97v9.228c0,4.56-3.0979,6.3061-6.5879,6.3061-3.904,0-6.7419-1.638-6.7419-6.1961v-9.338h4.604" class="cls-7"/><path d="M441.1652,642.0635h-4.6021v-10.69h-.042c-1.18,3.992-2.4,7.3521-3.624,10.69h-2.9c-1.2439-3.3379-2.4878-6.698-3.688-10.69h-.042v10.69h-3.6219v-15.272h6.2378c1.0481,2.9241,2.094,5.826,3.12,9.402h.0439c.9819-3.576,2.0061-6.4779,3.01-9.402h6.1082v15.272" class="cls-7"/><polygon points="452.401 629.649 447.733 629.649 447.733 632.661 452.293 632.661 452.293 635.52 447.733 635.52 447.733 639.203 453.341 639.203 453.341 642.063 443.131 642.063 443.131 626.791 452.401 626.791 452.401 629.649" class="cls-7"/><path d="M467.7589,642.0635h-3.0762a82.6359,82.6359,0,0,1-6.85-8.946h-.042v8.946h-3.6221v-15.272h3.3379c2.2041,2.706,5.4961,6.676,6.5882,8.748h.0419v-8.748h3.6221v15.272" class="cls-7"/><polygon points="472.995 642.063 472.995 629.65 468.589 629.65 468.589 626.791 482.005 626.791 482.005 629.65 477.599 629.65 477.599 642.063 472.995 642.063" class="cls-7"/><path d="M491.0128,629.956a4.3416,4.3416,0,0,0-2.2461-.568c-.896,0-1.354.4382-1.354.94,0,.848,1.2881,1.548,2.77,2.92,1.9639,1.8339,2.4439,2.99,2.4439,4.5839,0,1.35-1.1118,4.4941-5.6919,4.4941a7.7373,7.7373,0,0,1-4.8-1.3981l1.396-2.53a4.3332,4.3332,0,0,0,2.616,1.0679c.916,0,1.92-.458,1.92-1.5919,0-1.22-1.4822-2.1161-2.6822-3.162-1.592-1.396-2.5319-2.206-2.5319-4.08,0-2.444,2.466-4.102,5.3459-4.102a8.1258,8.1258,0,0,1,3.9922,1.026l-1.178,2.4" class="cls-7"/><path d="M493.4554,629.4209v-2.16h-.82v-.276h2.0561v.276h-.8161v2.16Zm4.4441,0h-.424V627.625h-.012l-.9641,1.7959h-.2l-.896-1.7959h-.008v1.7959h-.344V626.985h.488l.918,1.8259.9939-1.8259H497.9v2.4359" class="cls-7"/><path d="M330.3429,612.5576a5.8213,5.8213,0,0,1,4.2078-4.886c5.154-1.464,7.9121-1.194,17.154-1.27-5.54,4.9579-9.9639,12.77-8.9739,20.414-1.99-1.63-3.3339-3.96-5.062-5.8221a19.2523,19.2523,0,0,0,1.668-3.8879c.6121-2.312,2.2781-2.858,4.39-2.7941.1582.006-.124-1.78-.708-1.938-1.574-.426-2.906.08-4.7339-.6259a2.2275,2.2275,0,0,0-1.7439.332c-1.5.766-2.45,2.4039-4.1382,2.922Z" class="cls-7"/><path d="M302.087,611.0615a25.0925,25.0925,0,0,1,9.9539-4.324c4.7161-.8619,9.8259-.926,13.3479,2.47,6.654,6.408,12.0422,13.1339,17.8782,20.456.23.2879.21,1.076.01,1.19a83.7242,83.7242,0,0,1-12.6721,5.934,2.1882,2.1882,0,0,1-2.03-.448c-6.6538-6.046-11.21-13.282-17.5959-19.572a21.321,21.321,0,0,0-8.7239-5.1861c-.2642-.0819-.312-.42-.168-.52" class="cls-7"/><path d="M325.3409,640.5615a42.83,42.83,0,0,0-11.9382,12.718,26.5063,26.5063,0,0,1,.48-14.968c1.67-4.6759,1.99-9.2159,2.212-14.09,3.0358,3.496,6.4819,7.36,9.32,10.866Z" class="cls-7"/><rect width="260.228" height="32.484" x="267.463" y="533.905" class="cls-3"/><path d="M286.2093,553.2236a1.9641,1.9641,0,1,1-1.9641,1.9641,1.9631,1.9631,0,0,1,1.9641-1.9641" class="cls-5"/><path d="M286.2093,543.1434a1.9641,1.9641,0,1,1-1.9641,1.9641,1.9619,1.9619,0,0,1,1.9641-1.9641" class="cls-5"/><path d="M298.3011,553.2236a1.9641,1.9641,0,1,1-1.9641,1.9641,1.9632,1.9632,0,0,1,1.9641-1.9641" class="cls-5"/><path d="M298.3011,543.1434a1.9641,1.9641,0,1,1-1.9641,1.9641,1.962,1.962,0,0,1,1.9641-1.9641" class="cls-5"/><path d="M313.2581,553.2119a1.9641,1.9641,0,1,1-1.9641,1.9641,1.9618,1.9618,0,0,1,1.9641-1.9641" class="cls-5"/><path d="M313.2581,543.1318a1.9641,1.9641,0,1,1-1.9641,1.9641,1.9619,1.9619,0,0,1,1.9641-1.9641" class="cls-5"/><path d="M325.35,553.2119a1.9641,1.9641,0,1,1-1.9622,1.9641,1.9618,1.9618,0,0,1,1.9622-1.9641" class="cls-5"/><path d="M325.35,543.1318a1.9641,1.9641,0,1,1-1.9622,1.9641,1.9619,1.9619,0,0,1,1.9622-1.9641" class="cls-5"/><path d="M340.9593,553.2119a1.9641,1.9641,0,1,1-1.9641,1.9641,1.9618,1.9618,0,0,1,1.9641-1.9641" class="cls-5"/><path d="M340.9593,543.1318a1.9641,1.9641,0,1,1-1.9641,1.9621,1.9615,1.9615,0,0,1,1.9641-1.9621" class="cls-5"/><path d="M353.0511,553.2119a1.9641,1.9641,0,1,1-1.9622,1.9641,1.9635,1.9635,0,0,1,1.9622-1.9641" class="cls-5"/><path d="M353.0511,543.1318a1.9641,1.9641,0,1,1-1.9622,1.9621,1.9632,1.9632,0,0,1,1.9622-1.9621" class="cls-5"/><path d="M368.2659,553.2119a1.9641,1.9641,0,1,1-1.9621,1.9641,1.9623,1.9623,0,0,1,1.9621-1.9641" class="cls-5"/><path d="M368.2659,543.1318a1.9641,1.9641,0,1,1-1.9621,1.9621,1.962,1.962,0,0,1,1.9621-1.9621" class="cls-5"/><path d="M382.8655,553.2119a1.9641,1.9641,0,1,1-1.9641,1.9641,1.9618,1.9618,0,0,1,1.9641-1.9641" class="cls-5"/><path d="M382.8655,543.1318a1.9641,1.9641,0,1,1-1.9641,1.9621,1.9615,1.9615,0,0,1,1.9641-1.9621" class="cls-5"/><path d="M397.3167,553.2119a1.9641,1.9641,0,1,1-1.9622,1.9641,1.9623,1.9623,0,0,1,1.9622-1.9641" class="cls-5"/><path d="M397.3167,543.1318a1.9641,1.9641,0,1,1-1.9622,1.9641,1.9624,1.9624,0,0,1,1.9622-1.9641" class="cls-5"/><path d="M410.2229,553.2139a1.963,1.963,0,1,1-1.9621,1.962,1.9618,1.9618,0,0,1,1.9621-1.962" class="cls-5"/><path d="M410.2229,543.1318a1.9641,1.9641,0,1,1-1.9621,1.9641,1.9623,1.9623,0,0,1,1.9621-1.9641" class="cls-5"/><path d="M423.44,553.2119a1.9641,1.9641,0,1,1-1.9641,1.9641,1.9632,1.9632,0,0,1,1.9641-1.9641" class="cls-5"/><path d="M423.44,543.1318a1.9641,1.9641,0,1,1-1.9641,1.9641,1.962,1.962,0,0,1,1.9641-1.9641" class="cls-5"/><path d="M436.4593,553.2119a1.9641,1.9641,0,1,1-1.9641,1.9641,1.9618,1.9618,0,0,1,1.9641-1.9641" class="cls-5"/><path d="M436.4593,543.1318a1.9641,1.9641,0,1,1-1.9641,1.9641,1.9619,1.9619,0,0,1,1.9641-1.9641" class="cls-5"/><path d="M451.3518,553.2119a1.9641,1.9641,0,1,1-1.9621,1.9641,1.9632,1.9632,0,0,1,1.9621-1.9641" class="cls-5"/><path d="M451.3518,543.1318a1.9641,1.9641,0,1,1-1.9621,1.9641,1.962,1.962,0,0,1,1.9621-1.9641" class="cls-5"/><path d="M464.5179,553.2119a1.9641,1.9641,0,1,1-1.9622,1.9641,1.9635,1.9635,0,0,1,1.9622-1.9641" class="cls-5"/><path d="M464.5179,543.1318a1.9641,1.9641,0,1,1-1.9622,1.9641,1.9636,1.9636,0,0,1,1.9622-1.9641" class="cls-5"/><path d="M477.512,553.2119a1.9641,1.9641,0,1,1-1.9641,1.9641,1.9631,1.9631,0,0,1,1.9641-1.9641" class="cls-5"/><path d="M477.512,543.1318a1.9641,1.9641,0,1,1-1.9641,1.9641,1.9619,1.9619,0,0,1,1.9641-1.9641" class="cls-5"/><path d="M491.5667,553.2139a1.963,1.963,0,1,1-1.9622,1.962,1.9619,1.9619,0,0,1,1.9622-1.962" class="cls-5"/><path d="M491.5667,543.1318a1.9641,1.9641,0,1,1-1.9622,1.9641,1.9624,1.9624,0,0,1,1.9622-1.9641" class="cls-5"/><path d="M504.4671,553.2139a1.963,1.963,0,1,1-1.9641,1.962,1.9614,1.9614,0,0,1,1.9641-1.962" class="cls-5"/><path d="M504.4671,543.1318a1.9641,1.9641,0,1,1-1.9641,1.9641,1.9619,1.9619,0,0,1,1.9641-1.9641" class="cls-5"/><polyline points="381.274 530.472 263.87 530.472 263.87 569.8 528.064 569.8 528.064 530.472 412.632 530.472" class="cls-9"/><path d="M272.5452,183.8605a9.3811,9.3811,0,1,1-9.38-9.38,9.3807,9.3807,0,0,1,9.38,9.38" class="cls-5"/><path d="M268.58,183.8605a5.4161,5.4161,0,1,1-5.4161-5.4158,5.4162,5.4162,0,0,1,5.4161,5.4158" class="cls-8"/><path d="M539.428,175.9347a9.3812,9.3812,0,1,1-13.268,0,9.3831,9.3831,0,0,1,13.268,0" class="cls-5"/><path d="M538.2112,182.5675a5.416,5.416,0,1,1-5.416-5.4158,5.4174,5.4174,0,0,1,5.416,5.4158" class="cls-8"/><rect width="51.558" height="119.209" x="607.655" y="23.111" class="cls-3"/><rect width="32.486" height="104.862" x="617.629" y="29.377" class="cls-3"/><polyline points="614.209 88.376 614.209 135.684 653.535 135.684 653.535 29.228 614.209 29.228 614.209 75.742" class="cls-9"/><text class="cls-10" transform="translate(78.7036 249.0532)">RS-232</text><text class="cls-10" transform="translate(97.2524 188.7217)">I</text><text class="cls-10" transform="translate(104.0913 183.311) scale(0.583)">2</text><text class="cls-10" transform="translate(110.1133 188.7217)">C</text><text class="cls-10" transform="translate(36.4131 80.8188)">CAN</text><text class="cls-11" transform="translate(82 104.0967)">L (GRN)</text><text class="cls-11" transform="translate(82 128.9155)">H (YEL)</text><path d="M105.6894,483.58a4.4932,4.4932,0,0,1-1.8438,1.7481,5.83,5.83,0,0,1-2.749.6269h-1.0635a5.8185,5.8185,0,0,1-2.7529-.6269,4.4807,4.4807,0,0,1-1.8408-1.76,5.1607,5.1607,0,0,1-.65-2.6113v-3.1582h11.5517v3.2305A5.0016,5.0016,0,0,1,105.6894,483.58Zm-4.5772,1.4082a5.1577,5.1577,0,0,0,2.3125-.4921,3.6361,3.6361,0,0,0,1.5391-1.3887,3.9311,3.9311,0,0,0,.5439-2.0781v-2.2539H95.6142v2.1816a4.0209,4.0209,0,0,0,.5556,2.1348,3.6774,3.6774,0,0,0,1.5547,1.4043,5.161,5.161,0,0,0,2.3086.4921Z" class="cls-12"/><path d="M94.789,488.66h11.5517v.9766H94.789Z" class="cls-12"/><path d="M97.1415,500.7557a4.4132,4.4132,0,0,1-1.8564-6.2949,4.3011,4.3011,0,0,1,1.86-1.5879,6.56,6.56,0,0,1,2.8008-.5625h1.2373a6.5929,6.5929,0,0,1,2.8008.5586,4.2978,4.2978,0,0,1,1.86,1.58,4.2486,4.2486,0,0,1,.6543,2.3515,4.1575,4.1575,0,0,1-2.5107,3.9512,6.6444,6.6444,0,0,1-2.8047.5547H99.9462A6.6725,6.6725,0,0,1,97.1415,500.7557Zm6.4219-.8379a3.3719,3.3719,0,0,0,1.539-1.2168,3.3135,3.3135,0,0,0,.54-1.9,3.2555,3.2555,0,0,0-.54-1.873,3.4117,3.4117,0,0,0-1.5429-1.2168,6.0249,6.0249,0,0,0-2.36-.4258H99.9462a6.0068,6.0068,0,0,0-2.3682.43,3.4516,3.4516,0,0,0-1.5478,1.2246,3.257,3.257,0,0,0-.543,1.877,3.3085,3.3085,0,0,0,.5391,1.9043,3.3443,3.3443,0,0,0,1.5429,1.205,6.2293,6.2293,0,0,0,2.377.4141h1.2529A6.0506,6.0506,0,0,0,103.5634,499.9178Z" class="cls-12"/><polyline points="89.44 301.339 100.648 301.339 100.648 466.911" class="cls-13"/><polyline points="100.649 512.194 100.649 668.67 89.441 668.67" class="cls-13"/><text class="cls-10" transform="translate(284.6694 686.5015)">RE<tspan x="21.571" y="0" class="cls-14">L</tspan><tspan x="30.762" y="0" class="cls-15">A</tspan><tspan x="40.927" y="0">Y</tspan></text><polyline points="246.627 692.001 246.627 683.127 277.345 683.127" class="cls-13"/><polyline points="341.475 683.126 369.341 683.126 369.341 693.1" class="cls-13"/><text class="cls-16" transform="translate(441.0239 688.2183)">ANA<tspan x="33.675" y="0" class="cls-17">L</tspan><tspan x="42.043" y="0">OG IN</tspan></text><text class="cls-18" transform="translate(622.5493 699.1299)">RESET</text><text class="cls-18" transform="translate(678.729 699.1279)">USER</text><polyline points="423.063 691.934 423.063 683.675 437.093 683.675" class="cls-13"/><polyline points="535.922 682.577 549.854 682.577 549.854 693.101" class="cls-13"/><rect width="39.958" height="45.05" x="102.846" y="711.273" class="cls-3"/><path d="M122.8241,731.0727a2.7241,2.7241,0,1,1-2.7222,2.7241,2.7246,2.7246,0,0,1,2.7222-2.7241" class="cls-5"/><path d="M122.8241,743.2642a2.7241,2.7241,0,1,1-2.7222,2.7221,2.7228,2.7228,0,0,1,2.7222-2.7221" class="cls-5"/><text class="cls-10" transform="translate(108.5693 699.2188)">RSL</text><text class="cls-10" transform="translate(701.7896 499.3096) rotate(-90)">PWM</text><polyline points="706.201 668.579 694.993 668.579 694.993 507.563" class="cls-13"/><polyline points="694.992 452.419 694.992 295.986 706.2 295.986" class="cls-13"/><path d="M344.4046,89.28a9.3811,9.3811,0,1,1-9.38-9.38,9.3807,9.3807,0,0,1,9.38,9.38" class="cls-5"/><path d="M340.44,89.28a5.416,5.416,0,1,1-5.416-5.4158A5.4174,5.4174,0,0,1,340.44,89.28" class="cls-8"/><path d="M344.4046,43.7511a9.3811,9.3811,0,1,1-9.38-9.3779,9.3794,9.3794,0,0,1,9.38,9.3779" class="cls-5"/><path d="M340.44,43.7511a5.416,5.416,0,1,1-5.416-5.4138,5.4161,5.4161,0,0,1,5.416,5.4138" class="cls-8"/><rect width="66.468" height="53.384" x="236.423" y="40.021" class="cls-19"/><polygon points="253.963 45.48 285.167 45.48 292.737 53.236 292.737 87.946 246.579 87.946 246.579 53.42 253.963 45.48" class="cls-20"/><path d="M263.6116,71.378a1.9642,1.9642,0,1,1-1.9641,1.9622,1.9616,1.9616,0,0,1,1.9641-1.9622" class="cls-5"/><path d="M263.6116,61.298a1.9641,1.9641,0,1,1-1.9641,1.9621,1.9615,1.9615,0,0,1,1.9641-1.9621" class="cls-5"/><path d="M275.7034,71.378a1.9642,1.9642,0,1,1-1.9621,1.9622,1.962,1.962,0,0,1,1.9621-1.9622" class="cls-5"/><path d="M275.7034,61.298a1.9641,1.9641,0,1,1-1.9621,1.9621,1.962,1.962,0,0,1,1.9621-1.9621" class="cls-5"/><rect width="87.148" height="94.458" x="471.491" y="29.147" class="cls-19"/><rect width="65.546" height="38.174" x="482.293" y="66.011" class="cls-20"/><rect width="36.004" height="8.862" x="496.877" y="104.185" class="cls-20"/><rect width="23.264" height="7.386" x="503.339" y="113.047" class="cls-20"/><rect width="23.448" height="13.292" x="473.429" y="104.185" class="cls-21"/><rect width="23.45" height="13.292" x="532.881" y="104.185" class="cls-22"/><rect width="75.392" height="33.31" x="369.233" y="75.306" class="cls-19"/><rect width="71.456" height="30.084" x="371.231" y="76.649" class="cls-20"/><rect width="75.392" height="33.31" x="369.265" y="28.826" class="cls-19"/><rect width="71.454" height="30.084" x="371.263" y="30.169" class="cls-20"/><text class="cls-23" transform="translate(307.7542 249.5781)">NI <tspan x="49.41" y="0" class="cls-24">r</tspan><tspan x="62.856" y="0" class="cls-25">oboRIO</tspan></text><rect width="65.362" height="11.792" x="374.247" y="79.898" class="cls-6"/><rect width="65.362" height="11.792" x="374.247" y="33.421" class="cls-6"/><text class="cls-10" transform="translate(703.0913 95.2656)">POWER</text><rect width="16.034" height="15.185" x="767.989" y="81.954" class="cls-26"/><rect width="10.603" height="15.185" x="783.152" y="82.073" class="cls-27"/><text class="cls-10" transform="translate(698.1533 121.2251)">STATUS</text><rect width="16.034" height="15.185" x="767.989" y="107.914" class="cls-26"/><rect width="10.603" height="15.185" x="783.152" y="108.033" class="cls-27"/><text class="cls-10" transform="translate(708.8398 160.8779)">RADIO</text><rect width="16.034" height="15.185" x="767.989" y="147.827" class="cls-26"/><rect width="10.603" height="15.185" x="783.152" y="147.946" class="cls-27"/><text class="cls-10" transform="translate(711.8706 187.7471)">COMM</text><rect width="16.034" height="15.185" x="767.989" y="174.436" class="cls-26"/><rect width="10.603" height="15.185" x="783.152" y="174.555" class="cls-27"/><text class="cls-10" transform="translate(714.1157 215.6592)">MODE</text><rect width="16.034" height="15.185" x="767.989" y="201.044" class="cls-26"/><rect width="10.603" height="15.185" x="783.152" y="201.164" class="cls-27"/><text class="cls-10" transform="translate(731.9204 256.2061)">RSL</text><rect width="16.034" height="15.185" x="767.989" y="241.59" class="cls-26"/><rect width="10.603" height="15.185" x="783.152" y="241.709" class="cls-27"/><rect width="108.849" height="50.995" x="612.112" y="708.193" class="cls-28" rx="9.855"/><rect width="27.121" height="27.303" x="626.379" y="720.038" class="cls-29" rx="13.56"/><rect width="27.121" height="27.303" x="679.573" y="720.038" class="cls-29" rx="13.56"/><rect width="46.329" height="413.171" x="719.822" y="274.434" class="cls-3"/><path d="M745.4653,297.0035a2.7241,2.7241,0,1,1-2.7241-2.7239,2.723,2.723,0,0,1,2.7241,2.7239" class="cls-5"/><path d="M733.2739,297.0035a2.7242,2.7242,0,1,1-2.7222-2.7239,2.7212,2.7212,0,0,1,2.7222,2.7239" class="cls-5"/><path d="M758.1469,297.0035a2.723,2.723,0,1,1-2.7221-2.7239,2.7212,2.7212,0,0,1,2.7221,2.7239" class="cls-5"/><path d="M745.4653,338.2352a2.7241,2.7241,0,1,1-2.7241-2.7237,2.7231,2.7231,0,0,1,2.7241,2.7237" class="cls-5"/><path d="M733.2739,338.2352a2.7242,2.7242,0,1,1-2.7222-2.7237,2.7213,2.7213,0,0,1,2.7222,2.7237" class="cls-5"/><path d="M758.1469,338.2352a2.723,2.723,0,1,1-2.7221-2.7237,2.7213,2.7213,0,0,1,2.7221,2.7237" class="cls-5"/><path d="M745.4653,379.467a2.7241,2.7241,0,1,1-2.7241-2.7235,2.723,2.723,0,0,1,2.7241,2.7235" class="cls-5"/><path d="M733.2739,379.467a2.7242,2.7242,0,1,1-2.7222-2.7235,2.7212,2.7212,0,0,1,2.7222,2.7235" class="cls-5"/><path d="M758.1469,379.467a2.723,2.723,0,1,1-2.7221-2.7235,2.7212,2.7212,0,0,1,2.7221,2.7235" class="cls-5"/><path d="M745.4653,420.6987a2.7241,2.7241,0,1,1-2.7241-2.7232,2.723,2.723,0,0,1,2.7241,2.7232" class="cls-5"/><path d="M733.2739,420.6987a2.7242,2.7242,0,1,1-2.7222-2.7232,2.7212,2.7212,0,0,1,2.7222,2.7232" class="cls-5"/><path d="M758.1469,420.6987a2.723,2.723,0,1,1-2.7221-2.7232,2.7212,2.7212,0,0,1,2.7221,2.7232" class="cls-5"/><path d="M745.4653,461.9305a2.7241,2.7241,0,1,1-2.7241-2.723,2.723,2.723,0,0,1,2.7241,2.723" class="cls-5"/><path d="M733.2739,461.9305a2.7242,2.7242,0,1,1-2.7222-2.723,2.7212,2.7212,0,0,1,2.7222,2.723" class="cls-5"/><path d="M758.1469,461.9305a2.723,2.723,0,1,1-2.7221-2.723,2.7212,2.7212,0,0,1,2.7221,2.723" class="cls-5"/><path d="M745.4653,503.1622a2.7241,2.7241,0,1,1-2.7241-2.7228,2.723,2.723,0,0,1,2.7241,2.7228" class="cls-5"/><path d="M733.2739,503.1622a2.7242,2.7242,0,1,1-2.7222-2.7228,2.7212,2.7212,0,0,1,2.7222,2.7228" class="cls-5"/><path d="M758.1469,503.1622a2.723,2.723,0,1,1-2.7221-2.7228,2.7212,2.7212,0,0,1,2.7221,2.7228" class="cls-5"/><path d="M745.4653,544.394a2.7241,2.7241,0,1,1-2.7241-2.7226,2.723,2.723,0,0,1,2.7241,2.7226" class="cls-5"/><path d="M733.2739,544.394a2.7242,2.7242,0,1,1-2.7222-2.7226,2.7212,2.7212,0,0,1,2.7222,2.7226" class="cls-5"/><path d="M758.1469,544.394a2.723,2.723,0,1,1-2.7221-2.7226,2.7212,2.7212,0,0,1,2.7221,2.7226" class="cls-5"/><path d="M745.4653,585.6257a2.7241,2.7241,0,1,1-2.7241-2.7223,2.723,2.723,0,0,1,2.7241,2.7223" class="cls-5"/><path d="M733.2739,585.6257a2.7242,2.7242,0,1,1-2.7222-2.7223,2.7212,2.7212,0,0,1,2.7222,2.7223" class="cls-5"/><path d="M758.1469,585.6257a2.723,2.723,0,1,1-2.7221-2.7223,2.7212,2.7212,0,0,1,2.7221,2.7223" class="cls-5"/><path d="M745.4653,626.8575a2.7241,2.7241,0,1,1-2.7241-2.7221,2.7231,2.7231,0,0,1,2.7241,2.7221" class="cls-5"/><path d="M733.2739,626.8575a2.7242,2.7242,0,1,1-2.7222-2.7221,2.7213,2.7213,0,0,1,2.7222,2.7221" class="cls-5"/><path d="M758.1469,626.8575a2.723,2.723,0,1,1-2.7221-2.7221,2.7212,2.7212,0,0,1,2.7221,2.7221" class="cls-5"/><path d="M745.4653,668.0893a2.7241,2.7241,0,1,1-2.7241-2.722,2.723,2.723,0,0,1,2.7241,2.722" class="cls-5"/><path d="M733.2739,668.0893a2.7242,2.7242,0,1,1-2.7222-2.722,2.7212,2.7212,0,0,1,2.7222,2.722" class="cls-5"/><path d="M758.1469,668.0893a2.723,2.723,0,1,1-2.7221-2.722,2.7212,2.7212,0,0,1,2.7221,2.722" class="cls-5"/><text class="cls-10" transform="translate(82 41.0006)">INPUT</text><text class="cls-30" transform="translate(82 54.5743)">7-16V</text><line x1="119.119" x2="122.501" y1="53.197" y2="53.197" class="cls-31"/><line x1="124.359" x2="127.736" y1="53.197" y2="53.197" class="cls-31"/><line x1="129.604" x2="132.985" y1="53.197" y2="53.197" class="cls-31"/><line x1="119.12" x2="132.985" y1="49.804" y2="49.804" class="cls-31"/><text class="cls-30" transform="translate(82 67.5992)">45 W MAX</text><line x1="140.153" x2="140.153" y1="183.004" y2="207.455" class="cls-32"/><line x1="153.851" x2="153.851" y1="157.607" y2="180.599" class="cls-32"/><line x1="167.542" x2="167.542" y1="181.16" y2="204.171" class="cls-32"/><line x1="181.233" x2="181.233" y1="157.368" y2="180.358" class="cls-32"/><line x1="135.603" x2="144.707" y1="209.598" y2="209.598" class="cls-32"/><line x1="133.387" x2="146.919" y1="207.451" y2="207.451" class="cls-32"/><rect width="3.423" height="3.425" x="138.444" y="179.225" class="cls-33"/><rect width="3.427" height="3.425" x="152.135" y="179.225" class="cls-12"/><rect width="3.425" height="3.425" x="165.83" y="179.222" class="cls-12"/><rect width="3.421" height="3.425" x="179.528" y="179.225" class="cls-12"/><polygon points="133.752 163.817 133.752 198.05 187.626 198.042 187.626 163.817 133.752 163.817" class="cls-32"/><text class="cls-34" transform="translate(157.688 213.0811) scale(1 1.0622)">SCL</text><text class="cls-35" transform="translate(142.2476 153.4375) scale(1 1.0115)">3.3V S<tspan x="39.238" y="0" class="cls-36">D</tspan><tspan x="48.03" y="0">A</tspan></text><line x1="137.616" x2="142.69" y1="211.749" y2="211.749" class="cls-32"/><line x1="153.157" x2="153.157" y1="244.423" y2="268.756" class="cls-32"/><line x1="166.852" x2="166.852" y1="244.797" y2="276.383" class="cls-32"/><line x1="180.543" x2="180.543" y1="244.797" y2="265.233" class="cls-32"/><line x1="150.62" x2="155.694" y1="273.055" y2="273.055" class="cls-32"/><line x1="148.607" x2="157.711" y1="270.904" y2="270.904" class="cls-32"/><line x1="146.391" x2="159.923" y1="268.756" y2="268.756" class="cls-32"/><rect width="3.425" height="3.425" x="178.835" y="240.999" class="cls-33"/><rect width="3.423" height="3.425" x="151.448" y="240.999" class="cls-33"/><rect width="3.421" height="3.425" x="165.144" y="240.999" class="cls-33"/><rect width="41.08" height="34.232" x="146.314" y="225.189" class="cls-32"/><text class="cls-35" transform="translate(170.0571 275.7969) scale(1 1.0115)">TXD</text><text class="cls-35" transform="translate(155.3022 286.7734) scale(1 1.0115)">RXD</text><line x1="34.373" x2="34.373" y1="702.961" y2="713.859" class="cls-32"/><line x1="48.076" x2="48.393" y1="702.888" y2="721.299" class="cls-32"/><line x1="61.767" x2="61.767" y1="702.961" y2="710.807" class="cls-32"/><line x1="31.837" x2="36.91" y1="718.161" y2="718.161" class="cls-32"/><line x1="29.823" x2="38.927" y1="716.006" y2="716.006" class="cls-32"/><line x1="27.607" x2="41.139" y1="713.863" y2="713.863" class="cls-32"/><text class="cls-37" transform="translate(41.9556 731.4531) scale(1 1.0056)">5V</text><text class="cls-37" transform="translate(58.3394 720.1377) scale(1 1.0056)">S</text><rect width="3.179" height="3.458" x="60.218" y="699.425" class="cls-38"/><rect width="3.179" height="3.458" x="46.645" y="699.681" class="cls-38"/><rect width="3.179" height="3.458" x="32.888" y="699.636" class="cls-38"/><line x1="78.975" x2="84.049" y1="761.047" y2="761.047" class="cls-32"/><line x1="76.962" x2="86.066" y1="758.887" y2="758.887" class="cls-32"/><line x1="74.75" x2="88.282" y1="756.744" y2="756.744" class="cls-32"/><line x1="81.516" x2="94.054" y1="748.362" y2="748.362" class="cls-32"/><line x1="93.989" x2="85.985" y1="734.615" y2="734.615" class="cls-32"/><line x1="81.512" x2="81.512" y1="748.017" y2="756.744" class="cls-32"/><line x1="81.516" x2="81.516" y1="755.368" y2="748.712" class="cls-32"/><text class="cls-37" transform="translate(77.8394 738.375) scale(1 1.0056)">S</text><rect width="3.179" height="3.458" x="94.059" y="732.811" class="cls-38"/><rect width="3.179" height="3.458" x="93.877" y="746.672" class="cls-38"/><line x1="201.806" x2="206.88" y1="761.043" y2="761.043" class="cls-32"/><line x1="199.793" x2="208.897" y1="758.887" y2="758.887" class="cls-39"/><line x1="197.581" x2="211.113" y1="756.74" y2="756.74" class="cls-32"/><line x1="216.926" x2="208.816" y1="734.615" y2="734.615" class="cls-32"/><line x1="216.926" x2="208.816" y1="720.892" y2="720.892" class="cls-32"/><polyline points="204.347 756.74 204.347 748.164 216.926 748.164" class="cls-32"/><text class="cls-40" transform="translate(184.1865 723.3735) scale(1 1.0605)">FWD</text><text class="cls-41" transform="translate(188.2612 737.3062) scale(1 1.1297)">REV</text><rect width="3.179" height="3.458" x="217.04" y="719.069" class="cls-38"/><rect width="3.179" height="3.458" x="216.718" y="732.782" class="cls-38"/><rect width="3.179" height="3.458" x="216.689" y="746.529" class="cls-38"/><line x1="589.558" x2="594.631" y1="761.197" y2="761.197" class="cls-42"/><line x1="587.549" x2="596.653" y1="759.045" y2="759.045" class="cls-42"/><line x1="585.332" x2="598.865" y1="756.898" y2="756.898" class="cls-42"/><line x1="587.691" x2="579.666" y1="734.416" y2="734.416" class="cls-42"/><line x1="587.687" x2="579.662" y1="720.851" y2="720.851" class="cls-42"/><polyline points="592.099 756.898 592.099 748.375 579.666 748.375" class="cls-42"/><text class="cls-40" transform="translate(588.5664 723.7188) scale(1 1.0605)">S</text><text class="cls-41" transform="translate(589.2227 737.8921) scale(1 1.1297)">5V</text><rect width="3.179" height="3.458" x="576.251" y="719.024" class="cls-38"/><rect width="3.179" height="3.458" x="576.459" y="732.552" class="cls-38"/><rect width="3.179" height="3.458" x="576.412" y="746.496" class="cls-38"/><line x1="753.27" x2="758.343" y1="713.572" y2="713.572" class="cls-32"/><line x1="751.261" x2="760.361" y1="711.425" y2="711.425" class="cls-32"/><line x1="749.049" x2="762.581" y1="709.278" y2="709.278" class="cls-32"/><line x1="728.413" x2="728.413" y1="698.302" y2="706.213" class="cls-32"/><line x1="742.107" x2="742.107" y1="698.363" y2="716.503" class="cls-32"/><line x1="755.798" x2="755.798" y1="698.302" y2="709.647" class="cls-32"/><text class="cls-37" transform="translate(725.1021 715.5562) scale(1 1.0056)">S</text><text class="cls-37" transform="translate(735.9209 726.564) scale(1 1.0056)">6V</text><rect width="3.179" height="3.458" x="726.713" y="695.032" class="cls-38"/><rect width="3.179" height="3.458" x="740.511" y="695.032" class="cls-38"/><rect width="3.179" height="3.458" x="754.152" y="695.032" class="cls-38"/><path d="M610.2948,650.6645a6.8485,6.8485,0,0,0,6.8555-6.8393" class="cls-43"/><path d="M610.2948,636.9738a6.853,6.853,0,0,0-6.8394,6.8516" class="cls-43"/><text class="cls-44" transform="translate(560.0601 663.8687) scale(1 1.0349)"><tspan class="cls-45">A</tspan><tspan x="7.588" y="0">CCELEROMETER</tspan></text><text class="cls-44" transform="translate(605.9756 610.7017) scale(1 1.0349)">Y</text><text class="cls-44" transform="translate(593.4272 638.2969) scale(1 1.0349)">Z</text><text class="cls-44" transform="translate(638.7725 647.7798) scale(1 1.0349)">X</text><line x1="634.311" x2="610.299" y1="644.166" y2="644.166" class="cls-46"/><line x1="610.295" x2="610.295" y1="644.166" y2="617.061" class="cls-46"/><path d="M610.2948,650.6645a6.8454,6.8454,0,1,0-6.8394-6.8393A6.8485,6.8485,0,0,0,610.2948,650.6645Z" class="cls-32"/><polyline points="637.936 644.166 633.211 642.344 634.332 644.166 633.211 645.985" class="cls-12"/><polyline points="637.936 644.166 633.211 642.344 634.332 644.166 633.211 645.985" class="cls-47"/><polyline points="610.295 613.558 608.497 618.291 610.295 616.821 612.105 618.291 610.295 613.558" class="cls-12"/><polyline points="610.295 613.558 608.497 618.291 610.295 616.821 612.105 618.291 610.295 613.558" class="cls-47"/><line x1="633.211" x2="637.936" y1="645.985" y2="644.166" class="cls-48"/><line x1="633.211" x2="637.936" y1="645.985" y2="644.166" class="cls-47"/><path d="M610.2987,645.3716a1.5465,1.5465,0,1,0-1.5424-1.5464,1.552,1.552,0,0,0,1.5424,1.5464" class="cls-12"/><path d="M610.2987,645.3716a1.5465,1.5465,0,1,0-1.5424-1.5464A1.552,1.552,0,0,0,610.2987,645.3716Z" class="cls-32"/><line x1="615.005" x2="656.085" y1="272.215" y2="272.215" class="cls-43"/><line x1="606.274" x2="629.962" y1="248.243" y2="248.243" class="cls-32"/><line x1="606.274" x2="629.962" y1="234.548" y2="234.548" class="cls-32"/><line x1="606.275" x2="629.962" y1="220.857" y2="220.857" class="cls-32"/><line x1="615.009" x2="615.009" y1="169.512" y2="272.215" class="cls-32"/><line x1="606.274" x2="629.962" y1="207.167" y2="207.167" class="cls-32"/><line x1="606.274" x2="629.962" y1="193.48" y2="193.48" class="cls-32"/><line x1="656.089" x2="656.089" y1="272.226" y2="169.524" class="cls-32"/><line x1="656.089" x2="615.009" y1="169.508" y2="169.508" class="cls-43"/><line x1="640.682" x2="664.373" y1="248.251" y2="248.251" class="cls-49"/><line x1="606.274" x2="629.962" y1="248.243" y2="248.243" class="cls-49"/><line x1="606.27" x2="629.958" y1="234.552" y2="234.552" class="cls-49"/><line x1="640.678" x2="664.369" y1="234.552" y2="234.552" class="cls-49"/><line x1="606.27" x2="629.958" y1="220.861" y2="220.861" class="cls-49"/><line x1="640.678" x2="664.369" y1="220.861" y2="220.861" class="cls-49"/><line x1="595.376" x2="595.376" y1="184.64" y2="193.545" class="cls-49"/><line x1="606.27" x2="629.958" y1="207.167" y2="207.167" class="cls-49"/><line x1="640.678" x2="664.369" y1="207.167" y2="207.167" class="cls-49"/><line x1="592.835" x2="597.913" y1="197.847" y2="197.847" class="cls-49"/><line x1="590.83" x2="599.93" y1="195.696" y2="195.696" class="cls-49"/><line x1="588.614" x2="602.142" y1="193.549" y2="193.549" class="cls-49"/><line x1="606.27" x2="629.958" y1="193.472" y2="193.472" class="cls-49"/><line x1="640.678" x2="664.369" y1="193.472" y2="193.472" class="cls-49"/><rect width="41.08" height="102.703" x="615.009" y="169.512" class="cls-49"/><text class="cls-35" transform="translate(666.4819 196.4033) scale(1 1.0115)">CS0</text><text class="cls-35" transform="translate(666.4756 210.0796) scale(1 1.0115)">CS1</text><text class="cls-35" transform="translate(666.4678 224.022) scale(1 1.0115)">5V</text><text class="cls-35" transform="translate(666.46 237.7764) scale(1 1.0115)">CS2</text><text class="cls-35" transform="translate(666.6523 251.4814) scale(1 1.0115)">CS3</text><text class="cls-35" transform="translate(574.4868 211.0049) scale(1 1.0115)">SCLK</text><text class="cls-35" transform="translate(573.1929 224.7017) scale(1 1.0115)">MOSI</text><text class="cls-35" transform="translate(573.1851 238.4561) scale(1 1.0115)">MISO</text><text class="cls-35" transform="translate(580.313 252.647) scale(1 1.0115)">3.3V</text><rect width="3.179" height="3.458" x="628.334" y="191.456" class="cls-38"/><rect width="3.179" height="3.458" x="628.334" y="205.142" class="cls-38"/><rect width="3.179" height="3.458" x="628.334" y="218.833" class="cls-38"/><rect width="3.179" height="3.458" x="628.334" y="232.524" class="cls-38"/><rect width="3.179" height="3.458" x="628.334" y="246.218" class="cls-38"/><rect width="3.179" height="3.458" x="639.053" y="246.227" class="cls-38"/><rect width="3.179" height="3.458" x="639.049" y="232.528" class="cls-38"/><rect width="3.179" height="3.458" x="639.049" y="218.837" class="cls-38"/><rect width="3.179" height="3.458" x="639.049" y="205.142" class="cls-38"/><rect width="3.179" height="3.458" x="639.049" y="191.448" class="cls-38"/><text class="cls-10" transform="translate(621.8931 159.1626)">SPI</text><path d="M630.3807,58.2456a2.7241,2.7241,0,1,1-2.7241-2.7239,2.723,2.723,0,0,1,2.7241,2.7239" class="cls-5"/><path d="M643.0624,58.2456a2.7231,2.7231,0,1,1-2.7222-2.7239,2.7213,2.7213,0,0,1,2.7222,2.7239" class="cls-5"/><path d="M630.13,70.027a2.7241,2.7241,0,1,1-2.7241-2.7239A2.723,2.723,0,0,1,630.13,70.027" class="cls-5"/><path d="M642.812,70.027a2.7231,2.7231,0,1,1-2.7222-2.7239,2.7212,2.7212,0,0,1,2.7222,2.7239" class="cls-5"/><path d="M630.13,81.8085a2.7241,2.7241,0,1,1-2.7241-2.7239,2.723,2.723,0,0,1,2.7241,2.7239" class="cls-5"/><path d="M642.812,81.8085a2.7231,2.7231,0,1,1-2.7222-2.7239,2.7212,2.7212,0,0,1,2.7222,2.7239" class="cls-5"/><path d="M630.13,93.59a2.7241,2.7241,0,1,1-2.7241-2.7239A2.7231,2.7231,0,0,1,630.13,93.59" class="cls-5"/><path d="M642.812,93.59A2.7231,2.7231,0,1,1,640.09,90.866,2.7213,2.7213,0,0,1,642.812,93.59" class="cls-5"/><path d="M630.13,105.3713a2.7241,2.7241,0,1,1-2.7241-2.7238,2.723,2.723,0,0,1,2.7241,2.7238" class="cls-5"/><path d="M642.58,105.3713a2.7231,2.7231,0,1,1-2.7222-2.7238,2.7212,2.7212,0,0,1,2.7222,2.7238" class="cls-5"/></g><g id="Shader"><g class="cls-50"><path d="M53.0859,781.5293a50.0539,50.0539,0,0,1-49.997-49.9976V53.0859A50.0539,50.0539,0,0,1,53.0859,3.0884H743.1943a50.0539,50.0539,0,0,1,49.9971,49.9975V731.5317a50.054,50.054,0,0,1-49.9971,49.9976ZM406.05,662.2256a11.0794,11.0794,0,0,0-11.1816,10.9477v80.9893A11.08,11.08,0,0,0,406.05,765.11H564.1953a11.08,11.08,0,0,0,11.1817-10.9478V673.1733a11.0794,11.0794,0,0,0-11.1817-10.9477Z" class="cls-48"/></g><path d="M743.1941,6A47.0872,47.0872,0,0,1,790.28,53.0859v678.446a47.0858,47.0858,0,0,1-47.0859,47.086H53.0858A47.0858,47.0858,0,0,1,6,731.5319V53.0859A47.0872,47.0872,0,0,1,53.0858,6H743.1941M406.05,768.022H564.1951a13.9774,13.9774,0,0,0,14.0925-13.8592v-80.99a13.9774,13.9774,0,0,0-14.0925-13.8594H406.05a13.9773,13.9773,0,0,0-14.0925,13.8594v80.99A13.9773,13.9773,0,0,0,406.05,768.022M743.1941.1768H53.0858A52.969,52.969,0,0,0,.1768,53.0859v678.446a52.9689,52.9689,0,0,0,52.909,52.9091H743.1941a52.9689,52.9689,0,0,0,52.9089-52.9091V53.0859A52.969,52.969,0,0,0,743.1941.1768ZM406.05,762.1989a8.1645,8.1645,0,0,1-8.2694-8.0361v-80.99a8.1645,8.1645,0,0,1,8.2694-8.0363H564.1951a8.1645,8.1645,0,0,1,8.2694,8.0363v80.99a8.1645,8.1645,0,0,1-8.2694,8.0361Z" class="cls-51"/></g><g id="Edge_Fix_TOP_" data-name="Edge Fix (TOP)"><path d="M-.4346-.99V786.73H797.5832V-.99ZM749.3122,777.8268l-698.0228.5137C25.505,776.276,9.5742,758.1769,6.4125,733.2L7.1764,47.5355c2.03-21.1,20.1644-39.3677,40.9884-41.6014l700.17.1456c21.0427,2.4863,38.8976,20.007,41.9894,40.9878L790.4,731.1689C790.4256,756.4029,774.24,773.57,749.3122,777.8268Z" class="cls-12"/></g></svg>