<svg xmlns="http://www.w3.org/2000/svg" id="Layer_1" data-name="Layer 1" viewBox="0 0 197.534 238.85"><defs><style>.cls-1{fill:#323031}.cls-13,.cls-2{fill:#819356}.cls-3{fill:#f2f2f2}.cls-4{fill:#6e7071}.cls-5{fill:#424242}.cls-6{fill:#5a5a5d}.cls-23,.cls-7{fill:#221f1f}.cls-8{fill:#bc2030}.cls-9{fill:#2f3378}.cls-10{fill:#d6dd28}.cls-11{fill:#37b24a}.cls-12{fill:#079247}.cls-13{font-size:8.7057px}.cls-13,.cls-19,.cls-23{font-family:Verdana}.cls-14{letter-spacing:.001em}.cls-15{letter-spacing:-.0001em}.cls-16{letter-spacing:-.015em}.cls-17{letter-spacing:.0001em}.cls-18,.cls-19{fill:#fff}.cls-19,.cls-23{font-size:5.8038px}.cls-20{letter-spacing:.001em}.cls-21{letter-spacing:-.0001em}.cls-22{letter-spacing:.0009em}.cls-24{letter-spacing:-.0459em}.cls-25{letter-spacing:-.06em}.cls-26{letter-spacing:.0001em}.cls-27{fill:#383d37}.cls-28{fill:#b0a997}.cls-29{opacity:.33}.cls-30{fill:#231f20}.cls-31{fill:#00aeef}</style></defs><path d="M186.8264,103.0691H10.7084a3.4829,3.4829,0,0,1-3.483-3.482V12.3721a3.4838,3.4838,0,0,1,3.483-3.483h176.118a3.4823,3.4823,0,0,1,3.482,3.483v87.215a3.4814,3.4814,0,0,1-3.482,3.482" class="cls-1"/><path d="M180.38,198.8317H14.2531a3.5974,3.5974,0,0,1-3.598-3.5979v-91.245a3.5974,3.5974,0,0,1,3.598-3.5971H180.38a3.5974,3.5974,0,0,1,3.598,3.5971v91.245a3.5974,3.5974,0,0,1-3.598,3.5979" class="cls-1"/><path d="M12.8185,195.3211H183.6614a3.4826,3.4826,0,0,1,3.482,3.482v27.675a3.4822,3.4822,0,0,1-3.482,3.483H12.8185a3.4814,3.4814,0,0,1-3.481-3.483v-27.675a3.4819,3.4819,0,0,1,3.481-3.482" class="cls-1"/><path d="M82.3859,110.7459h36.167V83.6979H82.3859a2.3494,2.3494,0,0,0-2.349,2.349v22.35a2.3494,2.3494,0,0,0,2.349,2.349" class="cls-2"/><path d="M80.2931,64.2645v36.127h27.972V64.2645a2.39,2.39,0,0,0-2.3891-2.389H82.6821a2.3889,2.3889,0,0,0-2.389,2.389" class="cls-2"/><rect width="9.458" height="16.818" x="95.733" y="84.471" class="cls-1"/><rect width="9.629" height="17.368" x="83.73" y="92.211" class="cls-1"/><path d="M92.7961,164.9324h0a4.6511,4.6511,0,0,1-4.651-4.6509V116.4694a.4741.4741,0,0,1,.4729-.474h8.357a.4736.4736,0,0,1,.4731.474V160.28a4.6523,4.6523,0,0,1-4.652,4.652" class="cls-2"/><path d="M106.47,165.1336h0a4.65,4.65,0,0,1-4.65-4.65v-43.813a.4742.4742,0,0,1,.473-.474h8.356a.4742.4742,0,0,1,.473.474v43.811a4.6523,4.6523,0,0,1-4.652,4.652" class="cls-2"/><path d="M137.0129,195.8855l.0069-89.565a1.164,1.164,0,0,1,1.164-1.165h9.209l-.0069,92.361h-8.742a1.63,1.63,0,0,1-1.631-1.631" class="cls-2"/><path d="M62.718,105.7391l-.007,89.566a1.164,1.164,0,0,1-1.165,1.164H52.337l.007-92.361h8.743a1.6314,1.6314,0,0,1,1.631,1.631" class="cls-2"/><path d="M144.093,92.83V47.5109a.825.825,0,0,1,.824-.825h9.318v47.297h-8.989a1.1534,1.1534,0,0,1-1.153-1.153" class="cls-3"/><rect width="25.346" height="13.512" x="108.817" y="45.172" class="cls-2"/><rect width="15.348" height="9.712" x="113.158" y="58.684" class="cls-2"/><path d="M64.6193,95.0232H59.05a1.9636,1.9636,0,0,1-1.964-1.964V24.3082a1.9636,1.9636,0,0,1,1.964-1.964h5.569a1.9642,1.9642,0,0,1,1.964,1.964v68.751a1.9642,1.9642,0,0,1-1.964,1.964" class="cls-2"/><path d="M60.1242,95.0232H46.1992a1.9077,1.9077,0,0,1-1.908-1.908V72.2432a1.9077,1.9077,0,0,1,1.908-1.908h13.925a1.9077,1.9077,0,0,1,1.908,1.908v20.872a1.9077,1.9077,0,0,1-1.908,1.908" class="cls-2"/><rect width="25.286" height="25.589" x="108.818" y="18.102" class="cls-4"/><rect width="25.589" height="92.201" x="26.748" y="104.257" class="cls-5"/><rect width="25.589" height="92.201" x="147.396" y="105.241" class="cls-4"/><rect width="25.589" height="47.529" x="155.504" y="46.571" class="cls-4"/><rect width="25.59" height="47.529" x="17.408" y="46.571" class="cls-5"/><rect width="18.767" height="10.703" x="19.446" y="48.118" class="cls-6"/><rect width="12.041" height="6.355" x="23.663" y="50.126" class="cls-3"/><path d="M29.2658,53.4694a4.223,4.223,0,1,1-4.223-4.2229,4.2234,4.2234,0,0,1,4.223,4.2229" class="cls-7"/><rect width="18.767" height="10.703" x="19.446" y="58.822" class="cls-6"/><rect width="12.041" height="6.355" x="23.663" y="60.829" class="cls-3"/><path d="M29.2658,64.1727a4.223,4.223,0,1,1-4.223-4.223,4.2234,4.2234,0,0,1,4.223,4.223" class="cls-7"/><rect width="18.767" height="10.704" x="19.446" y="69.525" class="cls-6"/><rect width="12.041" height="6.355" x="23.663" y="71.532" class="cls-3"/><path d="M29.2658,74.8758a4.223,4.223,0,1,1-4.223-4.223,4.2236,4.2236,0,0,1,4.223,4.223" class="cls-7"/><rect width="18.767" height="10.703" x="19.446" y="80.228" class="cls-6"/><rect width="12.041" height="6.354" x="23.663" y="82.236" class="cls-3"/><path d="M29.2658,85.58a4.223,4.223,0,1,1-4.223-4.223,4.2234,4.2234,0,0,1,4.223,4.223" class="cls-7"/><rect width="18.767" height="10.703" x="161.595" y="81.358" class="cls-6"/><rect width="12.041" height="6.355" x="164.104" y="83.698" class="cls-3"/><path d="M170.5422,86.7088a4.2225,4.2225,0,1,1,4.2229,4.223,4.2227,4.2227,0,0,1-4.2229-4.223" class="cls-7"/><rect width="18.767" height="10.704" x="161.595" y="70.654" class="cls-6"/><rect width="12.041" height="6.355" x="164.104" y="72.995" class="cls-3"/><path d="M170.5422,76.0047a4.2225,4.2225,0,1,1,4.2229,4.224,4.2234,4.2234,0,0,1-4.2229-4.224" class="cls-7"/><rect width="18.767" height="10.703" x="161.595" y="59.95" class="cls-6"/><rect width="12.041" height="6.354" x="164.104" y="62.292" class="cls-3"/><path d="M170.5422,65.3016a4.2225,4.2225,0,1,1,4.2229,4.223,4.2234,4.2234,0,0,1-4.2229-4.223" class="cls-7"/><rect width="18.767" height="10.703" x="161.595" y="49.246" class="cls-6"/><rect width="12.041" height="6.355" x="164.104" y="51.587" class="cls-3"/><path d="M170.5422,54.5983a4.2225,4.2225,0,1,1,4.2229,4.2231,4.2233,4.2233,0,0,1-4.2229-4.2231" class="cls-7"/><rect width="10.704" height="18.767" x="121.46" y="19.233" class="cls-6"/><rect width="6.355" height="12.041" x="123.802" y="23.449" class="cls-3"/><path d="M126.8117,29.0516a4.223,4.223,0,1,1,4.224-4.223,4.2234,4.2234,0,0,1-4.224,4.223" class="cls-7"/><rect width="10.703" height="18.767" x="110.757" y="19.233" class="cls-6"/><rect width="6.354" height="12.041" x="113.099" y="23.449" class="cls-3"/><path d="M116.1086,29.0516a4.223,4.223,0,1,1,4.2229-4.223,4.2234,4.2234,0,0,1-4.2229,4.223" class="cls-7"/><rect width="18.767" height="10.703" x="28.829" y="108.451" class="cls-6"/><rect width="12.042" height="6.354" x="33.046" y="110.457" class="cls-3"/><path d="M38.6486,113.8016a4.2225,4.2225,0,1,1-4.223-4.223,4.2234,4.2234,0,0,1,4.223,4.223" class="cls-7"/><rect width="18.767" height="10.703" x="28.829" y="119.154" class="cls-6"/><rect width="12.042" height="6.355" x="33.046" y="121.161" class="cls-3"/><path d="M38.6486,124.5047a4.2225,4.2225,0,1,1-4.223-4.223,4.2234,4.2234,0,0,1,4.223,4.223" class="cls-7"/><rect width="18.767" height="10.703" x="28.829" y="129.857" class="cls-6"/><rect width="12.042" height="6.355" x="33.046" y="131.864" class="cls-3"/><path d="M38.6486,135.2078a4.2225,4.2225,0,1,1-4.223-4.223,4.2234,4.2234,0,0,1,4.223,4.223" class="cls-7"/><rect width="18.767" height="10.704" x="28.829" y="140.56" class="cls-6"/><rect width="12.042" height="6.355" x="33.046" y="142.567" class="cls-3"/><path d="M38.6486,145.9119a4.2225,4.2225,0,1,1-4.223-4.224,4.2234,4.2234,0,0,1,4.223,4.224" class="cls-7"/><rect width="18.767" height="10.703" x="28.829" y="151.34" class="cls-6"/><rect width="12.042" height="6.355" x="33.046" y="153.348" class="cls-3"/><path d="M38.6486,156.6922a4.2225,4.2225,0,1,1-4.223-4.223,4.2234,4.2234,0,0,1,4.223,4.223" class="cls-7"/><rect width="18.767" height="10.703" x="28.829" y="162.043" class="cls-6"/><rect width="12.042" height="6.355" x="33.046" y="164.051" class="cls-3"/><path d="M38.6486,167.3953a4.2225,4.2225,0,1,1-4.223-4.223,4.2234,4.2234,0,0,1,4.223,4.223" class="cls-7"/><rect width="18.767" height="10.704" x="28.829" y="172.747" class="cls-6"/><rect width="12.042" height="6.355" x="33.046" y="174.755" class="cls-3"/><path d="M38.6486,178.0983a4.2225,4.2225,0,1,1-4.223-4.2229,4.2236,4.2236,0,0,1,4.223,4.2229" class="cls-7"/><rect width="18.767" height="10.703" x="28.829" y="183.452" class="cls-6"/><rect width="12.042" height="6.354" x="33.046" y="185.459" class="cls-3"/><path d="M38.6486,188.8025a4.2225,4.2225,0,1,1-4.223-4.223,4.2234,4.2234,0,0,1,4.223,4.223" class="cls-7"/><rect width="18.767" height="10.703" x="152.995" y="184.618" class="cls-6"/><rect width="12.041" height="6.354" x="155.504" y="186.96" class="cls-3"/><path d="M161.9426,189.9694a4.2225,4.2225,0,1,1,4.223,4.2231,4.2234,4.2234,0,0,1-4.223-4.2231" class="cls-7"/><rect width="18.767" height="10.703" x="152.995" y="173.915" class="cls-6"/><rect width="12.041" height="6.354" x="155.504" y="176.257" class="cls-3"/><path d="M161.9426,179.2664a4.2225,4.2225,0,1,1,4.223,4.223,4.2234,4.2234,0,0,1-4.223-4.223" class="cls-7"/><rect width="18.767" height="10.703" x="152.995" y="163.212" class="cls-6"/><rect width="12.041" height="6.355" x="155.504" y="165.553" class="cls-3"/><path d="M161.9426,168.5633a4.2225,4.2225,0,1,1,4.223,4.223,4.2234,4.2234,0,0,1-4.223-4.223" class="cls-7"/><rect width="18.767" height="10.703" x="152.995" y="152.509" class="cls-6"/><rect width="12.041" height="6.355" x="155.504" y="154.85" class="cls-3"/><path d="M161.9426,157.86a4.2225,4.2225,0,1,1,4.223,4.223,4.2236,4.2236,0,0,1-4.223-4.223" class="cls-7"/><rect width="18.767" height="10.703" x="152.995" y="141.728" class="cls-6"/><rect width="12.041" height="6.354" x="155.504" y="144.07" class="cls-3"/><path d="M161.9426,147.0789a4.2225,4.2225,0,1,1,4.223,4.223,4.2234,4.2234,0,0,1-4.223-4.223" class="cls-7"/><rect width="18.767" height="10.703" x="152.995" y="131.025" class="cls-6"/><rect width="12.041" height="6.355" x="155.504" y="133.365" class="cls-3"/><path d="M161.9426,136.3758a4.2225,4.2225,0,1,1,4.223,4.223,4.2234,4.2234,0,0,1-4.223-4.223" class="cls-7"/><rect width="18.767" height="10.703" x="152.995" y="120.321" class="cls-6"/><rect width="12.041" height="6.355" x="155.504" y="122.662" class="cls-3"/><path d="M161.9426,125.6727a4.2225,4.2225,0,1,1,4.223,4.223,4.2234,4.2234,0,0,1-4.223-4.223" class="cls-7"/><rect width="8.149" height="10.389" x="53.883" y="108.765" class="cls-8"/><rect width="18.767" height="10.704" x="152.995" y="109.617" class="cls-6"/><rect width="12.041" height="6.355" x="155.504" y="111.959" class="cls-3"/><path d="M161.9426,114.9686a4.2225,4.2225,0,1,1,4.223,4.224,4.2234,4.2234,0,0,1-4.223-4.224" class="cls-7"/><rect width="8.149" height="10.389" x="53.883" y="119.143" class="cls-7"/><rect width="8.149" height="10.388" x="53.883" y="129.532" class="cls-8"/><rect width="8.149" height="10.389" x="53.883" y="139.91" class="cls-7"/><rect width="8.149" height="10.389" x="53.883" y="150.289" class="cls-8"/><rect width="8.149" height="10.389" x="53.883" y="160.668" class="cls-7"/><rect width="8.149" height="10.388" x="53.883" y="171.056" class="cls-8"/><rect width="8.149" height="10.389" x="53.883" y="181.434" class="cls-7"/><rect width="8.149" height="11.94" x="45.967" y="70.788" class="cls-7"/><rect width="8.149" height="10.388" x="137.554" y="182.405" class="cls-8"/><rect width="8.149" height="10.389" x="137.554" y="172.026" class="cls-7"/><rect width="8.149" height="10.389" x="137.554" y="161.637" class="cls-8"/><rect width="8.149" height="10.388" x="137.554" y="151.259" class="cls-7"/><rect width="8.149" height="10.389" x="137.554" y="140.88" class="cls-8"/><rect width="8.149" height="10.389" x="137.554" y="130.501" class="cls-7"/><rect width="8.149" height="10.388" x="137.554" y="120.113" class="cls-8"/><rect width="8.149" height="10.389" x="137.554" y="109.735" class="cls-7"/><rect width="8.149" height="11.951" x="45.967" y="82.62" class="cls-8"/><path d="M53.9152,68.6463h-6.399a1.5483,1.5483,0,0,1-1.549-1.549V24.9983a1.5483,1.5483,0,0,1,1.549-1.549h6.399a1.549,1.549,0,0,1,1.549,1.549v42.099a1.549,1.549,0,0,1-1.549,1.549" class="cls-9"/><rect width="11.94" height="12.521" x="121.412" y="45.172" class="cls-7"/><rect width="11.951" height="12.521" x="109.568" y="45.172" class="cls-8"/><rect width="8.149" height="11.077" x="145.787" y="47.923" class="cls-10"/><rect width="8.149" height="11.077" x="145.787" y="58.991" class="cls-11"/><rect width="8.149" height="11.077" x="145.787" y="70.067" class="cls-10"/><rect width="8.149" height="11.077" x="145.787" y="81.134" class="cls-11"/><path d="M136.0471,81.0506V59.7676a.7791.7791,0,0,1,.778-.779h7.268v23.152h-6.956a1.09,1.09,0,0,1-1.09-1.09" class="cls-3"/><path d="M72.3713,121.16H62.7172v-8.462h9.6541a2.7854,2.7854,0,0,1,2.785,2.786v2.89a2.7854,2.7854,0,0,1-2.785,2.786" class="cls-2"/><path d="M72.3713,143.6619H62.7172V135.2h9.6541a2.7854,2.7854,0,0,1,2.785,2.786v2.89a2.7854,2.7854,0,0,1-2.785,2.786" class="cls-2"/><path d="M72.3713,166.8563H62.7172v-8.462h9.6541a2.7854,2.7854,0,0,1,2.785,2.786v2.89a2.7854,2.7854,0,0,1-2.785,2.786" class="cls-2"/><path d="M72.3713,189.3582H62.7172v-8.462h9.6541a2.7854,2.7854,0,0,1,2.785,2.786v2.89a2.7861,2.7861,0,0,1-2.785,2.786" class="cls-2"/><path d="M127.9,181.2088h9.654v8.462H127.9a2.786,2.786,0,0,1-2.785-2.786v-2.891a2.7851,2.7851,0,0,1,2.785-2.785" class="cls-2"/><path d="M127.9,158.7067h9.654v8.4621H127.9a2.7854,2.7854,0,0,1-2.785-2.786v-2.89a2.7854,2.7854,0,0,1,2.785-2.7861" class="cls-2"/><path d="M127.9,135.5125h9.654v8.462H127.9a2.7854,2.7854,0,0,1-2.785-2.786v-2.89a2.7854,2.7854,0,0,1,2.785-2.786" class="cls-2"/><path d="M127.9,113.0105h9.654v8.462H127.9a2.7854,2.7854,0,0,1-2.785-2.786v-2.89a2.7854,2.7854,0,0,1,2.785-2.786" class="cls-2"/><path d="M117.5158,131.93h-6.448a.4346.4346,0,0,1-.435-.435V116.4965a.4342.4342,0,0,1,.435-.433h6.448a.4342.4342,0,0,1,.435.433v14.9989a.4346.4346,0,0,1-.435.435" class="cls-12"/><path d="M88.1447,131.8631h-6.448a.4345.4345,0,0,1-.435-.434V116.43a.4345.4345,0,0,1,.435-.434h6.448a.4345.4345,0,0,1,.435.434v14.999a.4345.4345,0,0,1-.435.434" class="cls-12"/><rect width="4.881" height="12.53" x="86.104" y="94.629" class="cls-2"/><rect width="3.957" height="12.471" x="98.484" y="86.876" class="cls-2"/><path d="M129.6974,110.7459h-11.145V83.6979h11.145a1.3377,1.3377,0,0,1,1.3379,1.337v24.374a1.3377,1.3377,0,0,1-1.3379,1.337" class="cls-7"/><text class="cls-13" transform="translate(39.3158 213.6699)">Pn<tspan x="10.759" y="0" class="cls-14">e</tspan><tspan x="15.954" y="0" class="cls-15">umati</tspan><tspan x="40.978" y="0" class="cls-14">c</tspan><tspan x="45.523" y="0">s </tspan><tspan x="53.119" y="0" class="cls-14">Co</tspan><tspan x="64.499" y="0">nt</tspan><tspan x="73.438" y="0" class="cls-16">r</tspan><tspan x="77.023" y="0" class="cls-14">o</tspan><tspan x="82.315" y="0" class="cls-15">l M</tspan><tspan x="95.102" y="0" class="cls-14">o</tspan><tspan x="100.394" y="0" class="cls-17">dule</tspan></text><path d="M168.3625,24.0886a6.4344,6.4344,0,1,1,7.042,5.763,6.4336,6.4336,0,0,1-7.042-5.763" class="cls-18"/><path d="M14.4172,22.9832a6.4348,6.4348,0,1,1,7.042,5.764,6.4362,6.4362,0,0,1-7.042-5.764" class="cls-18"/><path d="M14.4172,216.619a6.4348,6.4348,0,1,1,7.042,5.763,6.4351,6.4351,0,0,1-7.042-5.763" class="cls-18"/><path d="M170.5744,216.619a6.4344,6.4344,0,1,1,7.042,5.763,6.4337,6.4337,0,0,1-7.042-5.763" class="cls-18"/><text class="cls-19" transform="translate(48.8513 24.8681) rotate(90)"><tspan class="cls-20">P</tspan><tspan x="3.506" y="0" class="cls-21">R</tspan><tspan x="7.541" y="0" class="cls-20">E</tspan><tspan x="11.217" y="0">SS</tspan><tspan x="19.152" y="0" class="cls-22">U</tspan><tspan x="23.405" y="0">R</tspan><tspan x="27.441" y="0" class="cls-20">E</tspan><tspan x="31.117" y="0" class="cls-21" xml:space="preserve"> SW</tspan></text><text class="cls-23" transform="translate(99.2742 67.9765) rotate(90)"><tspan class="cls-22">12</tspan><tspan x="7.391" y="0">V</tspan></text><text class="cls-23" transform="translate(59.5066 28.5211) rotate(90)">COM<tspan x="13.512" y="0" class="cls-22">P</tspan><tspan x="17.018" y="0">R</tspan><tspan x="21.053" y="0" class="cls-22">ES</tspan><tspan x="28.696" y="0">SOR</tspan><tspan x="41.267" y="0" class="cls-20"> </tspan><tspan x="43.313" y="0">O</tspan><tspan x="47.882" y="0" class="cls-22">UT</tspan></text><text class="cls-23" transform="translate(86.9636 67.9763) rotate(90)"><tspan class="cls-22">24</tspan><tspan x="7.391" y="0">V</tspan></text><text class="cls-23" transform="translate(113.1101 88.7658) rotate(90)">VSOL</text><text class="cls-23" transform="translate(91.6189 131.7602) rotate(90)">COMP</text><text class="cls-23" transform="translate(104.0212 128.8756) rotate(90)">S<tspan x="3.967" y="0" class="cls-24">T</tspan><tspan x="7.277" y="0" class="cls-25">A</tspan><tspan x="10.896" y="0">T</tspan><tspan x="14.472" y="0" class="cls-20">U</tspan><tspan x="18.726" y="0" class="cls-26">S</tspan></text><text class="cls-23" transform="translate(124.8767 61.1008) rotate(180)">V<tspan x="3.967" y="0" class="cls-20">i</tspan><tspan x="5.566" y="0">n</tspan></text><text class="cls-23" transform="translate(142.8157 77.4192) rotate(-90)">CAN</text><text class="cls-23" transform="translate(133.843 118.8488) rotate(-90)">7</text><text class="cls-23" transform="translate(133.8434 141.5305) rotate(-90)">6</text><text class="cls-23" transform="translate(133.9361 164.6701) rotate(-90)">5</text><text class="cls-23" transform="translate(133.9354 187.3459) rotate(-90)">4</text><text class="cls-23" transform="translate(66.7869 183.4111) rotate(90)">3</text><text class="cls-23" transform="translate(66.7869 160.7356) rotate(90)">2</text><text class="cls-23" transform="translate(66.6941 137.5959) rotate(90)">1</text><text class="cls-23" transform="translate(66.6941 114.9204) rotate(90)">0</text><rect width="6.107" height="6.107" x="121.74" y="87.184" class="cls-27" rx=".455"/><rect width="6.107" height="6.107" x="121.74" y="93.716" class="cls-27" rx=".455"/><rect width="6.107" height="6.107" x="121.74" y="100.248" class="cls-27" rx=".455"/><rect width="2.831" height="2.831" x="123.378" y="88.822" class="cls-28"/><rect width="2.831" height="2.831" x="123.378" y="101.886" class="cls-28"/><rect width="2.831" height="2.831" x="123.378" y="95.354" class="cls-28"/><rect width="1.219" height="12.047" x="122.189" y="87.557" class="cls-28"/><g class="cls-29"><path d="M-52.7776,300.9035a25.0715,25.0715,0,0,1-25.043-25.0429V-63.3621a25.0716,25.0716,0,0,1,25.043-25.043H292.2771a25.0716,25.0716,0,0,1,25.043,25.043V275.8606a25.0715,25.0715,0,0,1-25.043,25.0429ZM81.4114,57.7463a5.7062,5.7062,0,0,0-5.7,5.7v45.2817a5.7058,5.7058,0,0,0,5.7,5.7h48.69a5.7062,5.7062,0,0,0,5.7-5.7V63.4465a5.7067,5.7067,0,0,0-5.7-5.7Z" class="cls-30"/></g><path d="M292.2767-86.9052A23.5435,23.5435,0,0,1,315.82-63.3622v339.223a23.5429,23.5429,0,0,1-23.5429,23.543H-52.7774a23.5429,23.5429,0,0,1-23.543-23.543V-63.3622a23.5436,23.5436,0,0,1,23.543-23.543H292.2767M81.4115,115.9281h48.69a7.2,7.2,0,0,0,7.2-7.2V63.4466a7.2,7.2,0,0,0-7.2-7.2h-48.69a7.2,7.2,0,0,0-7.2,7.2v45.2815a7.2,7.2,0,0,0,7.2,7.2M292.2767-89.9052H-52.7774A26.5731,26.5731,0,0,0-79.32-63.3622v339.223a26.5731,26.5731,0,0,0,26.543,26.543H292.2767a26.5731,26.5731,0,0,0,26.5429-26.543V-63.3622a26.5731,26.5731,0,0,0-26.5429-26.543ZM81.4115,112.9281a4.2047,4.2047,0,0,1-4.2-4.2V63.4466a4.2047,4.2047,0,0,1,4.2-4.2h48.69a4.2047,4.2047,0,0,1,4.2,4.2v45.2815a4.2047,4.2047,0,0,1-4.2,4.2Z" class="cls-31"/><path d="M-79.3344-89.8536l-.7631,392.8612,398.324-.22L318.99-90.9375ZM315.82,275.8608a23.5429,23.5429,0,0,1-23.5429,23.543H-52.7774a23.5429,23.5429,0,0,1-23.543-23.543V-63.3622a23.5436,23.5436,0,0,1,23.543-23.543H292.2767A23.5435,23.5435,0,0,1,315.82-63.3622Z" class="cls-18"/><path d="M-4.019-4.2039v247.306h204.81V-4.2039ZM190.3084,99.5871a3.4814,3.4814,0,0,1-3.482,3.482h-2.9819a3.5625,3.5625,0,0,1,.1336.92v91.245c0,.04-.0106.0779-.0119.118a3.4712,3.4712,0,0,1,3.1772,3.4513v27.675a3.4822,3.4822,0,0,1-3.482,3.483H12.8185a3.4814,3.4814,0,0,1-3.481-3.483v-27.675a3.4671,3.4671,0,0,1,1.4094-2.7838,3.5925,3.5925,0,0,1-.0918-.7855v-91.245a3.5668,3.5668,0,0,1,.1335-.92h-.08a3.4829,3.4829,0,0,1-3.483-3.482V12.3721a3.4838,3.4838,0,0,1,3.483-3.483h176.118a3.4823,3.4823,0,0,1,3.482,3.483Z" class="cls-18"/></svg>